<svg width="300" height="300" viewBox="0 0 300 300" fill="none" xmlns="http://www.w3.org/2000/svg">
<path d="M116.932 114.171C138.05 114.171 155.17 97.0512 155.17 75.9329C155.17 54.8146 138.05 37.6948 116.932 37.6948C95.8133 37.6948 78.6935 54.8146 78.6935 75.9329C78.6935 97.0512 95.8133 114.171 116.932 114.171Z" fill="#F953B2"/>
<path d="M123.477 111.799C144.595 111.799 161.715 94.6789 161.715 73.5606C161.715 52.4423 144.595 35.3225 123.477 35.3225C102.359 35.3225 85.2388 52.4423 85.2388 73.5606C85.2388 94.6789 102.359 111.799 123.477 111.799Z" fill="#F4D13B"/>
<path d="M123.477 106.014C141.4 106.014 155.93 91.4841 155.93 73.5606C155.93 55.6372 141.4 41.1073 123.477 41.1073C105.553 41.1073 91.0236 55.6372 91.0236 73.5606C91.0236 91.4841 105.553 106.014 123.477 106.014Z" fill="white"/>
<path d="M131.86 59.2776C129.354 52.3574 120.9 50.009 114.574 53.0828C111.266 54.6901 108.728 57.3931 107.598 60.9182C106.581 64.088 107.14 67.7359 109.122 70.4254C111.117 73.1324 114.309 74.8406 117.647 75.1345C119.579 75.3046 121.477 75.1136 123.33 74.5207C123.871 74.3477 124.404 74.1624 124.951 74.0082C125.71 73.7945 124.663 74.0439 125.122 73.9664C125.323 73.9324 125.525 73.9017 125.728 73.8779C126.127 73.8311 126.528 73.8056 126.93 73.8023C126.899 73.8026 127.676 73.8181 127.306 73.8C126.941 73.782 127.698 73.8414 127.672 73.8382C128.016 73.8809 128.358 73.9402 128.697 74.0164C128.845 74.0497 129.758 74.3288 129.27 74.1536C129.691 74.3047 130.102 74.4842 130.498 74.692C130.655 74.7746 131.311 75.1934 130.888 74.8988C131.187 75.1072 131.475 75.33 131.748 75.5724C131.856 75.6687 131.957 75.7746 132.066 75.87C132.582 76.3224 131.788 75.4677 132.204 76.0136C132.426 76.3037 132.647 76.5898 132.84 76.9008C132.842 76.9035 133.198 77.5285 133.006 77.1684C132.814 76.8088 133.129 77.4596 133.131 77.4638C133.26 77.7781 133.353 78.0995 133.455 78.423C133.501 78.5687 133.566 79.0554 133.484 78.5016C133.506 78.6469 133.529 78.7913 133.546 78.9372C133.595 79.3707 133.609 79.8093 133.588 80.245C133.614 79.7105 133.543 80.4727 133.51 80.6565C133.446 81.0156 133.357 81.3689 133.251 81.7177C133.406 81.2077 133.052 82.1709 132.98 82.3233C132.82 82.6603 132.64 82.9878 132.442 83.3042C132.705 82.8826 132.435 83.3065 132.357 83.4056C132.19 83.6152 132.031 83.8289 131.855 84.0314C131.601 84.3236 131.332 84.6054 131.045 84.8659C131.405 84.5386 131.009 84.8793 130.914 84.9544C130.726 85.1032 130.534 85.2455 130.337 85.3817C129.969 85.6359 129.586 85.8691 129.191 86.0771C129.599 85.8625 129.219 86.059 129.139 86.0913C128.864 86.2013 128.596 86.3211 128.317 86.4211C127.88 86.5779 127.434 86.7082 126.982 86.8129C127.428 86.7098 127.021 86.8056 126.933 86.8173C126.691 86.8494 126.45 86.8873 126.207 86.9105C125.728 86.9561 125.251 86.9651 124.771 86.9541C125.223 86.9645 124.83 86.9618 124.736 86.9504C124.505 86.9222 124.274 86.8963 124.045 86.8578C123.592 86.7818 123.147 86.6743 122.708 86.5415C122.811 86.5727 123.139 86.7197 122.695 86.5306C122.489 86.4429 122.28 86.3628 122.077 86.2681C121.909 86.1897 121.744 86.1061 121.581 86.0181C121.477 85.9617 120.821 85.538 121.288 85.8639C120.989 85.6555 120.701 85.4327 120.429 85.1903C120.293 85.0694 120.165 84.9415 120.034 84.8153C119.904 84.6806 119.93 84.7139 120.113 84.9154C120.041 84.8335 119.971 84.7497 119.904 84.6641C119.662 84.3403 119.439 84.0148 119.223 83.6736C118.962 83.2591 119.181 83.6094 119.226 83.7069C119.099 83.4355 118.989 83.1592 118.886 82.8774C118.426 81.6056 116.907 80.7586 115.595 81.2802C114.306 81.7926 113.504 83.2085 113.998 84.5718C116.504 91.492 124.958 93.8404 131.284 90.7666C134.592 89.1593 137.13 86.4562 138.26 82.9311C139.277 79.7614 138.718 76.1135 136.736 73.4239C134.74 70.717 131.549 69.0088 128.211 68.7148C126.279 68.5447 124.381 68.7358 122.528 69.3286C121.987 69.5016 121.454 69.687 120.907 69.8411C120.148 70.0549 121.195 69.8055 120.736 69.883C120.535 69.917 120.333 69.9477 120.13 69.9715C119.731 70.0183 119.329 70.0437 118.928 70.0471C118.959 70.0468 118.182 70.0312 118.552 70.0494C118.917 70.0673 118.16 70.008 118.186 70.0111C117.842 69.9684 117.5 69.9092 117.161 69.8329C117.013 69.7996 116.1 69.5205 116.588 69.6958C116.167 69.5447 115.756 69.3652 115.36 69.1574C115.203 69.0748 114.547 68.656 114.97 68.9506C114.671 68.7421 114.382 68.5194 114.11 68.277C114.002 68.1806 113.901 68.0748 113.792 67.9793C113.276 67.5269 114.07 68.3816 113.654 67.8358C113.432 67.5457 113.211 67.2596 113.018 66.9486C113.016 66.9459 112.66 66.3208 112.852 66.681C113.044 67.0405 112.729 66.3898 112.727 66.3855C112.598 66.0713 112.505 65.7498 112.403 65.4264C112.357 65.2807 112.292 64.794 112.374 65.3477C112.352 65.2024 112.329 65.0581 112.312 64.9121C112.263 64.4787 112.248 64.0401 112.27 63.6043C112.244 64.1389 112.315 63.3767 112.348 63.1929C112.412 62.8338 112.501 62.4805 112.607 62.1316C112.452 62.6416 112.806 61.6785 112.878 61.526C113.038 61.189 113.218 60.8615 113.416 60.5452C113.153 60.9667 113.423 60.5428 113.501 60.4438C113.668 60.2341 113.827 60.0205 114.003 59.818C114.257 59.5258 114.526 59.244 114.813 58.9835C114.453 59.3108 114.849 58.97 114.944 58.8949C115.131 58.7462 115.324 58.6039 115.521 58.4677C115.889 58.2135 116.271 57.9802 116.667 57.7722C116.259 57.9868 116.639 57.7903 116.719 57.7581C116.994 57.6481 117.262 57.5282 117.541 57.4282C117.978 57.2714 118.423 57.1411 118.876 57.0364C118.43 57.1396 118.836 57.0438 118.925 57.0321C119.167 56.9999 119.408 56.962 119.651 56.9388C120.13 56.8932 120.607 56.8842 121.087 56.8953C120.635 56.8849 121.028 56.8876 121.121 56.8989C121.353 56.9272 121.583 56.953 121.813 56.9916C122.266 57.0675 122.711 57.175 123.15 57.3079C123.047 57.2767 122.719 57.1296 123.163 57.3187C123.369 57.4065 123.578 57.4865 123.781 57.5813C123.949 57.6596 124.114 57.7432 124.277 57.8312C124.381 57.8877 125.037 58.3113 124.569 57.9854C124.868 58.1938 125.157 58.4166 125.429 58.659C125.565 58.7799 125.693 58.9079 125.824 59.0341C125.954 59.1688 125.928 59.1354 125.745 58.934C125.817 59.0159 125.887 59.0997 125.954 59.1853C126.196 59.5091 126.419 59.8345 126.634 60.1758C126.896 60.5902 126.677 60.2399 126.631 60.1424C126.759 60.4138 126.869 60.6901 126.971 60.972C127.432 62.2438 128.951 63.0908 130.263 62.5691C131.552 62.0568 132.354 60.6409 131.86 59.2776Z" fill="#F953B2"/>
<path d="M119.453 54.0262C118.929 52.5162 118.406 51.0061 117.882 49.4961C117.439 48.2175 115.89 47.3822 114.591 47.8989C113.287 48.4172 112.519 49.8201 112.994 51.1905C113.517 52.7005 114.04 54.2106 114.564 55.7206C115.007 56.9992 116.556 57.8345 117.855 57.3178C119.159 56.7995 119.928 55.3966 119.453 54.0262Z" fill="#F953B2"/>
<path d="M133.075 93.3318C132.552 91.8218 132.029 90.3117 131.505 88.8017C131.062 87.5231 129.513 86.6879 128.214 87.2045C126.91 87.7229 126.142 89.1257 126.617 90.4961C127.14 92.0061 127.663 93.5162 128.187 95.0262C128.63 96.3048 130.179 97.1401 131.478 96.6234C132.782 96.1051 133.55 94.7022 133.075 93.3318Z" fill="#F953B2"/>
<path d="M240.579 40.1248C240.58 40.1258 240.615 40.2142 240.597 40.1636C240.579 40.1121 240.608 40.2054 240.608 40.2052C240.609 40.2089 240.628 40.3025 240.62 40.2427C240.612 40.183 240.618 40.2779 240.618 40.2818C240.618 40.2646 240.645 40.196 240.62 40.2522C240.613 40.2681 240.571 40.3634 240.606 40.3014C240.639 40.2412 240.5 40.4185 240.587 40.3289C240.55 40.3672 240.514 40.4051 240.475 40.4413C240.398 40.513 240.517 40.4204 240.423 40.4788C240.319 40.5432 240.215 40.6021 240.104 40.6531C240.042 40.6814 240.105 40.6532 240.115 40.6489C240.081 40.6629 240.046 40.6762 240.01 40.6892C239.957 40.7087 239.904 40.7272 239.85 40.7451C239.733 40.784 239.615 40.8196 239.498 40.8557C239.231 40.9376 238.97 41.028 238.714 41.1409C238.183 41.3756 237.685 41.8483 237.722 42.4757C237.763 43.1813 238.398 43.496 238.99 43.6913C239.624 43.9003 240.291 43.9221 240.945 43.817C241.25 43.768 241.447 43.3727 241.356 43.0933C241.249 42.7628 240.959 42.63 240.633 42.6824C240.561 42.6936 240.553 42.6951 240.609 42.6869C240.569 42.6915 240.529 42.6954 240.489 42.6985C240.408 42.7048 240.328 42.7082 240.247 42.7087C240.167 42.7093 240.086 42.707 240.005 42.7018C239.984 42.7004 239.76 42.6756 239.861 42.6903C239.722 42.6699 239.583 42.6392 239.447 42.601C239.37 42.5792 239.293 42.5546 239.217 42.5273C239.179 42.5137 239.141 42.4994 239.104 42.4844C239.152 42.5048 239.143 42.5005 239.078 42.4716C239.021 42.4436 238.963 42.4168 238.908 42.3842C238.885 42.3713 238.863 42.3573 238.842 42.3422C238.892 42.3817 238.893 42.3787 238.844 42.3332C238.873 42.3734 238.91 42.5356 238.897 42.4253C238.882 42.4972 238.882 42.499 238.897 42.4307C238.918 42.366 238.918 42.3653 238.896 42.4286C238.931 42.3747 238.931 42.3705 238.897 42.416C238.921 42.3884 238.947 42.3623 238.974 42.3377C238.902 42.407 239.019 42.3069 239.034 42.2977C239.098 42.258 239.165 42.2264 239.231 42.1919C239.295 42.1635 239.3 42.1605 239.246 42.1829C239.281 42.1687 239.316 42.1549 239.351 42.1417C239.907 41.9332 240.515 41.8279 241.017 41.4947C241.325 41.2908 241.576 41.0317 241.712 40.685C241.867 40.2896 241.77 39.9003 241.595 39.531C241.464 39.2519 241.041 39.1582 240.79 39.3199C240.503 39.5049 240.438 39.8263 240.579 40.1248Z" fill="black"/>
<path d="M142.283 99.8771C144.693 98.7482 147.103 97.6192 149.513 96.4903C149.858 96.3286 150.203 96.167 150.548 96.0053C150.98 95.8031 151.09 95.1826 150.865 94.7979C150.606 94.3557 150.09 94.2785 149.657 94.4814C147.247 95.6103 144.837 96.7393 142.428 97.8682C142.082 98.0299 141.737 98.1915 141.392 98.3532C140.961 98.5554 140.851 99.1759 141.076 99.5606C141.334 100.003 141.85 100.08 142.283 99.8771Z" fill="black"/>
<path d="M143.965 103.967C146.375 102.838 148.785 101.709 151.195 100.58C151.54 100.418 151.885 100.256 152.23 100.095C152.662 99.8926 152.772 99.2721 152.547 98.8874C152.288 98.4452 151.773 98.3679 151.34 98.5709C148.93 99.6998 146.52 100.829 144.11 101.958C143.765 102.119 143.42 102.281 143.075 102.443C142.643 102.645 142.533 103.265 142.758 103.65C143.017 104.092 143.532 104.17 143.965 103.967Z" fill="black"/>
<path d="M145.711 107.872C148.121 106.743 150.531 105.614 152.941 104.485C153.286 104.323 153.631 104.162 153.976 104C154.408 103.798 154.518 103.177 154.293 102.793C154.034 102.35 153.519 102.273 153.086 102.476C150.676 103.605 148.266 104.734 145.856 105.863C145.511 106.025 145.166 106.186 144.821 106.348C144.389 106.55 144.279 107.171 144.504 107.555C144.763 107.998 145.278 108.075 145.711 107.872Z" fill="black"/>
<path d="M241.873 53.063C241.873 53.063 245.12 53.7458 248.145 52.6556C246.554 54.5932 243.377 55.9214 242.372 55.7841C244.018 53.343 241.906 53.1271 241.873 53.063Z" fill="black"/>
<path d="M241.638 53.9139C243.823 54.3686 246.28 54.2477 248.38 53.5065C248.094 53.0149 247.807 52.5233 247.521 52.0317C247.318 52.2757 247.099 52.5052 246.866 52.7205C246.757 52.8209 246.645 52.9182 246.531 53.0126C246.462 53.0696 246.393 53.1265 246.322 53.181C246.413 53.1109 246.281 53.2093 246.25 53.2325C245.739 53.6057 245.196 53.9333 244.631 54.2172C244.507 54.2794 244.383 54.3393 244.257 54.397C244.183 54.4305 244.11 54.4631 244.036 54.4951C244.151 54.4453 244.059 54.4856 243.995 54.511C243.762 54.603 243.527 54.6889 243.287 54.7609C243.151 54.8016 242.791 54.9604 242.653 54.9109C242.687 54.9231 242.877 54.8929 242.716 54.9016C242.679 54.9036 242.641 54.9083 242.604 54.9097C242.526 54.9128 242.449 54.9108 242.372 54.9017L243.134 56.2295C243.742 55.3112 244.251 54.0416 243.494 53.0564C243.287 52.7879 243.021 52.5776 242.712 52.4381C242.568 52.373 242.421 52.3137 242.27 52.2664C242.237 52.256 242.204 52.2447 242.17 52.2367C242.159 52.2342 242.149 52.2281 242.138 52.2268C242.207 52.235 242.429 52.364 242.497 52.439C242.178 52.0848 241.574 52.1144 241.249 52.439C240.897 52.7913 240.929 53.3318 241.249 53.687C241.413 53.8692 241.651 53.9163 241.871 53.9904C241.91 54.0037 241.95 54.023 241.989 54.0336C241.901 54.0102 241.798 53.935 241.938 54.0165C241.985 54.044 242.036 54.0814 242.086 54.1035C242.181 54.1462 242 54.0497 241.994 54.0291C242 54.0491 242.049 54.0738 242.063 54.0893C242.079 54.1068 242.097 54.127 242.115 54.1423C242.231 54.2406 241.999 54.0861 242.061 54.0677C242.077 54.0632 242.201 54.3309 242.113 54.1386C242.025 53.9457 242.15 54.2445 242.131 54.2426C242.105 54.24 242.126 54.0144 242.115 54.152C242.112 54.1947 242.114 54.2403 242.114 54.2831C242.114 54.3147 242.091 54.4386 242.115 54.3078C242.142 54.1586 242.103 54.3428 242.095 54.3734C242.084 54.4176 242.072 54.4614 242.058 54.5049C242.058 54.5034 241.986 54.7099 242.024 54.6116C242.059 54.5219 241.993 54.6795 241.985 54.6947C241.953 54.7628 241.918 54.83 241.882 54.8962C241.798 55.0481 241.706 55.1944 241.61 55.3388C241.438 55.5977 241.457 55.9689 241.61 56.2295C241.781 56.522 242.052 56.629 242.372 56.6666C242.806 56.7176 243.278 56.6012 243.693 56.4812C244.297 56.3068 244.884 56.0563 245.446 55.7786C246.681 55.1694 247.883 54.343 248.769 53.2797C249.023 52.9749 249.118 52.5705 248.907 52.2103C248.72 51.8901 248.275 51.676 247.911 51.8048C246.578 52.2749 245.284 52.4265 243.874 52.3858C243.407 52.3722 242.945 52.3275 242.48 52.2772C242.363 52.2645 242.691 52.3091 242.54 52.2849C242.504 52.2791 242.468 52.2743 242.432 52.2688C242.375 52.2599 242.318 52.2506 242.26 52.2406C242.209 52.2316 242.158 52.2227 242.108 52.2121C241.641 52.1151 241.154 52.3484 241.022 52.8284C240.902 53.266 241.17 53.8163 241.638 53.9139Z" fill="black"/>
<path d="M257.93 50.4908C257.235 53.0939 256.054 55.5749 254.719 57.8973C251.855 62.8816 247.702 67.6693 245.5 72.9804C243.451 77.9235 248.155 82.4889 253.087 81.025C255.419 80.333 257.332 78.6411 258.867 76.7554C262.765 71.9704 264.56 65.9302 265.719 59.9687C266.892 53.9319 268.732 47.8648 268.908 41.6806C269.063 36.2675 267.936 30.6968 264.918 26.2006C261.9 21.7044 256.823 18.4331 251.408 18.3605C248.658 18.3237 245.948 19.0848 243.416 20.1587C241.224 21.0882 239.081 22.2988 237.571 24.1393C234.118 28.3487 235.816 34.539 241.65 34.7486C244.451 34.8493 248.219 34.0996 250.87 35.3497C253.25 36.4715 253.096 39.2609 252.618 41.4683C252.15 38.2925 256.019 34.557 258.617 37.8271C260.732 40.4898 258.813 44.677 258.472 47.6693C258.362 48.6242 258.177 49.5652 257.93 50.4908Z" fill="black"/>
<path d="M257.079 50.2563C255.47 56.2078 251.564 61.0713 248.254 66.1445C247.428 67.4104 246.635 68.699 245.926 70.0345C245.274 71.2615 244.556 72.5813 244.277 73.9532C243.794 76.3342 244.606 78.8297 246.465 80.4165C248.369 82.0413 250.981 82.5882 253.38 81.8582C256.196 81.0013 258.364 78.8832 260.106 76.5962C263.665 71.9218 265.398 66.1409 266.521 60.4518C267.781 54.0687 269.712 47.7214 269.802 41.1688C269.882 35.3025 268.453 29.2389 264.799 24.5477C261.5 20.3124 256.314 17.3496 250.858 17.4813C247.723 17.5569 244.65 18.5548 241.844 19.9044C239.443 21.0589 237.086 22.731 235.848 25.1595C234.929 26.9619 234.612 29.1171 235.24 31.0675C235.88 33.0559 237.398 34.5673 239.371 35.2386C240.491 35.6196 241.683 35.6621 242.855 35.6317C244.212 35.5966 245.566 35.4812 246.924 35.501C248.144 35.5188 249.486 35.618 250.566 36.1821C250.793 36.3004 250.987 36.4292 251.112 36.5456C251.213 36.6398 251.31 36.7369 251.399 36.8426C251.41 36.8559 251.497 36.9754 251.427 36.8773C251.47 36.9377 251.51 37.0002 251.549 37.0636C251.714 37.3322 251.73 37.3741 251.811 37.621C251.891 37.8654 251.95 38.1181 251.987 38.3726C252.012 38.5437 251.97 38.1646 251.995 38.46C252 38.5222 252.006 38.5842 252.01 38.6465C252.018 38.772 252.022 38.8978 252.023 39.0236C252.026 39.2781 252.015 39.5328 251.995 39.7865C251.955 40.2803 251.887 40.6734 251.767 41.2337H253.469C253.487 41.3641 253.462 41.0017 253.462 40.9351C253.462 40.7863 253.469 40.6363 253.487 40.4885C253.469 40.6387 253.494 40.4479 253.502 40.4118C253.517 40.3381 253.531 40.2643 253.549 40.1911C253.587 40.0295 253.635 39.8701 253.691 39.7136C253.84 39.2944 254.188 38.7235 254.51 38.3782C254.61 38.2714 254.715 38.169 254.824 38.0722C254.867 38.034 254.911 37.9963 254.956 37.9602C254.845 38.0498 254.988 37.9373 255.017 37.9177C255.122 37.8471 255.227 37.7779 255.338 37.7162C255.41 37.6759 255.484 37.6381 255.559 37.6029C255.727 37.5239 255.458 37.63 255.65 37.5687C255.779 37.5276 255.907 37.4964 256.038 37.4629C256.2 37.4212 256.081 37.454 256.04 37.4583C256.119 37.45 256.198 37.445 256.278 37.4439C256.331 37.4432 256.385 37.4442 256.438 37.4469C256.433 37.4467 256.69 37.4777 256.561 37.4565C256.429 37.4349 256.692 37.4896 256.684 37.4877C256.765 37.5082 256.845 37.5329 256.924 37.5614C257.173 37.6518 256.79 37.483 257.031 37.6116C257.084 37.64 257.136 37.6685 257.188 37.6995C257.331 37.7853 257.402 37.8384 257.473 37.9014C257.738 38.1343 257.958 38.3868 258.131 38.6652C258.461 39.195 258.646 39.8558 258.692 40.4344C258.808 41.9031 258.473 43.3051 258.148 44.735C257.966 45.5339 257.775 46.333 257.658 47.1447C257.507 48.1951 257.35 49.2277 257.079 50.2563C256.789 51.3556 258.491 51.8245 258.781 50.7254C258.915 50.2158 259.034 49.7026 259.13 49.1844C259.183 48.9016 259.228 48.6175 259.268 48.3327C259.293 48.1595 259.316 47.986 259.337 47.8125C259.331 47.8619 259.379 47.4753 259.36 47.6139C259.472 46.8021 259.668 46.0024 259.849 45.2042C260.245 43.467 260.645 41.6721 260.393 39.8849C260.152 38.1848 259.123 36.5245 257.473 35.89C256.048 35.3421 254.503 35.9345 253.448 36.9424C252.163 38.1703 251.531 39.9494 251.767 41.7029C251.885 42.5764 253.296 42.5119 253.469 41.7029C253.915 39.6128 254.117 37.0364 252.461 35.3935C251.551 34.4899 250.237 34.0819 248.997 33.9C247.643 33.7014 246.282 33.7184 244.918 33.7789C243.685 33.8336 242.431 33.9513 241.198 33.8373C240.951 33.8144 240.879 33.8037 240.581 33.7401C240.331 33.6866 240.083 33.6193 239.841 33.5368C239.731 33.4994 239.621 33.4595 239.514 33.4153C239.658 33.4745 239.363 33.3433 239.337 33.3304C239.127 33.2271 238.923 33.1108 238.727 32.9821C238.637 32.9229 238.549 32.8611 238.463 32.7966C238.352 32.7136 238.559 32.8753 238.453 32.7869C238.412 32.7529 238.371 32.7193 238.332 32.6845C238.164 32.5385 238.005 32.3821 237.856 32.2163C237.787 32.1391 237.72 32.0598 237.656 31.9786C237.759 32.1092 237.594 31.89 237.564 31.8455C237.44 31.6646 237.327 31.4763 237.226 31.282C237.178 31.1903 237.135 31.0968 237.091 31.0036C237.032 30.8806 237.139 31.1274 237.088 31.0006C237.069 30.9525 237.05 30.9043 237.032 30.8558C236.954 30.6485 236.888 30.4368 236.834 30.2221C236.783 30.0179 236.742 29.811 236.712 29.6026C236.739 29.7842 236.704 29.4975 236.699 29.4409C236.688 29.3071 236.681 29.173 236.679 29.0389C236.675 28.8352 236.68 28.6313 236.694 28.4281C236.702 28.3183 236.713 28.209 236.725 28.0997C236.741 27.9566 236.704 28.2298 236.728 28.0872C236.739 28.0185 236.75 27.9496 236.762 27.8811C236.851 27.4035 236.988 26.9358 237.168 26.4846C237.175 26.4656 237.234 26.3306 237.181 26.4521C237.205 26.398 237.229 26.3442 237.254 26.2908C237.305 26.1828 237.357 26.076 237.413 25.9705C237.526 25.7555 237.648 25.5457 237.78 25.3419C238.093 24.8573 238.404 24.4883 238.855 24.0367C240.768 22.121 243.43 20.9572 245.973 20.1407C248.616 19.2925 251.418 18.9517 254.123 19.5655C256.514 20.1077 258.764 21.2523 260.653 22.8098C264.846 26.2665 267.121 31.4317 267.796 36.7486C268.575 42.8749 267.253 48.902 265.915 54.85C264.656 60.4443 263.819 66.193 261.245 71.3836C260.04 73.8143 258.504 76.1652 256.491 78.0056C255.567 78.8503 254.498 79.5957 253.314 80.0226C252.749 80.2259 252.149 80.3718 251.621 80.4065C251.096 80.4411 250.57 80.4076 250.15 80.3211C249.158 80.1168 248.271 79.6786 247.571 79.0436C246.827 78.3682 246.312 77.5579 246.057 76.6206C245.788 75.633 245.852 74.6131 246.21 73.585C246.657 72.3023 247.345 71.074 248.016 69.8979C250.926 64.8007 254.811 60.3098 257.242 54.933C257.858 53.57 258.39 52.1703 258.781 50.7254C259.077 49.6277 257.375 49.1593 257.079 50.2563Z" fill="black"/>
<path d="M272.567 86.6428C280.354 99.5538 288.898 113.244 291.137 128.437C293.234 142.662 288.083 156.368 280.579 168.232C273.5 179.422 264.931 189.765 260.485 202.421C258.266 208.741 257.505 215.27 259.063 221.841C260.763 229.008 264.115 235.576 268.214 241.646C270.388 244.866 272.691 248 274.779 251.278C276.566 254.084 279.165 257.515 278.777 261.032C278.496 263.578 276.679 265.813 274.291 266.704C271.422 267.773 268.597 266.674 266.603 264.497L266.83 265.356C266.97 264.392 267.369 263.634 268.197 263.085C267.754 262.831 267.312 262.577 266.869 262.324C266.861 268.386 263.829 274.258 258.642 277.487C254.003 280.376 248.272 281.162 242.908 280.584C240.357 280.31 237.182 279.83 235.209 278.04C232.828 275.88 233.953 272.793 235.007 270.266C236.051 267.759 236.948 265.367 236.94 262.611C236.933 259.869 236.26 257.151 235.335 254.585C233.481 249.45 230.614 244.79 228.117 239.96C225.261 234.435 223.212 228.482 222.078 222.365C220.908 216.048 220.76 209.499 221.806 203.153C222.721 197.599 224.575 192.157 226.929 187.051C228.999 182.561 231.587 177.878 235.95 175.263C236.239 175.09 236.687 174.975 236.942 174.777C236.592 175.049 236.841 174.141 236.632 174.999C236.345 176.174 236.12 177.324 235.542 178.405C234.274 180.777 232.305 182.736 230.496 184.695C226.182 189.363 222.457 194.641 218.684 199.748C214.547 205.349 210.527 211.035 206.59 216.778C200.174 226.139 193.564 235.514 188.119 245.484C184.044 252.946 180.082 260.766 174.226 267.025C171.583 269.849 168.436 272.426 164.683 273.577C162.93 274.115 161.11 274.309 159.282 274.153C156.951 273.954 153.645 272.839 153.202 270.145C152.994 268.88 153.77 267.235 155.031 266.792C156.715 266.2 155.526 268.571 154.564 268.899C153.514 269.258 152.166 268.874 151.155 268.561C147.918 267.556 144.931 265.555 142.306 263.458C139.344 261.09 136.578 258.337 134.478 255.166C132.916 252.808 131.26 249.665 132.036 246.744C133.189 242.404 138.476 242.243 142.12 242.001C144.464 241.845 146.917 241.631 149.008 240.462C151.602 239.011 152.936 236.141 154.449 233.716C168.882 210.586 185.666 189.025 202.925 167.958C207.22 162.715 211.549 157.501 215.888 152.295C219.748 147.663 223.724 143.109 227.478 138.39C230.355 134.774 233.004 130.877 234.156 126.34C235.477 121.14 234.7 115.774 233.293 110.679C231.605 104.564 228.999 98.6404 228.186 92.3081C228.001 90.8605 227.916 89.3971 227.953 87.9378C227.991 86.4307 227.912 84.3226 228.671 82.974C229.251 81.943 230.727 81.912 231.54 82.7201C232.649 83.8234 231.955 85.7834 230.85 86.5949C229.3 87.7335 226.891 87.5652 225.09 87.4204C222.764 87.2336 220.466 86.7467 218.201 86.2034C213.277 85.0225 208.34 83.7502 203.619 81.9073C197.312 79.4452 191.467 76.0424 186.044 72.0056C180.576 67.9361 175.435 63.4476 169.977 59.3623C164.865 55.5355 159.459 52.1821 154.237 48.5215C150.234 45.7158 145.754 42.1345 140.672 41.8138C138.201 41.6578 135.97 42.7214 133.954 44.0509C132.774 44.8293 131.67 45.7395 130.459 46.4677C129.883 46.8138 129.251 47.1166 128.608 46.7096C127.784 46.1873 127.872 45.0635 128.611 44.5228C129.514 43.8612 128.748 42.4668 127.72 42.9989C126.23 43.7698 124.9 41.8196 126.283 40.7934C127.18 40.1276 126.423 38.7361 125.392 39.2695C123.902 40.0404 122.573 38.0902 123.955 37.0639C124.851 36.3993 124.093 34.9995 123.065 35.5401C122.147 36.0222 120.987 35.4762 121.074 34.3594C121.162 33.2343 122.854 32.5627 123.702 32.0121C125.517 30.8328 127.309 29.6187 129.115 28.4271C132.392 26.2666 135.676 23.8647 139.607 23.1336C146.72 21.8106 154.472 24.188 160.756 27.4263C168.36 31.3453 174.931 36.9421 181.755 42.0292C188.669 47.1824 195.901 52.1702 204.056 55.1472C208.026 56.5965 212.128 57.2793 216.308 57.7954C220.84 58.3551 225.401 58.6623 229.964 58.8258C233.767 58.9621 237.854 58.5751 241.165 60.7894C241.659 61.1199 242.488 61.639 242.642 62.2672C242.804 62.9273 242.032 64.1958 241.809 62.7271C241.723 62.1561 242.024 61.2426 242.179 60.5029C242.624 58.3736 243.214 56.1847 243.338 54.0055C243.373 53.3961 243.354 52.7481 242.781 52.393C242.345 52.1233 241.69 52.1161 241.204 51.924C240.671 51.7137 240.159 51.4254 239.702 51.0803C235.783 48.1241 235.692 41.8754 236.959 37.6019C237.692 35.1304 239.017 32.8997 241.143 31.3885C244.157 29.246 248.087 28.4056 251.708 29.1891C255.671 30.0467 258.726 32.6356 259.185 36.7982C259.579 40.3613 258.958 44.1529 258.696 47.7166C258.451 51.0485 258.492 54.532 260.833 57.1652C263.176 59.8021 266.405 61.4291 269.373 63.238C272.822 65.3401 275.476 67.9291 277.67 71.3315C279.698 74.4751 281.411 77.9013 282.633 81.439C286.912 93.8175 285.347 108.088 278.584 119.292C271.031 131.806 257.39 138.386 243.075 139.198C227.242 140.096 211.877 134.859 197.897 127.864C189.922 123.874 182.277 119.264 174.738 114.512C171.266 112.324 167.873 109.83 164.2 107.988C160.984 106.376 157.357 105.542 153.869 106.795C152.052 107.447 150.402 108.463 148.715 109.385C147.963 109.796 146.995 110.516 146.124 110.031C145.117 109.471 145.381 108.206 146.256 107.697C147.091 107.212 146.533 105.711 145.576 106.085C143.926 106.729 142.729 104.691 144.333 103.744C145.163 103.254 144.613 101.757 143.653 102.131C142.004 102.775 140.806 100.738 142.41 99.7906C143.239 99.3015 142.688 97.7969 141.73 98.1778C139.879 98.9145 139.011 96.6553 140.692 95.7379C141.147 95.4892 141.631 95.2812 142.098 95.0542C144.131 94.065 146.165 93.0758 148.199 92.0866C151.51 90.4763 154.821 88.866 158.131 87.2556C158.757 86.9514 158.651 86.0627 158.131 85.7317C157.339 85.2268 156.546 84.7219 155.753 84.2169C155.442 84.0187 155.104 83.8366 154.809 83.6155C154.451 83.3479 154.185 83.0415 154.041 82.6109C153.758 81.7663 154.005 81.6457 154.748 81.359C158.445 79.9323 162.888 81.7394 166.246 83.3156C170.348 85.2412 173.99 87.951 177.617 90.6342C181.489 93.498 185.485 96.1664 189.594 98.6786C197.833 103.716 206.63 108.049 216.089 110.218C225.108 112.285 235.14 112.468 243.87 109.055C247.986 107.445 251.852 104.896 254.225 101.081C256.646 97.1893 257.112 92.2045 254.916 88.1152C254.378 87.1143 252.854 88.0045 253.392 89.006C255.593 93.104 254.546 98.1123 251.688 101.612C248.823 105.119 244.619 107.172 240.333 108.374C230.827 111.04 220.645 110.04 211.336 107.087C201.887 104.09 193.248 99.085 185.002 93.6691C177.708 88.8783 171.114 82.637 162.622 79.9918C160.558 79.3488 158.339 78.9341 156.176 79.2127C155.208 79.3374 154.27 79.5973 153.396 80.0377C152.424 80.5279 152.117 81.1564 152.174 82.2549C152.308 84.8237 155.363 86.06 157.241 87.2556V85.7317C154.349 87.138 151.458 88.5444 148.566 89.9508C145.619 91.3841 142.517 92.6647 139.664 94.2804C136.327 96.1705 138.573 101.322 142.2 99.8795C141.973 99.3419 141.746 98.8043 141.52 98.2667C138.238 100.203 140.515 105.241 144.122 103.833C143.896 103.295 143.669 102.758 143.443 102.22C140.161 104.157 142.438 109.195 146.045 107.786C145.819 107.249 145.592 106.711 145.365 106.173C142.438 107.876 143.846 112.475 147.309 111.917C149.21 111.61 151.04 110.046 152.742 109.197C154.947 108.098 157.225 107.639 159.66 108.171C163.872 109.091 167.526 112.025 171.096 114.294C175.391 117.023 179.704 119.725 184.088 122.309C199.305 131.278 215.845 139.265 233.681 140.804C249.23 142.146 265.787 137.99 276.174 125.669C285.33 114.809 288.729 99.5591 285.682 85.7513C284.89 82.1661 283.618 78.7373 281.997 75.4474C280.131 71.6596 277.87 67.8073 274.722 64.9333C271.806 62.2709 268.147 60.6906 264.948 58.4273C263.314 57.2707 261.574 55.8418 260.876 53.9021C260.212 52.0577 260.302 50.026 260.433 48.1019C260.7 44.1756 261.435 39.9934 260.86 36.0788C260.274 32.0939 257.574 29.3015 253.85 27.9639C247.486 25.6782 239.398 28.2375 236.314 34.4405C234.027 39.0406 233.621 45.3726 236.344 49.8898C236.961 50.9138 237.757 51.8259 238.719 52.5381C239.208 52.8997 239.726 53.1973 240.283 53.4406C240.548 53.5562 240.816 53.6631 241.091 53.7523C241.193 53.7855 241.459 53.8974 241.585 53.8941C242.227 53.8774 241.209 54.0823 241.591 53.5478C241.514 53.6546 241.546 54.3278 241.521 54.5366C241.447 55.1489 241.332 55.7577 241.22 56.3637C240.978 57.6651 240.7 58.9594 240.43 60.2551C240.262 61.0615 240.03 61.8969 240.045 62.727C240.068 64.0448 241.017 65.5964 242.536 65.1981C243.711 64.8901 244.541 63.4245 244.43 62.2623C244.292 60.8181 242.909 59.7888 241.775 59.0869C238.281 56.9248 234.165 57.2062 230.213 57.0695C225.066 56.8915 219.917 56.539 214.814 55.8362C210.026 55.1769 205.482 54.0316 201.067 52.0309C196.685 50.0448 192.58 47.5113 188.617 44.7948C180.757 39.4067 173.586 33.0014 165.438 28.0379C158.592 23.8678 150.552 20.7255 142.407 21.0653C138.351 21.2345 135.06 22.5842 131.651 24.7002C129.61 25.9663 127.616 27.3047 125.618 28.6354C124.618 29.3009 123.618 29.9654 122.61 30.6183C121.75 31.1756 120.687 31.6573 120.024 32.4582C117.779 35.1722 121.011 38.6117 123.955 37.0639C123.658 36.556 123.362 36.048 123.065 35.5401C119.889 37.8969 122.735 42.629 126.283 40.7934C125.986 40.2854 125.689 39.7774 125.392 39.2695C122.217 41.6263 125.063 46.3584 128.611 44.5228C128.314 44.0148 128.017 43.5069 127.72 42.9989C125.786 44.4152 125.723 47.5353 128.205 48.4621C129.331 48.8827 130.367 48.6043 131.349 47.9916C132.791 47.0924 134.108 46.0057 135.558 45.1182C138.377 43.3937 140.979 43.22 144.033 44.4083C146.751 45.4656 149.209 47.1547 151.59 48.8124C157.209 52.7259 163.003 56.3631 168.503 60.4511C174.554 64.9477 180.204 69.9602 186.311 74.3802C196.518 81.7678 208.312 86.132 220.618 88.5391C224.301 89.2596 230.76 90.5898 233.155 86.6267C234.428 84.5204 233.912 81.5166 231.423 80.6299C228.979 79.7593 227.117 81.3202 226.645 83.6584C225.284 90.4055 227.138 97.1665 229.212 103.555C231.227 109.767 233.613 116.188 232.986 122.831C232.482 128.169 229.699 132.742 226.449 136.865C222.399 142.004 218.065 146.935 213.877 151.962C194.7 174.981 175.675 198.237 159.1 223.233C157.086 226.271 155.109 229.333 153.177 232.423C151.401 235.261 149.956 238.579 146.498 239.601C141.76 241 135.76 239.317 132.001 243.322C126.678 248.992 133.367 257.407 137.484 261.514C140.366 264.389 143.678 266.983 147.309 268.845C149.701 270.072 153.733 271.929 156.217 269.967C157.554 268.911 158.717 265.459 156.236 264.971C153.832 264.499 151.822 266.784 151.474 268.963C150.593 274.484 157.782 276.294 161.911 275.909C170.833 275.077 177.134 267.133 181.685 260.177C184.288 256.198 186.569 252.022 188.84 247.849C191.113 243.671 193.525 239.653 196.12 235.666C204.432 222.897 212.981 210.274 222.114 198.076C224.523 194.859 226.95 191.646 229.473 188.518C231.249 186.316 233.324 184.376 235.091 182.166C236.714 180.136 237.98 177.953 238.352 175.339C238.575 173.766 237.77 172.603 236.115 173.203C234.015 173.963 232.088 175.796 230.676 177.466C228.807 179.677 227.332 182.2 226.057 184.79C223.425 190.136 221.33 195.927 220.258 201.793C217.834 215.067 220.433 228.926 226.593 240.851C229.427 246.336 232.857 251.65 234.459 257.673C235.234 260.585 235.513 263.665 234.575 266.574C233.67 269.382 231.798 272.142 232.005 275.205C232.412 281.248 240.243 282.317 244.968 282.501C250.673 282.722 256.678 281.378 261.24 277.812C265.957 274.125 268.625 268.275 268.634 262.323C268.635 261.683 267.873 261.186 267.306 261.562C266.245 262.264 264.948 263.709 265.097 265.121C265.216 266.252 267.074 267.371 267.978 267.862C270.138 269.035 272.721 269.215 275.011 268.309C279.929 266.363 281.774 260.824 279.584 256.151C276.352 249.257 271.222 243.415 267.276 236.944C263.171 230.215 259.734 221.978 259.943 213.97C260.129 206.819 262.994 199.924 266.299 193.691C269.645 187.382 273.684 181.477 277.739 175.61C286.066 163.56 293.329 150.358 293.381 135.306C293.438 119.277 285.159 104.336 277.201 90.9363C276.172 89.2037 275.132 87.4777 274.091 85.7521C273.505 84.7807 271.979 85.6668 272.567 86.6428Z" fill="black"/>
<path d="M123.838 37.1632C126.116 35.7873 128.393 34.4114 130.671 33.0354C130.998 32.8384 131.324 32.6413 131.65 32.4443C132.621 31.8578 131.735 30.3311 130.759 30.9204C128.481 32.2963 126.203 33.6723 123.926 35.0482C123.599 35.2453 123.273 35.4423 122.947 35.6394C121.976 36.2259 122.862 37.7526 123.838 37.1632Z" fill="black"/>
<path d="M125.94 41.0534C128.218 39.6774 130.496 38.3015 132.774 36.9256C133.1 36.7285 133.427 36.5315 133.753 36.3344C134.724 35.7479 133.838 34.2212 132.862 34.8105C130.584 36.1865 128.306 37.5624 126.028 38.9384C125.702 39.1354 125.376 39.3325 125.05 39.5295C124.079 40.116 124.965 41.6427 125.94 41.0534Z" fill="black"/>
<path d="M128.087 44.7535C130.365 43.3775 132.643 42.0016 134.921 40.6256C135.247 40.4286 135.573 40.2315 135.9 40.0345C136.871 39.448 135.985 37.9213 135.009 38.5106C132.731 39.8866 130.453 41.2625 128.175 42.6384C127.849 42.8355 127.523 43.0325 127.196 43.2296C126.225 43.8161 127.112 45.3428 128.087 44.7535Z" fill="black"/>
<path d="M243.45 47.2118C244.828 47.0776 246.047 46.3805 246.863 45.2634C247.046 45.0141 246.914 44.5966 246.652 44.4586C246.346 44.2969 246.042 44.4035 245.847 44.6696C245.837 44.6833 245.76 44.7839 245.813 44.7174C245.861 44.6571 245.798 44.7345 245.789 44.7454C245.746 44.7971 245.702 44.8479 245.657 44.8974C245.567 44.9965 245.471 45.091 245.371 45.1805C245.321 45.2252 245.27 45.2687 245.218 45.3109C245.2 45.325 245.183 45.339 245.165 45.3527L245.213 45.3152C245.205 45.3332 245.157 45.3562 245.141 45.368C245.026 45.4505 244.906 45.527 244.783 45.5972C244.666 45.6637 244.546 45.7246 244.424 45.7796C244.41 45.7857 244.318 45.8222 244.391 45.7941C244.473 45.763 244.353 45.8081 244.337 45.8142C244.274 45.838 244.211 45.8601 244.147 45.8807C244.019 45.922 243.889 45.9569 243.758 45.9851C243.692 45.9992 243.626 46.0103 243.56 46.0225C243.468 46.0394 243.568 46.0081 243.584 46.0207C243.575 46.0139 243.463 46.034 243.45 46.0353C243.145 46.065 242.847 46.2845 242.862 46.6235C242.875 46.9167 243.122 47.2438 243.45 47.2118Z" fill="black"/>
<path d="M138.93 25.4852C138.476 26.0515 138.021 26.6178 137.567 27.1841C137.081 27.7899 136.526 28.3832 136.103 29.0373C135.225 30.3953 135.524 32.3239 136.775 33.3483C138.115 34.4457 140.18 34.3949 141.366 33.0712C141.991 32.3736 142.515 31.5961 143.167 30.9173C143.435 30.638 143.767 30.3127 144.04 30.104C144.124 30.0392 144.312 29.913 144.446 29.8388C144.506 29.8058 144.566 29.773 144.628 29.7458C144.448 29.8245 144.722 29.7272 144.762 29.718C145.867 29.4597 145.399 27.7576 144.293 28.0162C143.633 28.1705 143.064 28.6103 142.564 29.0476C142.01 29.5329 141.516 30.0872 141.047 30.6534C140.633 31.153 140.243 31.8433 139.738 32.1458C139.29 32.4148 138.746 32.4569 138.276 32.2371C137.807 32.0174 137.532 31.65 137.415 31.2291C137.395 31.1535 137.376 31.0767 137.364 30.9992C137.338 30.8339 137.364 31.1945 137.359 30.9057C137.357 30.78 137.354 30.6523 137.373 30.5274C137.349 30.6858 137.416 30.3811 137.414 30.3868C137.431 30.3252 137.45 30.2621 137.473 30.2027C137.437 30.2965 137.499 30.1497 137.502 30.1441C137.554 30.0383 137.624 29.9452 137.684 29.844C137.771 29.6953 137.588 29.9622 137.655 29.8775C137.678 29.8493 137.7 29.8213 137.723 29.7933C137.81 29.6853 137.897 29.5766 137.984 29.4682C138.245 29.142 138.507 28.8159 138.769 28.4897C139.238 27.9042 139.708 27.3187 140.178 26.7331C140.476 26.3617 140.541 25.8481 140.178 25.4852C139.869 25.1766 139.23 25.1115 138.93 25.4852Z" fill="black"/>
<path d="M7.5 257.75C7.5 267.389 26.1123 275.202 49.0716 275.202C72.031 275.202 90.6433 267.389 90.6433 257.75V248.73H7.5V257.75Z" fill="#F953B2"/>
<path d="M49.0716 266.182C72.031 266.182 90.6433 258.369 90.6433 248.73C90.6433 239.091 72.031 231.278 49.0716 231.278C26.1123 231.278 7.5 239.091 7.5 248.73C7.5 258.369 26.1123 266.182 49.0716 266.182Z" fill="#F4D13B"/>
<path d="M7.5 240.298C7.5 249.937 26.1123 257.75 49.0716 257.75C72.031 257.75 90.6433 249.937 90.6433 240.298V231.278H7.5V240.298Z" fill="#F953B2"/>
<path d="M49.0716 248.73C72.031 248.73 90.6433 240.916 90.6433 231.278C90.6433 221.639 72.031 213.826 49.0716 213.826C26.1123 213.826 7.5 221.639 7.5 231.278C7.5 240.916 26.1123 248.73 49.0716 248.73Z" fill="#F4D13B"/>
<path d="M7.5 223.434C7.5 233.073 26.1123 240.886 49.0716 240.886C72.031 240.886 90.6433 233.073 90.6433 223.434V214.414H7.5V223.434Z" fill="#F953B2"/>
<path d="M49.0716 231.866C72.031 231.866 90.6433 224.052 90.6433 214.414C90.6433 204.775 72.031 196.961 49.0716 196.961C26.1123 196.961 7.5 204.775 7.5 214.414C7.5 224.052 26.1123 231.866 49.0716 231.866Z" fill="#F4D13B"/>
<path d="M7.5 205.982C7.5 215.62 26.1123 223.434 49.0716 223.434C72.031 223.434 90.6433 215.62 90.6433 205.982V196.962H7.5V205.982Z" fill="#F953B2"/>
<path d="M49.0716 214.414C72.031 214.414 90.6433 206.6 90.6433 196.962C90.6433 187.323 72.031 179.509 49.0716 179.509C26.1123 179.509 7.5 187.323 7.5 196.962C7.5 206.6 26.1123 214.414 49.0716 214.414Z" fill="#F4D13B"/>
<path d="M7.5 189.706C7.5 199.345 26.1123 207.158 49.0716 207.158C72.031 207.158 90.6433 199.345 90.6433 189.706V180.686H7.5V189.706Z" fill="#F953B2"/>
<path d="M49.0716 198.138C72.031 198.138 90.6433 190.324 90.6433 180.686C90.6433 171.047 72.031 163.234 49.0716 163.234C26.1123 163.234 7.5 171.047 7.5 180.686C7.5 190.324 26.1123 198.138 49.0716 198.138Z" fill="#F4D13B"/>
<path d="M7.5 172.254C7.5 181.893 26.1123 189.706 49.0716 189.706C72.031 189.706 90.6433 181.893 90.6433 172.254V163.234H7.5V172.254Z" fill="#F953B2"/>
<path d="M49.0716 180.686C72.031 180.686 90.6433 172.872 90.6433 163.234C90.6433 153.595 72.031 145.781 49.0716 145.781C26.1123 145.781 7.5 153.595 7.5 163.234C7.5 172.872 26.1123 180.686 49.0716 180.686Z" fill="#F4D13B"/>
<path d="M146.289 245.865C147.066 247.851 149.195 248.904 151.266 248.533C153.368 248.158 154.634 246.027 154.392 243.986C154.246 242.752 153.68 241.7 152.673 240.96C152.525 241.508 152.376 242.056 152.228 242.604C154.382 242.792 156.43 241.333 157.1 239.311C157.25 238.859 156.927 238.347 156.484 238.226C156.004 238.094 155.549 238.388 155.398 238.842C154.962 240.157 153.583 240.957 152.228 240.839C151.847 240.806 151.473 241.137 151.377 241.487C151.266 241.891 151.464 242.25 151.783 242.484C151.695 242.42 151.928 242.614 151.953 242.639C151.976 242.662 152.186 242.897 152.111 242.801C152.257 242.988 152.381 243.206 152.472 243.425C152.417 243.294 152.508 243.542 152.512 243.553C152.549 243.669 152.58 243.786 152.606 243.905C152.618 243.965 152.63 244.025 152.639 244.085C152.63 244.001 152.631 244.014 152.643 244.123C152.653 244.244 152.659 244.367 152.658 244.489C152.658 244.596 152.652 244.702 152.643 244.809C152.636 244.873 152.638 244.87 152.648 244.802C152.639 244.862 152.628 244.922 152.616 244.982C152.592 245.101 152.562 245.219 152.527 245.335C152.517 245.366 152.402 245.664 152.454 245.547C152.369 245.737 152.263 245.924 152.136 246.09C152.209 245.994 152.004 246.231 151.98 246.255C151.955 246.28 151.722 246.479 151.811 246.412C151.446 246.684 151.202 246.78 150.709 246.846C150.869 246.825 150.531 246.852 150.499 246.852C150.379 246.855 150.26 246.849 150.14 246.842C149.937 246.829 150.201 246.86 150.017 246.828C149.899 246.807 149.781 246.781 149.665 246.749C149.549 246.717 149.434 246.68 149.321 246.637C149.222 246.599 149.209 246.594 149.283 246.622C149.228 246.596 149.174 246.57 149.121 246.542C149.015 246.487 148.911 246.426 148.811 246.361C148.811 246.361 148.592 246.202 148.701 246.288C148.608 246.214 148.521 246.133 148.437 246.049C148.415 246.026 148.206 245.787 148.286 245.891C148.214 245.797 148.15 245.695 148.092 245.593C148.075 245.563 147.944 245.277 147.991 245.396C147.817 244.953 147.399 244.644 146.905 244.78C146.482 244.896 146.115 245.419 146.289 245.865Z" fill="black"/>
<path d="M238.875 254.078C239.94 253.383 241.523 253.734 242.14 254.894C242.704 255.955 241.996 257.586 240.838 257.967C239.903 258.274 240.052 259.679 241.072 259.701C242.372 259.728 243.684 260.889 243.76 262.196C243.841 263.595 242.785 264.868 241.37 265.11C240.9 265.19 240.636 265.769 240.753 266.195C240.89 266.693 241.367 266.892 241.839 266.812C243.974 266.446 245.716 264.27 245.517 262.091C245.31 259.823 243.356 257.983 241.072 257.936C241.15 258.514 241.228 259.091 241.307 259.669C243.544 258.934 244.752 256.226 243.707 254.088C242.716 252.063 239.852 251.335 237.985 252.554C237.586 252.814 237.419 253.335 237.668 253.761C237.9 254.158 238.474 254.339 238.875 254.078Z" fill="black"/>
<path d="M248.098 77.2946C246.367 77.2315 244.595 77.896 243.43 79.1767C242.265 80.4574 241.772 82.3552 242.293 84.0067C242.813 85.6582 244.384 86.9598 246.113 87.0414C247.614 87.1122 249.025 86.3356 250.225 85.4316C251.222 84.6805 252.154 83.8057 252.764 82.7165C253.374 81.6273 253.631 80.2964 253.245 79.1093" fill="black"/>
<path d="M248.098 76.4122C246.062 76.3573 243.924 77.1684 242.618 78.7719C241.334 80.3498 240.782 82.6087 241.551 84.5466C242.287 86.4004 243.997 87.7626 246.005 87.9172C248.16 88.0829 250.188 86.7116 251.722 85.3437C253.516 83.743 254.844 81.3214 254.096 78.8747C253.764 77.7918 252.06 78.2535 252.394 79.3439C252.888 80.9588 252.051 82.5358 250.928 83.666C249.832 84.7706 248.325 85.9419 246.733 86.1414C245.368 86.3125 244.073 85.5566 243.398 84.3539C242.692 83.0961 242.9 81.481 243.698 80.2613C244.645 78.8144 246.419 78.1318 248.098 78.177C249.234 78.2076 249.233 76.4427 248.098 76.4122Z" fill="black"/>
<path d="M7.5 154.802C7.5 164.44 26.1123 172.254 49.0716 172.254C72.031 172.254 90.6433 164.44 90.6433 154.802V145.781H7.5V154.802Z" fill="#F953B2"/>
<path d="M49.0716 163.234C72.031 163.234 90.6433 155.42 90.6433 145.781C90.6433 136.143 72.031 128.329 49.0716 128.329C26.1123 128.329 7.5 136.143 7.5 145.781C7.5 155.42 26.1123 163.234 49.0716 163.234Z" fill="#F4D13B"/>
<path d="M49.0716 158.92C66.3557 158.92 80.3672 153.037 80.3672 145.781C80.3672 138.525 66.3557 132.643 49.0716 132.643C31.7876 132.643 17.7761 138.525 17.7761 145.781C17.7761 153.037 31.7876 158.92 49.0716 158.92Z" fill="white"/>
<path d="M40.8934 139.378C33.5339 139.351 28.5189 142.268 29.3245 145.145C29.7457 146.649 31.456 148.014 34.4078 148.954C37.0619 149.8 40.6888 150.108 43.883 149.731C47.0979 149.351 49.7665 148.367 51.149 147.124C51.9493 146.405 52.3974 145.647 52.4517 144.848C52.4675 144.615 52.4691 144.383 52.5049 144.15C52.5545 143.828 52.4431 144.266 52.5219 144.079C52.5565 143.996 52.5944 143.914 52.6391 143.833C52.7271 143.672 52.836 143.514 52.9658 143.359C52.9557 143.371 53.2277 143.074 53.0881 143.214C52.9502 143.352 53.2568 143.069 53.2454 143.078C53.3997 142.952 53.5688 142.829 53.7528 142.709C53.8332 142.657 54.3992 142.346 54.0722 142.508C54.354 142.368 54.6595 142.236 54.9866 142.113C55.1167 142.064 55.7289 141.872 55.3109 141.992C55.6067 141.907 55.9123 141.828 56.2312 141.758C56.358 141.73 56.4912 141.706 56.6174 141.678C57.2152 141.544 56.1456 141.728 56.7987 141.645C57.1457 141.602 57.4891 141.558 57.8462 141.528C57.8493 141.528 58.557 141.48 58.1536 141.503C57.7508 141.525 58.4692 141.497 58.4738 141.497C58.8129 141.492 59.1473 141.502 59.4861 141.51C59.6388 141.513 60.1197 141.557 59.57 141.51C59.7142 141.522 59.8582 141.534 60.0014 141.548C60.4267 141.592 60.8454 141.649 61.2494 141.72C60.7538 141.633 61.4492 141.77 61.6118 141.809C61.9295 141.885 62.2334 141.97 62.5275 142.06C62.0976 141.928 62.8892 142.202 63.009 142.252C63.274 142.362 63.5233 142.478 63.7564 142.6C63.4459 142.438 63.7565 142.602 63.8238 142.647C63.9665 142.741 64.1153 142.833 64.2482 142.93C64.4398 143.069 64.6165 143.214 64.7674 143.361C64.5779 143.176 64.7682 143.377 64.8077 143.424C64.8858 143.518 64.9564 143.612 65.0197 143.708C65.1377 143.886 65.2311 144.067 65.2963 144.249C65.229 144.061 65.2887 144.235 65.2925 144.271C65.3054 144.392 65.3295 144.513 65.3315 144.635C65.3348 144.825 65.3103 145.016 65.2593 145.205C65.3095 145.018 65.2654 145.189 65.2472 145.224C65.1973 145.322 65.1533 145.42 65.0947 145.517C64.9793 145.708 64.8298 145.893 64.6604 146.076C64.8197 145.904 64.687 146.055 64.6455 146.089C64.5423 146.174 64.4414 146.259 64.329 146.342C64.1075 146.505 63.8587 146.661 63.5879 146.811C63.6515 146.776 63.8989 146.671 63.5734 146.815C63.4224 146.881 63.2778 146.95 63.1211 147.015C62.9915 147.068 62.858 147.12 62.721 147.17C62.6332 147.202 62.0162 147.394 62.4786 147.261C62.1829 147.346 61.8772 147.425 61.5583 147.495C61.3993 147.53 61.2362 147.561 61.0739 147.593C60.9036 147.624 60.9438 147.619 61.1943 147.577C61.0932 147.593 60.9911 147.608 60.8881 147.622C60.5025 147.668 60.1215 147.708 59.7281 147.742C59.2504 147.783 59.6535 147.749 59.7606 147.745C59.4623 147.755 59.165 147.758 58.8653 147.757C57.5128 147.752 56.2106 148.215 56.2684 148.795C56.3251 149.365 57.3954 149.877 58.8453 149.882C66.2048 149.91 71.2198 146.992 70.4142 144.115C69.993 142.611 68.2827 141.247 65.331 140.306C62.6768 139.46 59.0499 139.152 55.8557 139.529C52.6409 139.909 49.9722 140.893 48.5897 142.136C47.7894 142.856 47.3414 143.614 47.2871 144.412C47.2712 144.645 47.2696 144.877 47.2339 145.11C47.1843 145.433 47.2957 144.994 47.2168 145.182C47.1822 145.264 47.1444 145.346 47.0996 145.428C47.0117 145.588 46.9027 145.746 46.7729 145.901C46.783 145.889 46.511 146.186 46.6507 146.046C46.7886 145.908 46.4819 146.191 46.4933 146.182C46.339 146.308 46.1699 146.431 45.9859 146.551C45.9056 146.603 45.3396 146.915 45.6665 146.752C45.3847 146.892 45.0792 147.025 44.7521 147.147C44.622 147.196 44.0098 147.388 44.4278 147.268C44.1321 147.353 43.8264 147.432 43.5075 147.502C43.3807 147.53 43.2475 147.554 43.1214 147.582C42.5235 147.716 43.5931 147.533 42.9401 147.615C42.593 147.658 42.2497 147.703 41.8925 147.732C41.8894 147.733 41.1817 147.78 41.5851 147.758C41.9879 147.735 41.2696 147.763 41.265 147.763C40.9258 147.768 40.5915 147.758 40.2526 147.751C40.1 147.748 39.6191 147.703 40.1687 147.751C40.0245 147.738 39.8805 147.727 39.7373 147.712C39.312 147.669 38.8934 147.611 38.4893 147.541C38.9849 147.628 38.2895 147.491 38.1269 147.452C37.8093 147.376 37.5053 147.291 37.2112 147.2C37.6411 147.333 36.8495 147.058 36.7297 147.009C36.4648 146.899 36.2154 146.782 35.9824 146.661C36.2929 146.823 35.9823 146.658 35.9149 146.613C35.7722 146.519 35.6234 146.427 35.4906 146.33C35.2989 146.191 35.1222 146.047 34.9713 145.899C35.1609 146.085 34.9705 145.883 34.931 145.836C34.8529 145.742 34.7823 145.648 34.7191 145.552C34.601 145.374 34.5076 145.194 34.4424 145.011C34.5097 145.199 34.45 145.025 34.4462 144.989C34.4333 144.868 34.4093 144.747 34.4072 144.626C34.4039 144.435 34.4285 144.245 34.4794 144.056C34.4292 144.242 34.4733 144.072 34.4915 144.036C34.5414 143.938 34.5854 143.84 34.6441 143.743C34.7594 143.552 34.9089 143.367 35.0783 143.184C34.9191 143.356 35.0517 143.205 35.0933 143.171C35.1964 143.086 35.2973 143.001 35.4098 142.918C35.6312 142.755 35.8801 142.599 36.1508 142.449C36.0872 142.484 35.8398 142.589 36.1653 142.446C36.3164 142.379 36.461 142.31 36.6177 142.245C36.7472 142.192 36.8807 142.14 37.0177 142.09C37.1056 142.058 37.7225 141.866 37.2601 142C37.5558 141.914 37.8615 141.835 38.1804 141.765C38.3395 141.73 38.5025 141.699 38.6649 141.667C38.8351 141.636 38.795 141.642 38.5445 141.683C38.6455 141.667 38.7476 141.652 38.8506 141.639C39.2363 141.592 39.6172 141.553 40.0106 141.519C40.4884 141.477 40.0853 141.511 39.9781 141.515C40.2765 141.505 40.5737 141.502 40.8734 141.503C42.226 141.508 43.5281 141.045 43.4704 140.465C43.4137 139.895 42.3433 139.383 40.8934 139.378Z" fill="#F953B2"/>
<path d="M31.8302 143.402C30.2321 143.387 28.634 143.372 27.0359 143.357C25.6827 143.344 24.3818 143.821 24.439 144.395C24.4963 144.971 25.5656 145.468 27.0159 145.482C28.614 145.497 30.2121 145.512 31.8102 145.527C33.1633 145.54 34.4643 145.063 34.4071 144.489C34.3497 143.913 33.2804 143.416 31.8302 143.402Z" fill="#F953B2"/>
<path d="M73.4278 143.794C71.8297 143.779 70.2316 143.764 68.6335 143.749C67.2803 143.736 65.9794 144.212 66.0365 144.787C66.0939 145.363 67.1632 145.86 68.6135 145.874C70.2116 145.889 71.8097 145.904 73.4078 145.919C74.7609 145.932 76.0619 145.455 76.0047 144.881C75.9473 144.304 74.878 143.807 73.4278 143.794Z" fill="#F953B2"/>
<path d="M73.7793 26.459C73.7793 33.698 68.9048 39.7943 62.2604 41.6562C68.9048 43.518 73.7793 49.6144 73.7793 56.8534C73.7793 49.6144 78.6538 43.518 85.2982 41.6562C78.6538 39.7943 73.7793 33.698 73.7793 26.459Z" fill="#6966ED"/>
<path d="M59.2744 56.6572C59.2744 62.0514 55.6421 66.5942 50.691 67.9816C55.6421 69.3689 59.2744 73.9117 59.2744 79.3059C59.2744 73.9117 62.9067 69.3689 67.8578 67.9816C62.9067 66.5942 59.2744 62.0514 59.2744 56.6572Z" fill="#6966ED"/>
<path d="M114.854 135.708C115.284 133.703 115.714 131.698 116.143 129.693C116.243 129.228 116.005 128.739 115.527 128.608C115.087 128.487 114.542 128.756 114.442 129.224C114.012 131.229 113.582 133.234 113.153 135.239C113.053 135.705 113.291 136.193 113.769 136.325C114.209 136.445 114.754 136.176 114.854 135.708Z" fill="#6966ED"/>
<path d="M129.05 130.552C129.336 131.268 129.623 131.985 129.909 132.701C129.998 132.922 130.101 133.103 130.315 133.228C130.504 133.339 130.782 133.386 130.995 133.317C131.208 133.248 131.414 133.116 131.522 132.911C131.626 132.715 131.697 132.447 131.611 132.231C131.324 131.515 131.038 130.799 130.752 130.083C130.663 129.862 130.56 129.681 130.346 129.556C130.157 129.445 129.878 129.398 129.666 129.467C129.453 129.536 129.247 129.668 129.139 129.872C129.035 130.069 128.963 130.336 129.05 130.552Z" fill="#6966ED"/>
<path d="M137.335 124.293C138.764 126.157 140.193 128.022 141.622 129.886C141.902 130.251 142.395 130.483 142.83 130.202C143.19 129.97 143.447 129.387 143.146 128.995C141.717 127.131 140.288 125.267 138.858 123.403C138.579 123.038 138.086 122.806 137.651 123.086C137.291 123.319 137.034 123.902 137.335 124.293Z" fill="#6966ED"/>
</svg>
