<svg width="320" height="320" viewBox="0 0 320 320" fill="none" xmlns="http://www.w3.org/2000/svg">
<path d="M99.3645 159.713L90.5689 110.999C90.206 108.989 88.4563 107.527 86.4138 107.527H38.6633C36.5373 107.527 34.6734 106.106 34.1097 104.056L33.5121 101.883C32.9484 99.8333 31.0844 98.4128 28.9584 98.4128H12.724C9.77989 98.4128 7.55336 101.077 8.0765 103.975L18.0428 159.173H18.085L18.6497 162.3C19.2755 165.766 22.2924 168.287 25.8143 168.287H92.2C96.7386 168.287 100.171 164.179 99.3645 159.713Z" fill="#6966ED"/>
<path d="M27.2494 162.37L22.3756 115.003C22.1365 112.679 23.9596 110.659 26.2955 110.659H95.8259C97.7619 110.659 99.4111 112.065 99.717 113.977L104.229 142.174L31.8045 165.35C29.6845 166.028 27.4773 164.584 27.2494 162.37Z" fill="white"/>
<path d="M31.1131 164.865L26.3304 117.698C26.095 115.377 27.9174 113.36 30.2509 113.36H99.7878C101.724 113.36 103.373 114.766 103.679 116.678L108.19 144.875L31.1131 164.865Z" fill="#F4D13B"/>
<path d="M25.891 168.287H102.624C106.352 168.287 109.477 165.471 109.865 161.764L114.096 121.302C114.357 118.81 112.402 116.641 109.897 116.641H39.2208C37.0631 116.641 35.2525 118.268 35.0225 120.413L30.8862 158.996C30.497 162.626 28.7044 165.96 25.891 168.287Z" fill="#6966ED"/>
<path d="M26.5665 105.796H15.4898C14.8287 105.796 14.2524 105.346 14.0921 104.705C13.8647 103.796 14.5525 102.915 15.4898 102.915H26.5665C27.2276 102.915 27.8038 103.365 27.9642 104.006C28.1915 104.916 27.5038 105.796 26.5665 105.796Z" fill="#F4D13B"/>
<path d="M127.098 171.959L118.302 123.245C117.939 121.235 116.19 119.773 114.147 119.773H66.3968C64.2708 119.773 62.4069 118.352 61.8432 116.302L61.2456 114.129C60.6819 112.079 58.8179 110.659 56.6919 110.659H40.4576C37.5134 110.659 35.2869 113.323 35.81 116.221L45.7763 171.419H45.8185L46.3832 174.546C47.009 178.012 50.026 180.533 53.5478 180.533H119.934C124.472 180.533 127.904 176.425 127.098 171.959Z" fill="#F953B2"/>
<path d="M54.9829 174.616L50.1091 127.249C49.87 124.925 51.6931 122.905 54.029 122.905H123.559C125.495 122.905 127.145 124.311 127.451 126.223L131.962 154.42L59.538 177.596C57.418 178.274 55.2108 176.83 54.9829 174.616Z" fill="white"/>
<path d="M58.8465 177.111L54.0638 129.944C53.8284 127.622 55.6508 125.606 57.9843 125.606H127.521C129.457 125.606 131.106 127.012 131.412 128.924L135.924 157.121L58.8465 177.111Z" fill="#6966ED"/>
<path d="M53.6244 180.533H130.357C134.085 180.533 137.211 177.717 137.598 174.01L141.829 133.548C142.09 131.056 140.136 128.887 137.63 128.887H66.9542C64.7965 128.887 62.9859 130.514 62.7559 132.659L58.6196 171.242C58.2304 174.872 56.4378 178.206 53.6244 180.533Z" fill="#F953B2"/>
<path d="M54.3 118.042H43.2233C42.5622 118.042 41.9859 117.592 41.8256 116.951C41.5983 116.042 42.286 115.161 43.2233 115.161H54.3C54.9611 115.161 55.5374 115.611 55.6977 116.252C55.925 117.161 55.2373 118.042 54.3 118.042Z" fill="#6966ED"/>
<path d="M166.357 184.025L157.561 135.311C157.199 133.301 155.449 131.839 153.406 131.839H105.656C103.53 131.839 101.666 130.418 101.102 128.368L100.505 126.195C99.9409 124.145 98.0769 122.725 95.951 122.725H79.7166C76.7724 122.725 74.5459 125.389 75.069 128.286L85.0353 183.484H85.0776L85.6422 186.612C86.2681 190.078 89.285 192.598 92.8069 192.598H159.193C163.731 192.598 167.163 188.491 166.357 184.025Z" fill="#F4D13B"/>
<path d="M94.242 186.682L89.3681 139.314C89.1291 136.991 90.9522 134.971 93.288 134.971H162.818C164.754 134.971 166.404 136.377 166.71 138.288L171.221 166.486L98.7971 189.662C96.677 190.34 94.4698 188.896 94.242 186.682Z" fill="white"/>
<path d="M98.1056 189.177L93.323 142.01C93.0876 139.688 94.9099 137.672 97.2434 137.672H166.78C168.716 137.672 170.366 139.078 170.671 140.99L175.183 169.187L98.1056 189.177Z" fill="#F953B2"/>
<path d="M92.8835 192.598H169.617C173.344 192.598 176.47 189.783 176.857 186.075L181.089 145.614C181.349 143.122 179.395 140.953 176.889 140.953H106.213C104.056 140.953 102.245 142.579 102.015 144.725L97.8787 183.308C97.4896 186.938 95.697 190.272 92.8835 192.598Z" fill="#F4D13B"/>
<path d="M93.5591 130.108H82.4823C81.8212 130.108 81.245 129.658 81.0846 129.017C80.8573 128.108 81.545 127.227 82.4823 127.227H93.5591C94.2201 127.227 94.7964 127.677 94.9567 128.318C95.1841 129.227 94.4963 130.108 93.5591 130.108Z" fill="#F953B2"/>
<path d="M268.145 250.223C271.558 248.355 275.108 246.691 278.877 245.68C282.367 244.744 286.197 244.298 289.702 245.392C292.908 246.392 295.643 248.436 298.49 250.147C301.223 251.789 304.512 253.59 307.808 252.834C312.878 251.67 313.112 245.206 312.615 241.074C311.935 235.414 310.837 229.737 308.932 224.354C307.031 218.986 303.115 210.155 296.032 211.285C295.627 211.35 295.322 211.906 295.466 212.282C296.089 213.914 297.812 214.479 299.429 214.001C301.327 213.441 302.308 211.685 302.184 209.755C301.938 205.946 298.552 202.513 295.545 200.497C289.405 196.38 281.405 196.056 274.27 196.551C270.431 196.817 266.617 197.364 262.823 197.988C258.773 198.653 254.716 199.313 250.691 200.113C240.139 202.21 229.787 205.177 219.499 208.297C198.877 214.552 178.195 221.542 156.578 223.287C155.23 223.396 153.88 223.49 152.529 223.552C151.613 223.594 150.455 223.609 149.68 223.027C147.918 221.703 153.347 219.562 154.227 219.294C156.551 218.588 158.984 218.369 161.4 218.251C164.235 218.112 167.074 218.043 169.911 217.945C181.853 217.532 193.795 217.124 205.737 216.727C217.802 216.325 229.867 215.932 241.933 215.553C246.135 215.42 250.447 215.323 254.509 216.583C257.903 217.635 261.708 220.258 261.627 224.225C261.593 225.893 260.841 227.643 259.041 227.92C258.628 227.983 258.341 228.54 258.475 228.917C259.933 233.038 260.916 237.35 261.596 241.664C262.398 246.749 262.807 252.087 261.979 257.196C261.299 261.395 259.641 265.861 255.693 267.999C248.915 271.67 241.737 266.636 235.668 263.853C227.633 260.169 218.931 260.337 210.394 261.93C201.281 263.631 192.309 265.972 183.139 267.397C166.866 269.927 149.205 269.923 134.438 261.672C128.048 258.102 122.49 253.014 118.945 246.564C115.845 240.927 114.387 234.432 114.975 228.013C115.568 221.543 118.357 215.388 122.768 210.628C128.392 204.56 136.191 200.888 143.974 198.448C161.812 192.857 180.744 192.524 199.271 192.711C208.719 192.806 218.17 193.036 227.617 192.78C236.646 192.535 245.785 191.952 254.646 190.112C262.52 188.476 270.212 185.581 276.431 180.362C281.433 176.164 285.209 170.703 287.576 164.632C292.345 152.399 291.401 138.356 287.449 126.04C286.497 123.074 285.349 120.175 284.024 117.357C283.581 116.413 282.183 117.235 282.624 118.175C288.223 130.084 290.806 144.113 288.1 157.117C286.769 163.518 284.068 169.652 279.838 174.674C274.672 180.808 267.698 184.783 260.077 187.075C251.519 189.649 242.458 190.467 233.57 190.927C224.011 191.423 214.434 191.283 204.867 191.158C185.915 190.909 166.718 190.78 148.23 195.552C140.034 197.668 131.926 200.786 125.254 206.115C120.003 210.309 116.084 216.071 114.321 222.573C110.732 235.81 116.332 249.733 126.671 258.312C139.186 268.695 156.194 271.357 171.982 270.29C181.463 269.65 190.801 267.781 200.073 265.781C208.92 263.874 218.041 261.354 227.152 262.869C231.498 263.592 235.301 265.444 239.202 267.392C242.625 269.101 246.247 270.817 250.147 270.9C255.179 271.007 259.529 268.242 261.697 263.743C263.849 259.277 264.176 254.063 263.978 249.184C263.77 244.046 262.923 238.914 261.661 233.933C261.196 232.096 260.67 230.273 260.037 228.486L259.471 229.483C263.269 228.899 263.931 223.934 262.57 221.028C260.89 217.441 257.213 215.493 253.509 214.635C249.098 213.612 244.553 213.849 240.067 213.991C233.973 214.183 227.878 214.379 221.783 214.577C209.717 214.97 197.65 215.374 185.584 215.785C179.489 215.993 173.394 216.203 167.299 216.415C162.289 216.589 156.862 216.346 152.148 218.33C150.471 219.035 147.547 220.399 147.682 222.601C147.795 224.45 149.996 225.086 151.52 225.182C152.744 225.26 154.011 225.096 155.231 225.01C156.577 224.915 157.92 224.799 159.262 224.664C162.006 224.389 164.741 224.034 167.466 223.612C178.164 221.957 188.662 219.234 199.043 216.199C209.575 213.12 220.01 209.715 230.568 206.725C235.848 205.23 241.159 203.838 246.516 202.647C251.139 201.618 255.797 200.817 260.465 200.02C267.919 198.747 275.545 197.498 283.128 198.197C286.762 198.532 290.438 199.383 293.626 201.213C295.208 202.121 296.633 203.262 297.848 204.624C299.253 206.199 300.951 208.487 300.519 210.72C300.34 211.65 299.734 212.288 298.806 212.489C298.168 212.627 297.298 212.556 297.029 211.851L296.463 212.848C299.597 212.348 302.091 214.902 303.708 217.26C305.24 219.496 306.365 221.994 307.28 224.537C309.112 229.625 310.217 234.998 310.904 240.354C311.36 243.904 311.859 250.74 306.922 251.353C303.641 251.761 300.359 249.425 297.722 247.766C295.152 246.149 292.548 244.47 289.586 243.67C285.963 242.691 282.021 243.157 278.446 244.117C274.548 245.165 270.857 246.891 267.326 248.824C266.411 249.324 267.228 250.725 268.145 250.223Z" fill="black"/>
<path d="M257.587 88.0628C255.341 88.7689 253.027 89.257 250.687 89.5178C249.12 89.6924 247.498 89.7595 246.005 89.2529C242.706 88.1329 240.851 84.2681 241.351 80.8202C241.493 79.8394 241.792 78.8824 241.87 77.8944C242.033 75.8249 240.939 73.7359 238.97 72.9442C235.798 71.6689 232.999 74.0392 232.887 77.172C232.82 79.0485 232.853 80.9287 232.989 82.8016C231.885 82.4779 231.231 81.3584 230.791 80.2953C229.89 78.1144 230.204 74.4434 228.783 72.5993C227.045 70.3442 222.824 71.6175 220.387 71.3435C218.81 71.1662 217.125 70.7368 216.133 69.4973C215.153 68.2722 215.093 66.545 215.356 64.9984C216.177 60.1831 220.042 57.1453 224.18 54.9784C229.772 52.0504 235.895 49.8045 242.207 49.8364C248.518 49.8684 255.05 52.4788 258.664 57.6533C262.485 63.1241 262.499 70.2981 262.38 76.9702C262.361 78.042 262.348 79.1462 262.74 80.1438C263.04 80.9073 263.565 81.5709 263.827 82.348C264.874 85.4452 259.718 87.3931 257.587 88.0628Z" fill="black"/>
<path d="M257.372 87.2814C255.588 87.8381 253.765 88.2644 251.917 88.5457C250.203 88.8066 248.345 89.0525 246.644 88.5992C244.118 87.9264 242.502 85.5005 242.149 83.0029C242.063 82.3915 242.057 81.7588 242.122 81.1446C242.208 80.3208 242.454 79.518 242.581 78.6994C242.815 77.1874 242.633 75.6546 241.804 74.3383C240.263 71.8914 236.785 70.9286 234.372 72.7054C233.097 73.6445 232.323 75.0582 232.125 76.6213C232.004 77.5739 232.036 78.5603 232.045 79.5188C232.055 80.6143 232.101 81.7089 232.178 82.8016L233.204 82.0202C232.405 81.7634 231.953 80.9231 231.63 80.2061C231.308 79.4912 231.157 78.7086 231.032 77.939C230.746 76.1904 230.67 74.311 229.818 72.7165C228.077 69.455 223.855 70.671 220.897 70.5688C219.319 70.5143 217.322 70.0697 216.493 68.5802C215.618 67.0093 216.065 64.8603 216.662 63.2718C217.914 59.9401 220.959 57.6651 223.971 56.0098C231.299 51.9821 240.143 49.1041 248.454 51.5653C251.99 52.6123 255.318 54.6038 257.59 57.5495C260.031 60.7136 261.034 64.7112 261.392 68.6268C261.582 70.6994 261.614 72.783 261.598 74.863C261.59 75.9073 261.541 76.9545 261.566 77.9986C261.595 79.2359 261.863 80.3291 262.464 81.4108C262.685 81.8096 262.939 82.2057 263.072 82.6454C263.097 82.7255 263.116 82.8063 263.134 82.8881C263.188 83.1356 263.133 82.7425 263.149 82.9885C263.154 83.0659 263.153 83.1424 263.155 83.2197C263.155 83.2376 263.132 83.4799 263.156 83.305C263.074 83.8905 262.802 84.2672 262.385 84.6862C261.495 85.5787 260.104 86.2642 258.971 86.7147C258.445 86.9237 257.911 87.1111 257.372 87.2814C256.381 87.5943 256.804 89.1596 257.803 88.8443C259.153 88.418 260.496 87.8934 261.722 87.1809C262.967 86.4577 264.302 85.4204 264.674 83.9555C264.885 83.126 264.725 82.3237 264.376 81.5589C264.149 81.0603 263.846 80.6013 263.606 80.1092C263.352 79.5896 263.243 79.0123 263.205 78.4388C263.131 77.2965 263.208 76.1394 263.218 74.9954C263.227 73.9325 263.224 72.8693 263.194 71.8067C263.075 67.4939 262.528 63.0701 260.531 59.1852C258.663 55.5528 255.506 52.7595 251.801 51.0918C247.985 49.3746 243.774 48.7629 239.616 49.1378C234.799 49.5721 230.185 51.1594 225.843 53.2393C222.279 54.9467 218.665 56.9925 216.389 60.3331C214.308 63.3879 212.99 69.0748 216.986 71.2248C218.611 72.099 220.52 72.2594 222.33 72.1575C223.203 72.1083 224.076 72.0338 224.952 72.0391C225.707 72.0437 226.521 72.1056 227.152 72.3646C227.832 72.6442 228.221 73.0806 228.53 73.7563C228.881 74.5259 229.033 75.4552 229.165 76.3065C229.452 78.1469 229.598 80.0053 230.551 81.6534C231.064 82.5386 231.784 83.2652 232.773 83.5831C233.25 83.7364 233.835 83.3167 233.799 82.8016C233.668 80.9552 233.625 79.1003 233.694 77.2502C233.738 76.0897 234.185 75.0001 235.047 74.2285C236.856 72.6096 239.779 73.5527 240.731 75.764C241.339 77.1772 240.949 78.5807 240.671 80.0187C240.398 81.4299 240.396 82.8416 240.75 84.2405C241.405 86.8327 243.212 89.1572 245.79 90.0344C247.724 90.6926 249.835 90.4587 251.816 90.1856C253.846 89.9058 255.847 89.4546 257.803 88.8443C258.795 88.5346 258.372 86.9694 257.372 87.2814Z" fill="black"/>
<path d="M128.796 121.192C126.162 120.998 126.556 117.949 127.103 116.083C127.914 113.313 129.85 110.953 131.829 108.912C134.281 106.382 137.287 104.634 140.794 104.086C144.366 103.527 148.129 103.946 151.62 104.79C159.269 106.638 166.271 110.715 172.533 115.38C178.575 119.881 183.94 125.134 188.929 130.76C193.866 136.326 199.333 141.882 202.23 148.861C203.676 152.343 204.352 156.132 203.928 159.894C203.84 160.668 203.604 161.494 203.074 162.089C202.623 162.595 202.02 162.643 201.645 162.02C201.247 161.359 201.245 160.492 201.198 159.745C201.149 158.988 201.109 158.23 201.078 157.472C200.818 151.152 201.128 144.781 202.184 138.54C203.245 132.265 205.04 126.045 207.999 120.389C210.843 114.952 214.802 110.068 219.928 106.635C222.746 104.748 225.822 103.355 229.06 102.361C233.646 100.953 238.506 99.9717 243.311 99.9101C245.694 99.8795 248.076 99.9873 250.459 99.9503C251.501 99.9341 251.504 98.3133 250.459 98.3295C247.839 98.3702 245.22 98.2349 242.6 98.3029C240.047 98.3692 237.543 98.7512 235.038 99.2328C230.79 100.049 226.569 101.203 222.689 103.15C216.761 106.126 211.917 110.854 208.396 116.442C204.809 122.136 202.548 128.615 201.175 135.178C199.782 141.832 199.254 148.668 199.395 155.46C199.428 157.058 199.493 158.658 199.61 160.252C199.734 161.927 200.339 164.207 202.454 164.121C204.368 164.044 205.316 161.802 205.516 160.184C205.767 158.161 205.7 156.115 205.396 154.102C204.189 146.124 198.865 139.54 193.691 133.671C191.166 130.807 188.66 127.909 186.008 125.16C183.199 122.248 180.228 119.49 177.103 116.92C170.668 111.625 163.497 106.928 155.557 104.245C148.516 101.867 139.696 100.775 133.337 105.447C131.831 106.553 130.505 107.863 129.312 109.298C128.294 110.521 127.218 111.817 126.493 113.243C125.383 115.426 124.395 118.579 125.576 120.92C126.204 122.164 127.464 122.715 128.796 122.813C129.836 122.89 129.832 121.268 128.796 121.192Z" fill="black"/>
<path d="M133.689 114.451C131.737 117.148 129.786 119.845 127.834 122.542C126.526 124.348 125.219 126.155 123.912 127.961C123.498 128.532 123.085 129.104 122.671 129.675C122.427 130.013 122.153 130.351 121.967 130.725C121.019 132.632 121.651 134.967 123.454 136.114C125.33 137.307 127.705 136.697 129.013 134.994C128.546 134.721 128.08 134.449 127.613 134.176C126.429 135.837 126.667 138.254 128.204 139.617C129.874 141.096 132.413 141.007 133.972 139.41C133.547 139.083 133.123 138.755 132.699 138.428C131.518 140.481 132.27 143.253 134.469 144.267C136.35 145.135 138.426 144.509 139.65 142.884C141.068 141.002 142.467 139.105 143.876 137.216C144.42 136.486 144.964 135.757 145.508 135.027L144.108 134.209C143.126 135.567 142.143 136.925 141.161 138.283C140.494 139.205 139.827 140.128 139.16 141.05C138.844 141.486 138.449 141.923 138.219 142.415C137.418 144.127 138.31 146.145 139.45 147.474C140.625 148.843 142.497 149.509 144.231 148.844C145.09 148.515 145.771 147.945 146.282 147.184C146.576 146.747 146.846 146.295 147.151 145.866C147.63 145.193 148.216 144.554 148.921 144.113C149.451 143.782 150.071 143.568 150.61 143.538C151.901 143.465 153.098 144.052 154.206 144.84C155.518 145.774 156.636 146.996 157.65 148.238C158.644 149.456 159.515 150.759 160.368 152.077C161.571 153.937 162.798 155.782 164.066 157.599C168.968 164.621 174.563 171.343 181.425 176.535C187.978 181.493 195.819 185.035 204.095 185.539C205.103 185.6 206.114 185.612 207.124 185.58C208.164 185.547 208.169 183.926 207.124 183.959C199.05 184.217 191.262 181.296 184.629 176.838C177.68 172.169 171.979 165.759 167.072 159.034C165.836 157.34 164.644 155.614 163.48 153.869C162.441 152.31 161.461 150.707 160.378 149.177C159.422 147.825 158.391 146.513 157.227 145.333C156.162 144.253 154.951 143.223 153.566 142.579C152.246 141.965 150.757 141.686 149.34 142.142C147.649 142.686 146.412 144.027 145.462 145.474C145.24 145.811 145.04 146.172 144.797 146.495C144.364 147.073 143.655 147.451 142.935 147.483C141.372 147.552 140.166 146.154 139.711 144.772C139.508 144.156 139.425 143.486 139.761 142.971C139.845 142.842 139.942 142.72 140.032 142.596C140.554 141.875 141.075 141.154 141.596 140.434C142.821 138.742 144.045 137.05 145.269 135.357C145.348 135.247 145.428 135.137 145.508 135.027C145.764 134.672 145.569 134.124 145.217 133.918C144.804 133.676 144.371 133.857 144.108 134.209C142.944 135.771 141.779 137.333 140.614 138.895C139.949 139.787 139.284 140.679 138.619 141.572C138.076 142.299 137.497 142.938 136.52 143.041C134.463 143.257 133.088 141.003 134.098 139.246C134.553 138.456 133.477 137.596 132.826 138.264C131.868 139.245 130.284 139.361 129.264 138.392C128.294 137.469 128.256 136.056 129.013 134.994C129.267 134.638 129.075 134.092 128.722 133.885C128.304 133.641 127.88 133.828 127.613 134.176C126.747 135.304 125.007 135.425 123.967 134.481C122.952 133.56 122.91 132.12 123.677 131.037C124.262 130.211 124.864 129.398 125.457 128.578C127.984 125.086 130.512 121.593 133.04 118.1C133.723 117.157 134.406 116.213 135.089 115.269C135.346 114.915 135.15 114.366 134.798 114.161C134.389 113.921 133.947 114.096 133.689 114.451Z" fill="black"/>
<path d="M227.271 258.413C226.584 256.789 227.576 254.675 229.293 254.236C230.978 253.806 232.879 254.883 233.044 256.694C233.136 257.704 232.776 258.683 231.993 259.348C232.444 259.467 232.896 259.586 233.347 259.705C233.085 259.023 233.365 258.323 233.985 257.855C234.684 257.326 235.588 257.397 236.337 257.803C238.35 258.894 238.757 261.372 239.12 263.421C239.196 263.852 239.723 264.095 240.117 263.987C240.571 263.862 240.759 263.422 240.683 262.99C240.195 260.232 239.358 257.124 236.418 256.079C235.16 255.632 233.798 255.874 232.791 256.746C231.851 257.56 231.322 258.935 231.784 260.136C232.011 260.726 232.648 260.91 233.139 260.494C235.185 258.759 235.191 255.254 233.077 253.575C230.883 251.835 227.52 252.331 226.111 254.81C225.333 256.18 225.263 257.791 225.872 259.231C226.042 259.635 226.637 259.723 226.98 259.522C227.398 259.278 227.442 258.818 227.271 258.413Z" fill="black"/>
<path d="M134.183 139.253C136.059 136.785 137.934 134.317 139.81 131.848C140.075 131.499 140.341 131.15 140.606 130.801C140.871 130.453 140.661 129.895 140.315 129.693C139.899 129.449 139.472 129.634 139.207 129.983C137.331 132.451 135.455 134.92 133.579 137.388C133.314 137.737 133.049 138.086 132.783 138.435C132.518 138.784 132.728 139.341 133.074 139.544C133.49 139.787 133.917 139.602 134.183 139.253Z" fill="black"/>
<path d="M128.774 135.365C130.65 132.897 132.525 130.429 134.401 127.961C134.666 127.612 134.932 127.263 135.197 126.914C135.462 126.565 135.252 126.007 134.906 125.805C134.49 125.561 134.063 125.746 133.797 126.096C131.922 128.564 130.046 131.032 128.17 133.5C127.905 133.849 127.64 134.198 127.374 134.547C127.109 134.896 127.319 135.454 127.665 135.656C128.081 135.899 128.508 135.715 128.774 135.365Z" fill="black"/>
<path d="M174.62 105.269C178.157 100.925 183.843 99.2257 189.29 99.5988C195.137 99.9991 200.884 102.434 205.579 105.875C209.918 109.055 213.521 113.114 217.162 117.04C221.496 121.713 226.044 126.191 230.515 130.732C235.255 135.546 239.995 140.36 244.735 145.173C249.064 149.569 253.417 153.974 258.285 157.783C262.946 161.429 268.072 164.524 273.722 166.37C278.621 167.971 283.952 168.515 289.079 167.93C291.397 167.665 293.729 167.15 295.79 166.018C297.963 164.825 299.436 162.876 300.694 160.787C303.655 155.873 305.012 150.135 304.842 144.421C304.655 138.126 302.877 132.023 300.598 126.194C298.459 120.722 295.9 115.382 292.564 110.531C289.348 105.856 285.433 101.673 280.747 98.4482C278.447 96.8659 275.981 95.5434 273.385 94.5161C271.112 93.6168 268.722 93.1351 266.417 92.3409C264.631 91.7257 262.847 90.9136 261.434 89.6338C259.898 88.2428 258.975 86.4167 258.531 84.4077C257.861 81.3781 258.344 78.2483 257.956 75.1883C257.651 72.7812 256.853 70.4605 255.645 68.3567C253.233 64.1562 249.262 60.8622 244.661 59.3339C240.293 57.8833 235.416 58.1966 231.119 59.7433C226.751 61.3159 222.786 64.1614 220.24 68.0834C218.823 70.2664 217.985 72.7122 217.623 75.2829C217.21 78.2145 217.292 81.1769 217.132 84.1261C217.096 84.7982 217.047 85.4698 216.975 86.139C216.903 86.8018 216.629 87.6165 216.831 88.2721C216.981 88.7613 217.385 89.1066 217.862 89.2609C218.312 89.4066 218.856 89.3243 219.271 89.5603L218.899 89.076C220.204 92.4115 221.732 95.8321 224.702 98.0156C227.846 100.327 231.904 101.168 235.732 100.646C236.169 100.587 236.398 100.032 236.298 99.6495C236.174 99.1804 235.732 99.0246 235.301 99.0835C232.35 99.4859 229.263 98.8638 226.688 97.374C224.229 95.9507 222.691 93.6825 221.514 91.1516C221.245 90.5714 220.995 89.9827 220.756 89.3892C220.465 88.6671 220.302 88.1303 219.488 87.9078C219.217 87.8336 218.932 87.8276 218.656 87.7801C218.579 87.7668 218.504 87.752 218.427 87.7365C218.137 87.6787 218.378 87.7871 218.381 87.7206C218.405 86.9793 218.595 86.216 218.66 85.4728C218.93 82.3769 218.782 79.2575 219.131 76.1669C219.432 73.5032 220.25 70.9955 221.735 68.7567C223.038 66.7928 224.772 65.1071 226.717 63.7824C230.613 61.1289 235.395 59.7309 240.111 60.0736C245.063 60.4334 249.622 63.0415 252.703 66.8951C254.268 68.852 255.425 71.1523 256.023 73.5865C256.774 76.6455 256.326 79.789 256.66 82.8909C256.907 85.1957 257.565 87.473 258.982 89.3407C260.225 90.9784 261.915 92.175 263.774 93.0245C265.817 93.9583 267.97 94.4821 270.118 95.1067C272.938 95.9268 275.619 97.1532 278.126 98.6791C288.502 104.996 294.872 115.881 299.157 126.937C301.529 133.059 303.354 139.505 303.232 146.125C303.126 151.896 301.251 157.873 297.613 162.409C294.625 166.132 289.164 166.562 284.736 166.507C278.885 166.435 273.311 164.942 268.115 162.263C262.461 159.347 257.504 155.31 252.892 150.966C247.998 146.355 243.36 141.466 238.643 136.676C233.747 131.704 228.851 126.732 223.955 121.76C221.829 119.601 219.726 117.427 217.668 115.203C215.766 113.147 213.867 111.085 211.856 109.135C207.734 105.139 203.14 101.843 197.722 99.8529C192.015 97.7572 185.585 97.0516 179.858 99.4551C177.395 100.488 175.166 102.045 173.474 104.123C172.82 104.925 173.96 106.078 174.62 105.269Z" fill="black"/>
<path d="M221.749 78.3839C221.793 78.3596 221.839 78.3387 221.884 78.3157C221.946 78.2841 221.782 78.3534 221.847 78.3311C221.868 78.3239 221.889 78.3152 221.91 78.3078C222.005 78.2747 222.103 78.2491 222.201 78.2309C222.22 78.2275 222.3 78.2169 222.212 78.2274C222.115 78.2391 222.228 78.2264 222.241 78.2253C222.285 78.2212 222.33 78.2187 222.375 78.2175C222.476 78.215 222.576 78.231 222.677 78.2316C222.654 78.2315 222.559 78.2127 222.633 78.2267C222.655 78.2308 222.677 78.2344 222.699 78.2388C222.748 78.2487 222.797 78.2605 222.846 78.2739C222.895 78.2874 222.943 78.3025 222.99 78.3194C223.01 78.3266 223.032 78.339 223.053 78.343C223.03 78.3386 222.95 78.296 223.017 78.3278C223.107 78.3716 223.196 78.4173 223.281 78.4728C223.299 78.485 223.317 78.498 223.336 78.5105C223.401 78.5538 223.312 78.5031 223.307 78.4863C223.316 78.515 223.409 78.5732 223.434 78.5966C223.64 78.7901 223.996 78.8163 224.198 78.5966C224.391 78.3865 224.418 78.0392 224.198 77.8326C223.398 77.0822 222.166 76.9239 221.203 77.4509C220.955 77.5869 220.855 77.9496 221.01 78.1901C221.172 78.4416 221.483 78.5293 221.749 78.3839Z" fill="black"/>
<path d="M222.248 80.8255C221.577 81.6358 222.823 82.4334 223.285 81.5835C223.683 80.8495 222.833 80.1191 222.248 80.8255Z" fill="black"/>
<path d="M221.866 80.4435C221.785 80.5426 221.701 80.6447 221.648 80.7624C221.616 80.8343 221.582 80.9074 221.559 80.9833C221.536 81.0619 221.528 81.147 221.518 81.2273C221.505 81.3386 221.522 81.4515 221.543 81.5609C221.562 81.6638 221.608 81.7647 221.656 81.8564C221.855 82.2368 222.274 82.4684 222.694 82.4874C222.8 82.4921 222.91 82.4765 223.012 82.4508C223.117 82.4245 223.222 82.3802 223.313 82.3221C223.519 82.1909 223.692 81.9998 223.79 81.7752C223.824 81.6982 223.859 81.6205 223.881 81.539C223.905 81.4525 223.916 81.3583 223.924 81.2706C223.935 81.1467 223.918 81.0181 223.891 80.8977C223.882 80.8591 223.869 80.8217 223.855 80.785C223.825 80.7102 223.795 80.6326 223.753 80.5634C223.693 80.4659 223.619 80.3666 223.53 80.2928C223.392 80.1785 223.272 80.1042 223.101 80.0466C222.984 80.0072 222.85 79.9888 222.727 80.0009C222.542 80.0191 222.388 80.0576 222.223 80.148C222.089 80.2214 221.964 80.3265 221.866 80.4435C221.771 80.5555 221.707 80.6745 221.707 80.8256C221.707 80.9581 221.766 81.1163 221.866 81.2076C221.969 81.3021 222.104 81.3722 222.248 81.3658C222.384 81.3597 222.538 81.316 222.63 81.2076C222.676 81.1518 222.728 81.101 222.785 81.0564L222.676 81.1409C222.723 81.106 222.772 81.0763 222.826 81.0528L222.697 81.1072C222.745 81.087 222.795 81.0727 222.847 81.0648L222.704 81.0841C222.753 81.0778 222.801 81.0774 222.85 81.0832L222.707 81.0639C222.758 81.0709 222.807 81.0844 222.855 81.1041L222.726 81.0497C222.773 81.0703 222.817 81.0962 222.858 81.1274L222.748 81.043C222.793 81.0778 222.832 81.1173 222.866 81.1617L222.782 81.0524C222.816 81.0987 222.845 81.1482 222.867 81.2013L222.813 81.0722C222.835 81.1279 222.851 81.1851 222.86 81.2446L222.84 81.101C222.848 81.1641 222.848 81.2268 222.841 81.29L222.86 81.1464C222.85 81.2198 222.831 81.2904 222.803 81.3589L222.857 81.2298C222.827 81.2999 222.789 81.3659 222.743 81.4266L222.827 81.3172C222.79 81.3644 222.749 81.4069 222.701 81.4437L222.81 81.3593C222.769 81.39 222.726 81.4155 222.679 81.4357L222.808 81.3812C222.76 81.4009 222.711 81.4142 222.659 81.4215L222.803 81.4022C222.75 81.4089 222.696 81.4088 222.643 81.4024L222.786 81.4217C222.724 81.4133 222.663 81.3964 222.605 81.372L222.734 81.4264C222.679 81.4024 222.627 81.372 222.58 81.3356L222.689 81.4201C222.642 81.383 222.599 81.3408 222.563 81.2932L222.647 81.4026C222.615 81.3595 222.588 81.3134 222.566 81.2639L222.621 81.3929C222.601 81.3452 222.588 81.2959 222.58 81.2448L222.599 81.3884C222.592 81.3347 222.592 81.2811 222.599 81.2273L222.58 81.3709C222.588 81.3121 222.604 81.2555 222.626 81.2005L222.572 81.3295C222.602 81.2585 222.641 81.193 222.688 81.1315L222.603 81.2409C222.612 81.2296 222.621 81.2185 222.63 81.2076C222.682 81.1586 222.72 81.1007 222.741 81.0337C222.775 80.9693 222.791 80.9 222.788 80.8256C222.788 80.693 222.729 80.5348 222.63 80.4435C222.527 80.349 222.392 80.2789 222.248 80.2853C222.113 80.2914 221.955 80.3345 221.866 80.4435Z" fill="black"/>
<path d="M226.024 87.7529C226.022 87.7939 226.02 87.8349 226.016 87.8758C226.014 87.9018 226.011 88.0404 226.017 87.8949C226.014 87.9678 225.992 88.045 225.976 88.116C225.941 88.2694 225.893 88.4181 225.838 88.5649C225.789 88.6939 225.888 88.4621 225.828 88.5866C225.811 88.6235 225.794 88.6608 225.775 88.6974C225.742 88.7646 225.706 88.8305 225.667 88.8951C225.629 88.9598 225.588 89.0232 225.546 89.0852C225.522 89.1189 225.497 89.1514 225.474 89.1852C225.549 89.0762 225.472 89.1872 225.457 89.2051C225.362 89.3211 225.258 89.4307 225.147 89.5326C225.087 89.5883 225.024 89.6402 224.96 89.6923C225.064 89.607 224.956 89.6934 224.939 89.706C224.905 89.7297 224.871 89.7527 224.837 89.7751C224.711 89.8575 224.579 89.9267 224.444 89.9927C224.321 90.053 224.551 89.9535 224.423 90.0024C224.385 90.017 224.346 90.0316 224.308 90.045C224.23 90.0719 224.151 90.0946 224.072 90.1152C223.798 90.1859 223.606 90.5051 223.695 90.7798C223.786 91.0619 224.066 91.2329 224.359 91.1571C225.894 90.7603 227.027 89.3268 227.104 87.7529C227.118 87.4702 226.846 87.2 226.564 87.2126C226.259 87.2263 226.039 87.4501 226.024 87.7529Z" fill="black"/>
<path d="M115.908 103.239C116.641 104.109 117.374 104.979 118.107 105.848C118.234 105.999 118.49 106.086 118.68 106.086C118.879 106.086 119.116 105.997 119.253 105.848C119.395 105.694 119.5 105.491 119.491 105.275C119.48 105.05 119.398 104.874 119.253 104.702C118.52 103.833 117.787 102.963 117.055 102.093C116.927 101.943 116.672 101.856 116.482 101.856C116.283 101.856 116.045 101.944 115.908 102.093C115.767 102.248 115.661 102.451 115.671 102.666C115.681 102.891 115.763 103.067 115.908 103.239Z" fill="#6966ED"/>
<path d="M135.598 93.0156C135.491 93.9787 135.384 94.9417 135.277 95.9047C135.255 96.0977 135.383 96.3463 135.514 96.4777C135.655 96.6183 135.885 96.7241 136.087 96.7151C136.297 96.7057 136.514 96.6368 136.66 96.4777C136.815 96.3097 136.873 96.1303 136.898 95.9047C137.005 94.9417 137.112 93.9786 137.219 93.0156C137.24 92.8227 137.113 92.574 136.981 92.4426C136.841 92.3021 136.61 92.1962 136.408 92.2053C136.199 92.2146 135.981 92.2835 135.835 92.4426C135.681 92.6106 135.623 92.7901 135.598 93.0156Z" fill="#6966ED"/>
<path d="M152.517 95.9927C152.731 95.5647 152.945 95.1367 153.159 94.7087C153.257 94.5128 153.3 94.3006 153.24 94.0842C153.189 93.8963 153.043 93.6926 152.868 93.5999C152.68 93.5006 152.452 93.4507 152.244 93.5182C152.05 93.5808 151.853 93.7027 151.759 93.8906C151.545 94.3186 151.331 94.7467 151.117 95.1747C151.019 95.3705 150.976 95.5828 151.035 95.7991C151.087 95.9871 151.233 96.1908 151.408 96.2834C151.596 96.3828 151.824 96.4326 152.032 96.3651C152.226 96.3025 152.423 96.1807 152.517 95.9927Z" fill="#6966ED"/>
<path d="M70.5056 198.15C71.7888 197.613 73.0721 197.076 74.3553 196.539C74.5593 196.454 74.7232 196.366 74.8397 196.167C74.9413 195.993 74.9844 195.737 74.9214 195.542C74.8003 195.168 74.3432 194.801 73.9245 194.976C72.6412 195.513 71.358 196.05 70.0747 196.587C69.8708 196.672 69.7068 196.761 69.5904 196.959C69.4887 197.133 69.4457 197.389 69.5087 197.584C69.6298 197.958 70.0868 198.325 70.5056 198.15Z" fill="#F953B2"/>
<path d="M83.5473 207.504C83.8578 206.11 84.1683 204.717 84.4788 203.323C84.5708 202.911 84.354 202.427 83.9128 202.327C83.5022 202.233 83.0145 202.45 82.9159 202.893C82.6054 204.286 82.295 205.679 81.9845 207.073C81.8925 207.486 82.1093 207.969 82.5505 208.07C82.9611 208.163 83.4487 207.946 83.5473 207.504Z" fill="#F953B2"/>
<path d="M97.0923 204.728C97.0923 204.3 97.0923 203.871 97.0923 203.443C97.0923 203.236 97.0019 203.017 96.8549 202.87C96.7144 202.73 96.4838 202.624 96.2819 202.633C96.0723 202.642 95.8549 202.711 95.7089 202.87C95.5634 203.029 95.4716 203.224 95.4716 203.443C95.4716 203.871 95.4716 204.3 95.4716 204.728C95.4716 204.935 95.562 205.154 95.7089 205.301C95.8494 205.441 96.0801 205.547 96.2819 205.538C96.4915 205.529 96.7089 205.46 96.8549 205.301C97.0005 205.142 97.0923 204.947 97.0923 204.728Z" fill="#F953B2"/>
<path d="M282.123 238.51C282.742 236.951 283.594 234.885 285.47 234.621C287.122 234.388 288.738 235.574 288.788 237.272C288.815 238.216 288.447 239.103 287.717 239.722H288.863C288.916 239.784 288.937 239.559 288.953 239.52C289.032 239.326 289.174 239.158 289.314 239.01C289.571 238.742 289.889 238.521 290.221 238.377C291.03 238.023 291.967 238.008 292.788 238.32C294.547 238.989 295.357 241.169 295.025 242.928C294.943 243.358 295.144 243.803 295.591 243.925C295.986 244.034 296.506 243.791 296.587 243.359C297.008 241.132 296.263 238.731 294.394 237.368C292.687 236.122 290.188 236.218 288.547 237.525C287.569 238.303 286.76 239.762 287.717 240.868C288.02 241.218 288.549 241.134 288.863 240.868C290.741 239.277 290.938 236.172 289.242 234.381C287.483 232.525 284.448 232.56 282.672 234.346C281.648 235.377 281.087 236.753 280.56 238.079C280.398 238.486 280.737 238.969 281.126 239.076C281.587 239.203 281.96 238.919 282.123 238.51Z" fill="black"/>
<path d="M22.2351 174.443C24.3548 175.179 26.6004 175.95 28.8797 175.745C30.8649 175.566 32.7315 174.738 33.9166 173.092C34.157 172.758 33.9952 172.157 33.6258 171.983C32.8942 171.638 32.1207 171.765 31.5181 172.308C30.9068 172.86 30.7129 173.651 30.852 174.444C30.9901 175.232 31.4756 175.904 31.9631 176.515C32.3977 177.06 32.8801 177.565 33.4017 178.027C35.5529 179.931 38.2219 181.105 40.9361 181.965C42.4628 182.449 44.0179 182.836 45.5747 183.209C46.5885 183.451 47.0211 181.889 46.0056 181.646C41.5165 180.571 36.5138 179.353 33.3777 175.694C32.993 175.245 32.5249 174.704 32.4276 174.101C32.3938 173.892 32.4247 173.708 32.5527 173.561C32.6238 173.479 32.7065 173.438 32.7866 173.393C32.719 173.431 32.8915 173.422 32.8078 173.383C32.7109 173.013 32.614 172.643 32.5171 172.274C31.6205 173.519 30.0024 174.084 28.5207 174.148C26.4998 174.236 24.5464 173.533 22.666 172.88C22.2526 172.736 21.7796 173.044 21.6691 173.446C21.5465 173.892 21.8201 174.299 22.2351 174.443Z" fill="#F953B2"/>
</svg>
