<svg width="320" height="320" viewBox="0 0 320 320" fill="none" xmlns="http://www.w3.org/2000/svg">
<path d="M284.131 35.837H201.44V156.617H284.131V35.837Z" fill="#F953B2"/>
<path d="M273.043 62.5704V166.002H190.352V45.2225H258.088L273.043 62.5704Z" fill="#F4D13B"/>
<path d="M203.627 104.938H249.64C252.901 104.938 256.163 104.938 259.425 104.938H260.398C261.487 104.938 261.489 103.247 260.398 103.247H239.183C234.925 103.247 230.667 103.247 226.409 103.247H203.627C202.538 103.247 202.537 104.938 203.627 104.938Z" fill="black"/>
<path d="M203.627 113.398H237.616C241.624 113.398 245.632 113.398 249.64 113.398H260.398C261.487 113.398 261.489 111.706 260.398 111.706C257.269 111.706 254.139 111.706 251.009 111.706H214.386C211.124 111.706 207.862 111.706 204.601 111.706H203.627C202.538 111.706 202.537 113.398 203.627 113.398Z" fill="black"/>
<path d="M203.627 121.857H224.843C229.101 121.857 233.358 121.857 237.616 121.857H260.398C261.487 121.857 261.489 120.165 260.398 120.165H251.009C247.067 120.165 243.125 120.165 239.183 120.165H203.627C202.538 120.165 202.537 121.857 203.627 121.857Z" fill="black"/>
<path d="M203.627 130.316C206.757 130.316 209.887 130.316 213.016 130.316H260.398C261.487 130.316 261.489 128.624 260.398 128.624H239.183C234.925 128.624 230.667 128.624 226.409 128.624H203.627C202.538 128.624 202.537 130.316 203.627 130.316Z" fill="black"/>
<path d="M203.627 138.776H249.64C252.901 138.776 256.163 138.776 259.425 138.776H260.398C261.487 138.776 261.489 137.084 260.398 137.084C257.269 137.084 254.139 137.084 251.009 137.084H226.409C222.401 137.084 218.394 137.084 214.386 137.084H203.627C202.538 137.084 202.537 138.776 203.627 138.776Z" fill="black"/>
<path d="M227.689 147.235C235.98 147.235 244.271 147.235 252.563 147.235H260.398C261.487 147.235 261.489 145.543 260.398 145.543C252.107 145.543 243.816 145.543 235.525 145.543H227.689C226.6 145.543 226.599 147.235 227.689 147.235Z" fill="black"/>
<path d="M188.087 108.021C202.83 108.021 214.781 96.0697 214.781 81.3272C214.781 66.5846 202.83 54.6334 188.087 54.6334C173.345 54.6334 161.393 66.5846 161.393 81.3272C161.393 96.0697 173.345 108.021 188.087 108.021Z" fill="#6966ED"/>
<path d="M188.087 100.22C198.521 100.22 206.98 91.7612 206.98 81.3272C206.98 70.8932 198.521 62.4348 188.087 62.4348C177.653 62.4348 169.195 70.8932 169.195 81.3272C169.195 91.7612 177.653 100.22 188.087 100.22Z" fill="black"/>
<path d="M183.889 107.363H192.16V137.816C192.16 140.099 190.307 141.952 188.024 141.952C185.742 141.952 183.889 140.099 183.889 137.816V107.363Z" fill="#6966ED"/>
<path d="M189.489 116.93C189.426 115.229 188.976 113.178 190.511 111.97C191.216 111.416 192.046 111.274 192.913 111.274H198.369C198.928 111.274 199.526 111.223 200.082 111.305C201.37 111.494 202.51 112.463 202.735 113.771C202.851 114.445 202.77 115.192 202.77 115.872C202.77 116.785 202.784 117.7 202.77 118.613C202.748 120.039 201.54 121.019 200.165 121.047C199.077 121.068 199.075 122.717 200.165 122.738C201.5 122.765 202.77 123.729 202.77 125.144C202.77 126.558 201.5 127.522 200.165 127.549C199.077 127.571 199.075 129.219 200.165 129.241C201.5 129.268 202.77 130.232 202.77 131.646C202.77 133.061 201.5 134.025 200.165 134.052C199.077 134.073 199.075 135.722 200.165 135.743C201.351 135.767 202.503 136.514 202.733 137.733C202.951 138.889 202.194 139.968 201.124 140.367C200.616 140.556 200.106 140.554 199.577 140.563L197.624 140.597C194.838 140.645 192.052 140.709 189.265 140.742C188.769 140.747 188.272 140.819 187.801 140.982C186.668 141.376 185.755 142.131 185.056 143.097C183.94 144.64 183.523 146.608 183.342 148.468C183.014 151.836 183.513 155.283 184.173 158.58C185.315 164.282 187.16 169.839 189.197 175.276C190.095 177.674 191.084 180.012 191.615 182.525C192.025 184.462 192.205 186.417 192.171 188.417C192.105 192.347 191.158 196.288 189.423 199.83C187.634 203.482 185.065 206.695 181.906 209.256C178.532 211.992 174.507 213.873 170.292 214.883C165.285 216.082 160.025 216.039 154.975 215.12C152.052 214.588 149.025 213.873 146.305 212.659C143.795 211.538 141.353 210.258 139.03 208.785C135.147 206.324 131.624 203.3 128.756 199.697C126.299 196.61 124.374 193.074 123.056 189.402C121.796 185.894 121.022 182.157 120.651 178.542C120.283 174.956 120.252 171.344 120.406 167.745C120.548 164.444 120.851 161.153 121.163 157.865C121.424 155.116 121.715 152.359 121.767 149.596C121.805 147.6 121.772 145.44 121.04 143.553C120.737 142.772 120.328 142.041 119.726 141.448C118.95 140.683 117.753 141.878 118.53 142.644C118.592 142.705 118.652 142.767 118.71 142.832C118.748 142.875 118.933 143.102 118.835 142.976C118.734 142.847 118.907 143.078 118.936 143.121C118.99 143.201 119.042 143.283 119.091 143.366C119.186 143.527 119.268 143.693 119.349 143.861C119.369 143.905 119.387 143.949 119.407 143.993C119.421 144.024 119.335 143.799 119.393 143.964C119.429 144.064 119.469 144.163 119.504 144.263C119.647 144.681 119.754 145.111 119.836 145.545C119.857 145.657 119.877 145.769 119.895 145.882C119.904 145.94 119.912 145.998 119.921 146.055C119.956 146.266 119.911 145.964 119.926 146.082C119.955 146.326 119.983 146.57 120.003 146.815C120.212 149.297 120.009 151.812 119.799 154.287C119.533 157.434 119.191 160.573 118.956 163.722C118.69 167.27 118.546 170.832 118.675 174.39C118.813 178.181 119.258 181.978 120.165 185.665C121.116 189.53 122.596 193.281 124.641 196.7C126.903 200.482 129.842 203.841 133.23 206.653C135.187 208.278 137.277 209.739 139.464 211.036C140.637 211.732 141.837 212.382 143.057 212.99C144.404 213.661 145.782 214.355 147.209 214.838C152.676 216.689 158.494 217.738 164.278 217.435C169.076 217.184 173.816 216.002 178.082 213.77C181.918 211.763 185.272 208.921 187.904 205.488C190.414 202.214 192.218 198.381 193.137 194.358C194.066 190.292 194.103 186.048 193.224 181.97C192.67 179.401 191.642 177.008 190.727 174.554C189.577 171.471 188.508 168.355 187.579 165.198C186.331 160.958 185.257 156.595 184.993 152.238C184.909 150.844 184.926 149.453 185.077 148.064C185.103 147.827 185.068 148.117 185.086 147.989C185.095 147.93 185.103 147.872 185.112 147.813C185.134 147.672 185.157 147.53 185.183 147.389C185.23 147.133 185.283 146.879 185.345 146.627C185.455 146.181 185.593 145.744 185.759 145.316C185.774 145.276 185.791 145.236 185.807 145.196C185.851 145.084 185.715 145.391 185.805 145.204C185.846 145.118 185.884 145.03 185.925 144.945C186.007 144.778 186.094 144.613 186.189 144.453C186.276 144.305 186.369 144.16 186.468 144.02C186.513 143.956 186.561 143.894 186.607 143.83C186.451 144.045 186.572 143.876 186.646 143.788C186.828 143.574 187.027 143.378 187.238 143.194C187.286 143.153 187.337 143.116 187.385 143.075C187.216 143.219 187.277 143.153 187.392 143.075C187.491 143.009 187.589 142.942 187.692 142.882C187.787 142.825 187.885 142.773 187.985 142.724C188.027 142.703 188.071 142.685 188.113 142.664C188.307 142.566 187.918 142.729 188.074 142.68C188.247 142.626 188.413 142.557 188.589 142.512C188.686 142.488 188.934 142.489 189.008 142.431C188.867 142.542 188.758 142.449 188.965 142.441C189.01 142.439 189.055 142.435 189.1 142.433C190.836 142.371 192.578 142.376 194.314 142.346C196.001 142.317 197.688 142.287 199.375 142.258C199.858 142.25 200.337 142.253 200.816 142.181C202.166 141.979 203.46 141.114 204.056 139.867C204.659 138.607 204.579 137.075 203.769 135.92C202.936 134.733 201.605 134.08 200.165 134.052V135.743C202.419 135.698 204.458 133.992 204.462 131.646C204.466 129.301 202.413 127.594 200.165 127.549V129.241C202.419 129.196 204.458 127.489 204.462 125.144C204.466 122.798 202.413 121.092 200.165 121.047V122.738C201.938 122.703 203.571 121.691 204.212 120.007C204.555 119.107 204.462 118.093 204.462 117.148C204.462 116.2 204.468 115.253 204.462 114.306C204.453 112.804 203.76 111.445 202.554 110.55C200.828 109.269 198.515 109.582 196.49 109.582H193.345C192.395 109.582 191.48 109.612 190.585 109.993C188.898 110.71 187.688 112.374 187.697 114.234C187.701 115.132 187.764 116.033 187.797 116.93C187.838 118.016 189.53 118.021 189.489 116.93Z" fill="white"/>
<path d="M185.04 116.93C184.948 114.958 183.843 112.992 182.433 111.665C179.932 109.311 176.813 108.729 173.594 109.754C168.213 111.466 163.257 115.595 160.02 120.138C154.92 127.299 154.369 136.294 153.669 144.764C153.211 150.299 152.906 155.847 152.754 161.399C152.614 166.532 152.301 171.827 153.015 176.928C153.306 179.008 153.744 181.257 154.855 183.074C155.473 184.086 156.458 185.193 157.735 185.247C161.417 185.405 160.691 179.019 160.13 176.967C159.539 174.807 158.508 172.802 157.69 170.726C156.762 168.372 156.31 165.906 155.921 163.414C155.109 158.207 155.138 153.027 155.093 147.777C155.01 138.363 154.333 128.684 150.523 119.95C148.532 115.387 145.77 111.09 142.626 107.238C141.024 105.274 139.332 103.386 137.725 101.427C136.876 100.391 136.052 99.3364 135.27 98.2486C134.783 97.5706 134.304 96.7582 133.411 96.591C132.06 96.3379 130.98 97.8043 131.881 98.9251C132.636 99.8638 134.196 99.9839 135.301 100.092C139.026 100.458 142.851 99.2816 145.88 97.1147C147.638 95.8568 149.135 94.3136 150.407 92.5699C151.068 91.6636 151.697 90.7257 152.276 89.765C152.581 89.2603 152.818 88.6538 153.157 88.1782C153.595 87.5655 154.408 87.6505 155.08 87.4532C157.259 86.8135 156.047 84.3539 155.682 82.7859C155.064 80.1285 155.734 77.6635 155.918 75.0035C156.099 72.3735 155.888 69.6861 155.532 67.0794C155.217 64.7749 154.866 62.3494 153.915 60.209C152.328 56.639 149.076 54.1728 145.592 52.6066C138.053 49.2177 129.272 49.4731 121.92 53.2442C118.226 55.1394 114.968 57.904 112.5 61.2433C110.352 64.1507 109.288 67.4405 108.704 70.9682C107.661 77.2685 107.802 84.4297 103.762 89.7541C102.681 91.1783 101.324 92.383 99.8122 93.3312C98.5267 94.1373 97.1778 94.7745 95.9514 95.6801C93.3836 97.5761 91.1177 99.8611 88.9805 102.222C85.1223 106.485 81.6215 111.09 78.3492 115.815C77.0647 117.669 76.0116 119.645 74.9908 121.659C72.8479 125.886 71.0179 130.275 69.4855 134.76C66.3649 143.892 64.4865 153.434 63.6839 163.046C62.8823 172.644 63.1284 182.385 64.5901 191.91C66.0139 201.188 68.7549 210.704 73.9756 218.604C78.1489 224.92 85.0401 228.672 92.1286 230.822C99.9504 233.194 108.341 233.934 116.485 233.761C126.476 233.549 136.38 231.842 146.159 229.896C148.391 229.452 151.478 228.955 153.044 227.123C154.947 224.896 152.119 222.399 149.979 221.957C146.464 221.232 142.788 222.663 139.452 223.611C134.394 225.047 129.234 226.113 124.029 226.849C113.553 228.332 102.899 228.445 92.36 227.644C86.953 227.234 81.5901 226.555 76.2546 225.587C70.8689 224.61 65.515 223.418 60.0996 222.61C56.5649 222.083 53.0607 222.458 49.9908 224.395C46.6093 226.528 44.1966 229.848 41.788 232.961C35.9935 240.45 30.2618 248.097 26.0117 256.594C23.9407 260.735 22.2254 265.073 21.1104 269.572C20.2715 272.956 18.5326 278.685 21.889 281.271C25.3668 283.951 30.852 281.053 34.0623 279.27C38.4533 276.832 42.6242 274.268 47.5383 272.983C52.6256 271.654 57.516 271.895 62.5224 273.421C64.8457 274.129 67.1186 274.989 69.424 275.752C71.787 276.534 74.2057 277.112 76.5965 277.8C81.6669 279.259 86.6737 280.946 91.8033 282.194C96.814 283.414 101.931 284.027 107.063 284.455C117.444 285.321 127.91 285.173 138.262 284.001C148.613 282.829 158.854 280.658 168.767 277.444C177.596 274.582 186.281 270.943 194.056 265.824C201.598 260.858 208.196 254.369 213.032 246.719C217.598 239.493 219.887 231.142 218.291 222.633C216.994 215.723 213.192 209.203 207.33 205.202C202.035 201.589 195.532 200.592 189.246 201.167C188.171 201.265 188.161 202.958 189.246 202.859C195.38 202.297 201.623 203.244 206.742 206.848C210.132 209.234 212.73 212.611 214.507 216.333C215.424 218.255 216.068 220.264 216.511 222.342C218.25 230.509 216.102 238.573 211.762 245.56C207.22 252.872 200.958 259.147 193.832 263.944C186.547 268.847 178.441 272.399 170.146 275.207C151.62 281.477 131.926 284.089 112.402 283.119C107.5 282.876 102.558 282.479 97.7111 281.687C92.9189 280.903 88.2479 279.543 83.6083 278.137C79.0488 276.755 74.3937 275.617 69.8737 274.12C65.6026 272.707 61.398 270.967 56.8897 270.47C52.4196 269.976 47.7955 270.887 43.6171 272.461C39.3561 274.066 35.6643 276.625 31.6197 278.653C29.6092 279.662 27.225 280.704 24.925 280.583C22.3496 280.446 21.5695 278.343 21.6774 276.066C21.8797 271.798 23.3108 267.382 24.827 263.42C28.0375 255.031 33.0528 247.444 38.3616 240.252C40.9399 236.759 43.5195 233.2 46.3677 229.921C48.5549 227.403 51.1179 225.1 54.4548 224.337C56.314 223.912 58.22 224.018 60.0894 224.311C62.576 224.701 65.0511 225.166 67.5229 225.639C72.4657 226.586 77.4002 227.596 82.3867 228.29C92.0291 229.634 101.854 230.114 111.579 229.676C121.356 229.236 131.12 227.797 140.526 225.062C143.425 224.22 147.159 222.697 150.169 223.76C150.922 224.026 152.44 225.023 151.805 225.98C151.272 226.785 149.879 227.171 149.026 227.444C146.239 228.335 143.251 228.751 140.385 229.281C135.292 230.222 130.173 231.04 125.016 231.546C116.519 232.38 107.87 232.337 99.4477 230.822C92.4548 229.563 85.2295 227.274 79.7469 222.576C76.7433 220.003 74.6644 216.786 72.8781 213.287C70.8164 209.249 69.2695 204.967 68.1072 200.589C65.7778 191.814 64.937 182.657 64.937 173.597C64.937 164.49 65.9049 155.38 67.9239 146.496C69.9241 137.695 72.9527 129.106 77.1728 121.119C79.0688 117.531 81.4175 114.305 83.8709 111.076C87.5697 106.207 91.5576 101.193 96.4222 97.4304C98.7953 95.5948 101.597 94.5145 103.736 92.35C105.909 90.1522 107.324 87.3651 108.191 84.421C109.888 78.6587 109.492 72.4538 111.446 66.7626C114.01 59.2987 121.755 53.9989 129.235 52.4283C133.072 51.6225 137.094 51.7185 140.886 52.7184C144.506 53.673 148.237 55.388 150.715 58.2826C152.048 59.8403 152.764 61.6332 153.204 63.6141C153.779 66.203 154.128 68.8364 154.236 71.4864C154.338 74.0049 154.015 76.3833 153.75 78.8773C153.505 81.1867 154.172 83.084 154.569 85.3183C154.639 85.7139 154.676 85.6715 154.407 85.8709C154.202 86.0229 153.769 86.0094 153.513 86.0673C153.152 86.1489 152.792 86.2232 152.473 86.4207C151.652 86.93 151.295 88.1156 150.816 88.9111C149.679 90.7964 148.401 92.6273 146.809 94.1578C144.028 96.8315 140.181 98.6219 136.273 98.4659C135.649 98.441 135.02 98.3946 134.406 98.2737C134.139 98.2209 133.857 98.168 133.602 98.0681C133.226 97.9209 132.955 97.5751 133.318 98.4331C133.69 99.312 134.618 100.212 135.205 100.967C135.986 101.972 136.796 102.955 137.616 103.928C140.73 107.622 143.798 111.241 146.263 115.418C148.601 119.381 150.352 123.548 151.44 128.022C152.51 132.428 153.002 136.949 153.229 141.47C153.456 146.01 153.285 150.55 153.441 155.088C153.603 159.8 154.019 164.896 155.429 169.418C156.68 173.427 159.59 177.412 158.806 181.802C158.612 182.891 158.128 184.151 157.002 183.098C155.645 181.829 155.21 179.623 154.877 177.885C153.975 173.184 154.3 168.212 154.397 163.453C154.503 158.28 154.742 153.11 155.114 147.95C155.464 143.095 155.77 138.168 156.622 133.371C157.264 129.754 158.33 126.205 160.179 123.013C162.919 118.282 167.292 114.382 172.256 112.084C175.19 110.726 178.142 110.345 180.815 112.491C182.132 113.548 183.278 115.419 183.349 116.93C183.399 118.014 185.091 118.02 185.04 116.93Z" fill="white"/>
<path d="M196.258 116.084H190.712C187.764 116.084 184.815 116.084 181.867 116.084H179.831C178.742 116.084 178.74 117.776 179.831 117.776H196.258C197.347 117.776 197.348 116.084 196.258 116.084Z" fill="white"/>
<path d="M71.5682 211.694C68.1853 211.629 64.8178 211.271 61.5461 210.386C59.3941 209.803 57.338 208.96 55.2301 208.246C54.0885 207.86 52.9287 207.581 51.7491 207.334C49.6214 206.889 47.4502 206.613 45.2982 207.06C41.7708 207.792 38.8953 210.252 36.5077 212.821C35.1572 214.275 33.9019 215.815 32.6251 217.332C31.1892 219.039 29.7533 220.745 28.3175 222.451C25.4116 225.904 22.5057 229.357 19.5997 232.81C17.7793 234.974 15.8435 237.012 13.9465 239.107C11.9329 241.331 9.90512 243.665 8.47766 246.321C7.86518 247.46 7.36685 248.674 7.20457 249.965C7.01827 251.446 7.48985 252.825 8.67481 253.774C10.0187 254.851 11.6879 255.277 13.3705 255.448C15.5641 255.672 17.7756 255.532 19.9604 255.281C21.0684 255.153 22.1731 254.998 23.2775 254.842C23.7303 254.778 23.9782 254.201 23.8683 253.802C23.7344 253.314 23.282 253.147 22.8277 253.211C20.6921 253.511 18.5497 253.804 16.3909 253.859C14.6213 253.905 12.7423 253.877 11.0698 253.228C10.4539 252.989 9.86803 252.642 9.42694 252.172C9.06985 251.792 8.85974 251.305 8.84704 250.782C8.84102 250.535 8.85526 250.286 8.88649 250.04C8.86339 250.222 8.9199 249.863 8.9312 249.806C8.96275 249.649 9.00016 249.493 9.04217 249.338C9.20953 248.721 9.39382 248.269 9.64051 247.758C10.8569 245.238 12.6972 243.051 14.5416 240.974C16.2256 239.077 18.0342 237.289 19.6678 235.347C22.4883 231.996 25.3087 228.644 28.1292 225.293C30.8684 222.038 33.5746 218.751 36.3543 215.53C38.5123 213.03 40.9618 210.37 44.1234 209.168C45.8568 208.509 47.6563 208.392 49.4876 208.64C50.9838 208.842 52.4959 209.168 53.9423 209.608C55.9099 210.205 57.804 211.02 59.7679 211.63C62.6612 212.53 65.6555 213.039 68.6752 213.258C69.6382 213.328 70.6029 213.367 71.5682 213.386C72.6573 213.407 72.6573 211.715 71.5682 211.694Z" fill="white"/>
<path d="M52.3953 232.937C49.9789 239.505 47.5577 246.089 44.4312 252.36C41.6291 257.98 38.2508 263.355 33.965 267.968C31.615 270.497 29.0086 272.784 26.1333 274.7C25.7535 274.953 25.5896 275.447 25.8298 275.857C26.0504 276.235 26.6053 276.415 26.9872 276.161C32.2671 272.643 36.653 267.978 40.2698 262.791C44.1868 257.174 47.1479 250.967 49.7324 244.644C51.2521 240.926 52.6399 237.156 54.0267 233.387C54.1845 232.958 53.85 232.46 53.4359 232.346C52.9638 232.217 52.5537 232.507 52.3953 232.937Z" fill="white"/>
<path d="M188.13 122.738H200.108C201.197 122.738 201.199 121.047 200.108 121.047H188.13C187.041 121.047 187.039 122.738 188.13 122.738Z" fill="white"/>
<path d="M188.215 129.241H200.194C201.282 129.241 201.284 127.549 200.194 127.549H188.215C187.127 127.549 187.125 129.241 188.215 129.241Z" fill="white"/>
<path d="M187.499 135.743H199.477C200.565 135.743 200.567 134.051 199.477 134.051H187.499C186.41 134.051 186.408 135.743 187.499 135.743Z" fill="white"/>
<path d="M86.6781 134.997C94.2305 142.336 105.997 141.651 114.176 135.505C117.245 133.199 119.665 130.176 121.864 127.059C123.928 124.132 126.183 121.168 127.34 117.745C128.782 113.476 128.931 108.889 128.9 104.384C128.848 96.8297 128.33 89.2789 127.349 81.7887C127.149 80.2631 126.931 78.7138 127.165 77.1933C127.4 75.6728 128.164 74.1547 129.502 73.3941C130.328 72.9241 131.305 72.7786 132.255 72.7912C136.066 72.8417 137.464 75.7375 137.886 79.2025C138.158 81.4368 138.242 83.6938 138.139 85.9422C138.635 83.1674 139.17 80.3638 140.362 77.8092C141.553 75.2546 143.485 72.9365 146.084 71.8462C148.826 70.6962 151.093 71.5699 153.834 71.9538C156.444 72.3194 159.234 71.8487 161.371 70.3063C163.509 68.764 164.872 66.0689 164.482 63.4622C164.28 62.1133 163.256 60.6305 161.909 60.8428C163.965 58.8568 163.363 55.4185 160.888 54.1214C158.71 52.9802 157.455 54.3649 155.372 54.648C152.743 55.0054 149.889 52.6542 147.814 51.3108C145.153 49.5881 142.535 47.7408 139.576 46.5522C132.987 43.905 125.259 44.9386 119.051 48.3856C113.367 51.5414 106.988 57.5419 104.915 63.8534C103.774 67.3272 102.625 70.7418 101.769 74.3208C100.929 77.8343 100.056 81.4074 98.1981 84.5455C96.4335 87.5257 93.874 89.9538 91.1865 92.1385C85.5987 96.681 79.3074 100.361 74.1018 105.337C69.7344 109.511 63.3462 117.631 65.6122 124.143C67.5857 129.815 73.6976 134.657 79.6874 134.76C84.23 134.837 88.7764 132.384 91.0474 128.449C91.493 127.677 91.8309 126.635 91.256 125.954C90.9444 125.584 90.4454 125.438 89.9703 125.349C87.9021 124.961 85.463 125.475 84.3475 127.259C82.7996 129.736 84.584 132.962 86.6781 134.997Z" fill="white"/>
<path d="M86.0799 135.595C88.5188 137.947 91.5233 139.648 94.8069 140.494C97.9821 141.312 101.319 141.336 104.531 140.717C107.829 140.081 111.011 138.73 113.777 136.829C117.045 134.584 119.633 131.578 121.947 128.39C124.277 125.181 126.778 121.912 128.1 118.132C129.521 114.067 129.747 109.673 129.749 105.403C129.752 100.896 129.572 96.3871 129.235 91.893C129.064 89.6201 128.851 87.3504 128.596 85.0855C128.346 82.8604 127.856 80.5828 127.913 78.3383C127.955 76.68 128.533 74.7703 130.151 74.0084C131.463 73.3909 133.332 73.4862 134.578 74.233C135.647 74.8731 136.259 76.0156 136.613 77.1744C137.15 78.935 137.246 80.836 137.311 82.6634C137.349 83.7563 137.341 84.8498 137.293 85.9422C137.252 86.8784 138.785 87.116 138.955 86.1671C139.528 82.9664 140.137 79.6536 141.84 76.8308C143.296 74.4176 145.696 72.2402 148.648 72.1256C150.207 72.065 151.725 72.4793 153.254 72.7169C154.816 72.9596 156.369 72.9834 157.926 72.6772C160.886 72.0949 163.535 70.2151 164.739 67.4056C165.356 65.9675 165.639 64.2399 165.18 62.7124C164.752 61.2933 163.546 59.803 161.908 59.9969L162.507 61.441C164.634 59.3225 164.411 55.7147 162.038 53.8682C160.684 52.8154 159.092 52.6229 157.489 53.1529C156.77 53.3905 156.058 53.7045 155.302 53.809C154.564 53.9111 153.834 53.7502 153.141 53.5027C151.607 52.9548 150.257 51.941 148.921 51.0337C147.359 49.9729 145.772 48.9328 144.157 47.9541C140.918 45.9912 137.478 44.6535 133.688 44.307C130.112 43.98 126.442 44.5035 123.056 45.6794C119.743 46.83 116.737 48.6165 113.981 50.7696C111.222 52.9257 108.727 55.467 106.752 58.3655C105.806 59.7538 105.004 61.2343 104.396 62.8013C103.679 64.6474 103.121 66.5742 102.531 68.4639C101.923 70.4094 101.367 72.3688 100.892 74.3511C100.45 76.1989 99.995 78.0473 99.3848 79.8484C98.7821 81.6276 98.0078 83.3405 96.9714 84.9113C95.9638 86.4384 94.7347 87.8045 93.4149 89.0671C87.8731 94.3688 81.0478 98.1074 75.2693 103.131C72.8867 105.203 70.7213 107.498 68.8415 110.036C66.983 112.546 65.3357 115.383 64.6316 118.453C64.2949 119.921 64.1973 121.423 64.4339 122.913C64.6729 124.418 65.3283 125.872 66.1054 127.173C67.7899 129.993 70.3187 132.361 73.2339 133.873C76.1473 135.384 79.3994 135.976 82.6346 135.323C85.8654 134.672 88.8611 132.837 90.8696 130.222C91.782 129.034 93.0033 127.21 92.1042 125.695C91.2522 124.26 88.9716 124.263 87.5241 124.471C85.9827 124.693 84.5196 125.448 83.6545 126.775C82.7497 128.164 82.7526 129.929 83.3056 131.449C83.8809 133.029 84.8872 134.422 86.0799 135.595C86.8567 136.359 88.054 135.164 87.2763 134.399C85.5333 132.684 83.2079 129.173 85.6389 127.04C86.6429 126.159 88.1421 125.965 89.4236 126.114C89.8834 126.168 90.6826 126.233 90.7141 126.822C90.75 127.492 90.2399 128.187 89.8856 128.712C88.2386 131.151 85.5999 132.856 82.7628 133.562C79.9151 134.271 76.9681 133.843 74.3522 132.546C71.6805 131.223 69.3476 129.158 67.7578 126.631C67.0158 125.451 66.3912 124.158 66.1216 122.783C65.871 121.505 65.9736 120.165 66.263 118.903C66.9151 116.06 68.4276 113.465 70.1291 111.126C71.7994 108.831 73.7562 106.746 75.8691 104.854C81.2285 100.054 87.5108 96.4367 92.9638 91.7528C95.608 89.4815 98.0308 86.8788 99.6007 83.737C101.242 80.4513 101.97 76.8763 102.883 73.3483C103.363 71.4948 103.919 69.6621 104.502 67.8389C105.036 66.1715 105.508 64.4475 106.196 62.8359C107.447 59.9045 109.449 57.3183 111.681 55.0684C116.244 50.4672 122.085 46.9222 128.596 46.0946C131.896 45.6753 135.274 45.9364 138.425 47.0224C141.788 48.1813 144.785 50.3016 147.721 52.2612C150.227 53.9335 152.991 56.1199 156.199 55.3494C157.489 55.0394 158.763 54.1936 160.112 54.6942C161.232 55.1097 162.025 56.1124 162.25 57.2734C162.463 58.3688 162.093 59.4648 161.31 60.2447C160.836 60.7175 161.15 61.7786 161.909 61.6888C163.002 61.5593 163.57 62.8413 163.673 63.7577C163.814 65.0175 163.491 66.292 162.869 67.3866C161.49 69.8165 158.82 71.0754 156.096 71.211C153.055 71.3623 150.121 69.9468 147.081 70.6373C144.294 71.2704 142.031 73.3604 140.539 75.7181C138.64 78.7199 137.94 82.2729 137.323 85.7174C137.877 85.7923 138.431 85.8673 138.985 85.9423C139.083 83.6941 139.009 81.4365 138.732 79.2025C138.546 77.7126 138.228 76.213 137.472 74.8972C136.747 73.6365 135.621 72.6788 134.229 72.2396C132.551 71.7102 130.385 71.8071 128.885 72.78C125.073 75.2528 126.368 80.4952 126.804 84.2122C127.34 88.772 127.704 93.3518 127.897 97.9389C128.082 102.355 128.247 106.839 127.818 111.245C127.61 113.373 127.212 115.493 126.524 117.52C125.883 119.409 124.881 121.153 123.791 122.815C122.692 124.491 121.519 126.126 120.335 127.743C119.165 129.343 117.916 130.888 116.526 132.304C114.035 134.841 111.051 136.858 107.703 138.08C101.553 140.325 94.5075 139.895 89.1251 135.971C88.4705 135.494 87.8592 134.961 87.2763 134.399C86.4923 133.643 85.2943 134.838 86.0799 135.595Z" fill="white"/>
<path d="M149.216 75.123C149.349 75.0682 149.486 75.0241 149.628 74.9935C149.663 74.9859 149.699 74.9812 149.734 74.9732C149.812 74.9553 149.594 74.9857 149.733 74.9726C149.805 74.9659 149.876 74.9604 149.948 74.9588C150.013 74.9573 150.078 74.9584 150.142 74.9618C150.178 74.9636 150.214 74.9662 150.25 74.9695C150.269 74.9712 150.39 74.991 150.304 74.9748C150.218 74.9586 150.34 74.9823 150.357 74.9856C150.393 74.9924 150.428 74.9999 150.463 75.008C150.534 75.0242 150.604 75.0433 150.673 75.0649C150.735 75.0845 150.796 75.1068 150.856 75.1299C150.987 75.1795 150.79 75.0952 150.861 75.1326C150.893 75.1493 150.927 75.1632 150.959 75.1795C151.088 75.245 151.209 75.3216 151.327 75.4051C151.414 75.4664 151.283 75.3636 151.332 75.4096C151.359 75.4339 151.387 75.4559 151.414 75.4799C151.467 75.5279 151.519 75.5782 151.568 75.6307C151.587 75.6518 151.607 75.6731 151.625 75.6948C151.627 75.6969 151.714 75.8025 151.663 75.7381C151.613 75.6746 151.687 75.7721 151.696 75.7854C151.721 75.8211 151.744 75.8577 151.767 75.8945C151.923 76.1449 152.278 76.265 152.539 76.0969C152.789 75.9351 152.907 75.5933 152.741 75.3253C151.971 74.0874 150.286 73.4739 148.916 74.0354C148.644 74.1469 148.42 74.4151 148.522 74.7291C148.607 74.9913 148.923 75.2428 149.216 75.123Z" fill="white"/>
<path d="M150.575 77.8923C149.538 77.8986 149.481 79.9383 150.641 79.6985C151.504 79.52 151.579 77.8862 150.575 77.8923Z" fill="white"/>
<path d="M150.575 77.3283C150.254 77.3335 149.966 77.4498 149.725 77.6594C149.525 77.8329 149.395 78.075 149.309 78.3217C149.155 78.7652 149.187 79.3445 149.458 79.7388C149.625 79.9826 149.864 80.1799 150.158 80.2458C150.484 80.3187 150.826 80.2729 151.12 80.1148C151.621 79.8453 151.892 79.2303 151.871 78.6779C151.858 78.3276 151.747 78.0051 151.52 77.7365C151.289 77.4628 150.927 77.3297 150.575 77.3283C150.28 77.3271 149.998 77.5886 150.011 77.8923C150.025 78.1989 150.259 78.455 150.575 78.4563C150.617 78.4564 150.659 78.4591 150.701 78.4646L150.551 78.4445C150.61 78.4538 150.668 78.4691 150.724 78.4919L150.589 78.4351C150.64 78.4575 150.687 78.4852 150.732 78.5191L150.618 78.4309C150.66 78.4649 150.698 78.503 150.732 78.5456L150.643 78.4315C150.686 78.4873 150.72 78.5475 150.747 78.6121L150.69 78.4774C150.721 78.5546 150.742 78.6344 150.754 78.7167L150.734 78.5668C150.747 78.6737 150.747 78.7809 150.733 78.8878L150.753 78.7378C150.738 78.84 150.712 78.9391 150.673 79.0345L150.73 78.8998C150.694 78.983 150.65 79.0609 150.594 79.1326L150.683 79.0185C150.64 79.0714 150.594 79.1191 150.54 79.1612L150.655 79.073C150.605 79.1111 150.552 79.1427 150.494 79.1681L150.629 79.1113C150.562 79.1392 150.493 79.1563 150.421 79.1666L150.571 79.1464C150.502 79.1549 150.434 79.1564 150.365 79.1481L150.515 79.1683C150.459 79.1603 150.406 79.1462 150.353 79.1246L150.488 79.1815C150.444 79.1618 150.402 79.1377 150.363 79.1086L150.478 79.1968C150.433 79.1617 150.394 79.1216 150.359 79.0767L150.447 79.1908C150.41 79.1403 150.379 79.0862 150.354 79.0287L150.411 79.1634C150.374 79.0761 150.351 78.985 150.338 78.8913L150.358 79.0413C150.345 78.9333 150.346 78.825 150.359 78.7172L150.339 78.8671C150.354 78.7591 150.382 78.6539 150.423 78.5531L150.366 78.6878C150.4 78.6081 150.443 78.5332 150.495 78.4643L150.407 78.5784C150.447 78.5269 150.493 78.4805 150.544 78.4394L150.43 78.5276C150.478 78.4905 150.529 78.4596 150.585 78.4351L150.45 78.492C150.509 78.4675 150.569 78.4513 150.632 78.4424L150.482 78.4626C150.513 78.4589 150.544 78.4568 150.575 78.4563C150.87 78.4515 151.153 78.2004 151.139 77.8924C151.126 77.5909 150.891 77.3232 150.575 77.3283Z" fill="white"/>
<path d="M145.856 90.1472C145.963 91.4403 148.546 91.657 147.863 89.7945C147.42 88.5856 145.747 88.825 145.856 90.1472Z" fill="white"/>
<path d="M145.292 90.1472C145.325 90.5045 145.447 90.8075 145.678 91.0829C145.838 91.274 146.054 91.4276 146.282 91.5274C146.795 91.7524 147.433 91.8169 147.929 91.5048C148.202 91.3332 148.403 91.0728 148.49 90.7608C148.582 90.428 148.543 90.0612 148.439 89.7364C148.307 89.3255 148.08 88.9813 147.728 88.7296C147.459 88.5377 147.105 88.4327 146.775 88.4456C146.379 88.4611 145.981 88.6158 145.709 88.9109C145.402 89.2449 145.259 89.6961 145.292 90.1472C145.314 90.4407 145.536 90.7255 145.856 90.7112C146.143 90.6983 146.444 90.4623 146.42 90.1472C146.413 90.0466 146.414 89.9467 146.427 89.8466L146.407 89.9965C146.416 89.9413 146.427 89.8868 146.442 89.8333C146.45 89.8078 146.46 89.7833 146.468 89.758C146.494 89.676 146.392 89.9099 146.45 89.8047C146.474 89.761 146.5 89.7198 146.527 89.6779C146.572 89.6078 146.415 89.8052 146.495 89.7216C146.511 89.7045 146.527 89.6868 146.544 89.6703C146.561 89.654 146.579 89.6393 146.596 89.6235C146.657 89.5679 146.455 89.7197 146.552 89.6594C146.592 89.6348 146.632 89.613 146.673 89.5906C146.745 89.5508 146.509 89.6502 146.618 89.6138C146.64 89.6064 146.661 89.5986 146.684 89.5921C146.728 89.5791 146.774 89.5698 146.82 89.5628L146.67 89.583C146.764 89.5704 146.858 89.5701 146.952 89.5817L146.802 89.5616C146.861 89.57 146.92 89.5825 146.978 89.6004C147.004 89.6086 147.029 89.6189 147.055 89.628C147.114 89.6486 146.91 89.5604 146.98 89.597C146.994 89.6042 147.008 89.6106 147.022 89.6178C147.047 89.631 147.071 89.6452 147.095 89.6603C147.111 89.6704 147.126 89.6824 147.143 89.6922C147.199 89.7258 147.076 89.6416 147.075 89.6388C147.08 89.6562 147.136 89.6903 147.149 89.7032C147.174 89.7263 147.197 89.7506 147.22 89.7758C147.229 89.786 147.237 89.7968 147.246 89.8071C147.305 89.8729 147.174 89.7047 147.203 89.751C147.222 89.7813 147.244 89.8099 147.263 89.8408C147.282 89.8727 147.3 89.9055 147.316 89.939C147.321 89.9491 147.333 89.9864 147.341 89.9912C147.337 89.9887 147.286 89.8518 147.311 89.9219C147.36 90.0622 147.403 90.2019 147.423 90.3497L147.403 90.1998C147.415 90.2991 147.418 90.3986 147.405 90.498L147.425 90.3481C147.419 90.3935 147.41 90.4383 147.396 90.4822C147.39 90.5006 147.383 90.5183 147.377 90.5366C147.435 90.3488 147.429 90.4194 147.402 90.4715C147.393 90.4896 147.382 90.5067 147.371 90.5242C147.367 90.5318 147.361 90.5387 147.356 90.5463C147.323 90.6029 147.447 90.4403 147.417 90.469C147.388 90.4959 147.363 90.5264 147.335 90.5533C147.267 90.6169 147.409 90.4995 147.398 90.5054C147.381 90.5143 147.365 90.5277 147.349 90.5377C147.332 90.5479 147.315 90.5574 147.297 90.5663C147.289 90.5703 147.281 90.5737 147.273 90.5778C147.207 90.6135 147.371 90.5382 147.365 90.5395C147.284 90.5582 147.21 90.5891 147.127 90.6007L147.277 90.5806C147.166 90.5945 147.055 90.5931 146.944 90.5792L147.094 90.5994C146.97 90.5825 146.854 90.5482 146.738 90.5053C146.682 90.4848 146.898 90.5784 146.816 90.5382C146.8 90.5303 146.784 90.5232 146.768 90.5153C146.741 90.5017 146.714 90.4872 146.688 90.4719C146.662 90.4565 146.636 90.4404 146.611 90.4233C146.599 90.4148 146.587 90.4057 146.574 90.3971C146.512 90.3545 146.7 90.4999 146.64 90.4485C146.595 90.409 146.55 90.3698 146.51 90.325C146.468 90.2794 146.417 90.1825 146.531 90.3583C146.515 90.3332 146.497 90.3095 146.481 90.2839C146.466 90.2583 146.451 90.232 146.438 90.2051C146.379 90.0848 146.486 90.3439 146.453 90.2422C146.432 90.1773 146.415 90.1132 146.405 90.0454L146.425 90.1954C146.423 90.1793 146.422 90.1633 146.42 90.1472C146.406 89.9947 146.367 89.86 146.255 89.7484C146.157 89.6506 145.997 89.5769 145.856 89.5832C145.574 89.5959 145.264 89.8325 145.292 90.1472Z" fill="white"/>
<path d="M216.786 78.3713C224.828 78.3713 232.871 78.3713 240.913 78.3713H248.367C249.456 78.3713 249.458 76.6794 248.367 76.6794H216.786C215.697 76.6794 215.696 78.3713 216.786 78.3713Z" fill="black"/>
<path d="M215.584 88.0198H232.901C238.875 88.0198 244.849 88.0198 250.822 88.0198H260.398C261.487 88.0198 261.489 86.3279 260.398 86.3279C254.626 86.3279 248.853 86.3279 243.081 86.3279H215.584C214.495 86.3279 214.494 88.0198 215.584 88.0198Z" fill="black"/>
<path d="M215.584 96.4791H232.901C238.875 96.4791 244.849 96.4791 250.822 96.4791H260.398C261.487 96.4791 261.489 94.7872 260.398 94.7872H243.081C237.107 94.7872 231.134 94.7872 225.16 94.7872H215.584C214.495 94.7872 214.493 96.4791 215.584 96.4791Z" fill="black"/>
<path d="M272.993 62.6228H257.955V48.336V45.1403L272.993 62.6228Z" fill="black"/>
<path d="M214.718 154.359H201.559V160.187H214.718V154.359Z" fill="black"/>
<path d="M287.772 107.97C287.661 108.136 287.47 108.355 287.23 108.557C287.177 108.601 287.128 108.637 286.991 108.726C286.823 108.834 286.647 108.931 286.466 109.018C286.297 109.1 286.368 109.07 286.189 109.138C286.052 109.189 285.914 109.236 285.774 109.278C285.441 109.38 285.1 109.459 284.757 109.52C284.706 109.529 284.35 109.584 284.478 109.567C284.329 109.586 284.179 109.602 284.029 109.616C283.74 109.642 283.45 109.658 283.159 109.665C282.755 109.675 282.351 109.669 281.947 109.643C280.919 109.578 279.88 109.619 278.85 109.619H272.072C271.21 109.619 270.347 109.619 269.485 109.619C268.911 109.619 268.345 109.599 267.778 109.715C265.817 110.117 264.337 112.045 264.557 114.05C264.785 116.116 266.497 117.667 268.576 117.702V116.01C266.381 116.048 264.53 117.825 264.534 120.052C264.538 122.279 266.375 124.056 268.576 124.094V122.402C266.381 122.439 264.53 124.216 264.534 126.443C264.538 128.67 266.375 130.447 268.576 130.485V128.793C266.683 128.826 264.956 130.162 264.611 132.059C264.258 134.007 265.33 135.919 267.18 136.625C267.826 136.871 268.492 136.876 269.168 136.876H283.885C287.755 136.876 291.541 135.998 294.944 134.129C295.899 133.605 295.046 132.143 294.09 132.668C291.046 134.34 287.621 135.182 284.153 135.185C282.744 135.186 281.336 135.185 279.928 135.185C276.194 135.185 272.459 135.192 268.725 135.185C267.694 135.182 266.75 134.665 266.379 133.68C265.797 132.131 266.955 130.513 268.576 130.485C269.664 130.466 269.666 128.812 268.576 128.793C267.289 128.771 266.228 127.745 266.226 126.443C266.224 125.14 267.291 124.116 268.576 124.094C269.664 124.075 269.666 122.42 268.576 122.402C267.289 122.379 266.228 121.353 266.226 120.052C266.224 118.749 267.291 117.724 268.576 117.702C269.664 117.683 269.666 116.029 268.576 116.01C267.224 115.987 266.153 114.866 266.23 113.499C266.3 112.262 267.452 111.328 268.665 111.311C269.97 111.292 271.276 111.311 272.581 111.311H279.113C280.063 111.311 281.018 111.277 281.966 111.336C284.495 111.494 287.714 111.116 289.232 108.824C289.485 108.443 289.308 107.888 288.929 107.666C288.515 107.424 288.024 107.588 287.772 107.97Z" fill="white"/>
<path d="M192.908 169.835C201.063 174.416 209.751 178.08 218.797 180.486C226.791 182.612 235.065 183.759 243.341 183.777C250.85 183.793 258.378 182.881 265.65 180.999C272.316 179.275 278.791 176.731 284.798 173.36C290.214 170.321 295.282 166.59 299.653 162.169C303.556 158.222 306.946 153.686 309.318 148.653C311.494 144.036 312.822 139.011 312.846 133.889C312.878 126.909 312.085 119.54 308.934 113.213C306.985 109.3 303.967 105.899 300.018 103.939C298.449 103.16 296.776 102.594 295.057 102.26C293.279 101.914 291.625 101.368 290.082 100.401C288.634 99.4934 287.383 98.2927 286.394 96.9017C285.881 96.1815 285.372 95.4591 284.861 94.7379C284.237 93.8564 282.769 94.7006 283.4 95.5918C284.943 97.7692 286.404 99.8995 288.626 101.462C290.188 102.56 291.996 103.348 293.863 103.747C294.74 103.935 295.613 104.092 296.473 104.349C299.976 105.394 303.113 107.571 305.367 110.609C308.914 115.388 310.324 121.464 310.868 127.291C311.178 130.61 311.334 134.012 310.943 137.332C310.659 139.743 310.06 142.123 309.252 144.41C307.5 149.367 304.661 153.925 301.263 157.918C297.426 162.426 292.864 166.29 287.903 169.509C282.394 173.083 276.401 175.884 270.161 177.92C263.285 180.163 256.125 181.493 248.907 181.925C240.995 182.399 233.032 181.814 225.262 180.257C216.51 178.502 208.015 175.553 199.994 171.645C197.885 170.618 195.808 169.524 193.762 168.375C192.811 167.841 191.958 169.302 192.908 169.835Z" fill="white"/>
<path d="M268.576 117.702H280.983C282.071 117.702 282.073 116.01 280.983 116.01H268.576C267.487 116.01 267.485 117.702 268.576 117.702Z" fill="white"/>
<path d="M268.67 124.094H281.077C282.165 124.094 282.167 122.402 281.077 122.402H268.67C267.581 122.402 267.579 124.094 268.67 124.094Z" fill="white"/>
<path d="M268.764 130.485H281.171C282.259 130.485 282.261 128.793 281.171 128.793H268.764C267.675 128.793 267.673 130.485 268.764 130.485Z" fill="white"/>
<path d="M205.287 81.3673C205.298 81.3559 205.309 81.3449 205.319 81.3335H205.258C204.161 80.0657 188.188 62.3023 170.608 81.3335H170.542C170.542 81.3335 170.553 81.3465 170.574 81.3707C170.563 81.3821 170.553 81.3931 170.542 81.4046H170.603C171.7 82.6724 187.673 100.436 205.253 81.4046H205.319C205.319 81.4046 205.308 81.3914 205.287 81.3673Z" fill="#F953B2"/>
<path d="M187.93 89.5833C192.467 89.5833 196.145 85.9056 196.145 81.3691C196.145 76.8325 192.467 73.1548 187.93 73.1548C183.394 73.1548 179.716 76.8325 179.716 81.3691C179.716 85.9056 183.394 89.5833 187.93 89.5833Z" fill="#F4D13B"/>
<path d="M211.52 57.724C212.256 56.9877 212.993 56.2514 213.729 55.515C214.042 55.2017 214.066 54.6277 213.729 54.3187C213.391 54.0087 212.867 53.9843 212.533 54.3187C211.796 55.055 211.06 55.7913 210.324 56.5277C210.01 56.841 209.987 57.4149 210.324 57.724C210.661 58.034 211.186 58.0584 211.52 57.724Z" fill="#F953B2"/>
<path d="M214.02 65.2731C215.586 65.7411 217.257 65.5761 218.727 64.8827C219.129 64.6934 219.263 64.0859 219.031 63.7253C218.764 63.3124 218.303 63.2194 217.873 63.4218C217.839 63.4378 217.562 63.5514 217.753 63.4785C217.687 63.5036 217.621 63.5297 217.555 63.5535C217.4 63.609 217.243 63.6574 217.084 63.6988C216.924 63.7403 216.763 63.7748 216.601 63.8023C216.555 63.8101 216.508 63.8174 216.462 63.8241C216.559 63.8114 216.575 63.8087 216.512 63.8162C216.43 63.8223 216.348 63.8329 216.266 63.8386C215.936 63.8614 215.609 63.8494 215.28 63.8213C215.047 63.8013 215.456 63.854 215.225 63.815C215.133 63.7994 215.04 63.7836 214.948 63.7644C214.787 63.7307 214.628 63.6888 214.47 63.6417C214.046 63.515 213.529 63.7937 213.429 64.2325C213.326 64.6877 213.566 65.1374 214.02 65.2731Z" fill="#F953B2"/>
<path d="M202.666 50.5037C202.79 51.7307 202.914 52.9577 203.039 54.1848C203.062 54.4148 203.118 54.614 203.287 54.7829C203.433 54.9297 203.674 55.0402 203.885 55.0307C204.305 55.0119 204.779 54.6563 204.731 54.1848C204.606 52.9578 204.482 51.7307 204.357 50.5037C204.334 50.2737 204.279 50.0745 204.11 49.9055C203.963 49.7588 203.722 49.6483 203.512 49.6577C203.091 49.6765 202.618 50.0322 202.666 50.5037Z" fill="#F953B2"/>
<path d="M157.474 96.7387C158.709 100.149 161.021 103.07 164.07 105.038C164.988 105.63 165.837 104.166 164.924 103.577C162.264 101.86 160.184 99.2684 159.106 96.2889C158.95 95.8595 158.531 95.5702 158.065 95.6981C157.651 95.812 157.318 96.307 157.474 96.7387Z" fill="#F953B2"/>
<path d="M278.232 189.367C281.059 188.654 283.903 187.543 286.363 185.961C287.468 185.25 288.544 184.149 288.273 182.719C288.037 181.474 286.785 180.663 285.571 180.634C284.03 180.598 282.776 181.828 282.135 183.121C281.961 183.472 281.998 183.855 282.267 184.146C284.151 186.177 287.222 185.783 289.544 184.832C292.247 183.724 294.747 181.963 296.919 180.027C298.19 178.894 299.356 177.649 300.41 176.312C300.692 175.953 300.76 175.465 300.41 175.115C300.116 174.822 299.498 174.755 299.213 175.115C297.513 177.273 295.513 179.203 293.263 180.783C292.135 181.575 290.949 182.295 289.715 182.911C288.738 183.398 287.642 183.792 286.554 183.897C285.384 184.009 284.282 183.832 283.464 182.95C283.508 183.292 283.552 183.633 283.596 183.975C283.847 183.469 284.164 182.979 284.633 182.649C285.072 182.34 285.501 182.242 285.956 182.402C286.303 182.524 286.605 182.825 286.627 183.095C286.664 183.56 286.23 183.975 285.862 184.259C285.337 184.665 284.722 184.976 284.139 185.288C283.463 185.651 282.772 185.986 282.069 186.293C280.686 186.896 279.244 187.367 277.782 187.735C276.727 188.001 277.174 189.633 278.232 189.367Z" fill="#F953B2"/>
</svg>
