<svg width="320" height="320" viewBox="0 0 320 320" fill="none" xmlns="http://www.w3.org/2000/svg">
<path d="M55.3728 121.024C47.4342 121.024 40.9987 106.183 40.9987 87.876C40.9987 69.5687 47.4342 54.7277 55.3728 54.7277L160.199 65.0445C167.965 65.8088 173.844 71.6872 173.844 78.6872V98.7678C173.844 105.862 167.81 111.787 159.925 112.435L55.3728 121.024Z" fill="#6966ED"/>
<path d="M59.9432 58.6284C58.1357 56.1401 56.0711 54.7277 53.878 54.7277C46.765 54.7277 40.9987 69.5687 40.9987 87.876C40.9987 106.183 46.765 121.024 53.878 121.024C56.0711 121.024 58.1357 119.612 59.9432 117.124C55.8883 111.542 53.1292 100.539 53.1292 87.876C53.1292 75.2132 55.8883 64.2104 59.9432 58.6284Z" fill="#F953B2"/>
<path d="M59.9432 58.6284C55.8883 64.2104 53.1292 75.2133 53.1292 87.876C53.1292 100.539 55.8883 111.542 59.9432 117.124C63.9981 111.542 66.7572 100.539 66.7572 87.876C66.7572 75.2133 63.9981 64.2105 59.9432 58.6284Z" fill="#F6D053"/>
<path d="M217.806 77.3245V79.6612L159.344 73.9272V106.901L217.806 101.714V103.504C217.806 106.428 219.805 108.799 222.271 108.799C224.736 108.799 226.735 106.428 226.735 103.504V79.3909C226.735 78.2496 225.81 77.3245 224.669 77.3245H218.129" fill="#6966ED"/>
<path d="M83.9905 133.566C76.0519 133.566 69.6165 118.725 69.6165 100.417C69.6165 82.1102 76.0519 67.2692 83.9905 67.2692L188.817 77.5859C196.583 78.3502 202.462 84.2286 202.462 91.2286V111.309C202.462 118.404 196.428 124.329 188.543 124.977L83.9905 133.566Z" fill="white"/>
<path d="M88.8979 71.6486C87.012 68.8625 84.8262 67.2692 82.4957 67.2692C75.3827 67.2692 69.6165 82.1101 69.6165 100.417C69.6165 118.725 75.3827 133.566 82.4957 133.566C84.8262 133.566 87.012 131.972 88.8979 129.186C85.0277 123.469 82.4209 112.727 82.4209 100.417C82.4209 88.1082 85.0277 77.3663 88.8979 71.6486Z" fill="#F953B2"/>
<path d="M88.898 71.6486C85.0278 77.3663 82.4209 88.1082 82.4209 100.417C82.4209 112.727 85.0278 123.469 88.898 129.186C92.7682 123.469 95.375 112.727 95.375 100.417C95.375 88.1082 92.7682 77.3663 88.898 71.6486Z" fill="#F6D053"/>
<path d="M246.353 90.9493V113.003C246.353 113.991 245.552 114.792 244.564 114.792H239.213C238.224 114.792 237.423 113.991 237.423 113.003L178.961 118.189V85.2153L237.423 90.9493C237.423 89.6587 238.47 88.6126 239.76 88.6126H244.016C245.307 88.6126 246.353 89.6587 246.353 90.9493Z" fill="white"/>
<path d="M241.5 95.4595C241.653 96.1369 241.596 96.7188 241.044 97.1847C240.552 97.6001 239.905 97.7996 239.287 97.9354C237.884 98.2434 236.428 98.1644 235.02 98.4488C233.68 98.7194 232.199 99.488 232.144 101.038C232.097 102.411 233.603 103.325 234.65 103.906C236.037 104.675 237.578 105.106 239.159 105.199C239.965 105.247 239.962 103.993 239.159 103.946C237.894 103.871 236.643 103.535 235.517 102.95C234.98 102.67 234.453 102.345 233.987 101.957C233.564 101.604 233.23 101.206 233.514 100.65C233.793 100.1 234.451 99.8746 235.009 99.7341C235.665 99.5693 236.337 99.5078 237.008 99.4547C238.345 99.3492 239.706 99.2675 240.944 98.7059C241.558 98.4278 242.128 97.9955 242.484 97.4158C242.916 96.7132 242.884 95.9029 242.708 95.1262C242.53 94.3399 241.322 94.6727 241.5 95.4595Z" fill="black"/>
<path d="M167.998 64.3224C166.436 66.6374 164.875 68.9525 163.313 71.2675C162.47 72.5162 161.61 73.6604 159.983 73.8992C157.36 74.284 155.046 71.8944 155.518 69.2847C155.708 68.2306 156.43 67.2805 156.978 66.3798C157.864 64.9223 158.75 63.4648 159.636 62.0074C160.472 60.6328 161.307 59.2583 162.143 57.8837C162.864 56.6968 163.584 55.5618 164.635 54.6196C166.753 52.7214 169.338 52.1692 172.095 52.1692C173.048 52.1692 174.027 52.0846 174.922 52.4798C176.271 53.0762 177.079 54.4002 177.117 55.8528C177.149 57.0622 178.965 57.0642 178.997 55.8528C179.049 53.8478 180.632 52.1641 182.681 52.1692C184.73 52.1743 186.312 53.8398 186.364 55.8528C186.396 57.0622 188.213 57.0642 188.244 55.8528C188.297 53.8478 189.879 52.1641 191.928 52.1692C193.977 52.1743 195.559 53.8398 195.612 55.8528C195.643 57.0621 197.46 57.0643 197.492 55.8528C197.543 53.8744 199.079 52.2084 201.099 52.1698C203.087 52.1319 204.729 53.7629 204.853 55.7223C204.93 56.9473 204.859 58.1967 204.859 59.4229C204.859 64.737 204.859 70.0511 204.859 75.3651C204.859 76.8302 204.859 78.2952 204.859 79.7602C204.859 80.6727 206.16 81.0662 206.61 80.2347C207.782 78.0739 208.953 75.9132 210.124 73.7524C210.801 72.504 211.631 71.4625 213.121 71.1761C215.341 70.7491 217.525 72.4373 217.647 74.7047C217.736 76.3581 216.545 78.1113 215.853 79.5458C214.573 82.1983 213.293 84.8509 212.014 87.5034C209.928 91.8254 207.871 96.1616 205.734 100.458C200.094 111.799 195 123.407 190.28 135.159C188.165 140.424 186.113 145.714 184.008 150.983C181.902 156.255 179.822 161.54 177.945 166.898C174.228 177.509 171.164 188.59 170.86 199.896C170.602 209.545 172.214 221.174 181.309 226.604C189.356 231.408 199.613 228.551 207.474 224.848C215.967 220.848 223.792 215.063 230.309 208.321C237.979 200.386 243.986 190.949 248.653 180.981C249.788 178.556 250.844 176.096 251.839 173.61C252.288 172.487 250.47 171.999 250.026 173.11C245.922 183.37 240.585 193.255 233.569 201.828C227.43 209.327 219.993 215.688 211.607 220.551C207.449 222.962 203.037 225.018 198.372 226.228C194.14 227.325 189.594 227.704 185.369 226.369C180.72 224.901 177.334 221.2 175.323 216.862C173.148 212.169 172.721 206.75 172.717 201.642C172.709 190.323 175.699 179.187 179.356 168.556C183.014 157.924 187.365 147.514 191.527 137.072C196.24 125.249 201.338 113.575 206.982 102.165C209.157 97.7672 211.277 93.3436 213.409 88.925C214.71 86.2292 216.01 83.5335 217.311 80.8377C217.99 79.4301 218.925 77.9429 219.335 76.4201C220.613 71.6836 215.473 67.6422 211.164 69.8941C209.881 70.5646 209.116 71.6685 208.45 72.8979C207.744 74.1993 207.039 75.5007 206.333 76.8021C205.885 77.63 205.436 78.4579 204.987 79.2858L206.739 79.7602C206.739 75.3865 206.739 71.0128 206.739 66.6391C206.739 63.913 206.739 61.187 206.739 58.4609C206.739 56.574 206.927 54.62 205.876 52.9389C204.578 50.8627 202.048 49.8336 199.675 50.4939C197.258 51.1663 195.675 53.3869 195.612 55.8528H197.492C197.413 52.8287 195.013 50.2892 191.928 50.2892C188.843 50.2892 186.443 52.8285 186.364 55.8528H188.244C188.165 52.8287 185.766 50.2892 182.681 50.2892C179.596 50.2892 177.196 52.8285 177.117 55.8528H178.997C178.918 52.8427 176.594 50.398 173.556 50.2924C171.359 50.216 169.091 50.2389 167.013 51.0364C164.525 51.9913 162.487 53.7223 161.095 55.9893C160.388 57.1404 159.691 58.2979 158.989 59.4521C157.931 61.1936 156.872 62.9352 155.813 64.6767C155.19 65.7017 154.431 66.7359 153.987 67.8579C152.891 70.6258 154.154 73.931 156.852 75.2224C159.521 76.4999 162.598 75.5773 164.277 73.194C166.11 70.5911 167.841 67.9106 169.622 65.2712C170.3 64.2656 168.672 63.3237 167.998 64.3224Z" fill="black"/>
<path d="M167.87 62.3936C167.87 67.3086 167.87 72.2236 167.87 77.1386C167.87 78.3301 167.87 79.5216 167.87 80.7132C167.87 81.3366 167.861 81.7768 167.612 82.3487C167.327 83.0035 166.968 83.6352 166.649 84.2743C165.622 86.3308 164.601 88.3902 163.586 90.4527C159.394 98.9765 155.309 107.554 151.383 116.204C143.6 133.35 136.213 150.801 130.313 168.694C124.704 185.705 121.074 203.426 121.739 221.411C122.236 234.845 125.742 248.35 132.633 259.95C139.383 271.313 149.498 280.471 161.954 285.118C176.548 290.563 193.063 289.686 207.705 284.922C222.96 279.959 236.674 271.041 248.85 260.737C262.232 249.414 273.704 236.138 284.019 222.006C287.729 216.923 291.147 211.883 294.228 206.415C298.535 198.772 302.382 190.847 305.543 182.661C309.167 173.274 312.071 163.266 312.255 153.138C312.42 144.067 309.917 134.806 302.884 128.652C300.596 126.651 297.834 125.461 295.37 123.706C293.341 122.261 291.448 120.513 290.186 118.343C288.03 114.636 288.335 110.284 288.794 106.182C289.877 96.5203 291.727 85.4376 285.474 77.0968C280.082 69.9047 271.254 65.328 262.542 63.6617C254.202 62.0666 244.51 63.105 238.54 69.7748C237.037 71.4551 235.859 73.3799 234.987 75.4559C233.844 78.176 233.315 81.1254 232.532 83.9589C230.742 90.4356 229.311 97.063 228.787 103.773C228.193 111.376 228.689 120.09 233.764 126.235C237.069 130.237 242.021 132.166 247.091 132.577C250.893 132.886 254.786 132.414 258.47 131.455C259.071 131.298 259.674 131.134 260.261 130.927C261.395 130.529 260.907 128.712 259.761 129.115C259.157 129.327 258.536 129.495 257.916 129.656C257.241 129.83 256.561 129.985 255.877 130.121C255.072 130.282 254.032 130.45 253.451 130.522C249.132 131.058 244.614 130.903 240.688 129.146C235.337 126.75 232.367 121.73 231.197 116.124C230.258 111.62 230.343 106.927 230.791 102.37C231.46 95.5666 233.049 88.8591 234.955 82.306C235.684 79.7999 236.086 77.3025 237.28 74.9435C238.227 73.0729 239.466 71.3785 241.002 69.949C243.975 67.1832 247.881 65.6587 251.866 65.1081C260.549 63.9082 269.836 66.7749 276.988 71.6601C280.369 73.9696 283.438 76.912 285.462 80.5013C287.898 84.8225 288.097 89.9511 287.974 94.805C287.847 99.7887 286.857 104.684 286.614 109.654C286.406 113.904 287.236 117.939 289.969 121.299C291.663 123.381 293.849 125.039 296.111 126.456C297.465 127.304 298.975 127.949 300.247 128.912C301.14 129.589 301.984 130.333 302.777 131.125C305.853 134.196 307.965 138.058 309.126 142.232C311.651 151.311 310.128 161.171 307.717 170.101C305.214 179.373 301.473 188.294 297.177 196.869C294.555 202.105 291.724 207.253 288.607 212.213C286.297 215.889 283.649 219.378 281.067 222.865C275.815 229.959 270.259 236.836 264.276 243.329C253.317 255.221 240.832 266.026 226.823 274.182C213.286 282.063 197.982 287.336 182.168 286.936C174.725 286.748 167.247 285.398 160.374 282.479C154.45 279.963 149.031 276.334 144.393 271.877C134.934 262.789 128.882 250.63 125.862 237.962C122.184 222.532 123.132 206.177 126.283 190.742C129.872 173.162 136.426 156.264 143.229 139.716C150.313 122.484 158.186 105.584 166.45 88.8886C167.437 86.894 168.447 84.9104 169.428 82.9128C169.907 81.9384 169.75 80.8895 169.75 79.8195C169.75 78.7025 169.75 77.5854 169.75 76.4684C169.75 71.7768 169.75 67.0852 169.75 62.3936C169.75 61.1839 167.87 61.1819 167.87 62.3936Z" fill="black"/>
<path d="M177.117 55.7401V73.4877C177.117 74.6974 178.997 74.6994 178.997 73.4877V55.7401C178.997 54.5304 177.117 54.5284 177.117 55.7401Z" fill="black"/>
<path d="M186.364 55.8316V73.5792C186.364 74.7889 188.244 74.7909 188.244 73.5792V55.8316C188.244 54.6219 186.364 54.6199 186.364 55.8316Z" fill="black"/>
<path d="M195.611 55.9231V73.6707C195.611 74.8804 197.491 74.8824 197.491 73.6707V55.9231C197.491 54.7134 195.611 54.7114 195.611 55.9231Z" fill="black"/>
<path d="M114.325 53.6709C115.558 55.6829 116.792 57.6946 118.026 59.7057C118.779 60.931 119.528 62.1579 120.283 63.3815C121.443 65.262 123.215 66.7351 125.551 66.3674C128.144 65.9591 130.326 63.9552 130.661 61.3319L128.909 61.8064C130.171 63.8619 131.434 66.0585 134.096 66.3486C135.395 66.4902 136.698 65.9874 137.786 65.301C139.212 64.4011 140.043 62.9851 140.254 61.3319L138.502 61.8064C138.873 62.4105 139.229 63.0264 139.618 63.6196C140.429 64.8594 141.715 65.7555 143.176 66.0408C146.377 66.6659 149.431 64.5839 149.847 61.3319L148.095 61.8064C149.05 63.3616 149.925 65.0594 151.653 65.8851C153.813 66.9173 156.552 66.0918 158.12 64.3458C159.642 62.6508 159.866 60.2153 158.71 58.2606C158.356 57.6608 157.981 57.0722 157.616 56.4784C154.627 51.609 151.652 46.7305 148.648 41.8699C147.555 40.1015 145.838 38.9605 143.699 39.1209C142.495 39.2112 141.066 39.5703 140.072 40.2954C138.854 41.1836 138.442 42.4946 138.279 43.9333C138.862 43.7752 139.446 43.617 140.03 43.4589C139.659 42.8547 139.303 42.2388 138.915 41.6456C138.103 40.4059 136.818 39.5098 135.356 39.2244C132.155 38.5993 129.101 40.6813 128.685 43.9333C129.269 43.7752 129.853 43.617 130.437 43.4589C130.066 42.8547 129.71 42.2388 129.322 41.6456C128.51 40.4059 127.225 39.5098 125.763 39.2244C122.562 38.5993 119.508 40.6813 119.092 43.9333L120.844 43.4589C120.426 42.7785 120.039 42.0658 119.572 41.4171C118.629 40.1047 117.163 39.3043 115.564 39.1354C114.128 38.9837 112.706 39.372 111.622 40.3202C110.637 41.1824 109.778 42.1622 109.026 43.2344C105.606 48.1159 104.655 54.4339 104.115 60.2316C103.573 66.0526 103.321 71.8909 103.362 77.7337C103.421 85.8993 103.662 94.0646 104.062 102.221C104.635 113.907 105.534 125.586 106.976 137.2C108.42 148.842 110.316 160.523 113.639 171.794C113.994 172.999 114.368 174.198 114.763 175.391C115.141 176.534 116.957 176.044 116.576 174.891C113.04 164.196 111.017 153.012 109.469 141.876C107.872 130.386 106.879 118.813 106.21 107.235C105.702 98.4389 105.39 89.6303 105.274 80.8203C105.243 78.4994 105.226 76.1782 105.232 73.8572C105.237 71.6337 105.425 69.4185 105.536 67.1978C105.826 61.3995 106.128 55.4667 107.912 49.8984C108.727 47.3539 109.902 44.8477 111.713 42.8544C112.102 42.4272 112.517 42.0295 112.952 41.6495C113.396 41.2607 113.831 41.0965 114.476 41.0094C115.823 40.8274 117.271 41.3894 118.055 42.5165C118.476 43.1222 118.835 43.7791 119.221 44.4077C119.749 45.268 120.86 44.8137 120.972 43.9333C121.269 41.614 123.907 40.4795 125.956 41.2256C127.416 41.7571 128.055 43.1709 128.814 44.4077C129.342 45.268 130.453 44.8137 130.565 43.9333C130.862 41.614 133.5 40.4795 135.549 41.2256C137.009 41.7571 137.648 43.1709 138.407 44.4077C138.93 45.2595 140.057 44.8221 140.158 43.9333C140.256 43.0768 140.55 42.1172 141.321 41.6854C142.151 41.2203 143.292 40.9583 144.238 40.9879C145.528 41.0284 146.411 41.8234 147.056 42.8703C148.171 44.6795 149.28 46.4927 150.392 48.3039C151.994 50.9136 153.596 53.5234 155.198 56.1331C155.712 56.9704 156.226 57.8077 156.74 58.645C157.197 59.3893 157.612 60.1001 157.584 61.0202C157.551 62.1107 156.923 63.1159 156.005 63.6891C155.214 64.1829 154.265 64.6212 153.315 64.4693C151.454 64.1715 150.602 62.297 149.719 60.8575C149.19 59.9972 148.079 60.4515 147.967 61.3319C147.671 63.6512 145.032 64.7857 142.983 64.0396C141.523 63.5081 140.885 62.0943 140.126 60.8575C139.597 59.9972 138.486 60.4515 138.374 61.3319C138.127 63.2631 135.696 64.9215 133.801 64.3924C132.138 63.928 131.365 62.2132 130.533 60.8575C130.004 59.9972 128.893 60.4515 128.781 61.3319C128.557 63.0869 126.603 64.4715 124.948 64.5527C123.352 64.631 122.423 63.2733 121.679 62.0627C120.463 60.0812 119.246 58.1003 118.03 56.1184C117.336 54.9865 116.642 53.8541 115.948 52.722C115.317 51.6922 113.69 52.6356 114.325 53.6709Z" fill="black"/>
<path d="M152.364 64.711C150.684 66.6859 149.004 68.6607 147.324 70.6356C146.862 71.1788 145.898 71.9845 145.853 72.7446C145.807 73.5356 145.853 74.3432 145.853 75.1352C145.853 79.4738 145.95 83.8241 145.847 88.1615C145.771 91.3619 145.821 94.5664 145.923 97.7655C146.136 104.47 146.63 111.168 147.402 117.831C148.396 126.411 149.839 134.948 151.922 143.333C154.144 152.278 157.095 161.088 161.178 169.365C165.314 177.75 170.737 185.907 177.974 191.933C181.587 194.941 185.648 197.338 190.079 198.929C194.739 200.602 199.764 201.382 204.709 201.397C210.498 201.414 216.373 200.269 221.847 198.424C224.462 197.543 227.004 196.435 229.526 195.321C232.017 194.22 234.478 193.049 236.879 191.765C241.642 189.216 246.208 186.195 250.102 182.429C252.021 180.574 253.763 178.531 255.271 176.328C256.443 174.615 257.838 171.6 255.718 170.001C253.411 168.262 251.058 170.955 250.12 172.886C249.594 173.97 251.215 174.924 251.744 173.835C252.174 172.949 252.838 171.744 253.832 171.396C254.701 171.092 254.989 171.992 254.906 172.673C254.779 173.718 254.169 174.622 253.588 175.466C252.916 176.441 252.195 177.379 251.427 178.28C248.282 181.967 244.469 185.006 240.374 187.573C236.19 190.194 231.731 192.348 227.201 194.297C222.463 196.336 217.642 197.953 212.545 198.824C203.557 200.359 193.963 199.342 185.852 195.016C178.266 190.97 172.398 184.348 167.773 177.213C163.313 170.333 159.947 162.789 157.304 155.042C154.659 147.285 152.717 139.295 151.26 131.234C149.973 124.118 149.071 116.936 148.483 109.729C148.058 104.51 147.793 99.2767 147.715 94.0411C147.685 92.0032 147.705 89.9681 147.733 87.9307C147.797 83.3712 147.733 78.8065 147.733 74.2465C147.733 73.7329 147.733 73.2193 147.733 72.7057L147.458 73.3704C149.537 70.927 151.615 68.4837 153.694 66.0403C154.473 65.1237 153.15 63.7877 152.364 64.711Z" fill="black"/>
<path d="M140.9 50.0477C141.71 51.3833 142.521 52.7189 143.331 54.0545C144.631 56.1964 145.931 58.3384 147.231 60.4804C147.528 60.9698 147.825 61.4591 148.122 61.9485C148.749 62.9814 150.375 62.0377 149.745 60.9996C148.935 59.6641 148.124 58.3284 147.314 56.9929C146.014 54.8509 144.714 52.7089 143.414 50.5669C143.117 50.0775 142.82 49.5882 142.523 49.0988C141.897 48.0659 140.27 49.0096 140.9 50.0477Z" fill="black"/>
<path d="M131.547 50.0477C132.357 51.3833 133.168 52.7189 133.978 54.0545C135.278 56.1964 136.578 58.3384 137.878 60.4804L138.769 61.9485C139.395 62.9814 141.022 62.0377 140.392 60.9996C139.581 59.6641 138.771 58.3284 137.961 56.9929C136.661 54.8509 135.361 52.7089 134.061 50.5669C133.764 50.0775 133.467 49.5882 133.17 49.0988C132.543 48.0659 130.917 49.0096 131.547 50.0477Z" fill="black"/>
<path d="M121.954 50.0477C122.764 51.3833 123.575 52.7189 124.385 54.0545C125.685 56.1964 126.985 58.3384 128.285 60.4804C128.582 60.9698 128.879 61.4591 129.176 61.9485C129.802 62.9814 131.429 62.0377 130.799 60.9996C129.988 59.6641 129.178 58.3284 128.368 56.9929C127.068 54.8509 125.768 52.7089 124.468 50.5669C124.171 50.0775 123.874 49.5882 123.577 49.0988C122.95 48.0659 121.324 49.0096 121.954 50.0477Z" fill="black"/>
<path d="M248.104 130.752C245.259 130.495 242.402 130.367 239.548 130.265C237.359 130.187 235.134 130.036 232.944 130.15C228.486 130.381 224.267 132.14 220.584 134.593C216.678 137.195 213.277 140.507 210.24 144.067C207.339 147.468 204.733 151.119 202.352 154.899C200.626 157.639 199.015 160.453 197.517 163.323C197.397 163.553 197.278 163.783 197.159 164.013C196.927 164.464 197.042 165.033 197.497 165.299C197.917 165.545 198.55 165.415 198.783 164.962C200.143 162.317 201.597 159.72 203.147 157.182C205.367 153.548 207.84 149.949 210.441 146.751C211.899 144.958 213.437 143.228 215.075 141.596C215.896 140.778 216.742 139.985 217.616 139.225C218.031 138.864 218.451 138.511 218.879 138.165C219.358 137.778 219.626 137.571 220.133 137.198C221.899 135.898 223.779 134.745 225.778 133.841C225.903 133.785 226.028 133.73 226.153 133.676C226.209 133.652 226.264 133.628 226.32 133.604C226.18 133.663 226.323 133.604 226.346 133.594C226.597 133.491 226.85 133.392 227.104 133.297C227.609 133.109 228.12 132.938 228.637 132.786C229.136 132.64 229.641 132.511 230.15 132.402C230.397 132.349 230.644 132.301 230.893 132.258C231.009 132.237 231.127 132.218 231.244 132.199C231.317 132.188 231.39 132.177 231.464 132.166C231.532 132.156 231.661 132.14 231.523 132.158C233.563 131.9 235.636 132.025 237.685 132.085C240.505 132.167 243.325 132.28 246.139 132.476C246.795 132.522 247.45 132.573 248.104 132.632C248.611 132.678 249.044 132.167 249.044 131.692C249.044 131.146 248.612 130.798 248.104 130.752Z" fill="black"/>
<path d="M248.104 131.692C243.498 131.967 236.612 131.096 234.111 131.066C234.111 131.066 250.193 146.732 264.398 134.616C267.322 131.274 271.082 126.261 271.082 126.261C271.082 126.261 262.1 130.856 248.104 131.692Z" fill="black"/>
<path d="M248.104 130.752C244.185 130.978 240.249 130.537 236.344 130.248C235.601 130.193 234.856 130.137 234.111 130.126C233.301 130.115 232.865 131.165 233.446 131.731C234.352 132.613 235.369 133.396 236.384 134.146C238.653 135.823 241.109 137.231 243.719 138.308C246.873 139.609 250.327 140.351 253.748 140.108C257.857 139.815 261.881 138.113 264.961 135.367C265.352 135.019 265.677 134.571 266.014 134.171C266.369 133.75 266.72 133.326 267.068 132.9C267.739 132.079 268.401 131.25 269.057 130.416C269.967 129.26 270.866 128.096 271.753 126.922C271.8 126.86 271.847 126.798 271.894 126.735C272.14 126.407 272.017 125.867 271.747 125.596C271.441 125.29 270.982 125.258 270.608 125.449C270.288 125.612 269.959 125.759 269.631 125.903C269.549 125.94 269.466 125.976 269.384 126.011C269.284 126.054 268.995 126.171 269.267 126.062C269.044 126.151 268.823 126.246 268.601 126.335C268.061 126.551 267.518 126.757 266.971 126.955C263.537 128.196 259.984 129.115 256.392 129.764C253.651 130.26 250.884 130.583 248.104 130.752C247.598 130.783 247.164 131.162 247.164 131.692C247.164 132.177 247.595 132.663 248.104 132.632C252.859 132.343 257.596 131.615 262.203 130.402C264.952 129.678 267.659 128.783 270.272 127.661C270.704 127.475 271.137 127.287 271.557 127.072C271.128 126.644 270.699 126.215 270.27 125.786C268.495 128.153 266.698 130.448 264.724 132.795C264.401 133.179 264.091 133.601 263.733 133.952C263.365 134.312 262.918 134.622 262.501 134.923C261.673 135.52 260.801 136.056 259.89 136.517C258.296 137.324 256.527 137.879 254.704 138.133C254.592 138.149 254.679 138.136 254.701 138.134C254.634 138.142 254.567 138.15 254.5 138.158C254.4 138.169 254.299 138.18 254.199 138.19C253.982 138.211 253.765 138.228 253.548 138.241C253.119 138.267 252.689 138.277 252.259 138.272C251.835 138.267 251.411 138.248 250.988 138.215C250.779 138.198 250.569 138.178 250.36 138.155C250.265 138.145 250.169 138.133 250.073 138.121C250.07 138.121 249.914 138.1 250.007 138.113C250.089 138.124 249.91 138.099 249.894 138.096C248.286 137.856 246.71 137.436 245.186 136.873C244.375 136.574 243.948 136.393 243.191 136.038C242.527 135.728 241.875 135.393 241.234 135.037C240.113 134.415 239.027 133.729 237.98 132.99C237.754 132.831 237.53 132.669 237.308 132.504C237.204 132.427 237.1 132.349 236.996 132.271C236.921 132.214 236.629 131.987 236.848 132.159C236.515 131.898 236.184 131.634 235.859 131.362C235.506 131.066 235.178 130.736 234.821 130.445C234.805 130.432 234.79 130.416 234.775 130.402C234.554 130.937 234.332 131.471 234.111 132.006C235.62 132.028 237.129 132.189 238.633 132.306C240.68 132.466 242.729 132.615 244.782 132.668C245.89 132.696 246.998 132.696 248.104 132.632C248.611 132.603 249.044 132.221 249.044 131.692C249.044 131.206 248.614 130.723 248.104 130.752Z" fill="black"/>
<path d="M235.571 60.2521C235.571 60.2521 227.007 69.0254 229.722 74.4565C233.859 82.7302 245.598 79.0521 245.598 79.0521C245.598 79.0521 244.135 88.4521 256.46 84.2743C256.46 88.8699 260.011 93.8832 266.278 89.4965C272.544 85.1099 270.247 106.834 266.278 111.221C270.247 111.848 273.851 92.1524 279.437 94.3009C290.3 98.4787 282.908 110.133 278.462 113.35C280.567 116.065 291.047 119.397 290.887 113.314C292.056 114.085 293.682 113.81 294.829 113.006C295.975 112.203 296.739 110.972 297.426 109.752C301.243 102.969 303.759 95.0144 303.069 87.1605C302.555 81.3069 298.938 75.1 292.806 74.0388C288.838 53.3589 251.864 43.1233 235.571 60.2521Z" fill="black"/>
<path d="M234.906 59.5875C233.682 60.8437 232.582 62.2507 231.582 63.6879C229.923 66.0699 228.343 68.8951 228.253 71.868C228.16 74.9869 230.428 77.826 233.066 79.2665C235.466 80.5775 238.291 80.9327 240.99 80.771C242.611 80.6739 244.29 80.4449 245.848 79.9585C245.462 79.5731 245.077 79.1877 244.691 78.8022C244.515 79.945 244.593 81.1656 244.941 82.2682C245.241 83.2195 245.757 84.1287 246.512 84.792C247.524 85.6797 248.773 86.0958 250.095 86.2376C252.317 86.476 254.621 85.8835 256.71 85.1807C256.313 84.8786 255.916 84.5764 255.52 84.2743C255.538 87.7963 257.49 91.7793 261.375 92.1099C262.378 92.1952 263.419 91.9805 264.348 91.6098C264.949 91.3701 265.527 91.088 266.078 90.7503C266.431 90.5346 266.759 90.279 267.119 90.0756C267.205 90.0265 267.3 89.9889 267.385 89.9388C267.506 89.8679 267.163 90.0119 267.338 89.9593C267.39 89.9438 267.44 89.9226 267.492 89.9069C267.57 89.8833 267.655 89.875 267.731 89.8486C267.863 89.8031 267.472 89.8537 267.641 89.8611C267.685 89.863 267.734 89.8573 267.778 89.855C267.816 89.8531 267.858 89.8645 267.894 89.8594C268.005 89.8438 267.672 89.8011 267.774 89.8418C267.836 89.8666 267.938 89.891 268.005 89.9024C268.134 89.9245 267.881 89.8376 267.897 89.8559C267.917 89.8783 267.97 89.8897 267.997 89.9069C268.028 89.9269 268.06 89.948 268.093 89.9661C268.257 90.0584 268.007 89.9343 268.022 89.9069C268.021 89.9082 268.185 90.0562 268.197 90.0689C268.226 90.0988 268.252 90.1311 268.28 90.1613C268.416 90.3058 268.234 90.1009 268.236 90.1005C268.277 90.0867 268.501 90.5329 268.524 90.5775C268.546 90.6224 268.566 90.6692 268.589 90.7137C268.675 90.8814 268.522 90.5271 268.573 90.6734C268.609 90.7765 268.652 90.8771 268.687 90.9805C268.764 91.2052 268.827 91.4341 268.882 91.6649C268.943 91.9195 268.993 92.1767 269.035 92.435C269.046 92.5032 269.056 92.5716 269.067 92.6398C269.102 92.8606 269.051 92.4897 269.07 92.66C269.087 92.8048 269.105 92.9494 269.12 93.0946C269.183 93.7232 269.213 94.3551 269.221 94.9868C269.239 96.4022 269.153 97.8189 269.001 99.2258C268.981 99.412 268.96 99.5981 268.938 99.784C268.926 99.8773 268.915 99.9705 268.903 100.064C268.897 100.11 268.865 100.358 268.878 100.259C268.893 100.149 268.856 100.412 268.851 100.454C268.837 100.547 268.824 100.64 268.81 100.733C268.782 100.92 268.754 101.106 268.724 101.292C268.605 102.029 268.468 102.762 268.311 103.492C268.021 104.841 267.667 106.181 267.203 107.481C267.104 107.759 267 108.035 266.889 108.309C266.877 108.336 266.78 108.567 266.839 108.429C266.895 108.299 266.807 108.503 266.789 108.543C266.733 108.67 266.675 108.797 266.615 108.922C266.401 109.37 266.163 109.809 265.881 110.218C265.823 110.3 265.586 110.554 265.808 110.325C265.739 110.397 265.68 110.482 265.613 110.556C265.195 111.023 265.275 112.019 266.028 112.127C267.201 112.297 268.13 111.658 268.846 110.777C269.725 109.698 270.371 108.452 270.977 107.206C272.43 104.221 273.609 101.087 275.307 98.2263C275.496 97.9084 275.692 97.5948 275.899 97.2884C275.994 97.1477 276.092 97.0086 276.192 96.8715C276.24 96.805 276.29 96.7398 276.339 96.6734C276.413 96.5725 276.225 96.8158 276.303 96.7198C276.335 96.6813 276.365 96.6417 276.396 96.603C276.591 96.3617 276.798 96.1287 277.019 95.9112C277.119 95.8135 277.221 95.7189 277.327 95.6286C277.353 95.6069 277.546 95.4497 277.407 95.5597C277.275 95.6644 277.47 95.5149 277.508 95.4888C277.611 95.418 277.716 95.3516 277.825 95.2913C277.878 95.2622 277.933 95.2369 277.986 95.2084C278.184 95.1018 277.812 95.2572 277.983 95.2072C278.086 95.1771 278.185 95.1364 278.29 95.1107C278.344 95.0974 278.401 95.0919 278.455 95.0762C278.591 95.0362 278.332 95.1081 278.329 95.0919C278.329 95.0907 278.449 95.0811 278.454 95.081C278.567 95.0787 278.68 95.0902 278.792 95.0867C278.941 95.082 278.552 95.0306 278.734 95.0794C278.797 95.0965 278.863 95.1055 278.927 95.1225C279.388 95.2452 279.752 95.4328 280.184 95.6508C281.156 96.1406 281.835 96.5986 282.538 97.3363C282.615 97.4169 282.69 97.4991 282.763 97.5832C282.799 97.6246 282.834 97.6668 282.869 97.7086C282.886 97.7286 282.994 97.8624 282.923 97.7721C282.852 97.6825 282.956 97.8157 282.971 97.8373C283.002 97.8806 283.033 97.9234 283.064 97.967C283.132 98.064 283.197 98.1627 283.259 98.2631C283.368 98.4382 283.468 98.6185 283.56 98.8032C283.605 98.8943 283.647 98.9867 283.689 99.0793C283.601 98.8846 283.728 99.185 283.749 99.2405C283.89 99.629 283.989 100.028 284.063 100.434C284.072 100.483 284.079 100.533 284.087 100.582C284.081 100.55 284.065 100.377 284.083 100.555C284.092 100.655 284.104 100.754 284.112 100.854C284.128 101.055 284.136 101.257 284.136 101.458C284.137 101.662 284.13 101.865 284.117 102.068C284.11 102.17 284.102 102.273 284.091 102.375C284.086 102.426 284.079 102.477 284.075 102.528C284.052 102.786 284.109 102.33 284.068 102.586C284.002 103.002 283.922 103.413 283.815 103.82C283.703 104.248 283.568 104.67 283.414 105.085C283.376 105.187 283.338 105.288 283.298 105.389C283.278 105.44 283.257 105.49 283.237 105.541C283.227 105.565 283.161 105.724 283.206 105.617C283.252 105.509 283.184 105.668 283.173 105.692C283.151 105.742 283.129 105.792 283.107 105.842C283.057 105.954 283.005 106.066 282.952 106.177C282.567 106.988 282.12 107.77 281.625 108.519C281.384 108.884 281.129 109.239 280.868 109.59C280.732 109.772 280.918 109.53 280.778 109.707C280.722 109.778 280.667 109.848 280.61 109.918C280.469 110.094 280.324 110.267 280.176 110.438C279.68 111.011 279.151 111.558 278.58 112.058C278.465 112.158 278.348 112.257 278.23 112.354C278.205 112.373 277.991 112.54 278.118 112.443C278.243 112.348 278.015 112.518 277.988 112.538C277.457 112.925 277.397 113.506 277.798 114.015C278.391 114.768 279.265 115.326 280.097 115.781C281.177 116.371 282.342 116.834 283.526 117.164C285.585 117.739 288.361 118.153 290.225 116.81C291.366 115.988 291.853 114.695 291.827 113.315C291.356 113.585 290.884 113.856 290.413 114.126C291.948 115.089 293.99 114.774 295.409 113.741C296.921 112.642 297.845 110.976 298.713 109.362C300.529 105.99 302.002 102.407 302.953 98.6932C304.608 92.2234 305.017 84.579 301.165 78.7766C299.281 75.9373 296.461 73.7406 293.056 73.1324L293.713 73.789C292.893 69.5629 290.692 65.7321 287.784 62.5948C284.69 59.2566 280.807 56.6605 276.685 54.7655C272.265 52.7338 267.544 51.4503 262.711 50.9167C257.954 50.3914 253.067 50.6398 248.428 51.854C243.881 53.0442 239.583 55.218 236.109 58.4061C235.695 58.7862 235.295 59.1808 234.906 59.5875C234.071 60.4626 235.398 61.7941 236.236 60.9169C237.029 60.0855 237.877 59.3076 238.777 58.5916C238.819 58.5575 239.061 58.3688 238.932 58.4684C239.047 58.3793 239.164 58.2915 239.281 58.2045C239.515 58.0308 239.753 57.8612 239.993 57.6955C240.448 57.3812 240.913 57.0815 241.388 56.7964C242.349 56.2184 243.347 55.701 244.372 55.2433C244.492 55.1897 244.612 55.1371 244.733 55.0848C244.903 55.0112 244.787 55.0613 244.75 55.0766C244.831 55.0425 244.913 55.009 244.994 54.9757C245.265 54.8647 245.538 54.7577 245.812 54.6546C246.335 54.4582 246.863 54.2762 247.396 54.1084C248.469 53.77 249.561 53.4889 250.663 53.2616C251.233 53.144 251.807 53.0408 252.382 52.9515C252.516 52.9309 252.649 52.9109 252.783 52.8917C252.842 52.8831 252.901 52.8749 252.961 52.8665C253.255 52.8248 252.773 52.889 253.068 52.8523C253.352 52.8171 253.635 52.7826 253.919 52.7526C256.246 52.5069 258.594 52.4768 260.927 52.637C261.507 52.6768 262.087 52.7285 262.665 52.7917C263.359 52.8676 263.647 52.9057 264.284 53.0032C265.436 53.1793 266.58 53.4008 267.714 53.6665C269.992 54.2003 272.229 54.912 274.394 55.8018C274.449 55.8247 274.505 55.8478 274.56 55.8708C274.827 55.9814 274.468 55.831 274.626 55.8983C274.751 55.9511 274.875 56.0045 274.998 56.0585C275.273 56.1781 275.546 56.3007 275.817 56.4263C276.33 56.6634 276.838 56.9111 277.34 57.1695C278.358 57.6927 279.353 58.2597 280.319 58.8722C280.783 59.166 281.239 59.4703 281.689 59.7852C281.9 59.9331 282.11 60.0834 282.317 60.2361C282.432 60.3206 282.547 60.4058 282.661 60.4917C282.706 60.526 282.751 60.5605 282.797 60.5949C283.021 60.7655 282.655 60.483 282.877 60.6561C283.728 61.3202 284.548 62.0255 285.326 62.7745C286.085 63.5058 286.805 64.2783 287.476 65.0921C287.631 65.2797 287.783 65.4694 287.932 65.6613C287.812 65.5078 288.05 65.8185 288.078 65.8562C288.158 65.9637 288.238 66.0718 288.316 66.1805C288.613 66.5915 288.896 67.0117 289.165 67.4408C289.712 68.3123 290.201 69.2206 290.62 70.1604C290.663 70.2563 290.704 70.3527 290.746 70.4491C290.661 70.2519 290.814 70.6168 290.832 70.6609C290.93 70.9043 291.022 71.1497 291.11 71.3967C291.278 71.8667 291.428 72.3429 291.56 72.8241C291.692 73.3078 291.804 73.7965 291.9 74.2887C291.957 74.5814 292.261 74.8924 292.557 74.9453C295.172 75.4125 297.385 76.8842 298.974 78.9277C300.652 81.0861 301.626 83.641 302.034 86.3369C302.256 87.801 302.283 89.6136 302.211 91.2082C302.132 92.9501 301.907 94.6785 301.557 96.3861C300.845 99.8506 299.657 103.212 298.121 106.394C297.7 107.265 297.254 108.124 296.786 108.97C296.356 109.746 295.921 110.547 295.35 111.23C294.376 112.396 292.754 113.376 291.362 112.503C290.76 112.126 289.934 112.615 289.947 113.315C289.95 113.456 289.949 113.597 289.94 113.738C289.937 113.799 289.929 113.86 289.925 113.921C289.911 114.157 289.978 113.725 289.92 113.948C289.893 114.055 289.877 114.165 289.847 114.272C289.823 114.356 289.672 114.71 289.794 114.46C289.707 114.639 289.611 114.801 289.5 114.966C289.657 114.731 289.477 114.984 289.427 115.036C289.348 115.118 289.262 115.189 289.176 115.264C289.392 115.075 289.147 115.277 289.087 115.315C289.005 115.366 288.921 115.413 288.835 115.456C288.782 115.483 288.728 115.506 288.675 115.532C288.889 115.427 288.788 115.489 288.734 115.505C288.617 115.542 288.504 115.588 288.386 115.622C288.17 115.684 287.951 115.726 287.73 115.762C287.589 115.785 287.972 115.744 287.749 115.758C287.682 115.763 287.614 115.772 287.547 115.777C287.421 115.787 287.294 115.794 287.168 115.797C286.917 115.804 286.666 115.798 286.416 115.783C286.293 115.776 286.17 115.766 286.048 115.755C285.981 115.748 285.532 115.688 285.774 115.725C285.236 115.642 284.704 115.534 284.178 115.393C283.635 115.248 283.101 115.072 282.577 114.87C282.445 114.82 282.314 114.767 282.184 114.713C282.387 114.797 282.049 114.653 281.992 114.627C281.746 114.516 281.504 114.399 281.265 114.275C280.792 114.028 280.341 113.75 279.906 113.44C279.873 113.417 279.842 113.392 279.81 113.368C280.037 113.535 279.818 113.373 279.773 113.335C279.695 113.27 279.619 113.204 279.546 113.136C279.395 112.996 279.254 112.847 279.127 112.685L278.937 114.162C280.285 113.179 281.412 111.955 282.42 110.632C283.552 109.147 284.483 107.519 285.155 105.775C285.807 104.083 286.176 102.219 285.944 100.406C285.695 98.4683 284.764 96.7116 283.269 95.4426C282.322 94.6388 281.257 94.0426 280.113 93.5661C279.413 93.2742 278.754 93.1328 277.996 93.2565C276.779 93.4554 275.771 94.3925 275.029 95.3199C272.934 97.9397 271.687 101.179 270.312 104.206C269.661 105.638 269.008 107.082 268.196 108.432C268.032 108.705 267.86 108.974 267.675 109.234C267.635 109.29 267.594 109.346 267.553 109.402C267.42 109.585 267.626 109.32 267.547 109.41C267.459 109.51 267.378 109.617 267.287 109.715C267.209 109.801 267.128 109.885 267.043 109.965C266.998 110.007 266.95 110.046 266.905 110.088C266.747 110.234 267.07 109.984 266.927 110.073C266.845 110.125 266.766 110.18 266.682 110.23C266.651 110.249 266.583 110.266 266.559 110.292C266.613 110.234 266.791 110.227 266.614 110.263C266.57 110.273 266.519 110.286 266.476 110.301C266.307 110.359 266.54 110.281 266.572 110.291C266.511 110.271 266.083 110.25 266.527 110.315C266.666 110.838 266.804 111.362 266.942 111.886C267.692 111.049 268.188 110.04 268.617 109.012C269.127 107.792 269.513 106.523 269.834 105.241C270.565 102.317 270.999 99.2837 271.089 96.2706C271.129 94.9186 271.082 93.5692 270.893 92.2292C270.754 91.2478 270.523 90.2146 269.998 89.3595C269.511 88.565 268.727 87.9656 267.761 87.975C267.25 87.9801 266.766 88.1453 266.315 88.3742C265.483 88.7962 264.772 89.4056 263.904 89.7744C262.981 90.1663 262.232 90.3066 261.285 90.2214C261.173 90.2113 261.295 90.2238 261.313 90.2266C261.255 90.2177 261.197 90.2075 261.139 90.1963C261.054 90.1797 260.969 90.1605 260.884 90.1389C260.787 90.114 260.691 90.0857 260.596 90.0542C260.531 90.0326 260.294 89.9402 260.352 89.9657C260.447 90.0074 260.321 89.9492 260.311 89.9443C260.261 89.9193 260.21 89.8953 260.161 89.8693C260.087 89.8305 260.014 89.7896 259.942 89.7468C259.858 89.6969 259.777 89.6442 259.696 89.5891C259.65 89.5576 259.605 89.5252 259.56 89.4922C259.443 89.4064 259.664 89.5783 259.552 89.485C258.869 88.9128 258.556 88.483 258.155 87.6807C258.116 87.6009 258.078 87.52 258.04 87.4392C257.962 87.2717 258.012 87.3794 258.028 87.4169C258.01 87.3754 257.993 87.3334 257.977 87.2915C257.895 87.0801 257.819 86.8662 257.753 86.6489C257.629 86.2382 257.54 85.8201 257.471 85.3968C257.469 85.3901 257.449 85.2398 257.462 85.3393C257.476 85.4494 257.454 85.2595 257.451 85.2358C257.441 85.129 257.43 85.0223 257.423 84.9152C257.407 84.7019 257.401 84.4882 257.4 84.2744C257.397 83.6923 256.797 83.1702 256.21 83.3679C255.183 83.7134 254.139 84.0114 253.072 84.2079C252.859 84.2472 252.645 84.2831 252.43 84.3129C252.575 84.2928 252.301 84.3278 252.257 84.3327C252.136 84.346 252.016 84.3577 251.895 84.3675C251.52 84.3978 251.144 84.4114 250.768 84.4015C250.591 84.3969 250.415 84.3873 250.239 84.3717C250.167 84.3654 250.096 84.3563 250.024 84.3497C249.973 84.3451 249.841 84.3196 250.065 84.3559C250.02 84.3486 249.974 84.3432 249.929 84.3348C249.635 84.2801 249.344 84.2181 249.059 84.1261C248.937 84.087 248.819 84.0398 248.699 83.9959C248.67 83.985 248.88 84.0819 248.691 83.9893C248.633 83.9611 248.575 83.9339 248.518 83.9044C248.3 83.7915 248.111 83.6408 247.901 83.5178C247.853 83.4898 248.065 83.6604 247.935 83.5419C247.893 83.5037 247.848 83.4685 247.805 83.4304C247.722 83.3559 247.642 83.278 247.566 83.1971C247.491 83.118 247.424 83.0319 247.351 82.9517C247.247 82.8382 247.468 83.1255 247.386 82.997C247.353 82.9464 247.315 82.8991 247.281 82.8492C247.164 82.6781 247.06 82.4988 246.968 82.3137C246.939 82.256 246.814 81.9969 246.889 82.1511C246.964 82.3059 246.843 82.0314 246.82 81.9665C246.696 81.6188 246.607 81.2589 246.547 80.8948C246.54 80.8513 246.535 80.8076 246.527 80.7642C246.496 80.5841 246.549 80.9847 246.539 80.8492C246.532 80.7664 246.52 80.6837 246.513 80.6009C246.5 80.453 246.492 80.3047 246.487 80.1562C246.48 79.8948 246.484 79.6327 246.504 79.3719C246.51 79.2958 246.52 79.2199 246.526 79.1438C246.54 78.9568 246.486 79.4211 246.504 79.3021C246.606 78.639 246.098 77.9113 245.348 78.1457C245.018 78.2488 244.68 78.3297 244.343 78.4067C243.968 78.4925 243.59 78.5679 243.21 78.634C242.981 78.6739 242.752 78.709 242.522 78.7431C242.265 78.7812 242.672 78.7268 242.401 78.7593C242.251 78.7774 242.1 78.7957 241.949 78.8116C240.784 78.9344 239.606 78.9665 238.437 78.8737C238.306 78.8634 238.175 78.8514 238.045 78.8378C237.972 78.8302 237.522 78.7712 237.743 78.8037C237.398 78.7528 237.055 78.6937 236.714 78.6188C236.087 78.481 235.477 78.2917 234.879 78.0599C234.836 78.0431 234.667 77.9698 234.837 78.0437C234.761 78.0107 234.685 77.9771 234.61 77.9424C234.459 77.8727 234.309 77.7992 234.162 77.722C233.864 77.5659 233.574 77.3942 233.294 77.207C233.153 77.1121 233.013 77.0132 232.877 76.9103C233.034 77.0289 232.809 76.8545 232.796 76.8442C232.729 76.7892 232.663 76.7332 232.597 76.6762C232.329 76.4434 232.075 76.1944 231.837 75.9311C231.365 75.4102 231.001 74.8762 230.627 74.1641C230.583 74.0804 230.541 73.9958 230.499 73.9111C230.484 73.8813 230.386 73.6401 230.467 73.8479C230.41 73.7025 230.358 73.5557 230.314 73.4059C230.278 73.2815 230.246 73.1556 230.219 73.0288C230.203 72.9527 230.192 72.8751 230.175 72.7992C230.159 72.6905 230.159 72.6964 230.175 72.817C230.169 72.7651 230.163 72.7131 230.158 72.661C230.135 72.3697 230.124 72.0799 230.136 71.7877C230.143 71.6255 230.155 71.4636 230.173 71.3022C230.176 71.2706 230.217 71.0015 230.181 71.2256C230.199 71.116 230.216 71.0065 230.237 70.8974C230.365 70.2189 230.569 69.556 230.817 68.9125C230.849 68.8296 230.882 68.7473 230.915 68.665C231.022 68.4004 230.874 68.7588 230.941 68.6016C231.006 68.4507 231.074 68.3007 231.143 68.1517C231.308 67.7976 231.485 67.449 231.671 67.1056C232.003 66.4922 232.365 65.8951 232.748 65.312C233.149 64.7008 233.574 64.1051 234.016 63.5231C234.062 63.4622 234.109 63.4014 234.156 63.3408C234.013 63.5254 234.211 63.2705 234.237 63.2379C234.339 63.1082 234.442 62.9791 234.546 62.8509C234.72 62.6356 234.897 62.4222 235.076 62.2109C235.45 61.7697 235.832 61.3313 236.236 60.9169C237.081 60.05 235.753 58.7192 234.906 59.5875Z" fill="black"/>
<path d="M299.951 190.695C299.083 198.6 299.152 206.599 300.133 214.49C301.119 222.421 302.982 230.231 305.743 237.732C307.291 241.938 309.109 246.046 311.188 250.016C311.75 251.088 313.373 250.139 312.812 249.067C309.18 242.134 306.378 234.786 304.436 227.205C302.488 219.604 301.413 211.791 301.246 203.946C301.152 199.522 301.348 195.094 301.831 190.695C301.886 190.19 301.359 189.755 300.891 189.755C300.337 189.755 300.007 190.188 299.951 190.695Z" fill="black"/>
<path d="M248.119 108.79C248.48 107.421 250.122 107.406 250.904 108.356C251.569 109.164 251.842 111.005 251.404 111.958C251.186 112.432 250.573 112.628 250.069 112.496C249.533 112.356 249.041 111.886 248.677 111.298C248.187 110.505 247.932 109.497 248.119 108.79Z" fill="black"/>
<path d="M248.723 108.956C248.737 108.905 248.754 108.855 248.77 108.804C248.818 108.651 248.707 108.903 248.786 108.77C248.827 108.702 248.864 108.634 248.91 108.569C248.816 108.703 248.963 108.526 248.99 108.497C249.087 108.392 248.878 108.562 248.998 108.487C249.034 108.464 249.069 108.44 249.107 108.419C249.144 108.398 249.182 108.381 249.22 108.362C249.088 108.429 249.152 108.389 249.188 108.379C249.271 108.357 249.351 108.335 249.435 108.318C249.274 108.351 249.457 108.321 249.525 108.322C249.561 108.322 249.597 108.325 249.633 108.326C249.797 108.329 249.537 108.299 249.662 108.328C249.734 108.345 249.805 108.359 249.876 108.381C249.919 108.395 249.96 108.412 250.002 108.426C249.869 108.381 249.944 108.4 249.976 108.417C250.056 108.461 250.133 108.507 250.211 108.554C250.239 108.57 250.301 108.626 250.195 108.538C250.243 108.577 250.29 108.617 250.334 108.661C250.367 108.693 250.517 108.881 250.418 108.743C250.464 108.807 250.508 108.872 250.548 108.939C250.59 109.011 250.629 109.086 250.665 109.161C250.674 109.18 250.739 109.34 250.686 109.204C250.709 109.263 250.732 109.322 250.752 109.382C250.817 109.569 250.869 109.761 250.909 109.955C250.928 110.05 250.944 110.145 250.959 110.24C250.937 110.099 250.964 110.288 250.966 110.304C250.971 110.361 250.976 110.419 250.98 110.477C250.993 110.682 250.994 110.888 250.979 111.093C250.976 111.129 250.972 111.164 250.969 111.2C250.954 111.374 250.998 111.074 250.962 111.241C250.942 111.339 250.924 111.436 250.896 111.532C250.882 111.577 250.866 111.621 250.852 111.666C250.817 111.772 250.853 111.659 250.863 111.641C250.836 111.688 250.815 111.735 250.783 111.779C250.864 111.665 250.758 111.792 250.741 111.809C250.761 111.789 250.841 111.751 250.742 111.806C250.695 111.832 250.651 111.86 250.602 111.882C250.713 111.833 250.625 111.871 250.6 111.876C250.569 111.882 250.351 111.914 250.5 111.905C250.455 111.908 250.409 111.907 250.364 111.909C250.328 111.911 250.209 111.892 250.341 111.915C250.249 111.899 250.157 111.874 250.07 111.838C250.191 111.888 250.014 111.804 250.006 111.799C249.952 111.769 249.901 111.735 249.849 111.701C249.839 111.694 249.757 111.631 249.825 111.685C249.757 111.631 249.693 111.571 249.631 111.509C249.3 111.179 249.017 110.687 248.87 110.265C248.826 110.137 248.788 110.008 248.756 109.877C248.741 109.814 248.727 109.75 248.715 109.685C248.714 109.681 248.688 109.482 248.7 109.599C248.688 109.478 248.681 109.356 248.685 109.234C248.686 109.176 248.69 109.119 248.696 109.061C248.681 109.206 248.716 108.984 248.723 108.956C248.801 108.638 248.621 108.262 248.285 108.185C247.961 108.112 247.598 108.282 247.514 108.623C247.209 109.864 247.766 111.254 248.562 112.197C248.966 112.674 249.516 113.058 250.145 113.142C250.787 113.229 251.447 112.982 251.834 112.454C252.138 112.039 252.219 111.457 252.24 110.956C252.262 110.418 252.191 109.862 252.051 109.343C251.784 108.353 251.198 107.457 250.167 107.16C249.627 107.004 249.054 107.054 248.549 107.298C248.021 107.552 247.669 108.071 247.514 108.623C247.426 108.938 247.623 109.319 247.952 109.394C248.284 109.47 248.628 109.294 248.723 108.956Z" fill="black"/>
<path d="M248.115 90.6287C248.757 90.3365 249.588 90.2835 250.29 90.449C251.075 90.6339 251.713 91.0123 252.239 91.6407C252.456 91.9005 252.9 91.865 253.125 91.6407C253.382 91.3835 253.343 91.0149 253.125 90.7544C251.769 89.134 249.376 88.6848 247.483 89.5465C247.175 89.6867 247.099 90.133 247.258 90.4039C247.443 90.7205 247.806 90.7694 248.115 90.6287Z" fill="black"/>
<path d="M233.969 87.1452C234.004 87.1276 234.04 87.1121 234.073 87.0939C234.15 87.0528 233.97 87.1319 234.051 87.1022C234.117 87.0785 234.181 87.0537 234.247 87.0335C234.314 87.0132 234.381 86.9959 234.448 86.9811C234.486 86.9729 234.524 86.9666 234.562 86.9588C234.648 86.9411 234.566 86.9698 234.532 86.961C234.586 86.9748 234.682 86.9465 234.739 86.944C234.809 86.9408 234.878 86.9402 234.948 86.9422C235.025 86.9444 235.102 86.9507 235.179 86.9582C235.267 86.9667 235.183 86.9468 235.15 86.9543C235.181 86.9472 235.235 86.9689 235.264 86.9749C235.401 87.0022 235.535 87.0393 235.666 87.086C235.695 87.0964 235.724 87.1083 235.753 87.1185C235.826 87.1441 235.646 87.0669 235.752 87.1189C235.815 87.1494 235.877 87.1794 235.938 87.2132C235.998 87.2469 236.058 87.2828 236.115 87.3212C236.141 87.3382 236.166 87.3562 236.191 87.3736C236.314 87.4578 236.128 87.3167 236.193 87.3737C236.304 87.4716 236.41 87.5684 236.508 87.68C236.724 87.9276 237.175 87.9179 237.394 87.68C237.636 87.416 237.625 87.0578 237.394 86.7937C236.401 85.6581 234.661 85.385 233.337 86.063C233.045 86.2127 232.936 86.6469 233.112 86.9204C233.304 87.2187 233.657 87.3053 233.969 87.1452Z" fill="black"/>
<path d="M234.764 93.0519C234.313 93.8362 233.517 94.265 232.642 94.1258C232.477 94.0995 232.309 94.0603 232.168 93.9699C231.995 93.8589 231.877 93.6801 231.786 93.4955C231.42 92.7491 231.459 91.8189 231.885 91.1054C232.465 90.1357 234 90.1173 234.674 91.0162C235.105 91.5917 235.122 92.4284 234.764 93.0519Z" fill="black"/>
<path d="M234.223 92.7356C234.18 92.8076 234.133 92.9164 234.069 92.9712C234.182 92.8747 234.079 92.9572 234.053 92.9876C234.023 93.0217 233.993 93.0551 233.961 93.0874C233.91 93.1407 233.854 93.1888 233.799 93.2387C233.688 93.3389 233.911 93.1675 233.787 93.2478C233.738 93.2792 233.691 93.3126 233.64 93.3419C233.584 93.3749 233.498 93.3989 233.449 93.4408L233.519 93.4111C233.492 93.4217 233.465 93.4316 233.438 93.441C233.397 93.4551 233.356 93.4679 233.314 93.4792C233.273 93.4906 233.23 93.5006 233.188 93.5091L233.145 93.5172C233.075 93.5283 233.088 93.5271 233.182 93.5134C233.147 93.5483 232.963 93.5256 232.915 93.5244C232.87 93.5232 232.825 93.5187 232.779 93.5163C232.623 93.5082 232.922 93.5497 232.759 93.5131C232.701 93.5002 232.56 93.4932 232.515 93.4519L232.572 93.4771C232.542 93.4628 232.513 93.4467 232.485 93.4287L232.535 93.4709C232.511 93.4508 232.488 93.4294 232.466 93.4068C232.356 93.3166 232.521 93.5089 232.446 93.386C232.416 93.3383 232.386 93.292 232.36 93.2427C232.341 93.2069 232.324 93.1703 232.306 93.1341C232.233 92.9883 232.341 93.2554 232.293 93.0998C232.263 93.0044 232.23 92.9113 232.208 92.8138C232.198 92.7733 232.19 92.7327 232.182 92.6919C232.175 92.6505 232.139 92.5499 232.179 92.686C232.148 92.5831 232.161 92.4443 232.164 92.3378C232.165 92.2582 232.162 92.1671 232.181 92.0893C232.142 92.2485 232.184 92.0884 232.19 92.0591C232.199 92.0102 232.211 91.9616 232.223 91.9134C232.245 91.8266 232.265 91.7051 232.315 91.6294C232.249 91.73 232.294 91.6737 232.31 91.6417C232.34 91.5822 232.368 91.5225 232.401 91.4646C232.422 91.428 232.444 91.3919 232.467 91.3569L232.489 91.3257C232.528 91.2723 232.518 91.2849 232.46 91.3633C232.495 91.3529 232.555 91.2587 232.587 91.2293C232.612 91.2065 232.65 91.1839 232.67 91.1577C232.588 91.264 232.601 91.2101 232.662 91.1704C232.728 91.1271 232.801 91.0968 232.869 91.057C232.941 91.0149 232.717 91.11 232.837 91.0718C232.872 91.0607 232.906 91.0478 232.941 91.0374C233.011 91.0166 233.083 91.0025 233.155 90.9884C233.281 90.9637 233.03 90.9917 233.116 90.9944C233.146 90.9953 233.177 90.9892 233.207 90.9879C233.294 90.984 233.379 90.9893 233.465 90.9941C233.6 91.0017 233.313 90.9634 233.445 90.9912C233.469 90.9963 233.494 91.0001 233.518 91.0053C233.59 91.0208 233.661 91.0406 233.731 91.0647C233.801 91.0889 233.826 91.1388 233.719 91.0556C233.745 91.076 233.789 91.0881 233.819 91.1036C233.885 91.1381 233.946 91.1786 234.008 91.219C234.12 91.291 233.902 91.1212 233.999 91.2123C234.035 91.2465 234.073 91.2788 234.108 91.3149C234.119 91.326 234.171 91.3984 234.183 91.3994L234.133 91.3324C234.151 91.3573 234.169 91.3828 234.187 91.4089C234.212 91.4478 234.236 91.4878 234.259 91.5287C234.274 91.5559 234.288 91.5836 234.301 91.6116C234.33 91.675 234.327 91.6679 234.293 91.5902C234.342 91.6445 234.356 91.7851 234.371 91.858L234.38 91.9038C234.392 91.9744 234.391 91.9651 234.378 91.8759C234.399 91.9244 234.389 92.0106 234.39 92.0628C234.39 92.1097 234.389 92.1566 234.387 92.2035C234.385 92.2347 234.382 92.266 234.379 92.2971L234.389 92.2237C234.397 92.3205 234.343 92.4522 234.312 92.543C234.302 92.5741 234.268 92.7223 234.308 92.5683C234.293 92.6251 234.251 92.6848 234.223 92.7356C234.063 93.0219 234.144 93.4326 234.448 93.5929C234.743 93.749 235.134 93.6738 235.305 93.3681C235.823 92.4402 235.748 91.2104 234.994 90.4287C234.393 89.8044 233.413 89.5814 232.59 89.8342C232.162 89.9659 231.776 90.2138 231.501 90.5695C231.165 91.004 230.997 91.5246 230.931 92.0646C230.804 93.1052 231.242 94.4971 232.401 94.7169C232.997 94.8299 233.572 94.7644 234.12 94.5048C234.621 94.2681 235.028 93.8403 235.305 93.3681C235.471 93.0852 235.379 92.6685 235.08 92.5107C234.779 92.3517 234.4 92.4336 234.223 92.7356Z" fill="black"/>
<path d="M250.013 95.9763C249.562 96.7606 248.766 97.1894 247.891 97.0502C247.726 97.0239 247.558 96.9847 247.417 96.8943C247.244 96.7834 247.126 96.6046 247.035 96.4199C246.669 95.6735 246.708 94.7433 247.134 94.0298C247.714 93.0601 249.249 93.0418 249.923 93.9407C250.354 94.5162 250.371 95.3528 250.013 95.9763Z" fill="black"/>
<path d="M249.472 95.6601C249.429 95.7321 249.382 95.8408 249.318 95.8956C249.431 95.7991 249.328 95.8817 249.302 95.912C249.272 95.9462 249.242 95.9795 249.21 96.0118C249.158 96.0651 249.103 96.1132 249.048 96.1632C248.937 96.2633 249.16 96.092 249.035 96.1722C248.987 96.2037 248.939 96.237 248.889 96.2664C248.833 96.2993 248.747 96.3234 248.697 96.3652L248.768 96.3355C248.741 96.3461 248.714 96.3561 248.687 96.3655C248.646 96.3796 248.605 96.3923 248.563 96.4036C248.521 96.415 248.479 96.425 248.437 96.4336L248.394 96.4417C248.324 96.4528 248.337 96.4515 248.431 96.4379C248.396 96.4728 248.212 96.45 248.164 96.4488C248.119 96.4477 248.074 96.4432 248.028 96.4408C247.872 96.4326 248.171 96.4741 248.008 96.4376C247.95 96.4246 247.809 96.4177 247.764 96.3763L247.821 96.4016C247.791 96.3873 247.762 96.3712 247.733 96.3532L247.784 96.3954C247.76 96.3753 247.737 96.3539 247.715 96.3313C247.604 96.2411 247.769 96.4333 247.694 96.3105C247.665 96.2628 247.635 96.2165 247.609 96.1671C247.59 96.1314 247.573 96.0947 247.555 96.0585C247.482 95.9127 247.59 96.1798 247.542 96.0242C247.512 95.9289 247.479 95.8357 247.456 95.7382C247.447 95.6978 247.439 95.6571 247.431 95.6163C247.424 95.5749 247.387 95.4744 247.428 95.6105C247.397 95.5075 247.41 95.3687 247.413 95.2623C247.414 95.1826 247.411 95.0916 247.43 95.0138C247.391 95.1729 247.433 95.0129 247.439 94.9835C247.448 94.9346 247.459 94.8861 247.472 94.8378C247.494 94.7511 247.514 94.6296 247.564 94.5538C247.498 94.6545 247.543 94.5981 247.559 94.5662C247.589 94.5067 247.617 94.4469 247.65 94.3891C247.671 94.3525 247.693 94.3164 247.716 94.2814L247.738 94.2501C247.777 94.1968 247.767 94.2093 247.709 94.2877C247.744 94.2773 247.804 94.1831 247.836 94.1537C247.86 94.1309 247.899 94.1084 247.919 94.0821C247.837 94.1884 247.85 94.1345 247.911 94.0949C247.977 94.0515 248.05 94.0212 248.118 93.9815C248.19 93.9393 247.965 94.0345 248.086 93.9962C248.12 93.9851 248.155 93.9722 248.19 93.9619C248.26 93.941 248.331 93.927 248.404 93.9129C248.53 93.8881 248.279 93.9161 248.364 93.9188C248.394 93.9197 248.426 93.9137 248.456 93.9123C248.543 93.9085 248.628 93.9138 248.714 93.9186C248.849 93.9261 248.562 93.8878 248.694 93.9157C248.718 93.9208 248.743 93.9246 248.767 93.9297C248.839 93.9452 248.91 93.965 248.98 93.9892C249.05 94.0134 249.075 94.0633 248.968 93.98C248.994 94.0004 249.038 94.0125 249.068 94.028C249.134 94.0625 249.195 94.103 249.257 94.1434C249.369 94.2154 249.151 94.0457 249.248 94.1367C249.284 94.171 249.322 94.2033 249.357 94.2393C249.367 94.2505 249.419 94.3228 249.432 94.3238L249.382 94.2568C249.4 94.2818 249.418 94.3073 249.436 94.3333C249.461 94.3722 249.485 94.4122 249.508 94.4531C249.523 94.4804 249.537 94.508 249.55 94.536C249.579 94.5994 249.576 94.5923 249.541 94.5146C249.591 94.5689 249.604 94.7095 249.62 94.7825L249.629 94.8282C249.641 94.8989 249.64 94.8896 249.627 94.8003C249.647 94.8489 249.638 94.935 249.638 94.9872C249.639 95.0341 249.638 95.0811 249.635 95.1279C249.634 95.1592 249.631 95.1904 249.628 95.2215L249.638 95.1481C249.645 95.245 249.591 95.3766 249.561 95.4675C249.551 95.4985 249.517 95.6467 249.557 95.4928C249.542 95.5496 249.5 95.6092 249.472 95.6601C249.312 95.9464 249.393 96.3571 249.696 96.5173C249.992 96.6734 250.383 96.5983 250.554 96.2925C251.071 95.3647 250.996 94.1349 250.243 93.3531C249.641 92.7289 248.662 92.5059 247.839 92.7587C247.41 92.8903 247.025 93.1382 246.75 93.4939C246.414 93.9285 246.246 94.449 246.18 94.989C246.053 96.0297 246.491 97.4216 247.65 97.6414C248.245 97.7544 248.821 97.6889 249.369 97.4293C249.87 97.1925 250.276 96.7648 250.554 96.2925C250.72 96.0097 250.628 95.593 250.329 95.4351C250.028 95.2761 249.649 95.358 249.472 95.6601Z" fill="black"/>
<path d="M46.9193 48.9506C44.6937 45.6404 42.6894 42.1813 40.9244 38.6041C42.74 37.6815 44.6821 37.0082 46.6792 36.6091C46.7775 41.4095 47.2246 46.2027 48.016 50.9384C47.419 49.971 46.822 49.0036 46.225 48.0362" fill="white"/>
<path d="M47.731 48.4762C45.5074 45.163 43.5047 41.7065 41.7361 38.1297C41.6237 38.5584 41.5113 38.9871 41.3989 39.4158C43.1499 38.5331 45.0081 37.9059 46.9291 37.5155L45.7392 36.6091C45.8431 41.4952 46.3079 46.3675 47.1096 51.1883C47.6823 50.9469 48.2549 50.7054 48.8276 50.464C48.2307 49.4966 47.6337 48.5292 47.0367 47.5617C46.4025 46.534 44.7756 47.4771 45.4134 48.5106C46.0104 49.478 46.6074 50.4454 47.2043 51.4128C47.4486 51.8087 47.947 51.987 48.3781 51.7975C48.8346 51.5968 49.0016 51.1646 48.9224 50.6885C48.1483 46.0336 47.7195 41.3267 47.6192 36.6091C47.6056 35.9673 47.0319 35.5803 46.4293 35.7027C44.35 36.1253 42.3442 36.8376 40.45 37.7924C39.9748 38.032 39.8992 38.6466 40.1128 39.0785C41.8814 42.6553 43.8841 46.1118 46.1076 49.425C46.3902 49.8461 46.9363 50.0299 47.3937 49.7623C47.8116 49.5178 48.0152 48.8997 47.731 48.4762Z" fill="white"/>
<path d="M72.5908 35.2915C72.1156 35.0284 61.6324 46.9979 60.7451 48.0746C62.1835 42.6336 63.8083 37.7305 66.1375 32.615C66.237 32.3964 66.3711 32.151 66.6074 32.1082C66.7758 32.0778 66.9411 32.1635 67.0909 32.2464C68.9242 33.2614 70.7575 34.2765 72.5908 35.2915Z" fill="white"/>
<path d="M73.0652 34.4799C72.1265 34.0696 71.3952 34.9625 70.7875 35.5622C69.8739 36.4638 69.0009 37.407 68.131 38.3503C66.0212 40.6382 63.9528 42.9648 61.9018 45.3055C61.2908 46.0029 60.6709 46.695 60.0804 47.41L61.6515 48.3245C62.4137 45.4474 63.261 42.5923 64.2535 39.7856C64.7418 38.4049 65.2642 37.0362 65.8223 35.6821C66.0949 35.0208 66.3782 34.3639 66.6694 33.7106C66.7412 33.5494 66.8132 33.3882 66.8864 33.2276C66.8941 33.2106 66.9895 33.0434 66.9941 32.9948C67.0024 32.9078 67.0362 32.9419 67.0193 32.9215L66.7604 32.9593C66.4892 32.9469 66.422 32.9697 66.5589 33.0276C66.6102 33.094 66.7463 33.1299 66.8227 33.1722C67.0289 33.2864 67.2352 33.4006 67.4414 33.5148C68.9997 34.3776 70.558 35.2403 72.1164 36.1031C73.1757 36.6896 74.1251 35.0666 73.0652 34.4799C71.5528 33.6425 70.0403 32.805 68.5278 31.9676C67.7755 31.5511 66.8686 30.8384 65.9958 31.352C65.3207 31.7493 65.0677 32.7054 64.7729 33.381C63.4694 36.3688 62.3339 39.425 61.3584 42.5352C60.8093 44.2859 60.3085 46.0512 59.8387 47.8247C59.6134 48.6751 60.7856 49.4949 61.4098 48.7393C62.7431 47.125 64.1587 45.5728 65.5499 44.0088C67.5155 41.7989 69.4833 39.5833 71.5481 37.465C71.9052 37.0987 72.2647 36.7332 72.643 36.3888C72.7083 36.3294 72.774 36.2704 72.8413 36.2133C72.8699 36.1892 72.8995 36.1661 72.9276 36.1415C73.0498 36.0342 72.827 36.216 72.8326 36.2141C72.8766 36.1993 72.9092 36.1484 72.9545 36.1327C73.0812 36.0888 72.7507 36.2108 72.7863 36.2009C72.5858 36.2569 72.3709 36.2144 72.1164 36.1031C72.5812 36.3062 73.1253 36.2398 73.4024 35.7659C73.6354 35.3675 73.5329 34.6842 73.0652 34.4799Z" fill="white"/>
<path d="M28.8311 63.9478C31.3962 66.1313 37.9414 63.7649 40.7895 63.7748C38.8768 61.9539 36.3599 60.9335 33.9075 59.9537C32.3982 59.3507 30.8888 58.7476 29.3794 58.1446C29.2472 58.0918 29.1086 58.038 28.967 58.0525C28.5578 58.0944 28.4241 58.6184 28.4042 59.0292C28.333 60.4972 28.4046 61.9722 28.6176 63.4264C28.6455 63.6166 28.6848 63.8233 28.8311 63.9478Z" fill="white"/>
<path d="M28.1664 64.6125C29.5092 65.7243 31.2967 65.885 32.9783 65.7908C34.8536 65.6856 36.6994 65.2937 38.5456 64.9734C38.7615 64.9359 38.9775 64.8995 39.1939 64.8654C39.2971 64.8491 39.4004 64.8333 39.5037 64.8182C39.5611 64.8099 39.6184 64.8016 39.6759 64.7938C39.5848 64.8062 39.5879 64.8045 39.6773 64.7945C40.0473 64.7527 40.4167 64.7158 40.7895 64.7148C41.5838 64.7126 42.0561 63.6759 41.4542 63.1101C39.4512 61.2274 36.9243 60.1554 34.407 59.1471C33.0097 58.5874 31.6114 58.0301 30.2135 57.4716C29.4745 57.1764 28.6405 56.8599 27.9981 57.5461C27.5187 58.0582 27.4693 58.7582 27.4487 59.4226C27.4218 60.2883 27.4442 61.1555 27.5161 62.0186C27.5874 62.8745 27.5612 63.9427 28.1664 64.6125C28.5069 64.9893 29.1496 64.9587 29.4958 64.6125C29.8705 64.2378 29.8372 63.661 29.4958 63.2832C29.5753 63.4455 29.591 63.4484 29.5429 63.2918C29.5273 63.2017 29.5136 63.1113 29.5017 63.0207C29.4778 62.8439 29.4586 62.6664 29.4402 62.489C29.3967 62.0713 29.3647 61.6525 29.3443 61.233C29.324 60.8135 29.3152 60.3935 29.3181 59.9736C29.3195 59.7637 29.3239 59.5537 29.3311 59.3439C29.3347 59.2389 29.3391 59.134 29.3442 59.0292C29.3538 58.9156 29.3539 58.9005 29.3446 58.9839C29.3568 58.9178 29.373 58.8528 29.3933 58.7887C29.3832 58.8263 29.3613 58.8552 29.3275 58.8754C29.2278 58.9501 29.1171 58.9918 28.9953 59.0004C29.0895 59.0349 29.1829 59.0712 29.2756 59.1094C29.6658 59.2631 30.0546 59.4206 30.4441 59.5763C31.1988 59.8778 31.9535 60.1793 32.7082 60.4808C35.2988 61.5158 38.056 62.4948 40.1249 64.4395C40.3464 63.9046 40.568 63.3697 40.7895 62.8348C39.8543 62.8375 38.917 63.0087 37.9983 63.1688C36.9057 63.3592 35.817 63.5728 34.7192 63.7325C33.8232 63.8629 32.6237 63.9773 31.593 63.9157C31.468 63.9082 31.3438 63.895 31.219 63.8854C31.1044 63.8716 31.0968 63.8717 31.1963 63.8856C31.1369 63.8772 31.0777 63.868 31.0186 63.858C30.7909 63.8194 30.565 63.7688 30.3439 63.7018C30.2379 63.6696 30.1343 63.6322 30.0304 63.594C30.2306 63.6677 29.925 63.5432 29.8881 63.5241C29.7947 63.4757 29.7067 63.42 29.6162 63.3667C29.5727 63.3386 29.5299 63.3094 29.4879 63.2791C29.575 63.3488 29.5776 63.3502 29.4958 63.2832C29.1051 62.9596 28.5491 62.9005 28.1664 63.2832C27.8332 63.6164 27.7735 64.2872 28.1664 64.6125Z" fill="white"/>
<path d="M76.2437 151.241C75.2962 148.818 75.4522 146.728 75.0198 144.239C74.7544 142.71 72.3747 137.618 72.8424 136.402C70.9445 141.335 70.3213 146.61 68.6418 151.65C71.0344 151.781 73.4269 151.912 75.8195 152.043C75.9499 152.05 76.0913 152.054 76.1987 151.98C76.4182 151.827 76.341 151.49 76.2437 151.241Z" fill="white"/>
<path d="M77.1501 150.992C76.6493 149.684 76.43 148.33 76.2907 146.944C76.1747 145.791 76.1226 144.585 75.7988 143.467C75.3057 141.765 74.5708 140.14 74.0632 138.441C73.9343 138.009 73.8376 137.576 73.7432 137.137C73.7131 136.997 73.7521 137.309 73.7346 137.069C73.7291 136.994 73.7225 136.919 73.7219 136.843C73.7214 136.786 73.7593 136.55 73.7186 136.725C73.6762 136.908 73.7332 136.696 73.7488 136.652C73.9174 136.173 73.5573 135.623 73.0922 135.496C72.5627 135.35 72.1178 135.676 71.9359 136.152C70.0481 141.094 69.3947 146.389 67.7353 151.4C67.5332 152.01 68.0643 152.558 68.6418 152.59C70.3165 152.682 71.9914 152.773 73.6661 152.865C74.4535 152.908 75.2968 153.042 76.0816 152.971C77.1085 152.877 77.4669 151.869 77.1501 150.992C76.9778 150.514 76.5106 150.193 75.9938 150.335C75.5329 150.462 75.164 151.012 75.3372 151.491C75.3629 151.556 75.3846 151.623 75.4021 151.69C75.3864 151.516 75.4547 151.359 75.6071 151.219L76.0816 151.091C75.4828 151.162 74.8263 151.048 74.2244 151.015C73.613 150.982 73.0015 150.948 72.3901 150.915C71.1406 150.847 69.8912 150.778 68.6417 150.71L69.5482 151.9C71.2076 146.888 71.861 141.594 73.7488 136.652C73.1445 136.485 72.5402 136.319 71.9359 136.152C71.6933 136.841 71.9148 137.69 72.0898 138.368C72.3247 139.277 72.6432 140.165 72.9623 141.048C73.2708 141.901 73.5986 142.749 73.8767 143.612C74.1818 144.56 74.2712 145.542 74.3695 146.53C74.5377 148.218 74.7262 149.896 75.3372 151.491C75.5187 151.965 75.9701 152.292 76.4936 152.148C76.947 152.023 77.3327 151.468 77.1501 150.992Z" fill="white"/>
<path d="M87.2848 148.725C88.8882 147.848 89.4765 145.86 91.554 145.462C90.8677 142.159 85.2616 140.685 82.5498 139.693C84.1096 140.262 86.2677 147.461 86.7905 148.946C86.9662 148.884 87.1302 148.81 87.2848 148.725Z" fill="white"/>
<path d="M87.7593 149.537C88.5786 149.073 89.1805 148.374 89.8056 147.688C90.43 147.003 90.9244 146.552 91.8039 146.369C92.319 146.262 92.5643 145.683 92.4605 145.212C92.0095 143.17 90.1347 141.83 88.3747 140.944C86.587 140.043 84.674 139.469 82.7997 138.786C82.3226 138.613 81.7702 138.981 81.6434 139.443C81.4968 139.976 81.8257 140.412 82.2999 140.599C82.2082 140.563 82.1168 140.474 82.2095 140.569C82.2297 140.589 82.3937 140.707 82.2512 140.591C82.1172 140.481 82.2507 140.594 82.2775 140.623C82.3242 140.672 82.3731 140.719 82.4183 140.769C82.4551 140.811 82.4888 140.854 82.5249 140.896C82.5358 140.909 82.4218 140.749 82.5395 140.921C82.6206 141.04 82.7002 141.16 82.7753 141.282C83.1581 141.908 83.4665 142.579 83.7577 143.251C83.7757 143.293 83.7936 143.334 83.8112 143.376C83.8037 143.358 83.7633 143.261 83.8052 143.362C83.8467 143.462 83.8877 143.561 83.9283 143.661C84.0045 143.849 84.0792 144.037 84.1526 144.226C84.3052 144.618 84.4525 145.013 84.5959 145.409C84.8536 146.121 85.0986 146.837 85.3378 147.555C85.52 148.102 85.6935 148.652 85.8841 149.196C86.0404 149.642 86.5379 150.04 87.0404 149.852C87.2859 149.76 87.5269 149.658 87.7593 149.537C88.8321 148.977 87.8827 147.354 86.8104 147.914C86.7207 147.961 86.6343 148.004 86.5406 148.039C86.926 148.258 87.3115 148.477 87.6969 148.696C87.2611 147.452 86.8724 146.193 86.4244 144.953C85.8544 143.375 85.2656 141.737 84.3804 140.304C83.9828 139.66 83.5197 139.07 82.7997 138.786C82.6331 139.391 82.4665 139.995 82.2999 140.599C83.0918 140.887 83.8938 141.147 84.6873 141.431C85.6378 141.77 86.393 142.061 87.2477 142.479C87.6732 142.687 88.0909 142.912 88.4928 143.162C88.941 143.442 89.1692 143.606 89.4923 143.897C89.6441 144.033 89.7898 144.177 89.9267 144.328C89.9496 144.354 90.1707 144.62 90.0509 144.465C90.1187 144.553 90.182 144.644 90.2419 144.738C90.3454 144.899 90.4368 145.066 90.5157 145.241C90.4271 145.045 90.5533 145.357 90.5653 145.396C90.5979 145.5 90.624 145.606 90.6476 145.712C90.8664 145.327 91.0853 144.941 91.3041 144.556C90.2619 144.773 89.4016 145.38 88.6788 146.14C88.3709 146.464 88.0845 146.808 87.775 147.13C87.4268 147.493 87.2101 147.687 86.8104 147.914C85.7578 148.51 86.7041 150.135 87.7593 149.537Z" fill="white"/>
<path d="M61.9514 128.856C59.1952 130.237 56.4793 131.765 53.9333 133.507C52.7394 134.323 51.2328 135.094 50.3736 136.267C51.2215 137.153 52.0694 138.038 52.9173 138.924C53.0419 138.301 53.4522 137.779 53.857 137.29C55.0651 135.828 56.2854 134.379 57.7144 133.156C58.4632 132.515 59.1026 131.685 59.7952 130.981C60.4012 130.365 61.1811 129.242 61.9514 128.856Z" fill="white"/>
<path d="M61.4769 128.045C59.2477 129.163 57.0591 130.366 54.9553 131.707C53.9926 132.321 53.0452 132.96 52.0884 133.583C51.1341 134.204 50.252 134.878 49.562 135.792C49.3106 136.125 49.4445 136.655 49.7089 136.932C50.5568 137.817 51.4047 138.703 52.2526 139.589C52.7308 140.089 53.6629 139.86 53.8237 139.174C53.9348 138.701 54.2172 138.325 54.5217 137.954C54.8916 137.504 55.2657 137.057 55.646 136.615C56.4181 135.718 57.2229 134.847 58.1069 134.058C58.9638 133.294 59.7043 132.439 60.4952 131.609C61.1121 130.962 61.6709 130.073 62.4258 129.668C63.4923 129.096 62.5439 127.472 61.4769 128.045C60.53 128.553 59.9223 129.481 59.2012 130.243C58.3674 131.124 57.5698 132.011 56.67 132.826C55.756 133.654 54.9261 134.569 54.1273 135.507C53.3256 136.448 52.3021 137.433 52.0109 138.674L53.582 138.26C52.7341 137.374 51.8862 136.488 51.0383 135.602C51.0873 135.982 51.1363 136.362 51.1853 136.741C51.7437 136.002 52.593 135.489 53.361 134.998C54.2994 134.398 55.2148 133.764 56.157 133.17C58.1832 131.893 60.2857 130.742 62.4258 129.668C62.8795 129.44 63.0077 128.8 62.7631 128.382C62.493 127.92 61.9323 127.816 61.4769 128.045Z" fill="white"/>
<path d="M14.2314 100.795C14.896 100.574 15.5606 100.352 16.2253 100.131C16.4573 100.053 16.6612 99.9136 16.787 99.6986C16.9049 99.4971 16.9549 99.2002 16.8818 98.9743C16.8082 98.7468 16.6672 98.5274 16.4498 98.4125C16.2328 98.2979 15.9659 98.2376 15.7255 98.3178C15.0608 98.5393 14.3962 98.7608 13.7316 98.9824C13.4995 99.0597 13.2957 99.1993 13.1698 99.4144C13.0519 99.6158 13.002 99.9128 13.0751 100.139C13.1487 100.366 13.2896 100.586 13.5071 100.7C13.7241 100.815 13.991 100.875 14.2314 100.795Z" fill="white"/>
<path d="M19.2935 121.816C21.0477 120.245 22.802 118.674 24.5562 117.103C24.9236 116.774 24.9162 116.104 24.5562 115.773C24.1639 115.413 23.6187 115.422 23.2269 115.773C21.4726 117.344 19.7184 118.915 17.9642 120.486C17.5968 120.815 17.6042 121.485 17.9642 121.816C18.3565 122.176 18.9017 122.167 19.2935 121.816Z" fill="white"/>
<path d="M7.52557 80.0974C8.41172 80.5405 9.29789 80.9835 10.184 81.4266C10.4112 81.5402 10.6574 81.5905 10.9084 81.5214C11.1264 81.4613 11.3627 81.2927 11.4701 81.0894C11.6952 80.6633 11.6024 80.038 11.1329 79.8033C10.2468 79.3602 9.36058 78.9171 8.47443 78.4741C8.24727 78.3605 8.00109 78.3102 7.75012 78.3793C7.53207 78.4393 7.29578 78.6079 7.18836 78.8113C6.96324 79.2374 7.05604 79.8626 7.52557 80.0974Z" fill="white"/>
</svg>
