<svg width="328" height="328" viewBox="0 0 328 328" fill="none" xmlns="http://www.w3.org/2000/svg">
<path d="M312.797 192.258C313.685 180.521 305.624 169.636 294.413 166.485C295.905 168.445 297.398 170.405 298.89 172.365C298.451 168.959 297.661 165.912 296.063 162.838C294.768 160.347 292.944 157.996 290.841 156.133C286.114 151.942 280.021 149.493 273.664 149.583C267.488 149.67 261.67 152.061 257.066 156.135C252.419 160.248 249.79 166.04 249.053 172.119C248.137 179.674 251.141 187.446 256.57 192.711C256.981 189.518 257.393 186.326 257.804 183.133C252.33 186.889 248.083 192.554 246.91 199.196C245.816 205.388 246.722 211.795 250.069 217.196C253.275 222.371 258.219 226.205 264.006 228.072C270.148 230.055 276.748 229.306 282.531 226.618C288.849 223.682 293.529 217.754 295.541 211.164C293.581 212.657 291.621 214.149 289.66 215.642C295.673 215.003 301.232 212.691 305.55 208.36C309.907 203.991 312.233 198.34 312.797 192.258C313.092 189.072 309.781 186.021 306.698 186.159C303.142 186.318 300.916 188.845 300.6 192.257C300.582 192.449 300.446 193.566 300.601 192.408C300.75 191.294 300.608 192.288 300.561 192.544C300.464 193.06 300.346 193.573 300.208 194.08C300.07 194.58 299.913 195.075 299.735 195.562C299.648 195.799 299.276 196.7 299.701 195.694C300.125 194.689 299.741 195.579 299.632 195.806C299.192 196.72 298.678 197.598 298.098 198.429C297.956 198.634 297.377 199.395 298.037 198.542C298.719 197.659 298.067 198.486 297.946 198.629C297.621 199.011 297.28 199.381 296.926 199.736C296.572 200.091 296.204 200.432 295.823 200.758C295.673 200.886 295.501 201.003 295.36 201.142C296.55 199.967 296.082 200.596 295.634 200.911C294.853 201.461 294.031 201.951 293.177 202.378C292.954 202.489 292.707 202.575 292.493 202.703C293.874 201.88 293.46 202.308 292.97 202.496C292.495 202.678 292.014 202.842 291.526 202.985C291.034 203.13 290.537 203.254 290.036 203.358C289.783 203.411 289.528 203.452 289.275 203.501C288.2 203.709 290.829 203.321 289.66 203.445C286.882 203.74 284.627 205.146 283.78 207.922C283.61 208.479 283.413 209.021 283.209 209.565C282.929 210.313 283.909 208.09 283.387 209.116C283.27 209.347 283.161 209.584 283.041 209.814C282.778 210.319 282.494 210.812 282.186 211.291C282.075 211.465 281.961 211.636 281.844 211.806C281.727 211.975 281.608 212.143 281.486 212.308C282.101 211.526 282.262 211.318 281.969 211.684C281.277 212.512 280.559 213.301 279.75 214.017C279.596 214.153 279.437 214.281 279.284 214.417C278.404 215.199 280.512 213.538 279.55 214.217C279.048 214.571 278.541 214.916 278.01 215.228C277.568 215.488 277.116 215.731 276.653 215.955C276.476 216.04 276.265 216.115 276.093 216.215C277.589 215.345 276.919 215.876 276.403 216.067C275.318 216.466 274.212 216.727 273.082 216.957C271.931 217.191 274.42 216.823 273.603 216.894C273.337 216.918 273.073 216.949 272.807 216.967C272.269 217.004 271.73 217.018 271.191 217.01C270.646 217.002 270.106 216.961 269.563 216.915C268.345 216.813 271.135 217.186 269.939 216.967C269.634 216.911 269.329 216.856 269.025 216.79C268.021 216.572 267.091 216.171 266.107 215.902C267.774 216.357 266.966 216.278 266.46 216.039C266.234 215.932 266.011 215.821 265.79 215.706C265.305 215.454 264.832 215.181 264.371 214.888C264.11 214.721 262.605 213.621 263.538 214.339C264.428 215.025 263.628 214.396 263.467 214.258C263.28 214.099 263.097 213.935 262.916 213.768C262.52 213.402 262.139 213.019 261.775 212.62C261.642 212.475 261.512 212.328 261.385 212.18C260.369 210.996 262.012 213.109 261.424 212.261C260.861 211.45 260.326 210.635 259.872 209.756C259.605 209.24 259.141 207.648 259.746 209.597C259.569 209.029 259.326 208.481 259.156 207.908C259.014 207.428 258.89 206.942 258.787 206.451C258.734 206.205 258.688 205.957 258.645 205.708C258.554 205.169 258.684 204.554 258.714 206.274C258.694 205.13 258.562 204.011 258.64 202.861C258.659 202.58 258.692 202.301 258.716 202.021C258.771 201.536 258.737 201.789 258.614 202.78C258.649 202.553 258.69 202.326 258.734 202.1C258.864 201.431 259.031 200.769 259.233 200.118C259.3 199.903 259.37 199.69 259.445 199.478C259.62 198.977 260.366 197.742 259.452 199.383C259.774 198.804 260.03 198.192 260.367 197.619C260.68 197.088 261.008 196.395 261.454 195.973C261.417 196.008 260.46 197.172 261.104 196.432C261.39 196.103 261.668 195.769 261.967 195.451C262.378 195.015 262.809 194.6 263.258 194.205C263.457 194.03 263.703 193.873 263.882 193.679C263.073 194.294 262.92 194.414 263.425 194.039C263.601 193.911 263.78 193.786 263.96 193.665C265.581 192.552 266.607 191.181 266.872 189.209C267.124 187.331 266.588 185.438 265.194 184.087C264.779 183.684 264.376 183.271 263.995 182.836C263.633 182.423 263.31 181.612 264.074 182.995C263.938 182.749 263.728 182.524 263.568 182.291C262.868 181.271 262.431 180.147 261.802 179.099C262.641 180.497 262.085 179.764 261.907 179.251C261.83 179.029 261.757 178.806 261.689 178.582C261.498 177.961 261.341 177.331 261.216 176.693C261.16 176.408 261.146 176.09 261.064 175.813C261.499 177.275 261.186 176.753 261.14 176.182C261.087 175.514 261.068 174.844 261.086 174.174C261.101 173.592 261.197 173.011 261.211 172.431C261.168 174.27 261.079 173.356 261.179 172.815C261.226 172.561 261.278 172.308 261.335 172.056C261.448 171.557 261.582 171.064 261.735 170.576C261.811 170.334 261.891 170.094 261.976 169.855C262.044 169.666 262.115 169.477 262.19 169.289C262.062 169.589 261.934 169.889 261.805 170.189C262.072 169.243 262.757 168.243 263.285 167.428C263.419 167.221 263.557 167.016 263.699 166.814C263.821 166.642 264.439 165.828 263.752 166.72C263.067 167.61 263.696 166.81 263.833 166.649C264.025 166.425 264.222 166.205 264.424 165.99C264.793 165.596 265.179 165.219 265.581 164.858C265.763 164.694 265.953 164.539 266.137 164.377C266.964 163.648 265.071 165.12 265.713 164.694C266.579 164.119 267.408 163.534 268.335 163.054C268.599 162.918 268.868 162.796 269.134 162.665C270.133 162.175 267.891 163.111 268.633 162.873C269.106 162.721 269.564 162.527 270.04 162.382C270.52 162.236 271.004 162.109 271.493 162.001C271.739 161.947 271.986 161.897 272.234 161.853C272.434 161.817 272.634 161.785 272.834 161.756C272.495 161.803 272.157 161.849 271.818 161.896C272.61 161.536 274.223 161.762 275.073 161.813C275.34 161.828 275.605 161.857 275.872 161.876C277.063 161.963 274.565 161.653 275.373 161.806C276.001 161.925 276.624 162.04 277.243 162.205C277.748 162.34 278.248 162.495 278.741 162.672C278.984 162.759 279.223 162.873 279.469 162.949C277.871 162.456 278.545 162.553 279.004 162.77C280.02 163.252 280.991 163.824 281.906 164.479C282.329 164.782 282.665 165.298 281.521 164.169C281.734 164.38 281.991 164.557 282.217 164.757C282.671 165.16 283.105 165.584 283.519 166.028C283.726 166.249 283.927 166.476 284.123 166.707C284.453 167.097 284.834 167.938 283.922 166.423C284.234 166.94 284.623 167.414 284.937 167.933C285.251 168.454 285.541 168.99 285.804 169.539C285.89 169.717 285.963 169.919 286.059 170.093C285.126 168.404 285.823 169.538 286.005 170.062C286.207 170.644 286.381 171.237 286.525 171.837C286.658 172.39 286.979 174.582 286.693 172.366C286.873 173.763 287.111 174.906 288.003 176.061C288.812 177.108 289.871 177.881 291.171 178.246C291.676 178.388 292.178 178.542 292.671 178.722C292.846 178.786 293.851 179.198 292.814 178.76C291.813 178.337 292.71 178.724 292.936 178.833C293.861 179.277 294.749 179.798 295.589 180.387C295.792 180.529 296.56 181.112 295.709 180.456C294.829 179.778 295.663 180.435 295.803 180.556C296.189 180.885 296.562 181.231 296.92 181.591C297.278 181.95 297.621 182.324 297.95 182.71C298.11 182.899 298.703 183.655 298.044 182.805C297.363 181.925 298.003 182.77 298.109 182.923C298.69 183.757 299.204 184.639 299.644 185.556C299.732 185.74 299.808 185.93 299.9 186.112C299.067 184.45 299.581 185.349 299.744 185.796C299.902 186.231 300.045 186.672 300.171 187.118C300.313 187.617 300.433 188.122 300.533 188.631C300.583 188.885 300.604 189.152 300.668 189.403C300.244 187.739 300.536 188.358 300.585 188.878C300.69 190.004 300.685 191.131 300.6 192.257C300.358 195.446 303.577 198.496 306.698 198.356C310.209 198.199 312.538 195.673 312.797 192.258Z" fill="#1A1A1A"/>
<path d="M108.857 70.656C109.584 72.8377 112.78 70.6759 111.012 69.0916C109.806 68.0099 108.396 69.269 108.857 70.656Z" fill="#1A1A1A"/>
<path d="M108.203 70.8362C108.344 71.2489 108.56 71.6189 108.908 71.8878C109.211 72.1221 109.568 72.244 109.951 72.2567C110.597 72.278 111.286 71.9438 111.694 71.4481C111.917 71.1775 112.109 70.868 112.172 70.5174C112.251 70.0862 112.197 69.6894 112.013 69.2923C111.825 68.8878 111.465 68.5383 111.09 68.3074C110.639 68.03 110.077 67.93 109.563 68.0723C109.047 68.2152 108.587 68.5963 108.346 69.0747C108.071 69.6206 108.015 70.252 108.203 70.8362C108.312 71.1729 108.678 71.4255 109.037 71.3095C109.374 71.2004 109.627 70.8372 109.51 70.476C109.476 70.3685 109.45 70.2597 109.435 70.1478L109.459 70.328C109.442 70.1851 109.441 70.0433 109.459 69.9005L109.435 70.0806C109.455 69.9465 109.489 69.8173 109.541 69.6918L109.472 69.8537C109.523 69.7344 109.588 69.6237 109.667 69.5206L109.561 69.6577C109.634 69.5658 109.715 69.484 109.808 69.4121L109.671 69.518C109.757 69.454 109.848 69.4009 109.946 69.3587L109.784 69.4271C109.876 69.3899 109.97 69.3639 110.068 69.3487L109.888 69.373C109.998 69.3584 110.108 69.3586 110.218 69.3729L110.038 69.3487C110.147 69.3653 110.252 69.395 110.354 69.4363L110.193 69.368C110.327 69.4253 110.449 69.5 110.565 69.5885L110.428 69.4825C110.554 69.5827 110.669 69.6948 110.769 69.8212L110.663 69.684C110.742 69.7859 110.808 69.8949 110.859 70.0131L110.791 69.8512C110.832 69.9513 110.861 70.0547 110.875 70.162L110.851 69.9819C110.863 70.083 110.863 70.1841 110.85 70.2851L110.874 70.105C110.858 70.2158 110.828 70.3227 110.784 70.426L110.853 70.2641C110.803 70.3788 110.739 70.4855 110.664 70.5849L110.77 70.4477C110.681 70.5621 110.578 70.6639 110.464 70.7533L110.601 70.6474C110.481 70.7392 110.352 70.8157 110.213 70.8751L110.375 70.8067C110.25 70.8588 110.12 70.8958 109.986 70.9147L110.166 70.8904C110.058 70.9042 109.949 70.9058 109.841 70.8928L110.021 70.917C109.925 70.9041 109.832 70.8799 109.742 70.8435L109.904 70.9119C109.816 70.875 109.736 70.8279 109.66 70.7707L109.798 70.8766C109.717 70.8131 109.646 70.7403 109.583 70.6592L109.689 70.7964C109.609 70.6904 109.546 70.5751 109.494 70.4532L109.562 70.615C109.544 70.5692 109.526 70.5229 109.51 70.476C109.396 70.1411 109.039 69.8854 108.677 70.0027C108.344 70.1103 108.081 70.4768 108.203 70.8362Z" fill="#1A1A1A"/>
<path d="M96.886 67.0422C97.6129 69.2239 100.809 67.0621 99.0416 65.4777C97.835 64.3961 96.4254 65.6551 96.886 67.0422Z" fill="#1A1A1A"/>
<path d="M96.2326 67.2223C96.3729 67.635 96.5889 68.005 96.9369 68.2739C97.2401 68.5082 97.5971 68.6301 97.9806 68.6428C98.6262 68.6642 99.3151 68.33 99.7235 67.8342C99.9464 67.5636 100.138 67.2541 100.202 66.9035C100.28 66.4723 100.226 66.0755 100.042 65.6784C99.8545 65.2739 99.4942 64.9244 99.1188 64.6935C98.6678 64.4161 98.1059 64.3162 97.5922 64.4584C97.0757 64.6014 96.6162 64.9825 96.375 65.4608C96.0997 66.0067 96.0441 66.6381 96.2326 67.2223C96.3412 67.5591 96.7074 67.8117 97.0661 67.6956C97.4031 67.5865 97.6559 67.2233 97.5394 66.8621C97.5047 66.7546 97.4794 66.6458 97.4638 66.5339L97.488 66.7141C97.4707 66.5713 97.4705 66.4294 97.4885 66.2866L97.4643 66.4668C97.4837 66.3326 97.5184 66.2034 97.5697 66.0779L97.5014 66.2398C97.5526 66.1205 97.6168 66.0098 97.6957 65.9067L97.5897 66.0438C97.6627 65.952 97.7445 65.8702 97.8372 65.7982L97.7001 65.9041C97.7858 65.8401 97.8771 65.787 97.9754 65.7449L97.8135 65.8132C97.9054 65.776 97.9994 65.75 98.0974 65.7349L97.9173 65.7591C98.0275 65.7445 98.1369 65.7447 98.2472 65.759L98.067 65.7348C98.1763 65.7514 98.2811 65.7811 98.3835 65.8224L98.2217 65.7541C98.3557 65.8114 98.4785 65.8861 98.5942 65.9746L98.4571 65.8686C98.5833 65.9688 98.6984 66.0809 98.7984 66.2073L98.6924 66.0701C98.7708 66.172 98.8373 66.281 98.8881 66.3992L98.8198 66.2373C98.861 66.3374 98.8897 66.4408 98.9044 66.5481L98.8802 66.368C98.8925 66.4691 98.8919 66.5702 98.8789 66.6712L98.9031 66.4911C98.8871 66.6019 98.8567 66.7088 98.8135 66.8121L98.8819 66.6502C98.8322 66.7649 98.7684 66.8716 98.6928 66.971L98.7988 66.8338C98.7097 66.9483 98.6071 67.05 98.4931 67.1394L98.6302 67.0335C98.5105 67.1253 98.381 67.2018 98.2424 67.2612L98.4042 67.1928C98.2791 67.2449 98.1492 67.2819 98.015 67.3008L98.1951 67.2766C98.0869 67.2903 97.9786 67.2919 97.8702 67.2789L98.0504 67.3031C97.9541 67.2902 97.8609 67.266 97.7708 67.2296L97.9327 67.298C97.8455 67.2611 97.7648 67.214 97.6895 67.1568L97.8267 67.2627C97.746 67.1992 97.6753 67.1264 97.6123 67.0453L97.7183 67.1825C97.6385 67.0765 97.5751 66.9612 97.5231 66.8393L97.5915 67.0011C97.5726 66.9553 97.5554 66.909 97.5394 66.8621C97.4256 66.5272 97.0684 66.2715 96.7059 66.3888C96.3734 66.4964 96.1105 66.8629 96.2326 67.2223Z" fill="#1A1A1A"/>
<path d="M171.311 295.075H80.9038C74.5999 295.075 69.2453 290.055 68.3132 283.271L41.8803 90.8888C40.7299 82.5157 46.6904 74.9882 54.471 74.9882H144.878C151.182 74.9882 156.537 80.0083 157.469 86.7924L183.902 279.175C185.052 287.548 179.092 295.075 171.311 295.075Z" fill="#EF8E3F"/>
<path d="M185.805 295.075H95.3976C89.0936 295.075 83.739 290.055 82.8069 283.271L56.3741 90.8888C55.2236 82.5157 61.1842 74.9882 68.9648 74.9882H159.372C165.676 74.9882 171.031 80.0083 171.963 86.7924L198.396 279.175C199.546 287.548 193.585 295.075 185.805 295.075Z" fill="#F6D053"/>
<path d="M109.159 192.409C112.821 207.773 128.248 217.257 143.611 213.587C159.006 209.91 168.385 194.283 164.715 178.887L159.259 155.996C158.415 152.453 154.858 150.265 151.315 151.11L108.526 161.308C104.983 162.153 102.796 165.709 103.64 169.252L109.159 192.409Z" fill="white"/>
<path d="M151.371 157.202C150.176 152.188 148.981 147.174 147.786 142.16C147.282 140.044 146.787 137.925 146.273 135.811C145.115 131.054 142.404 127.011 138.521 124.056C134.216 120.781 128.702 119.606 123.399 120.325C118.064 121.049 113.334 124.12 110.11 128.357C106.835 132.662 105.659 138.176 106.378 143.479C106.644 145.434 107.222 147.373 107.678 149.288C109.025 154.941 110.311 160.613 111.721 166.251C111.752 166.378 111.781 166.504 111.811 166.631C112.251 168.475 114.293 169.855 116.177 169.316C118.066 168.775 119.333 166.927 118.862 164.95C117.732 160.212 116.603 155.474 115.474 150.736C114.932 148.462 114.39 146.189 113.848 143.916C113.811 143.761 113.774 143.607 113.738 143.452C113.642 143.041 113.557 142.627 113.49 142.21C113.469 142.075 113.356 141.222 113.415 141.735C113.471 142.228 113.392 141.292 113.386 141.127C113.366 140.587 113.373 140.046 113.406 139.506C113.422 139.239 113.445 138.972 113.475 138.706C113.489 138.575 113.519 138.44 113.524 138.308C113.544 137.816 113.385 138.926 113.495 138.447C113.742 137.368 113.996 136.316 114.408 135.284C114.546 134.939 114.73 134.632 114.446 135.167C114.569 134.936 114.676 134.696 114.799 134.465C115.065 133.964 115.358 133.477 115.674 133.006C115.82 132.788 115.974 132.577 116.126 132.364C116.202 132.257 116.288 132.157 116.363 132.05C116.35 132.068 115.919 132.553 116.194 132.262C116.585 131.847 116.947 131.411 117.358 131.013C117.738 130.646 118.135 130.296 118.547 129.966C118.651 129.884 118.76 129.807 118.862 129.722C119.183 129.455 118.644 129.882 118.641 129.886C118.795 129.679 119.203 129.509 119.422 129.373C119.88 129.09 120.352 128.829 120.836 128.591C121.08 128.471 121.327 128.358 121.577 128.25C121.616 128.233 121.95 128.123 121.956 128.091C121.939 128.181 121.249 128.338 121.823 128.151C122.896 127.803 123.965 127.548 125.08 127.375C125.792 127.264 124.492 127.398 125.207 127.361C125.479 127.346 125.751 127.33 126.023 127.324C126.607 127.313 127.192 127.332 127.773 127.382C128.038 127.405 128.306 127.459 128.57 127.47C128.976 127.487 128.32 127.419 128.301 127.417C128.429 127.428 128.566 127.465 128.692 127.491C129.252 127.611 129.807 127.745 130.355 127.915C130.858 128.071 131.347 128.26 131.837 128.453C132.474 128.704 131.342 128.188 131.947 128.506C132.218 128.648 132.491 128.784 132.758 128.934C133.214 129.191 133.658 129.469 134.089 129.767C134.303 129.916 134.506 130.088 134.724 130.23C135.057 130.447 134.535 130.072 134.516 130.056C134.648 130.171 134.784 130.281 134.915 130.397C135.748 131.132 136.449 131.956 137.156 132.808C137.423 133.129 136.996 132.59 136.992 132.587C137.076 132.649 137.161 132.83 137.217 132.918C137.361 133.144 137.507 133.367 137.645 133.597C137.945 134.1 138.218 134.618 138.463 135.15C138.504 135.24 138.716 135.889 138.787 135.902C138.763 135.898 138.554 135.229 138.681 135.639C138.722 135.771 138.773 135.9 138.816 136.032C138.962 136.477 139.085 136.929 139.197 137.384C139.61 139.066 140.001 140.755 140.402 142.439C141.68 147.802 142.895 153.184 144.237 158.53C144.267 158.647 144.293 158.765 144.321 158.882C144.761 160.726 146.803 162.106 148.686 161.567C150.576 161.026 151.842 159.178 151.371 157.202Z" fill="white"/>
<path d="M140.752 173.43C139.902 169.866 136.324 167.665 132.76 168.515C129.196 169.364 126.995 172.942 127.845 176.506C128.409 178.873 130.177 180.638 132.345 181.308L132.527 192.413L143.747 189.739L138.901 179.745C140.533 178.169 141.316 175.797 140.752 173.43Z" fill="#1A1A1A"/>
<path d="M270.817 183.081L158.843 167.555C155.013 167.023 151.477 169.698 150.946 173.528L150.946 173.528C150.415 177.359 153.089 180.894 156.92 181.425L268.894 196.952C272.724 197.483 276.26 194.809 276.791 190.978C277.322 187.148 274.648 183.612 270.817 183.081Z" fill="#1A1A1A"/>
<path d="M173.883 179.958L170.751 179.524L166.948 178.997L165.829 178.841L158.894 177.88L157.187 190.185C156.879 192.409 158.432 194.462 160.656 194.77C162.88 195.078 164.933 193.525 165.242 191.301L165.443 189.847C165.589 188.797 166.558 188.064 167.609 188.209C168.659 188.355 169.392 189.324 169.247 190.375L169.045 191.829C168.736 194.053 170.289 196.106 172.513 196.414C174.738 196.723 176.791 195.17 177.099 192.946L178.805 180.641L173.883 179.958Z" fill="#1A1A1A"/>
<path d="M170.637 291.309H115.606L113.048 272.689C112.403 267.992 115.747 263.769 120.112 263.769H160.699C164.236 263.769 167.24 266.585 167.763 270.391L170.637 291.309Z" fill="#EF8E3F"/>
<path d="M82.807 283.271C83.7391 290.055 89.0937 295.075 95.3976 295.075H185.805C193.585 295.075 199.546 287.548 198.396 279.175L197.805 274.879H81.6538L82.807 283.271Z" fill="#EF8E3F"/>
<path d="M52.7594 86.2994C57.1534 84.0305 60.4792 80.0792 61.9358 75.3474C62.929 72.1213 63.2884 68.6786 64.1762 65.4105C66.0366 58.5613 68.7993 51.6457 73.42 46.1668C78.4764 40.1713 85.504 36.9197 93.3803 37.2829C99.7868 37.5783 106.317 39.8334 110.345 45.0536C117.395 54.1895 115.547 67.9668 111.78 78.0409C110.187 82.302 107.999 86.8418 104.574 89.9474C103.982 90.4838 103.38 90.93 102.653 91.3081C102.194 91.5465 101.427 91.7814 100.993 91.7923C99.8278 91.8216 98.5028 91.5872 97.0834 91.8154C95.1493 92.1264 93.2409 92.8929 91.6093 93.975C88.6891 95.9118 86.2505 99.3312 87.9301 102.886C90.0436 107.358 95.81 108.837 100.325 108.629C102.863 108.513 105.362 107.974 107.781 107.218C111.004 106.211 114.233 105.227 117.471 104.269C123.927 102.359 130.344 100.356 136.735 98.2401C161.628 89.9994 186.737 81.1941 213.093 79.3161C225.623 78.4234 238.258 79.1592 250.459 82.2533C259.421 84.5261 268.222 87.8831 276.017 92.9107C283.627 97.8196 290.303 104.562 293.687 113.09C297.731 123.281 296.949 135.022 292 144.759C287.841 152.945 281.056 159.3 272.84 163.311C270.243 164.579 267.647 165.846 265.05 167.114C262.597 168.312 260.07 169.387 257.962 171.163C254.243 174.296 252.061 179.004 251.963 183.853C251.929 185.557 251.953 187.263 251.949 188.967C251.935 194.506 251.96 200.047 251.907 205.586C251.895 206.871 251.523 208.064 250.498 208.92C248.473 210.61 245.334 209.805 244.32 207.387C243.919 206.43 242.763 206.428 242.36 207.387C240.976 210.686 236.558 210.446 235.07 207.416C234.744 206.752 233.641 206.752 233.315 207.416C231.487 211.133 225.77 210.206 225.739 205.865C225.73 204.618 225.85 203.355 225.905 202.109C226.068 198.44 226.231 194.771 226.394 191.102C226.452 189.782 224.47 189.814 224.361 191.102C223.955 195.908 223.73 200.766 223.141 205.552C222.875 207.709 221.189 209.042 219.083 209.121C216.824 209.205 214.605 209.297 212.498 208.291C210.711 207.439 209.228 205.804 209.22 203.725C209.215 202.469 209.405 201.184 209.496 199.933C209.597 198.547 209.5 196.909 209.957 195.574C210.82 193.047 213.127 192.533 215.489 192.644L214.472 191.627C214.151 195.217 213.83 198.807 213.509 202.396C213.393 203.7 215.422 203.689 215.542 202.396C216.399 193.167 217.256 183.939 218.113 174.71C218.235 173.398 218.357 172.087 218.478 170.775C218.536 170.159 217.776 169.565 217.192 169.795C215.647 170.403 214.101 171.011 212.556 171.619C210.699 172.35 208.83 173.329 206.806 172.543C203.486 171.254 202.77 166.711 205.552 164.472C206.466 163.737 207.726 163.309 208.782 162.823C212.58 161.077 216.378 159.331 220.176 157.585C220.781 157.307 221.386 157.029 221.99 156.751C222.153 156.676 222.787 156.407 222.273 156.614C222.895 156.363 223.516 156.116 224.13 155.846C231.465 152.619 238.458 147.686 243.101 141.082C246.175 136.709 248.067 131.43 248.067 126.054C248.067 123.567 247.057 121.27 245.146 119.66C242.954 117.813 240.12 116.882 237.343 116.354C233.646 115.651 229.844 115.564 226.094 115.749C216.776 116.208 207.49 118.245 198.642 121.146C190.022 123.973 181.364 127.686 174.082 133.178C171.16 135.381 168.416 137.893 166.374 140.955C164.424 143.88 162.996 147.712 163.128 151.263C163.216 153.655 164.337 156.118 166.852 156.721C169.034 157.244 171.364 156.251 172.862 154.665C178.669 148.516 171.704 140.214 166.765 136.314C163.864 134.023 160.704 132.101 157.443 130.371C156.288 129.758 155.26 131.512 156.417 132.126C161.726 134.943 167.489 138.38 170.924 143.48C172.48 145.79 173.639 148.825 172.521 151.53C171.782 153.318 170.029 154.705 168.374 154.818C167.545 154.875 166.864 154.699 166.365 154.281C165.663 153.694 165.333 152.866 165.203 151.861C164.786 148.624 166.221 144.945 167.944 142.264C169.795 139.385 172.391 136.983 175.108 134.933C182.086 129.667 190.322 126.064 198.571 123.309C207.125 120.452 216.084 118.406 225.101 117.837C228.729 117.609 232.435 117.589 236.032 118.178C238.625 118.603 241.416 119.31 243.52 120.943C245.352 122.364 246.091 124.239 246.024 126.519C245.873 131.733 243.917 136.659 240.801 140.806C236.282 146.82 229.631 151.284 222.772 154.235C218.178 156.211 212.738 158.778 207.915 160.995C206.991 161.42 206.015 161.795 205.132 162.304C202.467 163.839 201.166 167.114 202.037 170.063C202.844 172.794 205.374 174.744 208.209 174.882C210.052 174.972 211.745 174.111 213.417 173.453C214.856 172.887 216.294 172.321 217.732 171.755C217.304 171.429 216.875 171.102 216.446 170.775C215.589 180.004 214.732 189.233 213.875 198.462C213.753 199.773 213.631 201.085 213.509 202.396H215.542C215.863 198.807 216.184 195.217 216.505 191.627C216.556 191.062 215.998 190.634 215.489 190.611C213.176 190.503 211.001 190.844 209.367 192.663C208.054 194.125 207.76 195.847 207.624 197.719C207.366 201.262 206.363 205.268 208.972 208.199C210.619 210.05 213.135 210.908 215.536 211.167C216.724 211.295 217.899 211.192 219.083 211.154C220.465 211.109 221.726 210.772 222.837 209.919C225.57 207.824 225.297 204.089 225.558 200.996C225.837 197.698 226.115 194.4 226.394 191.102H224.361C224.216 194.36 224.072 197.619 223.927 200.877C223.769 204.45 222.919 208.677 226.5 210.95C229.514 212.863 233.522 211.59 235.07 208.442H233.315C234.373 210.595 236.607 211.992 239.029 211.857C241.484 211.72 243.394 210.137 244.321 207.927H242.36C243.279 210.118 245.159 211.693 247.59 211.853C249.805 211.999 251.974 210.846 253.108 208.939C254.22 207.068 253.943 204.718 253.948 202.628C253.963 196.759 253.977 190.889 253.992 185.019C254.001 181.458 254.789 178.107 256.941 175.195C258.971 172.449 261.777 170.968 264.749 169.518C270.813 166.557 277.168 163.91 282.468 159.657C290.3 153.372 295.815 144.291 297.624 134.4C299.568 123.774 297.297 112.732 290.937 103.966C285.435 96.3819 277.592 90.8212 269.215 86.8014C260.192 82.472 250.394 79.6535 240.508 78.1862C214.189 74.2803 187.625 80.0105 162.527 87.7119C149.421 91.7334 136.525 96.4145 123.404 100.383C120.172 101.36 116.929 102.303 113.694 103.271C110.634 104.187 107.598 105.312 104.48 106.013C99.7616 107.073 92.7493 107.171 89.933 102.334C87.8394 98.7375 92.2522 95.5117 95.183 94.4214C96.9775 93.7538 98.6129 93.6772 100.49 93.8141C101.208 93.8665 101.944 93.7524 102.623 93.518C106.516 92.1747 109.183 88.0084 111.041 84.5795C113.769 79.5419 115.562 73.937 116.443 68.2839C117.363 62.3916 117.383 56.1494 115.441 50.4489C113.526 44.8302 109.622 40.1709 104.172 37.7034C97.1666 34.5316 88.5192 34.2746 81.4689 37.4084C68.0937 43.3537 62.9528 59.4664 60.481 72.7012C59.5211 77.8403 56.3886 82.1405 51.7336 84.5442C50.5709 85.1447 51.5977 86.8993 52.7594 86.2994Z" fill="#1A1A1A"/>
<path d="M164.53 144.507C163.804 146.399 163.237 148.388 163.135 150.422C163.066 151.796 163.252 153.237 163.922 154.458C165.031 156.481 167.356 157.226 169.522 156.67C171.851 156.073 173.669 154.215 174.505 152.003C175.638 149.007 174.673 145.667 173.061 143.046C171.811 141.014 170.161 139.235 168.38 137.66C165.848 135.422 163.019 133.524 160.097 131.835C159.223 131.329 158.337 130.843 157.443 130.371C156.958 130.115 156.338 130.248 156.052 130.736C155.784 131.195 155.93 131.869 156.417 132.126C159.45 133.728 162.569 135.594 165.194 137.646C166.247 138.47 167.262 139.344 168.214 140.284C168.636 140.701 169.046 141.132 169.44 141.577C169.61 141.769 169.777 141.965 169.94 142.163C170.028 142.27 170.115 142.377 170.201 142.485C170.235 142.528 170.269 142.571 170.302 142.614C170.157 142.429 170.308 142.621 170.34 142.663C170.911 143.426 171.434 144.224 171.87 145.072C171.96 145.247 172.047 145.425 172.129 145.604C172.174 145.701 172.214 145.8 172.259 145.896C172.128 145.616 172.269 145.924 172.299 146C172.444 146.368 172.57 146.743 172.674 147.124C172.765 147.461 172.835 147.802 172.894 148.146C172.9 148.18 172.904 148.216 172.91 148.25C172.945 148.451 172.883 147.986 172.901 148.188C172.907 148.257 172.917 148.325 172.924 148.394C172.941 148.57 172.952 148.746 172.958 148.923C172.968 149.237 172.96 149.551 172.932 149.864C172.926 149.934 172.917 150.003 172.911 150.073C172.891 150.294 172.957 149.805 172.913 150.054C172.887 150.203 172.863 150.352 172.83 150.5C172.769 150.778 172.691 151.053 172.596 151.322C172.575 151.383 172.553 151.443 172.529 151.503C172.517 151.536 172.503 151.569 172.49 151.602C172.443 151.731 172.431 151.594 172.536 151.496C172.458 151.569 172.409 151.777 172.359 151.875C172.242 152.107 172.111 152.332 171.968 152.548C171.898 152.654 171.821 152.755 171.748 152.86C171.635 153.023 171.92 152.655 171.773 152.827C171.726 152.882 171.682 152.939 171.634 152.994C171.47 153.186 171.294 153.369 171.109 153.54C171.024 153.618 170.938 153.694 170.85 153.767C170.834 153.78 170.72 153.89 170.702 153.886C170.745 153.896 170.947 153.709 170.728 153.863C170.525 154.005 170.32 154.141 170.104 154.262C170.008 154.315 169.912 154.366 169.814 154.414C169.76 154.44 169.705 154.465 169.651 154.49C169.431 154.595 169.765 154.449 169.697 154.473C169.48 154.548 169.27 154.632 169.048 154.692C168.943 154.721 168.837 154.746 168.731 154.768C168.686 154.777 168.641 154.786 168.597 154.793C168.46 154.818 168.291 154.776 168.633 154.793C168.428 154.782 168.212 154.832 168.004 154.83C167.901 154.829 167.798 154.824 167.695 154.815C167.647 154.811 167.598 154.802 167.55 154.8C167.466 154.798 167.874 154.86 167.613 154.806C167.409 154.764 167.209 154.719 167.013 154.65C166.968 154.634 166.924 154.615 166.879 154.6C166.707 154.544 167.141 154.729 166.961 154.634C166.867 154.584 166.771 154.542 166.678 154.489C166.59 154.438 166.506 154.382 166.421 154.326C166.411 154.319 166.305 154.238 166.304 154.24C166.346 154.194 166.532 154.436 166.42 154.328C166.393 154.302 166.361 154.28 166.333 154.254C166.173 154.108 166.038 153.95 165.892 153.792C165.842 153.737 166.062 154.035 165.926 153.83C165.899 153.791 165.871 153.752 165.845 153.713C165.779 153.611 165.717 153.506 165.659 153.399C165.636 153.356 165.472 153.096 165.493 153.056C165.475 153.091 165.6 153.337 165.521 153.116C165.494 153.039 165.465 152.964 165.44 152.887C165.353 152.626 165.287 152.358 165.238 152.088C165.224 152.012 165.215 151.935 165.201 151.86C165.172 151.704 165.229 152.137 165.206 151.893C165.19 151.719 165.173 151.546 165.165 151.371C165.148 151.016 165.152 150.661 165.174 150.307C165.185 150.129 165.2 149.951 165.218 149.774C165.229 149.672 165.243 149.569 165.255 149.467C165.223 149.738 165.254 149.475 165.273 149.357C165.421 148.418 165.658 147.494 165.946 146.588C166.111 146.069 166.295 145.556 166.49 145.048C166.687 144.535 166.272 143.933 165.78 143.797C165.207 143.64 164.727 143.993 164.53 144.507Z" fill="#1A1A1A"/>
<path d="M103.347 92.098C101.499 92.2125 99.6402 92.1546 97.8029 91.9253C91.2478 91.1072 85.1782 88.1555 79.2472 85.2465C81.3972 89.2015 86.9693 93.6012 91.2882 94.8711C91.2882 94.8711 91.7026 93.6344 95.9513 93.1387C100.2 92.6431 103.347 92.098 103.347 92.098Z" fill="#1A1A1A"/>
<path d="M103.347 91.0817C100.051 91.277 96.7907 90.9106 93.6028 90.0632C90.5413 89.2494 87.5949 88.064 84.7194 86.7458C83.0529 85.9819 81.406 85.1761 79.7602 84.3689C78.8634 83.9291 77.8593 84.8313 78.3696 85.7595C79.3786 87.5947 80.8161 89.2043 82.3567 90.6094C84.0031 92.1112 85.8341 93.4522 87.8033 94.4998C88.8284 95.0451 89.9045 95.5183 91.018 95.8512C91.5699 96.0161 92.0905 95.6511 92.2683 95.1413C92.141 95.5063 92.154 95.3827 92.2407 95.2546C92.19 95.3296 92.0497 95.4573 92.2155 95.305C92.2425 95.2802 92.2711 95.2546 92.2967 95.2281C92.4321 95.0883 92.306 95.2355 92.256 95.254C92.4969 95.1649 92.7443 94.958 92.9814 94.8431C93.1059 94.7828 92.8043 94.9119 92.9403 94.8597C92.9765 94.8458 93.0122 94.8301 93.0487 94.8168C93.1543 94.7785 93.2592 94.7388 93.3658 94.7031C93.616 94.6194 93.8702 94.5475 94.1263 94.4841C95.4723 94.1504 96.8666 94.0516 98.2384 93.8716C99.4896 93.7074 100.739 93.5323 101.987 93.3405C102.531 93.2569 103.075 93.1719 103.617 93.0782C104.158 92.9846 104.462 92.3201 104.327 91.8279C104.17 91.2557 103.62 91.0242 103.077 91.118C101.423 91.4039 99.7591 91.6406 98.095 91.8575C96.5571 92.0581 94.9869 92.1616 93.4812 92.5504C92.6991 92.7524 91.8703 93.0276 91.2129 93.5114C90.8192 93.8012 90.4724 94.1301 90.3082 94.6009C90.7249 94.3643 91.1417 94.1276 91.5584 93.891C89.2752 93.2085 87.0494 91.8482 85.1224 90.3065C83.1485 88.7272 81.3255 86.9173 80.1249 84.7335C79.6613 85.1971 79.1978 85.6606 78.7342 86.1241C84.7154 89.0576 90.8293 92.0198 97.5053 92.9031C99.4428 93.1594 101.396 93.2301 103.347 93.1144C103.895 93.082 104.363 92.6706 104.363 92.098C104.363 91.5729 103.898 91.049 103.347 91.0817Z" fill="#1A1A1A"/>
<path d="M235.193 207.817V190.425C235.193 189.117 233.16 189.115 233.16 190.425V207.817C233.16 209.125 235.193 209.127 235.193 207.817Z" fill="#1A1A1A"/>
<path d="M244.453 207.93V190.538C244.453 189.23 242.42 189.228 242.42 190.538V207.93C242.42 209.238 244.453 209.24 244.453 207.93Z" fill="#1A1A1A"/>
<path d="M132.499 258.735C164.274 261.425 196.203 262.443 228.077 261.271C235.092 261.013 242.191 260.882 249.141 259.814C255.417 258.851 261.589 256.855 266.554 252.773C271.088 249.046 274.342 243.849 279.292 240.616C281.546 239.144 285.775 236.919 287.645 239.992C288.421 241.266 288.61 242.897 288.79 244.344C289.045 246.393 289.218 248.454 289.318 250.517C289.733 259.065 288.837 267.61 287.225 275.998C286.434 280.111 285.482 284.191 284.445 288.247C283.637 291.411 281.938 297.216 277.453 295.836L278.163 297.087C278.31 296.409 279.106 296.467 279.663 296.624C280.536 296.87 281.094 297.616 281.445 298.417C282.068 299.84 282.017 301.808 280.88 302.971C279.33 304.558 276.439 304.793 274.37 304.969C268.895 305.434 263.398 304.867 257.913 305.238C239.303 306.496 220.655 307.2 202.003 307.413C183.323 307.627 164.635 307.331 145.975 306.437C127.278 305.542 108.609 304.031 90.0193 301.836C81.3595 300.813 72.7292 299.587 64.0985 298.347C57.5553 297.407 50.9914 296.405 44.6177 294.612C38.4102 292.867 32.3222 290.314 27.2374 286.277C21.3702 281.62 17.3392 275.272 14.7174 268.309C11.6605 260.191 10.405 251.52 9.72088 242.912C8.98678 233.675 8.97333 224.392 9.46655 215.142C10.4732 196.262 13.5697 177.577 16.9294 158.996C18.5284 150.153 19.9992 141.254 22.1652 132.527C24.1584 124.497 26.6986 116.144 31.3429 109.207C35.2139 103.425 41.4332 98.7916 48.7267 100.132C51.7459 100.686 54.723 102.332 56.1747 105.138C57.4907 107.682 56.9843 110.859 55.5575 113.244C54.1842 115.539 51.7557 117.27 48.9878 116.754L49.6977 118.004C50.2566 115.407 52.8287 114.46 55.26 114.587C58.2121 114.742 60.3992 116.462 61.721 119.035C63.4053 122.314 63.5446 126.185 63.705 129.791C63.8589 133.25 64.0836 136.702 64.4474 140.146C65.9271 154.153 69.2966 167.974 74.8897 180.918C80.4008 193.673 88.1844 205.539 98.3057 215.112C108.014 224.295 123.085 234.987 136.771 227.711C139.8 226.1 142.5 223.678 144.203 220.679C146.128 217.288 146.14 213.952 145.722 210.189C145.527 208.442 145.249 206.146 146.719 204.832C148.008 203.678 149.951 204.082 151.3 204.901C155.426 207.407 154.006 213.112 153.026 216.927C152.774 217.912 153.993 218.628 154.725 217.916C161.326 211.494 167.927 205.072 174.528 198.65C176.474 196.757 181.761 190.83 184.181 195.263C186.11 198.795 182.666 202.168 180.326 204.392L181.922 205.623C183.339 203.739 184.95 201.545 187.272 200.744C189.268 200.056 192.138 200.618 192.48 203.065C192.831 205.571 190.706 207.695 188.943 209.132C187.098 210.636 185.199 212.002 183.935 214.067C183.389 214.959 184.458 215.932 185.326 215.457C188.079 213.952 189.735 211.232 192.285 209.499C194.577 207.941 199.243 207.412 199.005 211.423C198.823 214.485 196.243 216.474 193.847 217.921C191.391 219.404 188.903 220.808 187.312 223.282C186.834 224.025 187.626 225.029 188.46 224.775C191.05 223.987 193.048 222.268 195.075 220.547C197.038 218.88 199.034 217.363 201.72 217.348C204.025 217.334 206.357 218.769 205.471 221.395C204.581 224.03 201.62 225.861 199.535 227.486C190.367 234.632 180.465 240.844 170.09 246.083C149.402 256.528 126.723 263.081 103.662 265.357C92.2289 266.485 80.6915 266.573 69.2458 265.575C63.4261 265.068 57.6336 264.274 51.8929 263.191C48.5518 262.561 45.2516 262.031 42.1744 260.556C39.3569 259.205 36.6459 257.605 34.0701 255.839C31.4402 254.035 28.7424 251.993 26.8125 249.42C25.629 247.843 24.5334 245.67 26.1426 243.999C29.8011 240.201 36.1917 242.388 40.4629 243.69C43.6035 244.647 46.6818 245.796 49.8218 246.755C53.0922 247.754 56.4266 248.566 59.7563 249.341C66.5303 250.916 73.3737 252.183 80.2465 253.242C94.1183 255.38 108.101 256.668 122.081 257.856C125.553 258.151 129.026 258.44 132.499 258.735C133.802 258.845 133.795 256.812 132.499 256.702C102.815 254.182 72.5632 252.246 44.1218 242.734C38.8289 240.964 32.2954 238.376 26.9203 241.023C24.5507 242.191 22.818 244.308 23.3973 247.06C23.9899 249.875 26.3649 252.222 28.4384 254.048C31.1406 256.428 34.1633 258.459 37.2775 260.257C39.5633 261.577 41.9999 262.959 44.5467 263.712C46.9679 264.428 49.5368 264.818 52.0171 265.276C55.0606 265.838 58.1188 266.317 61.187 266.723C73.2468 268.319 85.4607 268.694 97.5981 267.89C121.999 266.273 146.059 259.957 168.086 249.333C179.109 244.017 189.611 237.611 199.339 230.184C202.686 227.629 210.308 222.841 206.924 217.679C204.233 213.576 198.212 215.474 195.132 217.881C192.835 219.676 190.785 221.943 187.919 222.815L189.067 224.308C191.079 221.18 194.885 220.1 197.635 217.796C199.901 215.897 201.77 212.481 200.786 209.482C199.715 206.215 195.987 205.636 193.139 206.767C189.519 208.204 187.646 211.872 184.3 213.702L185.691 215.093C187.432 212.247 190.681 210.888 192.697 208.286C194.382 206.11 195.384 202.93 193.569 200.519C192.057 198.511 189.209 198.047 186.904 198.733C183.93 199.618 181.949 202.228 180.167 204.597C179.453 205.546 180.958 206.595 181.763 205.829C184.584 203.148 187.743 199.662 186.444 195.446C185.92 193.747 184.691 192.307 182.933 191.841C180.945 191.314 178.942 192.19 177.351 193.34C175.354 194.783 173.663 196.656 171.903 198.369C169.79 200.424 167.678 202.479 165.566 204.534C161.473 208.516 157.38 212.497 153.288 216.479L154.987 217.468C155.919 213.836 156.888 209.691 155.142 206.139C153.909 203.631 150.952 201.83 148.137 202.123C144.881 202.461 143.466 205.5 143.551 208.477C143.603 210.316 144.046 212.126 144.03 213.969C144.015 215.639 143.611 217.302 142.89 218.807C139.677 225.511 131.94 228.666 124.835 227.904C116.578 227.019 109.236 221.931 103.087 216.681C91.8966 207.126 83.3505 194.848 77.3405 181.471C71.2176 167.842 67.6646 153.056 66.2877 138.202C65.9478 134.536 65.8545 130.862 65.5981 127.191C65.3519 123.666 64.8228 119.953 62.8518 116.932C60.1252 112.752 53.4933 110.719 49.4576 114.401C48.5638 115.216 47.9905 116.289 47.7376 117.464C47.6297 117.966 47.883 118.61 48.4475 118.715C54.492 119.841 59.1051 113.808 58.9607 108.18C58.7867 101.397 51.8283 97.7062 45.7192 97.8862C38.0653 98.1119 32.2627 103.59 28.5336 109.851C23.9326 117.576 21.4006 126.56 19.428 135.265C17.2617 144.825 15.6498 154.527 13.9457 164.178C12.1968 174.081 10.5806 184.012 9.34906 193.995C6.9295 213.607 5.86238 233.771 8.87575 253.383C10.2225 262.148 12.68 271.02 17.5307 278.536C21.3378 284.435 26.6845 289.105 32.9204 292.299C39.1245 295.477 45.9259 297.278 52.7443 298.569C60.4204 300.022 68.2047 301.012 75.9425 302.072C96.0025 304.821 116.171 306.76 136.382 307.957C156.498 309.149 176.655 309.619 196.804 309.493C217.002 309.366 237.201 308.659 257.354 307.309C260.34 307.109 263.24 307.039 266.229 307.113C269.26 307.189 272.315 307.253 275.333 306.907C277.667 306.639 280.366 306.21 282.165 304.554C284.429 302.469 284.329 298.607 282.52 296.277C281.055 294.39 276.886 293.41 276.203 296.546C276.083 297.095 276.364 297.628 276.912 297.797C279.866 298.705 282.755 296.986 284.313 294.505C286.253 291.417 286.804 287.325 287.622 283.831C289.411 276.189 290.798 268.426 291.275 260.583C291.522 256.52 291.521 252.439 291.22 248.378C290.997 245.372 290.988 241.647 289.401 238.966C285.841 232.953 277.719 238.817 274.35 242.024C269.696 246.452 266.004 251.631 260.089 254.527C253.784 257.613 246.573 258.309 239.663 258.712C222.909 259.689 206.091 259.893 189.314 259.622C170.348 259.316 151.398 258.302 132.499 256.702C131.195 256.592 131.203 258.625 132.499 258.735Z" fill="#1A1A1A"/>
<path d="M205.542 234.905C218.863 235.342 232.195 235.448 245.52 235.183C252.183 235.05 258.844 234.824 265.501 234.502C271.109 234.23 276.762 233.925 282.256 232.684C287.497 231.5 292.482 229.357 296.559 225.802C300.283 222.556 303.196 218.474 307.044 215.361C308.851 213.9 310.982 212.627 313.275 212.135C314.457 211.882 315.679 212 316.539 212.918C317.267 213.696 317.59 214.796 317.815 215.811C318.117 217.169 318.242 218.57 318.378 219.951C318.534 221.541 318.644 223.135 318.709 224.73C318.841 227.915 318.794 231.107 318.597 234.288C318.205 240.584 317.21 246.822 315.894 252.987C315.23 256.096 314.487 259.189 313.694 262.268C313.06 264.729 312.328 267.604 309.981 268.99C309.003 269.568 307.905 269.783 306.815 269.41C307.052 269.827 307.289 270.243 307.525 270.66C307.543 270.548 307.56 270.428 307.606 270.323C307.557 270.436 307.725 270.234 307.624 270.326C307.725 270.234 307.631 270.282 307.797 270.205C307.823 270.193 307.889 270.164 308.021 270.136C308.37 270.061 308.886 270.115 309.314 270.292C310.316 270.706 310.905 271.931 311.121 272.983C311.246 273.59 311.239 274.244 311.101 274.848C311.031 275.155 310.938 275.459 310.801 275.742C310.743 275.863 310.677 275.983 310.606 276.097C310.581 276.138 310.437 276.349 310.501 276.263C310.569 276.171 310.424 276.355 310.397 276.384C310.341 276.446 310.284 276.507 310.224 276.566C310.153 276.636 310.078 276.701 310.004 276.767C309.972 276.796 309.937 276.823 309.903 276.85C309.784 276.946 310.026 276.761 309.899 276.851C309.565 277.088 309.211 277.284 308.841 277.457C308.796 277.478 308.751 277.498 308.705 277.518C308.725 277.509 308.824 277.469 308.714 277.514C308.619 277.553 308.522 277.589 308.425 277.625C308.207 277.705 307.986 277.777 307.764 277.844C307.288 277.986 306.804 278.1 306.317 278.196C305.263 278.403 304.282 278.508 303.188 278.585C300.88 278.747 298.563 278.723 296.251 278.67C294.198 278.623 292.123 278.48 290.071 278.618C288.773 278.706 288.763 280.74 290.071 280.651C292.123 280.513 294.198 280.656 296.251 280.703C298.847 280.762 301.455 280.79 304.043 280.548C306.272 280.34 308.731 280.009 310.663 278.784C313.031 277.282 313.8 274.172 312.837 271.589C312.228 269.957 311.024 268.488 309.235 268.162C307.738 267.888 305.844 268.38 305.565 270.12C305.474 270.689 305.707 271.176 306.275 271.37C308.99 272.299 311.806 270.718 313.374 268.53C315.109 266.109 315.643 262.914 316.341 260.081C317.91 253.717 319.227 247.286 320.025 240.777C320.819 234.306 321.063 227.761 320.529 221.259C320.395 219.627 320.228 217.991 319.979 216.371C319.789 215.137 319.485 213.904 318.903 212.792C318.337 211.711 317.46 210.816 316.323 210.352C314.869 209.759 313.246 209.965 311.787 210.432C306.902 211.998 303.336 215.839 299.954 219.498C298.235 221.359 296.508 223.228 294.554 224.848C292.499 226.551 290.132 227.907 287.658 228.903C282.457 230.997 276.831 231.74 271.275 232.141C264.737 232.612 258.17 232.816 251.618 233.002C237.919 233.392 224.209 233.386 210.51 233.02C208.854 232.976 207.198 232.927 205.542 232.872C204.234 232.829 204.235 234.862 205.542 234.905Z" fill="#1A1A1A"/>
<path d="M181.759 202.826C180.545 204.163 179.33 205.5 178.116 206.837C176.19 208.956 174.265 211.076 172.34 213.196C171.895 213.686 171.45 214.175 171.006 214.665C170.637 215.071 170.604 215.701 171.006 216.102C171.38 216.477 172.072 216.51 172.443 216.102C173.657 214.765 174.872 213.428 176.086 212.091C178.012 209.971 179.937 207.852 181.863 205.732C182.307 205.242 182.752 204.753 183.196 204.263C183.565 203.857 183.598 203.227 183.196 202.826C182.822 202.451 182.13 202.418 181.759 202.826Z" fill="#1A1A1A"/>
<path d="M188.196 210.168C186.854 211.377 185.512 212.586 184.17 213.795C182.043 215.712 179.915 217.629 177.788 219.546C177.297 219.989 176.805 220.432 176.314 220.874C175.906 221.242 175.94 221.938 176.314 222.312C176.72 222.718 177.342 222.68 177.751 222.312C179.093 221.103 180.435 219.894 181.777 218.685C183.904 216.768 186.032 214.851 188.159 212.933C188.65 212.491 189.142 212.048 189.633 211.605C190.041 211.238 190.007 210.542 189.633 210.168C189.227 209.762 188.605 209.799 188.196 210.168Z" fill="#1A1A1A"/>
<path d="M194.884 217.777C193.404 218.813 191.925 219.849 190.445 220.885L183.408 225.813C182.866 226.192 182.324 226.572 181.782 226.951C181.333 227.265 181.124 227.84 181.418 228.341C181.678 228.786 182.356 229.023 182.808 228.706C184.288 227.67 185.767 226.634 187.247 225.598C189.593 223.956 191.939 222.313 194.285 220.671C194.826 220.291 195.368 219.912 195.91 219.533C196.359 219.218 196.568 218.643 196.275 218.142C196.015 217.698 195.336 217.461 194.884 217.777Z" fill="#1A1A1A"/>
<path d="M199.67 147.182C199.281 146.862 194.146 151.82 193.632 152.327C191.826 154.108 189.881 155.915 188.322 157.914C190.628 153.083 192.568 148.104 194.965 143.308C196.533 144.6 198.101 145.891 199.67 147.182Z" fill="#1A1A1A"/>
<path d="M176.191 163.023C177.084 160.969 177.802 158.853 178.302 156.669C178.42 156.152 178.143 155.544 177.592 155.419C177.074 155.301 176.468 155.574 176.341 156.129C176.106 157.157 175.827 158.174 175.499 159.177C175.188 160.129 174.794 161.173 174.435 161.997C174.224 162.483 174.276 163.11 174.8 163.387C175.239 163.619 175.964 163.543 176.191 163.023Z" fill="#1A1A1A"/>
<path d="M93.3914 174.79C93.5577 174.844 93.7229 174.9 93.8866 174.961C93.9685 174.991 94.05 175.023 94.1311 175.055C94.1717 175.071 94.2122 175.087 94.2526 175.104C94.3538 175.146 94.3333 175.137 94.1908 175.077C94.1952 175.101 94.4021 175.171 94.4302 175.184C94.5096 175.22 94.5886 175.257 94.6671 175.295C94.8242 175.372 94.9795 175.452 95.1329 175.535C95.4397 175.702 95.739 175.882 96.0294 176.076C96.1746 176.173 96.3176 176.273 96.4582 176.377C96.4934 176.403 96.5284 176.429 96.5632 176.455C96.6495 176.521 96.6329 176.508 96.5133 176.416C96.5502 176.412 96.6865 176.554 96.7178 176.579C96.9333 176.755 97.148 176.877 97.4365 176.877C97.6858 176.877 97.9836 176.766 98.1552 176.579C98.4964 176.208 98.5954 175.501 98.1552 175.142C96.893 174.114 95.4842 173.33 93.9318 172.83C93.4255 172.667 92.7999 173.021 92.6816 173.54C92.5548 174.096 92.8493 174.616 93.3914 174.79Z" fill="#1A1A1A"/>
<path d="M101.794 189.331C99.0279 189.479 96.2851 190.05 93.69 191.018C94.267 192.847 94.9434 194.645 95.7152 196.4C97.3315 193.702 99.3954 191.272 101.797 189.241" fill="#1A1A1A"/>
<path d="M108.478 210.664C109.156 209.405 109.834 208.146 110.512 206.887C110.764 206.419 110.644 205.759 110.147 205.496C109.674 205.246 109.026 205.361 108.756 205.861C108.078 207.12 107.401 208.379 106.723 209.638C106.471 210.106 106.59 210.766 107.087 211.028C107.56 211.278 108.209 211.164 108.478 210.664Z" fill="#1A1A1A"/>
<path d="M97.9515 155.792C98.6483 156.747 99.345 157.701 100.042 158.656C100.203 158.876 100.377 159.048 100.649 159.123C100.893 159.19 101.216 159.16 101.432 159.021C101.649 158.881 101.84 158.672 101.9 158.413C101.957 158.162 101.956 157.847 101.797 157.63C101.1 156.675 100.404 155.721 99.7068 154.766C99.546 154.546 99.3716 154.374 99.0994 154.299C98.8561 154.232 98.5321 154.262 98.3162 154.401C98.0991 154.541 97.9081 154.749 97.8491 155.009C97.7919 155.26 97.793 155.575 97.9515 155.792Z" fill="#1A1A1A"/>
<path d="M194.165 166.99C194.649 166.893 195.133 166.795 195.617 166.698C195.75 166.667 195.865 166.606 195.963 166.516C196.074 166.445 196.161 166.35 196.225 166.231C196.299 166.115 196.339 165.989 196.345 165.853C196.376 165.718 196.37 165.583 196.327 165.448C196.248 165.202 196.095 164.965 195.86 164.841L195.617 164.738C195.437 164.69 195.257 164.69 195.077 164.738C194.593 164.835 194.109 164.932 193.624 165.029C193.492 165.061 193.377 165.122 193.279 165.211C193.168 165.283 193.081 165.378 193.017 165.497C192.943 165.613 192.903 165.739 192.896 165.874C192.866 166.01 192.872 166.145 192.915 166.28C192.994 166.526 193.147 166.763 193.382 166.887L193.624 166.99C193.805 167.038 193.985 167.038 194.165 166.99Z" fill="#1A1A1A"/>
<path d="M138.212 39.6463C135.736 43.7879 129.889 45.5375 125.593 43.3404C128.213 46.8934 127.304 52.5298 123.7 55.0796C120.097 57.6292 114.479 56.6107 112 52.9582C111.718 52.5421 111.515 51.887 111.936 51.6111C112.819 53.5743 111.806 56.0374 110.013 57.2283C108.219 58.4192 105.872 58.5093 103.787 57.9703C101.703 57.4314 99.8156 56.3295 97.9513 55.2527C96.3146 54.3074 93.3428 52.3305 91.3359 53.0077C89.6147 53.5886 87.3788 56.6184 86.2738 58.0092C84.8922 59.7484 83.8066 61.7801 83.4954 63.9793C83.4385 64.3809 83.4479 64.8728 83.7919 65.0876C86.0818 61.3211 86.1442 53.9636 81.7664 51.4843C79.4895 50.1948 76.3599 51.0433 74.7449 53.1021C72.1947 56.3529 74.2846 59.2665 74.2334 62.7563C74.1945 65.4081 72.1074 67.6815 69.6824 68.7554C67.2575 69.8293 64.5329 69.9443 61.8826 70.0428C61.2467 65.3765 59.4473 60.9609 58.1818 56.4247C56.9162 51.8885 56.1974 46.9767 57.7242 42.5217C59.2511 38.0666 63.5868 34.3006 68.2725 34.7732C67.8319 31.1049 71.3752 27.9318 75.0295 27.3872C79.0937 26.7814 83.0536 28.5554 87.0863 28.5646C92.0583 28.5759 96.8478 26.4269 101.235 24.3005C107.354 21.3349 114.213 18.1672 120.691 20.2347C122.469 20.8021 124.181 21.8117 125.177 23.3901C126.173 24.9685 126.29 27.1812 125.121 28.6362C123.952 30.0911 121.42 30.3334 120.24 28.8873C122.068 25.8961 125.427 23.8983 128.928 23.7187C136.987 23.3053 142.369 32.6918 138.212 39.6463Z" fill="#1A1A1A"/>
<path d="M137.334 39.1333C136.225 40.9621 134.368 42.2851 132.315 42.8903C130.244 43.5007 127.991 43.4112 126.106 42.4628C125.699 42.2581 125.208 42.2887 124.874 42.6217C124.578 42.9186 124.454 43.4931 124.716 43.8534C126.629 46.4894 126.496 50.1097 124.618 52.7599C123.741 53.9979 122.359 54.8994 120.821 55.2726C120.035 55.4631 119.346 55.5164 118.44 55.4543C117.745 55.4067 116.983 55.2448 116.2 54.9593C115.521 54.7121 114.543 54.1499 113.993 53.6709C113.646 53.3689 113.319 53.0355 113.037 52.6719C113.14 52.8052 112.932 52.523 112.939 52.5339C112.858 52.4165 112.795 52.2937 112.723 52.1719L112.745 52.2152C112.718 52.0902 112.708 52.0792 112.715 52.1823C112.716 52.0559 112.711 52.0522 112.702 52.1713C112.538 52.3971 112.522 52.4499 112.655 52.3298L111.058 52.1241C111.015 52.0243 111.081 52.1989 111.082 52.2009C111.102 52.2737 111.128 52.3448 111.148 52.4179C111.157 52.4499 111.235 52.8258 111.218 52.7006C111.239 52.8483 111.244 53.0006 111.244 53.1496C111.244 53.2246 111.242 53.3 111.238 53.375C111.239 53.3687 111.208 53.6932 111.228 53.555C111.136 54.2177 110.935 54.6881 110.586 55.2315C109.927 56.2557 108.805 56.8892 107.518 57.1515C104.5 57.7668 101.532 56.1415 98.9735 54.669C97.8986 54.0505 96.8473 53.3826 95.7287 52.8442C94.5312 52.2679 93.1639 51.723 91.8076 51.8816C90.5132 52.033 89.4875 52.8456 88.5811 53.7303C87.6766 54.6132 86.8815 55.6027 86.1018 56.5951C85.0872 57.8865 84.1016 59.1753 83.4309 60.6866C83.0579 61.5269 82.7514 62.3932 82.5826 63.2988C82.3903 64.3306 82.3727 65.2764 83.279 65.9653C83.7203 66.3007 84.4138 66.0266 84.6696 65.6007C86.117 63.1904 86.5987 60.1204 86.2455 57.3545C85.8664 54.3865 84.4134 51.3883 81.4769 50.2365C77.9681 48.8601 73.9206 51.1953 72.775 54.631C72.1932 56.3757 72.5538 58.2045 72.8927 59.9562C73.2033 61.5618 73.4656 63.2144 72.7516 64.6332C70.7729 68.5654 65.8328 68.879 61.8826 69.0265C62.2093 69.2752 62.536 69.5239 62.8627 69.7727C62.0419 63.8695 59.4088 58.4257 58.321 52.5843C57.8097 49.8383 57.647 46.9505 58.2949 44.213C58.8391 41.9134 59.9444 39.8795 61.6728 38.2531C63.4838 36.5491 65.7904 35.558 68.2725 35.7896C68.7796 35.837 69.3445 35.2838 69.2889 34.7732C69.1837 33.8066 69.3331 32.9545 69.725 32.1762C70.1703 31.2918 70.739 30.637 71.5261 29.9953C72.2174 29.4319 73.1733 28.9317 74.0408 28.6589C75.1302 28.3164 76.2617 28.2441 77.398 28.2901C80.0225 28.3962 82.5705 29.1593 85.1732 29.4601C87.8035 29.7641 90.4628 29.4254 93.0055 28.7216C98.0728 27.3189 102.571 24.5262 107.433 22.6038C111.826 20.8664 117.191 19.5102 121.662 21.7061C122.591 22.1622 123.474 22.7702 124.086 23.5882C124.71 24.424 124.993 25.3576 124.937 26.3627C124.917 26.7125 124.783 27.2431 124.608 27.571C124.415 27.9298 124.114 28.2632 123.879 28.411C123.776 28.4755 123.672 28.5352 123.564 28.5919C123.414 28.6713 123.586 28.5963 123.426 28.6549C123.215 28.7323 122.996 28.7905 122.774 28.8271C122.603 28.8553 122.908 28.8197 122.736 28.8291C122.684 28.832 122.633 28.8367 122.581 28.8386C122.479 28.8425 122.376 28.8419 122.273 28.8366C122.223 28.834 121.982 28.7987 122.139 28.8273C122.007 28.8032 121.876 28.7723 121.748 28.7317C121.703 28.7175 121.485 28.6229 121.619 28.6873C121.529 28.6441 121.443 28.5935 121.357 28.5428C121.338 28.5315 121.198 28.4362 121.319 28.5273C121.279 28.4973 121.241 28.4626 121.204 28.4282C121.117 28.3453 121.036 28.2603 120.958 28.1686C121.011 28.5792 121.064 28.9897 121.117 29.4003C122.313 27.4716 124.222 25.9696 126.356 25.2475C127.474 24.8694 128.5 24.698 129.666 24.7245C129.907 24.73 130.147 24.7443 130.387 24.7676C130.438 24.7726 130.489 24.7787 130.539 24.7838C130.711 24.801 130.401 24.7621 130.571 24.7866C130.704 24.8057 130.837 24.8281 130.969 24.853C131.439 24.9417 131.904 25.0663 132.356 25.2248C132.463 25.2627 132.57 25.3032 132.677 25.3441C132.699 25.3527 132.887 25.4292 132.781 25.385C132.686 25.3452 132.834 25.4082 132.839 25.4107C133.06 25.5121 133.278 25.616 133.492 25.731C133.903 25.9517 134.299 26.2015 134.675 26.4771C134.727 26.515 134.779 26.5532 134.829 26.5923C134.795 26.5659 134.697 26.4858 134.851 26.6116C134.938 26.6827 135.025 26.7541 135.11 26.8274C135.292 26.9844 135.469 27.1476 135.64 27.3166C135.8 27.4745 135.955 27.6374 136.105 27.8049C136.18 27.8887 136.253 27.9738 136.326 28.0598C136.357 28.0967 136.388 28.1338 136.418 28.1711C136.413 28.1655 136.582 28.3762 136.518 28.2948C136.488 28.2554 136.631 28.4459 136.67 28.5008C136.736 28.5921 136.8 28.6846 136.863 28.7779C136.998 28.978 137.127 29.1824 137.249 29.3909C137.363 29.5856 137.471 29.7838 137.573 29.985C137.624 30.0857 137.674 30.1873 137.722 30.2895C137.749 30.3479 137.776 30.4068 137.803 30.4654C137.816 30.495 137.902 30.6951 137.834 30.5339C138.015 30.9663 138.165 31.4118 138.289 31.8638C138.348 32.0825 138.401 32.3031 138.447 32.5251C138.47 32.6362 138.492 32.7477 138.511 32.8595C138.521 32.9151 138.573 33.2614 138.548 33.0706C138.619 33.6031 138.645 34.1434 138.632 34.6804C138.626 34.9429 138.609 35.2052 138.583 35.4665C138.576 35.5321 138.568 35.5975 138.561 35.663C138.541 35.8314 138.584 35.5196 138.557 35.6875C138.534 35.835 138.509 35.9821 138.481 36.1287C138.25 37.3062 137.918 38.1445 137.334 39.1333C136.667 40.2621 138.424 41.2861 139.089 40.1594C141.371 36.2982 141.095 31.3509 138.564 27.6721C137.353 25.9115 135.701 24.4504 133.731 23.5972C131.472 22.6188 128.971 22.443 126.585 23.0581C123.609 23.8256 120.98 25.7643 119.362 28.3744C119.11 28.7817 119.231 29.2654 119.521 29.6061C121.05 31.4025 124.047 31.1813 125.632 29.5862C127.454 27.7542 127.306 24.6258 125.878 22.6139C124.349 20.4608 121.814 19.3016 119.275 18.8328C116.487 18.318 113.642 18.5942 110.913 19.3052C105.436 20.7323 100.635 23.8012 95.3809 25.797C92.7757 26.7866 90.039 27.5307 87.2355 27.548C84.4311 27.5654 81.71 26.7334 78.9432 26.3895C76.3467 26.0668 73.709 26.2745 71.4136 27.6217C69.4461 28.7764 67.7094 30.7196 67.3255 33.0305C67.229 33.6118 67.1924 34.1868 67.2562 34.7733L68.2726 33.7569C63.0679 33.2712 58.5214 37.3853 56.8236 42.0276C54.67 47.9165 56.4099 54.3557 58.2245 60.0804C59.2905 63.4431 60.415 66.8064 60.9026 70.3131C60.9612 70.7343 61.4808 71.0743 61.8827 71.0593C65.7571 70.9148 69.9787 70.6368 72.9185 67.7822C74.1905 66.547 75.0555 64.9498 75.2263 63.1749C75.3923 61.451 74.8678 59.7289 74.5999 58.0418C74.5064 57.4529 74.4445 56.4635 74.5533 55.8792C74.7012 55.0855 75.0277 54.3704 75.5348 53.7322C76.4339 52.6006 77.8405 51.9364 79.1807 51.8922C80.5145 51.8482 81.5989 52.3913 82.4776 53.3366C82.5726 53.4388 82.6621 53.5452 82.7521 53.6518C82.9456 53.8814 82.6496 53.4935 82.82 53.7414C82.8552 53.7926 82.8923 53.8426 82.9275 53.8939C83.1225 54.1787 83.2961 54.478 83.4496 54.787C83.4778 54.8438 83.5053 54.9009 83.5321 54.9583C83.5386 54.9722 83.6655 55.2597 83.5836 55.0656C83.646 55.2135 83.7022 55.3643 83.7554 55.5158C83.8634 55.8231 83.955 56.1361 84.0318 56.4526C84.2315 57.2753 84.2822 57.7004 84.311 58.5578C84.324 58.9449 84.3196 59.3324 84.2988 59.7191C84.2889 59.9035 84.2753 60.0876 84.2578 60.2714C84.2484 60.3713 84.2364 60.4709 84.2262 60.5707C84.2035 60.7923 84.2472 60.4562 84.2102 60.6966C84.0968 61.4336 83.9342 62.1609 83.698 62.8687C83.6488 63.016 83.5967 63.1623 83.5415 63.3073C83.5088 63.393 83.475 63.4782 83.4402 63.5631C83.5227 63.3618 83.4076 63.6338 83.3994 63.6519C83.2555 63.9688 83.0935 64.2764 82.9144 64.5748C83.3779 64.4532 83.8415 64.3317 84.305 64.2101C83.9887 63.9697 84.5222 64.3928 84.4852 64.3874C84.5091 64.3909 84.4747 64.4422 84.4856 64.3208C84.5011 64.1464 84.4946 64.1188 84.5185 63.9757C84.5867 63.5667 84.6859 63.1623 84.8058 62.7656C85.0154 62.0722 85.3011 61.4146 85.6465 60.7785C86.2544 59.6588 87.0346 58.666 87.8239 57.6719C88.6169 56.6732 89.4362 55.6771 90.3865 54.8222C90.7707 54.4765 91.0489 54.2524 91.5832 53.9926C91.7193 53.9264 91.4287 54.0414 91.5685 54.0013C91.6275 53.9844 91.6852 53.9625 91.7446 53.9463C91.807 53.9292 91.8703 53.9167 91.9333 53.9024C92.0945 53.866 91.7878 53.9106 91.9549 53.8982C92.0895 53.8882 92.2229 53.8838 92.3579 53.888C92.4104 53.8897 92.7979 53.9337 92.6626 53.9108C93.9277 54.1246 94.9759 54.6998 96.094 55.3414C97.2894 56.0274 98.464 56.7487 99.6847 57.3901C102.463 58.8496 105.763 59.9462 108.877 58.8923C110.44 58.3636 111.8 57.333 112.575 55.8562C113.367 54.3466 113.49 52.6682 112.814 51.0981C112.527 50.4329 111.666 50.5376 111.217 50.8924C110.063 51.8053 110.968 53.3383 111.666 54.1926C112.302 54.9699 113.106 55.6263 113.969 56.1353C115.723 57.1695 117.853 57.6604 119.883 57.4699C121.971 57.2739 123.955 56.4443 125.433 54.9306C126.915 53.4129 127.773 51.4088 128.036 49.3208C128.319 47.0723 127.812 44.6749 126.471 42.8274C126.007 43.2909 125.544 43.7545 125.08 44.218C128.886 46.133 133.543 45.3995 136.82 42.7659C137.722 42.0408 138.489 41.1486 139.089 40.1594C139.77 39.0379 138.012 38.015 137.334 39.1333Z" fill="#1A1A1A"/>
<path d="M104.113 69.2097C103.59 69.6216 103.215 70.1517 103.149 70.828C103.085 71.4863 103.331 72.1513 103.673 72.7036C104.304 73.7225 105.269 74.4443 106.073 75.3123C106.404 75.6697 106.842 76.1428 106.87 76.6573C106.903 77.2769 106.29 77.228 105.837 77.2058C104.536 77.142 103.303 76.6641 102.248 75.9094C101.538 75.4009 100.861 76.5758 101.564 77.0796C102.739 77.9202 104.12 78.4141 105.556 78.5416C106.221 78.6005 106.95 78.6098 107.511 78.199C108.106 77.7633 108.308 76.9976 108.182 76.2948C107.948 74.9957 106.73 74.0559 105.841 73.1864C105.397 72.7531 104.965 72.2983 104.685 71.7388C104.557 71.4839 104.447 71.1658 104.503 70.8766C104.564 70.561 104.833 70.3556 105.071 70.168C105.359 69.9415 105.308 69.4469 105.071 69.2097C104.787 68.9255 104.401 68.9826 104.113 69.2097Z" fill="#1A1A1A"/>
<path d="M98.8147 60.7842C98.9819 60.7766 99.1491 60.7767 99.3162 60.7875C99.4045 60.7932 99.4926 60.8017 99.5804 60.8126C99.517 60.8047 99.5058 60.8013 99.5753 60.814C99.6237 60.8228 99.6722 60.831 99.7204 60.8407C99.8843 60.8735 100.046 60.9154 100.206 60.966C100.29 60.9928 100.374 61.0221 100.457 61.0537C100.469 61.0584 100.584 61.1039 100.513 61.0746C100.433 61.0419 100.596 61.1124 100.594 61.1116C100.746 61.182 100.894 61.2607 101.037 61.347C101.113 61.3927 101.188 61.4405 101.261 61.4905C101.293 61.5127 101.325 61.5358 101.357 61.5584C101.406 61.5925 101.414 61.5987 101.362 61.5588C101.502 61.666 101.634 61.7856 101.759 61.9102C101.815 61.9657 101.869 62.0227 101.922 62.0812C101.955 62.1177 101.987 62.1549 102.019 62.1926C102.035 62.2126 102.122 62.3206 102.042 62.2169C102.257 62.4967 102.634 62.6757 102.969 62.46C103.245 62.2818 103.443 61.8333 103.212 61.5329C102.169 60.1796 100.54 59.3499 98.8147 59.429C98.4611 59.4452 98.1202 59.729 98.1371 60.1065C98.1529 60.4598 98.4355 60.8016 98.8147 60.7842Z" fill="#1A1A1A"/>
<path d="M109.653 62.5916C109.942 62.5338 110.355 62.5507 110.654 62.6203C111.056 62.7137 111.321 62.8252 111.668 63.0248C112.363 63.4246 112.92 63.9654 113.506 64.5459C113.766 64.8034 114.205 64.8055 114.464 64.5459C114.723 64.2872 114.725 63.846 114.464 63.5876C113.784 62.9134 113.069 62.2346 112.217 61.7796C111.314 61.2972 110.305 61.0821 109.293 61.2849C108.934 61.3568 108.728 61.7835 108.82 62.1184C108.923 62.4924 109.293 62.6638 109.653 62.5916Z" fill="#1A1A1A"/>
<path d="M98.6135 82.5665C98.2275 83.0582 97.5683 83.4715 97.0016 83.2078C96.3838 82.9202 96.3272 82.0632 96.4651 81.3959C96.6394 80.5526 97.1055 79.6672 97.8979 79.2386C100.179 78.0046 99.2466 81.7598 98.6135 82.5665Z" fill="#1A1A1A"/>
<path d="M98.1344 82.0874C98.059 82.1809 97.979 82.27 97.8909 82.3518C97.8628 82.3779 97.7514 82.4672 97.8408 82.4012C97.7842 82.4429 97.7254 82.4816 97.6645 82.5167C97.6303 82.5365 97.5936 82.5524 97.5599 82.5725C97.4948 82.6112 97.5752 82.5658 97.5878 82.5619C97.533 82.5787 97.4793 82.5961 97.4239 82.6107C97.2964 82.6442 97.5129 82.6096 97.383 82.6123C97.3696 82.6126 97.2746 82.6145 97.3628 82.6169C97.4529 82.6193 97.3317 82.6042 97.3161 82.6036C97.2543 82.6013 97.3217 82.6132 97.3436 82.6227C97.3205 82.6126 97.299 82.5993 97.2767 82.5877C97.2548 82.5763 97.2358 82.5597 97.2139 82.5487C97.2279 82.5557 97.2938 82.6323 97.257 82.5794C97.2432 82.5597 97.1473 82.4458 97.1987 82.5245C97.2491 82.6018 97.164 82.4562 97.1496 82.431C97.0893 82.3255 97.1741 82.5306 97.1433 82.4107C97.1285 82.3534 97.1123 82.2965 97.0982 82.2389C97.092 82.2138 97.0897 82.1879 97.0839 82.1627C97.0853 82.1685 97.0947 82.2914 97.0915 82.2129C97.089 82.1509 97.0821 82.0893 97.081 82.0272C97.0792 81.9198 97.0862 81.8133 97.095 81.7064C97.1062 81.5715 97.0733 81.8083 97.0994 81.6774C97.1117 81.6154 97.1229 81.5532 97.1371 81.4915C97.1632 81.3775 97.1943 81.2646 97.2303 81.1532C97.2516 81.0873 97.2756 81.0224 97.2992 80.9573C97.3021 80.9491 97.3387 80.857 97.3097 80.9277C97.281 80.998 97.3302 80.8838 97.3357 80.8719C97.3863 80.7634 97.4422 80.6575 97.5037 80.5548C97.5345 80.5035 97.5665 80.4531 97.6001 80.4037C97.6232 80.3695 97.7336 80.2356 97.654 80.3257C97.7328 80.2365 97.8096 80.1472 97.8967 80.0657C97.94 80.0252 97.985 79.9866 98.0308 79.949C98.0208 79.9573 97.9478 80.0042 98.0121 79.9656C98.0545 79.9402 98.0939 79.9094 98.1362 79.8835C98.2212 79.8315 98.3101 79.789 98.3985 79.7435C98.5093 79.6863 98.2731 79.7871 98.3843 79.7481C98.4245 79.734 98.4641 79.7183 98.5048 79.7056C98.5667 79.6862 98.6321 79.6784 98.6935 79.6594C98.7305 79.6479 98.512 79.6646 98.6268 79.6708C98.6543 79.6723 98.6911 79.6747 98.7183 79.6708C98.8171 79.6567 98.5181 79.6643 98.6453 79.6615C98.667 79.661 98.6897 79.6811 98.7105 79.68C98.7426 79.6783 98.5401 79.6 98.628 79.6468C98.7292 79.7008 98.5911 79.6309 98.57 79.5936C98.5796 79.6106 98.6058 79.6195 98.6171 79.6362C98.6783 79.7269 98.5709 79.5791 98.567 79.5646C98.5762 79.5985 98.621 79.6611 98.6417 79.6908C98.6606 79.7179 98.5819 79.5129 98.6099 79.6175C98.6175 79.6456 98.6286 79.6731 98.6364 79.7012C98.6519 79.7572 98.659 79.8145 98.6721 79.8708C98.6814 79.9103 98.6553 79.6808 98.6619 79.803C98.6634 79.8323 98.6668 79.8615 98.6685 79.8908C98.6723 79.9571 98.6733 80.0235 98.6723 80.0899C98.67 80.2325 98.6449 80.3733 98.6403 80.5151C98.6426 80.4454 98.6636 80.3605 98.6454 80.4703C98.6397 80.5044 98.6344 80.5385 98.6284 80.5725C98.6154 80.6467 98.6007 80.7207 98.5847 80.7944C98.517 81.1066 98.426 81.4146 98.31 81.7122C98.2986 81.7413 98.2471 81.8638 98.2985 81.7441C98.3495 81.6252 98.2989 81.7423 98.2862 81.7704C98.2584 81.832 98.2292 81.893 98.1978 81.9529C98.1482 82.0476 98.0937 82.1398 98.0284 82.2245C97.8112 82.5066 97.9761 82.9955 98.2715 83.1516C98.6308 83.3415 98.9667 83.2096 99.1986 82.9086C99.3816 82.6709 99.496 82.3771 99.6055 82.1013C99.7292 81.7895 99.8251 81.4657 99.8952 81.1377C100.043 80.4486 100.161 79.5736 99.7741 78.936C99.2449 78.064 98.1654 78.2629 97.427 78.7293C96.3438 79.4135 95.665 80.8331 95.7286 82.1072C95.7674 82.8844 96.13 83.6647 96.9287 83.9029C97.7416 84.1452 98.5914 83.6673 99.0926 83.0457C99.3147 82.7703 99.3819 82.353 99.0926 82.0874C98.8459 81.861 98.372 81.7927 98.1344 82.0874Z" fill="#1A1A1A"/>
</svg>
