<svg width="1000" height="1000" viewBox="0 0 1000 1000" fill="none" xmlns="http://www.w3.org/2000/svg">
<path d="M548.119 382.63L545.943 349.263C545.299 339.384 537.587 331.429 527.733 330.479L505.398 328.326C498.031 327.616 491.64 322.932 488.755 316.116C486.332 310.391 483.593 304.84 480.56 299.484C476.909 293.035 477.075 285.108 481.005 278.825L492.906 259.801C498.157 251.409 496.548 240.447 489.107 233.917L463.974 211.862C456.533 205.332 445.455 205.16 437.815 211.457L420.499 225.728C414.78 230.441 406.941 231.636 400.073 228.852C394.368 226.541 388.509 224.546 382.517 222.887C375.384 220.912 369.91 215.184 368.248 207.971L363.212 186.105C360.991 176.458 352.102 169.845 342.223 170.489L308.855 172.666C298.977 173.31 291.022 181.022 290.072 190.876L287.919 213.21C287.209 220.578 282.525 226.969 275.708 229.853C269.983 232.276 264.433 235.015 259.077 238.048C252.628 241.7 244.7 241.534 238.417 237.603L219.394 225.702C211.001 220.452 200.04 222.061 193.51 229.502L171.454 254.635C164.925 262.076 164.753 273.154 171.049 280.793L185.32 298.109C190.034 303.829 191.228 311.667 188.445 318.536C186.133 324.24 184.139 330.1 182.48 336.091C180.505 343.224 174.777 348.699 167.564 350.36L145.698 355.396C136.051 357.618 129.438 366.507 130.082 376.385L132.258 409.753C132.903 419.632 140.614 427.587 150.468 428.536L172.803 430.69C180.171 431.4 186.561 436.084 189.446 442.9C191.869 448.625 194.608 454.176 197.641 459.532C201.293 465.981 201.127 473.908 197.196 480.191L185.295 499.215C180.045 507.607 181.654 518.569 189.094 525.098L214.228 547.154C221.669 553.684 232.746 553.855 240.386 547.559L257.702 533.288C263.422 528.575 271.26 527.38 278.129 530.164C283.833 532.475 289.693 534.47 295.684 536.128C302.817 538.104 308.292 543.832 309.953 551.045L314.989 572.91C317.211 582.557 326.1 589.171 335.978 588.526L369.346 586.35C379.225 585.706 387.179 577.994 388.129 568.14L390.283 545.805C390.993 538.438 395.677 532.047 402.493 529.162C408.218 526.739 413.769 524 419.125 520.967C425.574 517.316 433.501 517.482 439.784 521.412L458.808 533.313C467.2 538.564 478.162 536.955 484.691 529.514L506.747 504.38C513.277 496.94 513.449 485.862 507.152 478.222L492.881 460.906C488.168 455.187 486.973 447.348 489.757 440.479C492.068 434.775 494.063 428.915 495.722 422.924C497.697 415.791 503.425 410.316 510.638 408.655L532.503 403.619C542.151 401.398 548.764 392.509 548.119 382.63Z" fill="#F4D13B"/>
<path d="M339.101 485.338C397.549 485.338 444.931 437.956 444.931 379.508C444.931 321.06 397.549 273.678 339.101 273.678C280.653 273.678 233.271 321.06 233.271 379.508C233.271 437.956 280.653 485.338 339.101 485.338Z" fill="#F953B2"/>
<path d="M339.101 424.465C363.93 424.465 384.058 404.337 384.058 379.508C384.058 354.679 363.93 334.551 339.101 334.551C314.272 334.551 294.144 354.679 294.144 379.508C294.144 404.337 314.272 424.465 339.101 424.465Z" fill="white"/>
<path d="M361.502 647.654L352.943 626.141C350.409 619.773 343.631 616.18 336.938 617.659L321.769 621.01C316.765 622.115 311.555 620.395 308.2 616.522C305.381 613.269 302.392 610.197 299.251 607.318C295.469 603.85 293.885 598.593 295.132 593.616L298.909 578.545C300.575 571.896 297.174 565.021 290.879 562.309L269.616 553.149C263.321 550.437 255.988 552.69 252.301 558.468L243.943 571.565C241.183 575.891 236.275 578.351 231.157 577.985C226.906 577.681 222.621 577.618 218.321 577.805C213.201 578.027 208.372 575.423 205.738 571.028L197.752 557.702C194.229 551.822 186.962 549.365 180.593 551.899L159.081 560.457C152.712 562.991 149.12 569.769 150.599 576.462L153.95 591.632C155.055 596.636 153.335 601.845 149.462 605.201C146.208 608.019 143.137 611.008 140.257 614.149C136.79 617.932 131.533 619.515 126.556 618.268L111.485 614.492C104.836 612.826 97.9603 616.226 95.2486 622.521L86.0891 643.784C83.3774 650.08 85.6299 657.412 91.408 661.099L104.505 669.457C108.831 672.217 111.291 677.125 110.925 682.243C110.621 686.494 110.558 690.779 110.745 695.079C110.967 700.199 108.363 705.028 103.968 707.662L90.6417 715.648C84.7623 719.171 82.3047 726.438 84.8386 732.807L93.3972 754.319C95.931 760.688 102.709 764.28 109.402 762.801L124.572 759.45C129.576 758.345 134.785 760.065 138.141 763.938C140.959 767.192 143.948 770.263 147.089 773.143C150.872 776.61 152.455 781.867 151.208 786.844L147.432 801.915C145.766 808.564 149.166 815.44 155.461 818.151L176.724 827.311C183.02 830.023 190.352 827.77 194.039 821.992L202.397 808.895C205.157 804.569 210.065 802.109 215.183 802.475C219.434 802.78 223.719 802.842 228.019 802.655C233.139 802.433 237.968 805.037 240.602 809.432L248.588 822.758C252.112 828.638 259.378 831.095 265.747 828.562L287.259 820.003C293.628 817.469 297.22 810.691 295.742 803.998L292.39 788.828C291.285 783.824 293.005 778.615 296.879 775.259C300.132 772.441 303.203 769.452 306.083 766.311C309.55 762.528 314.807 760.945 319.785 762.192L334.855 765.968C341.504 767.634 348.38 764.234 351.092 757.939L360.251 736.676C362.963 730.381 360.71 723.048 354.932 719.361L341.835 711.003C337.51 708.243 335.049 703.335 335.415 698.217C335.72 693.966 335.782 689.681 335.595 685.381C335.373 680.261 337.977 675.432 342.373 672.798L355.698 664.812C361.578 661.289 364.035 654.022 361.502 647.654Z" fill="#F953B2"/>
<path d="M223.17 763.504C263.638 763.504 296.444 730.698 296.444 690.23C296.444 649.762 263.638 616.956 223.17 616.956C182.702 616.956 149.896 649.762 149.896 690.23C149.896 730.698 182.702 763.504 223.17 763.504Z" fill="#6966ED"/>
<path d="M223.17 721.357C240.361 721.357 254.297 707.421 254.297 690.23C254.297 673.039 240.361 659.103 223.17 659.103C205.979 659.103 192.043 673.039 192.043 690.23C192.043 707.421 205.979 721.357 223.17 721.357Z" fill="white"/>
<path d="M539.514 464.106C597.508 464.106 644.522 417.092 644.522 359.098C644.522 301.103 597.508 254.089 539.514 254.089C481.519 254.089 434.505 301.103 434.505 359.098C434.505 417.092 481.519 464.106 539.514 464.106Z" fill="#6966ED"/>
<path d="M539.514 433.417C580.559 433.417 613.833 400.143 613.833 359.098C613.833 318.052 580.559 284.778 539.514 284.778C498.468 284.778 465.194 318.052 465.194 359.098C465.194 400.143 498.468 433.417 539.514 433.417Z" fill="white"/>
<path d="M530.524 342.86L508.377 339.258C501.071 338.07 494.999 332.98 492.564 325.99C490.518 320.12 488.147 314.402 485.469 308.86C485.384 308.684 485.312 308.504 485.233 308.326C469.379 325.304 461.7 349.439 466.69 373.935C470.99 395.036 483.839 412.208 500.889 422.586C503.134 421.176 505.67 420.198 508.377 419.758L530.524 416.156C540.295 414.567 547.473 406.127 547.473 396.227V362.789C547.473 352.889 540.295 344.45 530.524 342.86Z" fill="#F953B2"/>
<path d="M543.779 462.753L575.662 456.257L600.051 575.959C601.583 583.48 596.721 590.829 589.201 592.361L584.57 593.305C577.049 594.837 569.7 589.976 568.168 582.455L543.779 462.753Z" fill="#6966ED"/>
<path d="M498.563 495.23L501.342 466.923L485.7 465.343L482.841 493.642L484.276 497.984C484.934 499.974 485.165 502.081 484.954 504.167L474.104 611.56L483.537 612.513L494.387 505.12C494.598 503.034 495.246 501.016 496.289 499.197L498.563 495.23Z" fill="#F953B2"/>
<path d="M488.013 615.328L488.249 612.989L469.392 611.084L469.156 613.423C468.463 620.275 462.348 625.268 455.496 624.576L443.435 743.957C442.216 756.016 451.004 766.779 463.063 767.998C475.122 769.216 485.886 760.428 487.104 748.369L499.165 628.988C492.314 628.295 487.321 622.18 488.013 615.328Z" fill="#F953B2"/>
<path d="M928.053 770.148C931.148 772.753 934.698 770.496 935.832 767.023C936.562 764.789 936.669 762.204 936.994 759.884C937.356 757.304 937.691 754.72 937.988 752.131C939.157 741.963 939.773 731.733 939.868 721.499C940.055 701.248 938.191 680.992 934.613 661.065C927.608 622.057 913.754 584.502 895.167 549.558C877.073 515.541 854.538 483.986 829.358 454.869C827.938 453.227 826.251 451.629 825.176 449.729C825.01 449.435 824.81 448.765 824.582 448.607C824.612 448.628 824.01 449.274 824.035 449.278C823.888 449.255 824.397 449.148 824.507 449.19C825.563 449.59 826.877 449.494 827.999 449.959C829.512 450.586 830.631 451.585 831.709 452.8C834.182 455.587 836.019 458.939 837.935 462.116C840.221 465.905 842.678 469.575 844.813 473.457C853.931 490.034 858.487 508.868 855.358 527.724C849.695 561.847 822.971 586.407 795.686 605.057C771.301 621.724 744.055 633.793 715.73 641.994C690.507 649.296 664.473 653.626 638.302 655.564C618.458 657.033 598.501 657.178 578.639 655.977C572.43 655.601 566.228 655.094 560.046 654.408C558.142 654.197 556.24 653.967 554.341 653.716C554.423 653.727 554.788 653.781 554.05 653.676C553.767 653.635 553.483 653.596 553.199 653.556C552.848 653.505 552.497 653.447 552.145 653.399C547.646 652.787 543.293 652.504 538.952 651.018C532.094 648.669 526.485 643.991 521.214 639.166C518.175 636.383 515.285 632.965 511.671 630.926C508.018 628.864 503.698 628.217 499.612 629.185C492.28 630.922 486.919 637.848 487.014 645.369C487.067 649.56 488.744 653.859 489.818 657.872C490.732 656.672 491.646 655.472 492.56 654.272C483.576 653.127 474.592 651.982 465.608 650.838C460.46 650.182 455.311 649.526 450.163 648.87C445.283 648.249 440.669 648.516 436.95 652.355C429.885 659.649 432.86 673.674 443.503 675.462C443.755 673.6 444.007 671.738 444.259 669.875C437.137 669.261 431.308 674.965 430.42 681.813C429.534 688.643 433.736 695.683 440.776 696.872L441.532 691.285C434.41 690.67 428.58 696.375 427.692 703.222C426.807 710.053 431.008 717.092 438.048 718.281C438.3 716.419 438.552 714.557 438.804 712.694C430.797 711.996 424.538 719.297 424.825 727.018C425.064 733.443 429.578 738.62 435.848 739.771C445.25 741.496 454.742 742.832 464.206 744.165C483.164 746.835 502.192 749.084 521.281 750.567C526.369 750.962 531.46 751.239 536.542 751.69C547.228 752.64 557.95 753.212 568.67 753.598C588.217 754.302 607.794 754.291 627.341 753.582C652.264 752.678 677.145 750.609 701.849 747.167C728.87 743.402 755.708 737.941 781.836 730.041C808.055 722.112 833.706 711.705 857.307 697.721C868.954 690.82 880.08 683.02 890.425 674.28C896.415 669.219 902.053 663.761 907.759 658.386C914.872 651.685 921.943 644.929 928.636 637.805C942.006 623.573 953.144 607.842 961.098 589.96C969.113 571.939 974.112 552.779 976.413 533.206C981.123 493.132 974.591 451.163 955.197 415.566C936.758 381.724 908.092 353.54 875.777 332.883C858.862 322.071 840.646 313.279 821.686 306.684C812.888 303.623 803.89 300.735 794.66 299.335C787.082 298.186 778.804 297.721 771.833 294.252C763.99 290.349 758.986 281.394 754.63 274.15C752.217 270.137 749.945 266.042 747.607 261.985C745.226 257.853 742.53 253.9 740.19 249.75C737.997 245.861 736.171 241.783 733.366 238.271C730.461 234.632 726.646 231.693 722.743 229.194C715.007 224.241 705.654 219.627 696.541 218.081C678.764 215.066 659.918 224.948 648.226 237.858C638.594 248.493 633.145 261.764 632.186 276.027C630.614 299.41 640.526 327.134 662.152 338.729C667.437 341.563 673.218 343.226 679.195 343.67C685.934 344.172 691.99 342.544 698.458 341.016C704.434 339.605 711.163 342.528 709.474 349.547C707.656 357.105 700.362 360.239 694.574 364.335C679.189 375.224 671.67 394.636 670.636 412.885C670.044 423.329 671.116 433.808 671.771 444.224C672.435 454.779 673.192 465.335 674.779 475.798C675.973 483.673 678.408 491.272 679.563 499.132C680.488 505.424 681.001 511.768 681.983 518.054C683.526 527.935 686.791 544.348 698.987 546.233C705.495 547.239 707.352 540.446 706.87 535.306C706.187 528.011 702.04 523.33 696.952 518.345C689.988 511.52 683.883 503.898 676.819 497.14C669.554 490.189 661.852 483.766 654.05 477.434C646.419 471.239 639.022 464.715 630.878 459.185C622.463 453.471 613.169 449.493 603.769 445.708C599.026 443.798 594.258 441.945 589.573 439.894C585.399 438.067 581.113 435.069 576.627 434.163C569.055 432.632 561.439 437.159 559.322 444.637C557.5 451.078 560.417 457.364 565.742 461.055C568.947 463.277 572.197 465.436 575.424 467.626C575.65 465.893 575.877 464.16 576.103 462.427C566.935 464.388 557.766 466.349 548.597 468.31C544.661 469.152 540.427 469.655 537.073 472.048C533.764 474.408 531.436 477.961 530.336 481.856C529.086 486.285 529.782 490.501 530.543 494.934C531.312 499.417 532.156 504.029 534.914 507.775C537.452 511.224 542.959 515.752 547.35 512.935C550.421 510.965 547.572 506.039 544.478 508.023C543.535 508.628 540.897 506.043 540.315 505.425C539.114 504.148 538.287 502.586 537.711 500.941C536.531 497.571 536.053 493.887 535.488 490.374C534.42 483.729 537.374 476.608 544.364 475.025C552.279 473.232 560.242 471.629 568.178 469.931C571.324 469.259 574.47 468.586 577.616 467.913C580.177 467.365 580.18 463.993 578.295 462.714C575.103 460.548 571.874 458.428 568.716 456.212C563.443 452.513 562.958 444.704 568.577 440.978C571.978 438.722 575.566 439.454 578.968 441.179C583.222 443.336 587.6 445.233 592.005 447.057C601.187 450.858 610.607 454.203 619.402 458.873C627.821 463.344 635.292 469.295 642.614 475.344C650.029 481.47 657.585 487.433 664.792 493.807C672.073 500.247 679.051 507.043 685.513 514.31C688.342 517.491 691.144 520.589 694.17 523.585C696.545 525.937 699.315 528.468 700.41 531.715C701.126 533.84 701.525 536.373 701.219 538.61C700.927 540.74 700.295 541.023 698.338 540.153C693.821 538.147 691.548 532.949 690.135 528.537C686.51 517.213 686.744 505.209 684.369 493.649C683.591 489.86 682.457 486.153 681.687 482.357C680.648 477.239 679.88 472.07 679.295 466.881C678.155 456.789 677.628 446.642 676.977 436.51C676.325 426.371 675.491 416.118 676.992 406.008C678.355 396.828 681.725 388.13 686.92 380.438C689.388 376.783 692.325 373.304 695.759 370.514C698.383 368.384 701.362 366.735 704.152 364.84C709.997 360.871 714.885 355.498 715.437 348.114C715.903 341.876 711.683 336.863 705.719 335.467C699.24 333.951 693.421 337.056 687.09 337.808C662.665 340.712 645.586 320.232 639.988 298.503C637.062 287.147 636.791 274.914 640.036 263.595C644.233 248.958 654.846 236.559 668.183 229.381C676.184 225.074 685.891 222.066 695.029 223.567C703.979 225.037 713.138 229.636 720.648 234.611C724.399 237.096 727.945 240.06 730.417 243.859C732.806 247.531 734.529 251.587 736.882 255.283C741.741 262.913 745.955 270.915 750.689 278.619C754.924 285.511 759.818 293.551 766.809 297.959C773.053 301.896 780.678 303.033 787.847 304.059C806.137 306.678 823.755 312.696 840.572 320.288C874.56 335.632 905.24 358.461 929.053 387.218C940.968 401.608 951.1 417.691 958.212 434.997C965.676 453.161 970.017 472.575 971.523 492.136C974.448 530.104 967.369 569.353 948.334 602.584C939.039 618.81 926.338 632.579 912.99 645.539C902.088 656.126 891.143 666.872 879.094 676.167C858.616 691.966 835.473 704.217 811.476 713.735C786.991 723.446 761.491 730.487 735.689 735.689C711.058 740.655 686.109 743.933 661.069 745.941C639.569 747.665 617.996 748.461 596.428 748.426C581.232 748.402 566.031 747.976 550.861 747.053C545.017 746.698 539.193 746.177 533.359 745.7C514.749 744.18 496.208 742.681 477.679 740.294C465.395 738.711 453.134 736.922 440.917 734.889C438.554 734.495 435.531 734.338 433.579 732.889C427.476 728.357 431.146 717.716 438.805 718.383C441.965 718.659 442.729 713.331 439.561 712.796C430.152 711.207 432.014 696.152 441.532 696.974C444.693 697.247 445.456 691.922 442.288 691.387C432.879 689.798 434.741 674.743 444.259 675.564C447.42 675.837 448.184 670.51 445.015 669.977C436.68 668.577 436.684 655.301 445.192 654.155C447.698 653.818 450.687 654.626 453.149 654.94L483.794 658.844C486.716 659.216 489.638 659.588 492.56 659.961C494.449 660.201 495.73 657.956 495.303 656.36C494.224 652.327 492.075 647.439 492.88 643.22C493.577 639.565 496.19 636.397 499.688 635.091C504.112 633.44 508.395 635.025 511.717 638.087C517.317 643.248 522.757 648.757 529.317 652.722C535.868 656.68 542.82 658.081 550.308 658.834C558.065 659.613 565.756 660.758 573.546 661.326C592.491 662.708 611.539 662.825 630.502 661.76C656.347 660.309 682.139 656.648 707.225 650.213C735.443 642.974 762.893 632.122 787.795 616.922C801.081 608.813 813.638 599.461 825.137 588.967C838.078 577.156 849.038 563.794 855.679 547.427C862.386 530.897 863.843 512.53 859.584 495.19C857.24 485.646 853.211 476.518 848.284 468.038C846.257 464.549 844.023 461.187 841.938 457.733C839.956 454.449 837.919 451.068 835.269 448.269C832.141 444.967 824.022 440.864 820.117 445.253C817.89 447.755 819.234 451.202 820.916 453.587C823.686 457.515 827.188 461.015 830.286 464.69C842.727 479.452 854.434 494.832 865.219 510.848C887.055 543.272 905.176 578.356 917.282 615.581C929.94 654.505 936.121 695.657 933.657 736.587C933.355 741.612 932.922 746.629 932.357 751.631C932.084 754.049 931.78 756.463 931.438 758.871C931.25 760.202 931.05 761.532 930.842 762.86C930.764 763.356 930.702 763.861 930.603 764.354C930.223 766.241 930.275 764.609 932.076 766.125C929.292 763.782 925.248 767.786 928.053 770.148Z" fill="black"/>
<path d="M697.441 338.198C710.736 334.221 712.389 332.232 717.21 329.116C722.031 326.001 726.253 321.642 728.142 316.222C725.197 325.238 724.228 337.172 713.682 345.78C713.682 345.78 713.522 331.002 697.441 338.198Z" fill="black"/>
<path d="M698.197 340.941C703.396 339.379 708.733 337.71 713.449 334.96C717.246 332.746 721.161 330.166 724.3 327.107C727.234 324.248 729.497 320.836 730.885 316.979C729.056 316.474 727.228 315.97 725.399 315.466C723.838 320.295 722.878 325.298 721.139 330.074C719.219 335.347 716.097 340.107 711.67 343.768C713.289 344.439 714.908 345.109 716.526 345.78C716.497 343.668 715.929 341.557 715.07 339.643C713.399 335.921 709.932 333.685 705.901 333.403C702.47 333.163 699.088 334.384 696.005 335.742C694.599 336.361 694.272 338.416 694.984 339.634C695.832 341.084 697.465 341.276 698.876 340.654C700.402 339.982 702.011 339.477 703.651 339.175C704 339.121 704.019 339.115 703.708 339.157C703.881 339.136 704.054 339.119 704.227 339.105C704.554 339.08 704.882 339.065 705.21 339.067C705.441 339.068 705.671 339.082 705.901 339.092C706.714 339.124 705.786 339.001 706.211 339.126C706.714 339.273 707.212 339.377 707.707 339.562C706.919 339.267 707.668 339.57 707.838 339.666C708.039 339.779 708.224 339.921 708.423 340.034C708.897 340.302 708.052 339.621 708.378 340C708.517 340.162 708.707 340.295 708.858 340.448C709.007 340.6 709.135 340.781 709.288 340.926C709.619 341.241 708.943 340.346 709.316 340.982C709.524 341.337 709.751 341.674 709.936 342.042C710.012 342.195 710.07 342.369 710.158 342.515C710.249 342.665 709.915 341.815 710.118 342.441C710.334 343.109 710.548 343.764 710.686 344.454C710.736 344.7 710.763 344.95 710.815 345.195C710.908 345.638 710.739 344.307 710.772 344.89C710.777 344.991 710.796 345.092 710.802 345.194C710.815 345.389 710.835 345.584 710.837 345.78C710.873 348.407 713.847 349.318 715.693 347.791C720.682 343.664 724.103 338.244 726.383 332.234C728.27 327.264 729.252 322.027 730.885 316.979C731.357 315.517 730.333 313.874 728.898 313.48C727.319 313.046 725.922 314.016 725.399 315.466C723.162 321.681 717.789 325.361 712.521 328.835C710.746 330.005 708.894 331.028 706.949 331.89C706.79 331.961 706.63 332.031 706.469 332.1C706.734 331.99 706.706 332.001 706.388 332.133C706.118 332.244 705.846 332.354 705.574 332.461C704.761 332.782 703.941 333.085 703.117 333.378C700.993 334.131 698.842 334.807 696.684 335.455C693.187 336.506 694.677 341.998 698.197 340.941Z" fill="black"/>
<path d="M595.86 503.411C597.146 503.192 598.901 503.722 600.068 504.671C601.676 505.979 602.627 507.788 603.002 509.867C603.329 511.683 603.018 513.666 602.187 515.168C601.28 516.807 600.056 517.751 598.216 518.143C596.713 518.463 595.84 520.223 596.23 521.641C596.671 523.246 598.209 523.886 599.729 523.628C601.015 523.41 602.77 523.94 603.937 524.889C605.545 526.196 606.496 528.005 606.871 530.084C607.198 531.9 606.887 533.884 606.056 535.385C605.149 537.024 603.925 537.968 602.085 538.36C600.582 538.68 599.709 540.44 600.099 541.859C600.54 543.464 602.078 544.104 603.598 543.846C605.255 543.564 607.212 544.374 608.649 545.908C610.138 547.499 610.915 549.847 610.848 552.113C610.785 554.21 609.993 556.164 608.366 557.52C607.732 558.047 606.841 558.401 605.761 558.615C601.578 559.443 597.383 560.218 593.195 561.019C581.389 563.279 569.582 565.538 557.776 567.797C557.169 567.914 556.91 567.967 556.498 567.976C554.436 568.023 552.415 566.817 551.166 564.833C549.73 562.554 549.4 559.806 550.189 557.343C550.885 555.173 552.439 553.684 554.663 553.21C556.166 552.89 557.04 551.13 556.65 549.711C556.209 548.106 554.671 547.466 553.151 547.725C551.865 547.943 550.109 547.413 548.943 546.464C547.335 545.156 546.384 543.348 546.009 541.269C545.682 539.453 545.993 537.469 546.824 535.967C547.731 534.329 548.955 533.385 550.794 532.993C552.297 532.672 553.171 530.912 552.781 529.494C552.34 527.889 550.802 527.249 549.282 527.507C547.996 527.725 546.24 527.195 545.073 526.246C543.466 524.939 542.515 523.13 542.14 521.051C541.813 519.235 542.124 517.252 542.955 515.75C543.862 514.111 545.086 513.167 546.925 512.775C548.428 512.455 549.302 510.695 548.912 509.276C548.484 507.721 546.92 506.968 545.413 507.29C538.555 508.751 535.42 516.162 536.655 522.563C537.935 529.198 543.996 534.147 550.794 532.993L549.282 527.507C542.424 528.968 539.289 536.38 540.524 542.781C541.804 549.416 547.865 554.364 554.663 553.21C554.159 551.382 553.655 549.553 553.151 547.725C546.503 549.141 543.334 556.177 544.301 562.441C545.236 568.505 550.642 574.248 557.135 573.624C558.65 573.479 560.159 573.116 561.65 572.831C564.504 572.285 567.359 571.738 570.213 571.192C582.592 568.823 595.02 566.633 607.363 564.083C613.431 562.829 617.02 556.589 616.486 550.657C615.824 543.3 609.758 537.057 602.085 538.36C602.59 540.189 603.094 542.017 603.598 543.846C610.456 542.384 613.591 534.973 612.356 528.572C611.076 521.937 605.015 516.988 598.216 518.143C598.721 519.971 599.225 521.8 599.729 523.628C606.587 522.167 609.722 514.755 608.487 508.354C607.207 501.719 601.146 496.771 594.347 497.925C592.832 498.182 591.983 500.05 592.361 501.424C592.802 503.029 594.34 503.669 595.86 503.411Z" fill="black"/>
<path d="M555.965 490.087C566.63 488.046 577.294 486.006 587.958 483.965C589.295 483.709 590.635 483.396 591.982 483.195C593.332 482.993 595.118 483.518 596.325 484.561C597.926 485.944 598.925 487.899 599.191 490.004C599.465 492.178 598.879 494.508 597.656 495.968C596.653 497.165 595.698 497.646 594.192 497.955C592.087 498.386 589.97 498.763 587.861 499.166C581.917 500.304 575.974 501.441 570.03 502.579C568.521 502.867 567.66 504.681 568.044 506.077C568.478 507.658 570.029 508.354 571.543 508.064C577.074 507.006 582.606 505.947 588.137 504.888C590.607 504.416 593.079 503.955 595.546 503.471C600.122 502.572 603.587 498.825 604.573 494.312C605.838 488.53 603.462 481.952 598.185 478.961C595.304 477.328 592.324 477.355 589.2 477.952C583.093 479.121 576.986 480.29 570.878 481.458C565.403 482.506 559.928 483.554 554.453 484.602C552.944 484.89 552.083 486.704 552.467 488.1C552.901 489.681 554.451 490.377 555.965 490.087Z" fill="black"/>
<path d="M598.517 518.085C591.347 519.457 584.176 520.829 577.006 522.201C575.971 522.4 574.935 522.598 573.899 522.796C572.39 523.085 571.529 524.898 571.913 526.295C572.347 527.875 573.898 528.571 575.412 528.281C582.582 526.909 589.752 525.537 596.922 524.165C597.958 523.967 598.993 523.769 600.029 523.571C601.539 523.282 602.399 521.468 602.016 520.072C601.581 518.492 600.031 517.795 598.517 518.085Z" fill="black"/>
<path d="M602.086 538.36C594.915 539.732 587.745 541.104 580.575 542.476C579.539 542.675 578.504 542.873 577.468 543.071C575.959 543.36 575.098 545.173 575.482 546.57C575.916 548.15 577.467 548.846 578.981 548.556C586.151 547.184 593.321 545.812 600.491 544.44C601.527 544.242 602.562 544.044 603.598 543.845C605.107 543.557 605.968 541.743 605.584 540.347C605.15 538.766 603.6 538.07 602.086 538.36Z" fill="black"/>
<path d="M472.311 717.344C461.521 715.97 450.732 714.595 439.942 713.221C438.434 713.029 436.926 712.837 435.418 712.645C433.892 712.45 432.574 714.091 432.574 715.489C432.574 717.188 433.887 718.138 435.418 718.333C446.208 719.708 456.998 721.082 467.787 722.457C469.295 722.649 470.803 722.841 472.311 723.033C473.837 723.228 475.155 721.587 475.155 720.189C475.155 718.49 473.842 717.54 472.311 717.344Z" fill="black"/>
<path d="M476.368 696.147C465.579 694.772 454.789 693.398 444 692.023C442.492 691.831 440.984 691.639 439.476 691.447C437.95 691.252 436.632 692.893 436.632 694.291C436.632 695.99 437.945 696.941 439.476 697.136C450.266 698.51 461.055 699.885 471.845 701.259C473.353 701.451 474.861 701.644 476.368 701.836C477.895 702.03 479.213 700.389 479.213 698.991C479.213 697.293 477.899 696.342 476.368 696.147Z" fill="black"/>
<path d="M477.172 673.856C466.383 672.482 455.593 671.107 444.804 669.733C443.296 669.54 441.788 669.348 440.28 669.156C438.754 668.962 437.436 670.603 437.436 672.001C437.436 673.699 438.749 674.65 440.28 674.845C451.07 676.22 461.859 677.594 472.649 678.969C474.157 679.161 475.665 679.353 477.172 679.545C478.699 679.739 480.017 678.098 480.017 676.701C480.017 675.002 478.703 674.051 477.172 673.856Z" fill="black"/>
<path d="M712.295 250.976C716.703 249.714 721.787 251.275 724.728 254.793C727.221 257.775 728.111 261.803 728.227 265.688C728.434 272.612 725.116 279.928 730.013 285.958C732.792 289.38 737.404 291.216 741.774 290.64C745.718 290.12 749.809 286.469 748.525 282.704C750.068 285.01 753.159 286.047 755.863 285.426C758.568 284.806 760.809 282.697 761.898 280.145C762.574 278.561 762.839 276.746 762.32 275.103C761.774 273.371 760.445 272.022 759.278 270.631C751.829 261.745 750.147 249.557 748.071 238.149C745.996 226.741 742.628 214.49 733.294 207.611C730.844 205.805 727.978 204.431 724.939 204.264C721.901 204.097 718.69 205.294 716.932 207.777C716.849 205.338 717.552 202.886 717.162 200.476C716.773 198.067 714.603 195.617 712.244 196.243C709.46 196.982 709.234 200.802 709.608 203.659C707.85 200.812 705.463 198.357 702.667 196.521C701.867 195.996 700.972 195.505 700.017 195.555C697.976 195.663 696.867 198.277 697.492 200.223C698.118 202.169 699.834 203.527 701.461 204.764C677.127 200.41 651.817 203.46 628.342 211.208C618.734 214.38 609.055 218.553 602.264 226.054C599.57 229.029 597.301 232.884 597.917 236.85C598.533 240.816 603.317 244.079 606.714 241.94C601.601 242.954 597.604 247.839 597.387 253.047C597.17 258.255 600.59 263.352 605.403 265.354C610.215 267.355 616.095 266.275 620.051 262.881C615.907 266.563 614.461 272.972 616.622 278.077C617.494 280.135 619.004 282.052 621.112 282.796C622.636 283.333 624.314 283.21 625.902 282.909C636.104 280.974 638.273 272.328 646.075 267.698C655.406 262.162 665.925 258.56 676.68 257.16C680.065 256.719 683.803 256.579 686.563 258.588C687.993 259.627 688.999 261.142 689.875 262.677C694.378 270.566 697.131 280.745 705.517 284.237C702.675 283.054 703.104 267.883 703.227 265.23C703.516 259 705.555 252.905 712.295 250.976Z" fill="black"/>
<path d="M713.051 253.718C716.885 252.689 721.264 254.229 723.422 257.858C725.957 262.119 725.498 267.314 724.93 272.02C724.304 277.197 724.019 282.624 727.289 287.051C730.423 291.295 735.706 293.927 741.023 293.559C746.699 293.166 753.172 288.302 751.268 281.948C749.535 282.679 747.802 283.409 746.069 284.14C748.576 287.657 753.126 289.366 757.314 287.974C761.627 286.54 764.803 282.57 765.346 278.074C765.642 275.623 764.943 273.282 763.488 271.303C762.269 269.646 760.837 268.179 759.689 266.467C757.437 263.109 755.867 259.405 754.691 255.55C749.992 240.152 750.74 222.415 739.617 209.595C736.582 206.098 732.496 202.981 727.938 201.862C722.868 200.617 717.638 202.106 714.476 206.341L719.776 207.777C719.732 204.826 720.651 201.756 719.69 198.864C718.83 196.273 716.796 193.878 713.995 193.411C711.363 192.972 708.773 194.354 707.617 196.757C706.591 198.89 706.481 201.343 706.763 203.659C708.53 203.18 710.297 202.701 712.064 202.223C710.522 199.777 708.63 197.547 706.37 195.736C703.918 193.77 700.78 191.624 697.602 193.373C695.146 194.724 694.052 197.873 694.641 200.531C695.301 203.513 697.724 205.464 700.025 207.22C700.756 205.487 701.486 203.754 702.217 202.021C683.132 198.644 663.578 199.577 644.693 203.752C635.681 205.745 626.702 208.358 618.206 211.989C610.432 215.311 602.513 220.092 597.727 227.265C595.117 231.177 593.701 236.73 596.526 240.923C599.049 244.666 603.98 246.823 608.149 244.396C611.01 242.731 609.056 238.527 605.958 239.198C598.631 240.783 593.689 248.262 594.709 255.591C595.767 263.188 602.436 268.906 610.018 269.19C614.449 269.356 618.69 267.705 622.063 264.893C620.722 263.552 619.381 262.211 618.04 260.87C614.646 263.978 612.744 268.578 612.781 273.167C612.818 277.694 614.864 282.963 619.164 285.04C623.502 287.135 629.156 285.566 633.099 283.199C636.262 281.3 638.703 278.561 641.143 275.848C642.35 274.507 643.581 273.181 644.945 271.997C646.268 270.85 648.086 269.787 649.835 268.829C654.328 266.368 659.043 264.377 663.935 262.857C668.626 261.401 673.555 260.209 678.463 259.813C680.457 259.652 682.687 259.577 684.474 260.618C686.208 261.628 687.165 263.605 688.083 265.313C692.243 273.059 695.316 282.925 704.081 286.694C705.491 287.3 707.131 287.113 707.973 285.673C708.697 284.434 708.346 282.443 706.952 281.782C706.477 281.556 707.278 282.087 707.138 281.958C706.817 281.662 707.285 282.262 707.273 282.146C707.262 282.045 707.094 281.778 707.028 281.702C707.315 282.033 707.176 282.125 707.036 281.678C706.735 280.715 706.543 279.735 706.393 278.738C706.343 278.408 706.407 278.841 706.412 278.878C706.396 278.752 706.38 278.625 706.366 278.498C706.334 278.195 706.3 277.893 706.272 277.589C706.213 276.959 706.166 276.329 706.128 275.698C706.054 274.466 706.012 273.232 705.991 271.998C705.916 267.621 705.745 263.226 707.189 259.247C708.133 256.646 710.099 254.607 713.051 253.718C716.548 252.666 715.058 247.174 711.539 248.233C707.862 249.34 704.743 251.656 702.886 255.055C701.178 258.18 700.547 261.752 700.381 265.275C700.152 270.127 700.188 275.069 700.857 279.884C701.177 282.188 701.706 285.566 704.081 286.694C705.038 285.056 705.995 283.419 706.952 281.782C703.622 280.349 701.386 277.982 699.492 274.987C697.436 271.736 695.894 268.197 694.186 264.76C692.13 260.62 689.887 256.413 685.269 254.775C680.825 253.2 675.556 254.335 671.081 255.2C666.184 256.146 661.375 257.544 656.734 259.372C652.254 261.138 647.664 263.162 643.659 265.865C640.623 267.914 638.237 270.603 635.8 273.299C634.683 274.533 633.539 275.748 632.271 276.83C631.688 277.328 631.411 277.539 630.628 278.038C630.01 278.432 629.043 278.965 628.583 279.163C626.762 279.949 624.032 280.824 622.078 280.119C620.364 279.5 619.363 277.622 618.882 275.962C617.751 272.054 618.973 267.722 622.063 264.893C623.196 263.855 623.115 261.923 622.063 260.87C620.894 259.702 619.224 259.884 618.04 260.87C613.03 265.047 605.096 264.198 601.675 258.506C600.086 255.863 599.732 252.822 600.96 250.014C602.139 247.315 604.582 245.308 607.47 244.683C606.739 242.95 606.009 241.217 605.278 239.484C604.591 239.884 603.824 239.86 602.979 239.387C602.048 238.865 601.174 237.897 600.881 237.018C599.867 233.969 602.133 230.473 604.137 228.221C609.051 222.697 615.697 219.018 622.501 216.324C638.16 210.125 655.206 206.532 672.018 205.763C681.608 205.324 691.248 205.833 700.705 207.507C703.985 208.087 705.467 204.27 702.896 202.308C701.905 201.551 700.691 200.661 700.235 199.467C700.109 199.137 700.143 199.255 700.18 198.688C700.152 199.104 700.389 198.261 700.21 198.636C700.242 198.57 700.356 198.213 700.464 198.255C700.425 198.239 700.07 198.562 700.04 198.388C700.038 198.375 701.797 199.361 701.921 199.449C702.577 199.914 703.184 200.441 703.769 200.991C705.08 202.221 706.194 203.575 707.151 205.094C707.826 206.165 709.12 206.743 710.364 206.402C711.466 206.098 712.6 204.878 712.452 203.659C712.364 202.935 712.306 202.209 712.314 201.479C712.323 200.589 712.294 200.582 712.523 199.769C712.554 199.656 712.876 198.958 712.652 199.376C712.737 199.214 712.832 199.058 712.939 198.909L712.838 199.073C713.079 198.846 713.098 198.829 712.895 199.023C712.628 199.101 712.663 199.089 713 198.986C712.899 198.926 712.562 198.688 713.119 199.02C713.686 199.357 714.321 200.314 714.416 201.382C714.605 203.506 714.055 205.649 714.087 207.777C714.106 209.029 714.958 210.186 716.175 210.52C717.483 210.879 718.624 210.236 719.388 209.213C721.098 206.922 724.488 206.762 727.023 207.508C730.252 208.459 733.009 210.749 735.23 213.209C739.627 218.078 741.967 224.492 743.576 230.751C747.203 244.849 747.341 260.331 756.883 272.174C757.873 273.403 759.448 274.732 759.724 276.361C759.991 277.944 759.155 279.731 758.12 280.864C757.079 282.003 755.671 282.751 754.314 282.757C753.139 282.763 751.691 282.265 750.981 281.269C750.161 280.118 748.801 279.502 747.429 280.105C746.168 280.66 745.368 282.076 745.782 283.461C746.013 284.231 746 284.44 745.662 285.08C745.298 285.771 744.72 286.343 744.025 286.799C742.424 287.848 740.642 288.087 738.773 287.82C734.584 287.221 731.153 284.171 730.342 279.998C729.486 275.593 731.056 270.914 731.081 266.474C731.108 261.455 729.862 256.146 726.38 252.375C722.685 248.373 716.751 246.834 711.539 248.233C708.007 249.181 709.506 254.67 713.051 253.718Z" fill="black"/>
<path d="M654.959 295.643C655.545 296.056 655.877 296.714 656.037 297.538C656.185 298.3 656.073 299.277 655.807 300.159C655.129 302.409 653.024 303.684 651.954 305.812C650.601 308.502 651.505 311.464 654.089 313.004C656.92 314.692 660.159 313.784 663.014 312.679C663.969 312.31 664.629 311.405 664.339 310.347C664.088 309.435 662.966 308.651 662.006 309.022C660.139 309.745 656.903 311.197 655.344 309.175C654.916 308.619 655.028 308.043 655.411 307.392C655.979 306.429 656.834 305.667 657.531 304.801C660.445 301.178 661.038 295.304 656.873 292.369C656.036 291.778 654.765 292.218 654.279 293.049C653.724 293.997 654.12 295.052 654.959 295.643Z" fill="black"/>
<path d="M683.255 310.703C683.058 311.015 682.854 311.322 682.643 311.623C682.537 311.774 682.429 311.924 682.32 312.072C682.265 312.146 682.21 312.22 682.155 312.293C681.977 312.528 682.128 312.339 682.215 312.216C681.794 312.812 681.273 313.361 680.771 313.888C680.276 314.409 679.757 314.907 679.215 315.379C678.938 315.621 678.654 315.857 678.365 316.085C678.135 316.268 678.328 316.122 678.444 316.026C678.373 316.085 678.297 316.138 678.223 316.193C678.061 316.314 677.896 316.432 677.731 316.549C677.32 316.841 676.998 317.182 676.86 317.683C676.735 318.137 676.791 318.741 677.051 319.144C677.568 319.946 678.78 320.437 679.645 319.824C682.392 317.879 684.724 315.462 686.53 312.618C687.062 311.779 686.732 310.49 685.85 310.023C684.913 309.528 683.823 309.808 683.255 310.703Z" fill="black"/>
<path d="M672.488 270.906C667.357 270.731 662.215 273.792 660.003 278.442C659.578 279.336 659.726 280.53 660.684 281.036C661.528 281.482 662.823 281.312 663.278 280.356C663.507 279.874 663.765 279.408 664.06 278.964C664.134 278.853 664.21 278.743 664.287 278.635C664.384 278.501 664.494 278.367 664.327 278.574C664.494 278.366 664.666 278.163 664.846 277.967C665.206 277.575 665.593 277.207 666.003 276.867C666.04 276.837 666.387 276.57 666.187 276.717C665.989 276.864 666.386 276.578 666.382 276.581C666.6 276.428 666.824 276.282 667.052 276.143C667.509 275.865 667.984 275.629 668.47 275.404C668.313 275.477 668.281 275.479 668.46 275.412C668.609 275.355 668.759 275.298 668.91 275.246C669.136 275.167 669.365 275.096 669.596 275.032C669.853 274.961 670.111 274.898 670.372 274.845C670.502 274.819 670.633 274.797 670.764 274.772C671.264 274.678 670.52 274.788 670.813 274.762C671.373 274.712 671.925 274.679 672.488 274.698C673.481 274.732 674.429 273.802 674.384 272.802C674.337 271.746 673.551 270.942 672.488 270.906Z" fill="black"/>
<path d="M672.432 283.718C669.954 284.881 667.702 286.619 665.949 288.721C665.62 289.116 665.394 289.529 665.394 290.062C665.394 290.527 665.601 291.082 665.949 291.402C666.65 292.046 667.953 292.216 668.631 291.402C669.462 290.407 670.396 289.507 671.42 288.712L671.036 289.008C672.065 288.219 673.173 287.544 674.347 286.993C674.754 286.802 675.103 286.278 675.218 285.86C675.343 285.406 675.287 284.801 675.027 284.398C674.766 283.994 674.377 283.637 673.894 283.527C673.371 283.408 672.917 283.491 672.432 283.718Z" fill="black"/>
<path d="M645.566 286.366C642.891 286.325 640.247 286.992 637.89 288.248C637.013 288.715 636.669 290.005 637.209 290.842C637.784 291.734 638.866 292.022 639.804 291.523C639.981 291.428 640.159 291.336 640.34 291.249C640.485 291.179 640.778 291.112 640.889 291C640.79 291.1 640.527 291.148 640.826 291.031C640.92 290.995 641.013 290.959 641.108 290.924C641.296 290.855 641.486 290.79 641.678 290.73C642.444 290.486 643.23 290.315 644.027 290.205L643.523 290.273C644.201 290.186 644.882 290.147 645.566 290.158C646.558 290.173 647.507 289.275 647.462 288.262C647.415 287.221 646.629 286.382 645.566 286.366Z" fill="black"/>
<path d="M647.532 295.528C645.061 296.014 642.59 296.501 640.119 296.987C639.144 297.179 638.496 298.396 638.795 299.32C639.13 300.357 640.083 300.85 641.127 300.644C643.598 300.158 646.069 299.671 648.54 299.185C649.515 298.993 650.164 297.776 649.865 296.852C649.529 295.815 648.577 295.322 647.532 295.528Z" fill="black"/>
<path d="M518.74 331.197L510.518 342.701C509.037 344.774 508.022 346.692 508.49 349.327C508.842 351.312 509.948 353.181 510.631 355.073C511.984 358.823 512.983 362.777 513.034 366.781C513.056 368.494 512.975 370.302 512.327 371.911C512.198 372.23 512.282 372.008 512.311 371.946C512.229 372.122 512.135 372.296 512.037 372.465C511.937 372.638 511.552 373.191 511.635 373.089C511.726 372.976 511.28 373.46 511.147 373.588C511.019 373.712 510.348 374.273 510.725 373.984C509.556 374.881 508.228 375.556 507.002 376.369C505.32 377.484 503.777 378.773 502.519 380.357C501.565 381.558 501.346 383.206 502.519 384.379C503.51 385.37 505.581 385.589 506.542 384.379C508.485 381.931 510.704 380.943 513.276 379.127C516.18 377.077 517.927 374.328 518.437 370.786C519.052 366.519 518.54 362.179 517.486 358.018C516.971 355.983 516.313 353.983 515.537 352.032C515.024 350.741 513.474 348.557 514.294 347.206C515.641 344.987 517.324 342.922 518.832 340.811C520.439 338.563 522.045 336.315 523.652 334.068C524.546 332.817 523.871 330.901 522.631 330.176C521.202 329.34 519.635 329.943 518.74 331.197Z" fill="white"/>
<path d="M517.463 364.397L531.122 358.815C531.837 358.523 532.416 358.201 532.822 357.508C533.179 356.899 533.33 356 533.109 355.317C532.68 353.993 531.084 352.727 529.61 353.33C525.057 355.191 520.504 357.051 515.951 358.912C515.236 359.204 514.656 359.526 514.251 360.219C513.894 360.828 513.743 361.727 513.964 362.41C514.392 363.734 515.988 365 517.463 364.397Z" fill="white"/>
<path d="M521.927 403.148C522.164 403.229 522.398 403.318 522.629 403.415L521.949 403.128C522.785 403.488 523.567 403.951 524.287 404.507L523.711 404.062C524.427 404.624 525.067 405.268 525.624 405.988L525.179 405.412C525.673 406.062 526.09 406.76 526.423 407.504C526.696 408.114 527.507 408.642 528.123 408.811C528.804 408.999 529.711 408.914 530.315 408.525C530.922 408.133 531.457 407.55 531.622 406.825L531.724 406.069C531.722 405.555 531.593 405.077 531.335 404.633C529.851 401.316 526.837 398.83 523.44 397.662C522.768 397.431 521.846 397.599 521.248 397.949C520.658 398.294 520.095 398.971 519.941 399.649C519.775 400.377 519.811 401.194 520.227 401.84C520.643 402.485 521.198 402.897 521.927 403.148Z" fill="white"/>
<path d="M477.457 362.629C478.914 361.172 480.372 359.714 481.83 358.256C482.346 357.74 482.663 356.974 482.663 356.245C482.663 355.547 482.353 354.714 481.83 354.233C481.288 353.736 480.576 353.366 479.819 353.4C479.064 353.434 478.352 353.689 477.807 354.233C476.35 355.691 474.892 357.149 473.434 358.607C472.918 359.123 472.601 359.889 472.601 360.618C472.601 361.316 472.911 362.149 473.434 362.629C473.976 363.127 474.688 363.496 475.445 363.462C476.2 363.429 476.912 363.174 477.457 362.629Z" fill="white"/>
<path d="M586.964 567.943C587.197 567.936 587.43 567.966 587.663 567.982C587.794 567.991 587.929 568.028 588.06 568.028C587.348 568.028 587.259 567.903 587.833 568.005C588.257 568.081 588.68 568.161 589.1 568.257C590.329 568.537 591.537 568.905 592.727 569.32C593.539 569.602 594.343 569.909 595.139 570.232C595.257 570.281 595.375 570.33 595.493 570.378C595.951 570.562 595.353 570.25 595.228 570.265C595.393 570.246 595.767 570.496 595.922 570.565C596.413 570.779 596.901 571 597.386 571.227C602.802 573.754 607.923 576.901 612.848 580.273C620.746 585.68 627.555 591.247 634.892 597.752C645.421 607.087 655.367 617.072 664.961 627.361C666.407 628.912 667.844 630.471 669.275 632.036C671.751 634.744 675.765 630.712 673.298 628.013C663.304 617.082 652.954 606.454 641.989 596.49C634.37 589.566 626.442 582.941 618.041 576.98C612.819 573.275 607.389 569.804 601.637 566.976C598.336 565.354 594.896 563.861 591.323 562.945C589.946 562.591 588.437 562.227 587.007 562.254C586.993 562.255 586.978 562.254 586.964 562.255C583.312 562.37 583.296 568.059 586.964 567.943Z" fill="black"/>
<path d="M505.644 222.094C506.739 224.285 507.835 226.477 508.931 228.668C509.238 229.282 509.986 229.798 510.631 229.975C511.312 230.163 512.218 230.078 512.822 229.688C513.43 229.297 513.964 228.714 514.129 227.988C514.306 227.214 514.199 226.509 513.843 225.797C512.747 223.605 511.651 221.414 510.556 219.223C510.249 218.609 509.5 218.093 508.856 217.916C508.175 217.728 507.268 217.813 506.664 218.202C506.057 218.594 505.522 219.177 505.357 219.902C505.181 220.676 505.288 221.381 505.644 222.094Z" fill="#F953B2"/>
<path d="M532.633 214.451C532.799 217.146 532.703 219.848 532.348 222.525L532.449 221.769C532.435 221.878 532.419 221.988 532.404 222.097C532.292 222.887 532.27 223.569 532.69 224.288C533.036 224.878 533.712 225.441 534.39 225.595C535.118 225.761 535.936 225.725 536.582 225.309C537.158 224.937 537.789 224.321 537.889 223.609C538.319 220.564 538.511 217.523 538.322 214.451C538.275 213.694 538.036 212.987 537.489 212.439C536.995 211.946 536.186 211.574 535.477 211.606C534.014 211.672 532.535 212.86 532.633 214.451Z" fill="#F953B2"/>
<path d="M558.792 229.783C560.255 227.715 561.718 225.647 563.181 223.579C563.585 223.007 563.647 222.038 563.467 221.387C563.286 220.727 562.776 220.012 562.16 219.687C561.5 219.338 560.701 219.164 559.969 219.4C559.229 219.64 558.717 220.074 558.269 220.708L553.88 226.912C553.475 227.484 553.414 228.452 553.593 229.103C553.775 229.763 554.285 230.478 554.9 230.803C555.56 231.152 556.36 231.327 557.092 231.09C557.831 230.851 558.343 230.417 558.792 229.783Z" fill="#F953B2"/>
<path d="M366.199 606.195C367.022 606.528 365.713 605.963 366.52 606.332C366.767 606.445 367.014 606.557 367.258 606.676C367.706 606.893 368.147 607.123 368.581 607.365C369.451 607.849 370.293 608.381 371.104 608.956C371.289 609.087 371.471 609.221 371.653 609.355C372.172 609.735 371.482 609.201 371.935 609.576C372.353 609.923 372.769 610.271 373.171 610.636C373.908 611.306 374.61 612.014 375.273 612.757C375.605 613.129 375.922 613.511 376.237 613.897C376.425 614.127 376.08 613.674 376.375 614.073C376.537 614.291 376.698 614.509 376.854 614.731C377.428 615.545 377.959 616.388 378.442 617.258C378.706 617.732 378.956 618.214 379.192 618.703C379.29 618.906 379.385 619.111 379.478 619.317C379.55 619.477 379.721 619.883 379.567 619.51C379.981 620.514 380.324 621.545 380.615 622.592C381.013 624.025 382.65 625.052 384.114 624.578C385.578 624.105 386.527 622.615 386.1 621.079C383.522 611.795 376.595 604.305 367.711 600.71C366.328 600.15 364.526 601.318 364.212 602.696C363.837 604.345 364.718 605.596 366.199 606.195Z" fill="#F953B2"/>
<path d="M379.266 598.688C381.076 600.51 382.885 602.331 384.695 604.152C385.208 604.669 385.979 604.985 386.706 604.985C387.404 604.985 388.237 604.675 388.717 604.152C389.215 603.61 389.584 602.899 389.55 602.141C389.517 601.385 389.261 600.676 388.717 600.13C386.908 598.308 385.098 596.487 383.289 594.666C382.776 594.149 382.005 593.833 381.278 593.833C380.58 593.833 379.747 594.143 379.266 594.666C378.769 595.208 378.399 595.92 378.433 596.677C378.467 597.433 378.723 598.142 379.266 598.688Z" fill="#F953B2"/>
<path d="M23.7041 592.419C28.748 595.036 33.7919 597.653 38.8359 600.27C40.1556 600.955 41.9854 600.654 42.7275 599.25C43.4176 597.943 43.1172 596.09 41.7071 595.358C36.6632 592.741 31.6193 590.124 26.5753 587.507C25.2556 586.822 23.4258 587.123 22.6837 588.528C21.9936 589.834 22.294 591.688 23.7041 592.419Z" fill="#6966ED"/>
<path d="M25.7561 638.774C28.1775 638.041 30.6453 637.472 33.147 637.093C33.1546 637.092 34.0619 636.964 33.5466 637.032C33.8359 636.994 34.1257 636.96 34.4156 636.927C35.0922 636.851 35.7703 636.788 36.4493 636.739C37.7108 636.647 38.9745 636.605 40.2392 636.603C41.7269 636.599 43.1525 635.297 43.0836 633.758C43.0147 632.22 41.8338 630.91 40.2392 630.914C34.8362 630.926 29.4154 631.723 24.2437 633.289C22.8212 633.719 21.7757 635.3 22.2571 636.787C22.7219 638.224 24.2309 639.236 25.7561 638.774Z" fill="#6966ED"/>
<path d="M60.3703 563.777C60.7334 565.955 61.0965 568.134 61.4595 570.312C61.5697 570.974 62.2116 571.687 62.7666 572.012C63.3763 572.369 64.2748 572.52 64.9583 572.299C65.6465 572.076 66.3106 571.65 66.6582 570.992L66.9449 570.312C67.0804 569.808 67.0804 569.304 66.9449 568.8C66.5818 566.621 66.2187 564.443 65.8557 562.265C65.7455 561.603 65.1036 560.89 64.5486 560.565C63.9389 560.208 63.0404 560.057 62.3569 560.278C61.6687 560.501 61.0046 560.927 60.657 561.585L60.3703 562.265C60.2348 562.769 60.2348 563.273 60.3703 563.777Z" fill="#6966ED"/>
</svg>
