<svg width="328" height="328" viewBox="0 0 328 328" fill="none" xmlns="http://www.w3.org/2000/svg">
<path d="M116.964 223.05L85.9951 246.169C83.3597 248.136 79.5922 246.401 79.3742 243.12L76.812 204.558C76.5668 200.868 77.2487 197.176 78.7955 193.818L144.559 51.0231L189.6 71.7665L123.837 214.561C122.29 217.92 119.927 220.838 116.964 223.05Z" fill="#F6D053"/>
<path d="M185.566 80.5245L140.525 59.7811L149.681 39.9018C155.409 27.4641 170.135 22.0248 182.573 27.753C195.011 33.4812 200.45 48.2075 194.722 60.6452L185.566 80.5245Z" fill="#1A1A1A"/>
<path d="M123.19 215.851C123.994 211.664 121.885 207.313 117.839 205.449C114.942 204.115 111.722 204.366 109.15 205.838C108.597 202.927 106.695 200.317 103.798 198.983C100.902 197.649 97.6818 197.9 95.1098 199.372C94.5564 196.46 92.6542 193.851 89.7576 192.516C85.5432 190.576 80.6442 191.987 78.0544 195.639C77.037 198.489 76.6104 201.524 76.812 204.558L79.3742 243.12C79.5923 246.401 83.3597 248.136 85.9952 246.169L116.964 223.05C119.541 221.126 121.663 218.668 123.19 215.851Z" fill="#1A1A1A"/>
<path d="M78.6732 232.57L79.3742 243.12C79.5922 246.401 83.3597 248.137 85.9952 246.169L94.4678 239.844L78.6732 232.57Z" fill="#F6D053"/>
<path d="M191.943 91.5255C191.242 92.7674 189.856 93.3236 188.506 92.7859C188.037 92.5989 187.582 92.3578 187.123 92.1455C185.048 91.1845 182.973 90.2235 180.898 89.2626C178.865 88.3212 176.832 87.3798 174.799 86.4385C174.392 86.2502 173.988 86.0565 173.579 85.8736C171.966 85.152 170.196 85.1138 168.597 85.909C164.508 87.9418 164.665 93.9209 168.68 95.9123L169.841 93.9252C167.071 92.7324 163.722 93.6557 162.375 96.5015C161.065 99.2677 162.203 102.605 164.951 103.968L166.113 101.981C163.342 100.788 159.993 101.711 158.646 104.557C157.336 107.323 158.475 110.661 161.222 112.024L162.384 110.037C159.094 108.621 155.12 110.326 154.45 114.025C153.962 116.712 155.442 119.13 157.853 120.246C161.186 121.789 164.522 123.326 167.853 124.875C173.918 127.695 178.759 132.781 181.02 139.111C181.754 141.165 182.247 143.311 182.898 145.394C183.53 147.418 184.209 149.428 184.925 151.424C188.354 160.992 192.537 170.322 197.426 179.232C202.434 188.357 208.245 197.274 215.56 204.731C221.539 210.827 229.052 216.348 237.807 217.162C247.367 218.051 255.703 212.359 261.773 205.494C266.682 199.942 270.697 193.596 273.391 186.686C276.468 178.796 277.91 170.342 278.509 161.923C279.614 146.416 277.484 130.887 273.215 115.978C269.033 101.371 262.966 87.3929 256.697 73.5816C250.354 59.6067 243.751 45.7233 238.48 31.2949C237.196 27.7782 235.993 24.2322 234.887 20.655C234.691 20.0203 234.102 19.739 233.472 19.8514C227.867 20.8511 222.263 21.8508 216.658 22.8505C210.048 24.0297 203.437 25.2089 196.827 26.388C194.621 26.7816 194.869 29.6167 194.894 31.3641C194.955 35.6513 195.476 39.9458 196.001 44.1963C196.381 47.2689 196.686 50.4036 197.397 53.4225C198.753 59.179 200.891 65.3725 205.494 69.3637C208.192 71.7037 211.54 73.0711 215.132 73.0999C217.364 73.1178 221.31 72.7044 221.009 76.1512C220.883 77.5998 219.533 78.5639 218.358 79.1954C216.944 79.9553 215.364 80.3898 213.785 80.6413C210.459 81.1711 206.971 80.8448 203.705 80.1037C202.176 79.7569 200.674 79.3045 199.21 78.744C197.826 78.2142 197.227 80.4381 198.598 80.9631C204.654 83.2809 212.265 84.3311 218.391 81.7164C221.268 80.4884 224.025 78.0465 223.134 74.6027C222.327 71.482 219.456 70.7438 216.594 70.774C214.667 70.7943 212.852 70.7363 211.016 70.0674C209.598 69.5513 208.258 68.7229 207.121 67.7365C204.822 65.7431 203.208 63.1139 202.001 60.3463C200.387 56.6431 199.473 52.691 198.902 48.7082C198.31 44.575 197.806 40.4127 197.464 36.245C197.306 34.3245 197.166 32.392 197.194 30.4638C197.199 30.1274 197.209 29.7907 197.232 29.455C197.243 29.2948 197.257 29.135 197.274 28.9753C197.28 28.9135 197.308 28.7465 197.265 29.0233C197.277 28.946 197.286 28.8655 197.304 28.7892C197.327 28.6892 197.355 28.5856 197.373 28.4849C197.419 28.2324 197.525 28.3401 197.361 28.4668C197.621 28.2658 197.028 28.7117 196.981 28.6886C197.243 28.819 198.217 28.4681 198.491 28.4193L202.282 27.743C206.185 27.0468 210.088 26.3505 213.992 25.6543C220.565 24.4818 227.138 23.3092 233.712 22.1367L234.084 22.0703L232.668 21.2667C237.109 35.6348 243.167 49.4245 249.392 63.0916C255.547 76.6063 261.9 90.0626 266.93 104.051C271.955 118.025 275.592 132.556 276.352 147.431C276.758 155.384 276.432 163.438 275.125 171.3C273.789 179.337 271.365 187.267 267.153 194.283C263.988 199.554 260.079 204.593 255.373 208.58C252.113 211.341 248.314 213.551 244.115 214.485C236.437 216.193 228.839 212.902 222.774 208.147C215.122 202.148 209.143 194.122 204.02 185.938C198.585 177.256 193.993 168.023 190.115 158.547C188.441 154.456 186.897 150.311 185.537 146.105C184.963 144.33 184.425 142.543 183.932 140.743C183.037 137.475 181.631 134.365 179.626 131.624C177.577 128.822 175.041 126.421 172.106 124.562C170.549 123.576 168.881 122.826 167.214 122.054L161.092 119.22C159.801 118.623 157.959 118.08 157.164 116.824C155.491 114.178 158.31 110.77 161.222 112.024C162.549 112.595 163.735 110.707 162.384 110.037C160.781 109.242 159.906 107.441 160.633 105.719C161.326 104.078 163.31 103.262 164.951 103.968C166.277 104.539 167.464 102.651 166.113 101.981C164.51 101.186 163.635 99.3851 164.362 97.6629C165.054 96.0226 167.039 95.2058 168.68 95.9123C170.006 96.4833 171.193 94.5957 169.841 93.9252C168.371 93.1958 167.5 91.6486 167.957 90.01C168.376 88.5097 169.834 87.4838 171.391 87.6097C172.641 87.7109 173.944 88.5673 175.051 89.0801C178.941 90.8811 182.83 92.6821 186.719 94.4831C187.391 94.7942 188.048 95.1156 188.79 95.23C190.881 95.5525 192.897 94.517 193.93 92.6869C194.659 91.3955 192.672 90.2343 191.943 91.5255Z" fill="#1A1A1A"/>
<path d="M181.885 99.5304C180.428 98.8519 178.97 98.1733 177.512 97.4947C175.202 96.4193 172.892 95.3438 170.582 94.2684C170.048 94.0196 169.513 93.7708 168.979 93.522C168.416 93.2599 167.739 93.3636 167.404 93.9348C167.113 94.4327 167.251 95.2456 167.817 95.509C169.275 96.1876 170.733 96.8662 172.19 97.5448C174.5 98.6202 176.81 99.6956 179.121 100.771C179.655 101.02 180.189 101.269 180.724 101.517C181.287 101.78 181.964 101.676 182.298 101.105C182.589 100.607 182.451 99.7939 181.885 99.5304Z" fill="#1A1A1A"/>
<path d="M178.212 107.642C176.754 106.963 175.297 106.285 173.839 105.606C171.529 104.531 169.219 103.455 166.909 102.38C166.374 102.131 165.84 101.882 165.306 101.634C164.743 101.372 164.065 101.475 163.731 102.046C163.44 102.544 163.578 103.357 164.144 103.621C165.602 104.299 167.059 104.978 168.517 105.656C170.827 106.732 173.137 107.807 175.447 108.883C175.982 109.131 176.516 109.38 177.051 109.629C177.614 109.891 178.291 109.788 178.625 109.216C178.916 108.718 178.778 107.906 178.212 107.642Z" fill="#1A1A1A"/>
<path d="M174.539 115.754C173.081 115.075 171.624 114.397 170.166 113.718C167.856 112.643 165.546 111.567 163.236 110.492C162.701 110.243 162.167 109.994 161.632 109.745C161.069 109.483 160.392 109.587 160.058 110.158C159.767 110.656 159.905 111.469 160.471 111.732C161.929 112.411 163.386 113.089 164.844 113.768C167.154 114.844 169.464 115.919 171.774 116.994C172.309 117.243 172.843 117.492 173.377 117.741C173.94 118.003 174.618 117.899 174.952 117.328C175.243 116.83 175.105 116.017 174.539 115.754Z" fill="#1A1A1A"/>
<path d="M101.796 109.216C103.52 111.897 106.28 113.519 109.445 113.79C110.451 113.876 111.458 113.942 112.464 114.019C116.62 114.333 120.776 114.648 124.931 114.963C126.463 115.079 127.996 115.195 129.528 115.311C130.983 115.422 132.359 115.768 133.067 117.227C134.217 119.596 132.245 122.039 129.774 121.931C128.49 121.875 127.207 121.779 125.924 121.702C122.197 121.481 118.469 121.259 114.741 121.037C114.176 121.004 113.674 121.501 113.611 122.035C113.538 122.647 113.889 123.074 114.435 123.297C116.882 124.301 119.33 125.304 121.777 126.307L126.074 128.068C126.367 128.188 126.666 128.299 126.955 128.429C127.565 128.702 128.467 129.508 128.788 130.436C129.223 131.694 128.836 133.108 127.824 133.974C126.819 134.833 125.509 134.929 124.309 134.468C123.104 134.005 122.227 136.05 123.423 136.571C125.115 137.309 126.101 139.126 125.372 140.923C124.644 142.715 122.667 143.344 120.943 142.682C119.738 142.219 118.861 144.264 120.056 144.785C122.202 145.721 123.059 148.487 121.258 150.234C120.073 151.383 118.525 151.284 117.109 150.704C114.246 149.532 111.383 148.359 108.52 147.187C105.88 146.105 103.175 144.682 100.27 144.599C95.2422 144.455 90.5675 147.827 89.0826 152.622C88.2942 155.167 88.4962 158.026 88.8497 160.631C89.1895 163.134 89.8757 165.542 90.8866 167.855C92.8418 172.331 96.0714 176.155 99.754 179.316C103.634 182.646 108.004 185.353 112.476 187.807C117.784 190.721 123.227 193.385 128.844 195.65C141.458 200.735 154.859 203.844 168.423 204.845C181.453 205.806 195.033 205.037 207.387 200.485C218.82 196.273 229.055 188.572 234.856 177.686C236.355 174.873 237.61 171.866 238.199 168.724C238.811 165.464 238.748 162.17 238.189 158.908C237.632 155.658 236.59 152.514 235.429 149.436C234.218 146.228 232.924 143.046 231.63 139.871C226.409 127.061 220.235 114.565 212.895 102.83C210.369 98.7913 207.648 94.9408 204.267 91.5592C200.101 87.3927 195.207 83.9288 189.882 81.4059C188.178 80.5983 186.423 79.9117 184.671 79.2145C184.094 78.9847 183.408 79.4659 183.256 80.0182C183.076 80.673 183.48 81.2028 184.06 81.4336C188.531 83.2133 192.786 85.2841 196.702 88.1121C201.333 91.4567 205.387 95.6465 208.591 100.375C211.435 104.571 213.979 108.995 216.441 113.422C219.807 119.474 222.911 125.671 225.761 131.983C228.545 138.151 231.145 144.439 233.486 150.789C235.688 156.76 237.253 163.085 235.698 169.416C234.279 175.196 230.882 180.584 226.925 184.965C222.975 189.337 218.227 192.872 212.987 195.551C201.55 201.397 188.42 203.08 175.715 202.872C162.405 202.655 149.161 200.314 136.551 196.056C130.309 193.949 124.26 191.352 118.402 188.341C113.97 186.062 109.568 183.684 105.472 180.834C101.601 178.141 97.9424 174.953 95.277 171.029C92.5248 166.977 91.0079 162.292 90.8844 157.393C90.8222 154.931 91.1471 152.627 92.6425 150.594C93.9362 148.836 95.8739 147.609 97.9919 147.118C101.052 146.408 103.713 147.688 106.457 148.811C109.515 150.064 112.573 151.316 115.631 152.568C116.701 153.007 117.71 153.458 118.902 153.464C121.501 153.475 123.902 151.63 124.42 149.057C124.934 146.505 123.623 143.847 121.218 142.798C120.922 143.499 120.627 144.2 120.331 144.901C123.131 145.975 126.335 144.568 127.479 141.811C128.62 139.06 127.322 135.779 124.584 134.584C124.289 135.285 123.993 135.986 123.698 136.687C126.674 137.83 130.039 136.161 131.017 133.149C131.954 130.267 130.254 127.326 127.567 126.21C124.577 124.968 121.576 123.754 118.581 122.527C117.403 122.044 116.225 121.561 115.047 121.078L114.741 123.339C118.113 123.539 121.485 123.739 124.856 123.94C126.418 124.033 127.98 124.126 129.542 124.219C132.157 124.374 134.555 122.918 135.414 120.393C136.575 116.979 134.055 113.445 130.568 113.09C129.688 113.001 128.801 112.955 127.919 112.888C123.646 112.564 119.373 112.241 115.1 111.917L109.961 111.528C107.429 111.336 105.189 110.242 103.783 108.055C102.985 106.813 100.992 107.966 101.796 109.216Z" fill="#1A1A1A"/>
<path d="M108.912 140.202C112.632 141.731 116.352 143.26 120.072 144.789C120.589 145.002 121.107 145.215 121.624 145.427C122.199 145.664 122.889 145.171 123.04 144.624C123.221 143.963 122.813 143.446 122.236 143.208C118.516 141.679 114.796 140.15 111.076 138.621C110.559 138.408 110.041 138.196 109.524 137.983C108.949 137.747 108.259 138.239 108.109 138.787C107.927 139.447 108.335 139.965 108.912 140.202Z" fill="#1A1A1A"/>
<path d="M112.279 131.937C115.999 133.466 119.719 134.996 123.439 136.525C123.956 136.737 124.474 136.95 124.991 137.163C125.566 137.399 126.256 136.907 126.407 136.359C126.588 135.699 126.18 135.181 125.603 134.944C121.883 133.415 118.163 131.886 114.443 130.356C113.926 130.144 113.408 129.931 112.891 129.718C112.316 129.482 111.626 129.974 111.476 130.522C111.294 131.182 111.702 131.7 112.279 131.937Z" fill="#1A1A1A"/>
<path d="M215.611 48.2801C214.746 50.8787 210.939 48.3038 213.044 46.4167C214.481 45.1284 216.16 46.628 215.611 48.2801Z" fill="#1A1A1A"/>
<path d="M214.872 48.0762C214.853 48.1321 214.832 48.1872 214.81 48.2418L214.887 48.0586C214.845 48.1577 214.797 48.2541 214.739 48.3454C214.694 48.4174 214.571 48.5383 214.76 48.3311C214.728 48.3656 214.7 48.4032 214.668 48.437C214.637 48.4696 214.604 48.4996 214.57 48.5296C214.46 48.6285 214.759 48.3979 214.605 48.5013C214.536 48.548 214.462 48.5867 214.385 48.6192L214.568 48.5419C214.461 48.5852 214.35 48.614 214.235 48.6294L214.439 48.602C214.31 48.6174 214.181 48.6156 214.052 48.5992L214.256 48.6266C214.096 48.6042 213.941 48.56 213.792 48.4981L213.976 48.5754C213.864 48.5275 213.756 48.4708 213.654 48.4043C213.63 48.3886 213.606 48.3724 213.583 48.3557C213.571 48.3474 213.56 48.3386 213.548 48.3303C213.46 48.269 213.696 48.4503 213.644 48.4041C213.598 48.3638 213.55 48.3258 213.506 48.2834C213.464 48.2438 213.424 48.2024 213.387 48.1593C213.365 48.1352 213.346 48.1097 213.325 48.0854C213.274 48.0276 213.448 48.2534 213.406 48.1899C213.398 48.1781 213.389 48.167 213.38 48.1554C213.309 48.0545 213.249 47.9468 213.2 47.8334L213.277 48.0166C213.226 47.8936 213.189 47.7663 213.17 47.6343L213.198 47.8382C213.182 47.7179 213.182 47.5975 213.196 47.4771L213.169 47.681C213.186 47.5532 213.22 47.4301 213.269 47.3108L213.192 47.4941C213.231 47.4029 213.278 47.3153 213.332 47.2322C213.375 47.1661 213.507 47.0249 213.322 47.2358C213.36 47.193 213.395 47.1487 213.434 47.1072C213.476 47.0632 213.519 47.0209 213.563 46.9801C213.591 46.9544 213.621 46.9302 213.649 46.9049C213.751 46.8139 213.501 47.0067 213.62 46.9266C213.742 46.8439 213.864 46.7696 214 46.7114L213.817 46.7887C213.939 46.7394 214.064 46.7042 214.194 46.6844L213.99 46.7118C214.121 46.6947 214.252 46.6944 214.383 46.7118L214.179 46.6844C214.296 46.7024 214.408 46.7334 214.517 46.7777L214.334 46.7003C214.424 46.7388 214.509 46.7842 214.59 46.8387C214.731 46.9336 214.445 46.7143 214.575 46.8256C214.613 46.8577 214.649 46.8916 214.683 46.9271C214.712 46.9563 214.748 47.0222 214.783 47.0391C214.779 47.0373 214.663 46.8752 214.718 46.9558C214.732 46.9768 214.747 46.9972 214.761 47.0183C214.82 47.1089 214.87 47.2047 214.913 47.3042L214.836 47.121C214.897 47.2704 214.938 47.4243 214.961 47.5841L214.934 47.3802C214.955 47.5502 214.955 47.7192 214.934 47.8893L214.962 47.6854C214.943 47.8186 214.913 47.9482 214.872 48.0762C214.748 48.4582 215.016 48.9305 215.407 49.0198C215.827 49.1154 216.219 48.8931 216.351 48.484C216.712 47.3644 216.297 45.9683 215.201 45.4182C214.657 45.1454 214.017 45.0765 213.441 45.2965C212.851 45.5218 212.353 45.929 212.007 46.4578C211.531 47.1882 211.544 48.1615 212.026 48.8859C212.498 49.5957 213.245 50.053 214.093 50.1383C214.523 50.1816 214.998 50.0733 215.361 49.8377C215.856 49.5172 216.164 49.0347 216.351 48.484C216.48 48.1037 216.203 47.6287 215.815 47.5404C215.39 47.4435 215.01 47.669 214.872 48.0762Z" fill="#1A1A1A"/>
<path d="M205.182 52.0907C204.316 54.6893 200.51 52.1144 202.615 50.2273C204.052 48.939 205.731 50.4386 205.182 52.0907Z" fill="#1A1A1A"/>
<path d="M204.442 51.8868C204.423 51.9427 204.403 51.9978 204.381 52.0524L204.458 51.8692C204.416 51.9683 204.368 52.0648 204.31 52.156C204.265 52.228 204.142 52.3489 204.331 52.1417C204.299 52.1762 204.271 52.2138 204.239 52.2476C204.207 52.2802 204.174 52.3102 204.141 52.3402C204.031 52.4391 204.33 52.2085 204.176 52.3119C204.106 52.3586 204.033 52.3974 203.956 52.4299L204.139 52.3525C204.032 52.3958 203.921 52.4246 203.806 52.44L204.01 52.4126C203.881 52.4281 203.752 52.4263 203.623 52.4098L203.827 52.4372C203.667 52.4148 203.512 52.3707 203.363 52.3087L203.546 52.386C203.435 52.3381 203.327 52.2814 203.225 52.2149C203.201 52.1992 203.177 52.183 203.154 52.1663C203.142 52.158 203.131 52.1492 203.119 52.141C203.031 52.0796 203.267 52.2609 203.214 52.2147C203.168 52.1744 203.121 52.1364 203.076 52.094C203.035 52.0544 202.995 52.013 202.957 51.9699C202.936 51.9458 202.917 51.9203 202.895 51.896C202.845 51.8382 203.019 52.064 202.976 52.0005C202.969 51.9887 202.96 51.9776 202.951 51.966C202.88 51.8651 202.82 51.7574 202.77 51.644L202.848 51.8273C202.796 51.7042 202.76 51.5769 202.741 51.4449L202.769 51.6489C202.753 51.5285 202.752 51.4081 202.767 51.2877L202.74 51.4916C202.757 51.3638 202.791 51.2407 202.84 51.1214L202.763 51.3047C202.802 51.2135 202.849 51.126 202.903 51.0428C202.946 50.9767 203.078 50.8355 202.893 51.0465C202.931 51.0036 202.966 50.9593 203.005 50.9178C203.047 50.8739 203.09 50.8315 203.134 50.7907C203.162 50.765 203.191 50.7409 203.22 50.7155C203.321 50.6245 203.072 50.8173 203.191 50.7372C203.313 50.6545 203.435 50.5802 203.571 50.522L203.388 50.5993C203.51 50.5501 203.635 50.5148 203.765 50.495L203.561 50.5224C203.692 50.5053 203.823 50.505 203.954 50.5224L203.75 50.495C203.867 50.513 203.979 50.5441 204.088 50.5883L203.905 50.511C203.994 50.5494 204.08 50.5948 204.161 50.6493C204.302 50.7442 204.016 50.5249 204.146 50.6362C204.184 50.6683 204.22 50.7022 204.254 50.7377C204.283 50.7669 204.319 50.8328 204.354 50.8497C204.35 50.8479 204.234 50.6858 204.289 50.7664C204.303 50.7874 204.318 50.8078 204.332 50.829C204.391 50.9195 204.441 51.0153 204.484 51.1148L204.406 50.9316C204.468 51.0811 204.509 51.2349 204.532 51.3947L204.505 51.1908C204.526 51.3608 204.526 51.5298 204.505 51.6999L204.533 51.496C204.514 51.6292 204.484 51.7588 204.442 51.8868C204.319 52.2688 204.586 52.7411 204.978 52.8304C205.398 52.9261 205.79 52.7037 205.922 52.2946C206.283 51.175 205.868 49.7789 204.772 49.2288C204.228 48.956 203.588 48.8871 203.012 49.1072C202.422 49.3324 201.924 49.7396 201.578 50.2684C201.102 50.9988 201.115 51.9721 201.596 52.6965C202.069 53.4063 202.816 53.8636 203.664 53.949C204.094 53.9922 204.569 53.8839 204.932 53.6483C205.427 53.3278 205.735 52.8453 205.922 52.2946C206.051 51.9143 205.774 51.4393 205.386 51.351C204.961 51.2541 204.581 51.4796 204.442 51.8868Z" fill="#1A1A1A"/>
<path d="M207.758 49.7188C208.312 49.955 208.59 50.2491 208.499 50.8779C208.412 51.4748 208.109 52.0264 207.81 52.5398C207.13 53.7072 206.116 55.0204 206.377 56.4558C206.498 57.1228 206.976 57.7524 207.639 57.9524C208.335 58.1621 209.086 57.9111 209.733 57.6524C210.981 57.1534 212.095 56.3623 212.947 55.3191C213.208 54.9985 213.26 54.5479 212.947 54.2343C212.676 53.964 212.125 53.9118 211.862 54.2343C211.126 55.1349 210.184 55.8666 209.084 56.2657C208.776 56.3775 208.122 56.7155 207.923 56.3042C207.701 55.8441 208.051 55.2086 208.261 54.8036C208.819 53.7314 209.591 52.7641 209.911 51.5789C210.27 50.2458 209.852 48.956 208.532 48.3941C208.151 48.2319 207.71 48.2802 207.483 48.6692C207.294 48.9916 207.375 49.5555 207.758 49.7188Z" fill="#1A1A1A"/>
<path d="M118.232 230.193C124.348 237.812 133.483 242.663 142.334 246.381C153.764 251.183 165.873 254.31 178.016 256.69C190.926 259.221 204.018 260.872 217.137 261.824C228.412 262.642 239.766 262.993 251.061 262.393C257.554 262.049 265.638 261.593 269.636 255.603C271.542 252.748 271.865 248.874 269.654 246.094C267.677 243.609 264.394 242.814 261.369 242.589C257.16 242.275 252.838 242.897 248.644 243.217C243.615 243.6 238.588 244.015 233.562 244.447C223.696 245.295 213.836 246.21 203.973 247.083C184.178 248.837 164.368 250.374 144.501 250.987C125.191 251.584 105.799 251.719 86.5707 249.578C76.9875 248.511 67.595 246.708 58.2193 244.489C52.6804 243.177 46.0211 242.152 40.754 244.934C34.6919 248.137 33.3923 256.498 37.8611 261.609C38.8098 262.694 40.1063 263.643 41.5685 262.905C42.7305 262.319 43.3506 260.899 43.2224 259.639C42.8758 256.229 38.4824 256.222 36.0109 256.859C31.2234 258.092 27.5572 261.778 24.8824 265.771C21.7198 270.491 19.6432 275.948 18.126 281.396C16.6523 286.689 15.6823 292.163 15.3326 297.648C15.0077 302.744 14.6207 310.709 21.1723 311.761C25.0457 312.384 29.252 310.799 32.9303 309.79C37.4351 308.554 41.9228 307.225 46.5115 306.328C56.1853 304.437 65.9959 305.328 75.6464 306.904C94.7226 310.02 113.673 313.794 132.821 316.482C151.762 319.14 170.859 321.003 190.002 320.95C208.725 320.897 227.537 319 245.69 314.304C261.078 310.323 276.194 304.084 288.686 294.09C298.649 286.119 306.37 275.896 310.134 263.64C313.213 253.619 313.811 242.558 310.933 232.417C308.165 222.661 301.911 214.081 292.761 209.453C287.731 206.908 282.208 205.641 276.606 205.25C275.128 205.147 275.134 207.448 276.606 207.551C286.865 208.267 296.698 212.52 302.903 220.958C308.651 228.774 310.794 238.677 310.443 248.251C310.072 258.384 306.949 268.483 301.437 277.001C293.652 289.035 281.354 297.766 268.551 303.788C253.655 310.794 237.266 314.594 221.003 316.699C203.238 318.999 185.246 319.085 167.392 317.886C149.231 316.667 131.189 314.126 113.242 311.15C104.219 309.654 95.2155 308.046 86.2132 306.431C77.3345 304.839 68.4009 303.09 59.3527 302.935C50.3697 302.78 41.9295 304.911 33.3401 307.289C31.214 307.878 29.0846 308.458 26.9383 308.969C25.2203 309.379 23.4071 309.78 21.6346 309.512C17.9813 308.96 17.6205 305.201 17.5351 302.161C17.4029 297.453 17.9958 292.709 18.9037 288.097C19.9641 282.711 21.5029 277.345 23.8372 272.366C25.8758 268.017 28.6051 263.531 32.7081 260.844C34.5154 259.661 36.936 258.558 39.152 258.794C39.8696 258.87 40.9929 259.2 40.9449 260.099C40.8819 261.28 40.0778 260.633 39.6244 260.131C38.431 258.812 37.7013 257.065 37.5083 255.302C37.1582 252.102 38.5928 248.928 41.3564 247.239C43.788 245.753 46.7555 245.456 49.5468 245.535C52.3702 245.615 55.1625 246.116 57.9024 246.778C62.1977 247.816 66.4964 248.797 70.8447 249.591C88.7091 252.854 106.906 253.741 125.037 253.664C143.645 253.586 162.244 252.709 180.797 251.311C199.427 249.906 218.018 248.058 236.634 246.486C241.287 246.093 245.943 245.718 250.6 245.371C254.393 245.088 258.326 244.518 262.128 244.96C265.189 245.316 268.718 246.742 268.911 250.3C269.128 254.276 265.537 257.163 262.154 258.418C256.953 260.349 250.844 260.177 245.346 260.309C240.107 260.434 234.864 260.378 229.626 260.197C217.576 259.778 205.536 258.714 193.601 257.001C181.472 255.259 169.391 252.877 157.642 249.367C147.618 246.372 137.54 242.588 128.844 236.663C125.5 234.385 122.399 231.729 119.86 228.566C118.932 227.411 117.313 229.048 118.232 230.193Z" fill="#1A1A1A"/>
<path d="M141.941 55.6487C143.448 56.342 144.955 57.0354 146.462 57.7288C150.079 59.3932 153.695 61.0577 157.312 62.7221C161.673 64.7285 166.033 66.735 170.393 68.7415C174.161 70.4752 177.928 72.209 181.696 73.9428C183.527 74.7856 185.354 75.64 187.191 76.4713C187.216 76.483 187.242 76.4951 187.268 76.5071C187.832 76.7667 188.507 76.6672 188.842 76.0943C189.133 75.5983 188.997 74.781 188.43 74.52C186.923 73.8267 185.416 73.1333 183.909 72.4399C180.292 70.7755 176.675 69.111 173.059 67.4466C168.698 65.4402 164.338 63.4337 159.978 61.4273C156.21 59.6935 152.443 57.9597 148.675 56.2259C146.844 55.3831 145.017 54.5287 143.18 53.6974C143.154 53.6857 143.129 53.6736 143.103 53.6617C142.539 53.402 141.864 53.5016 141.529 54.0744C141.238 54.5704 141.374 55.3877 141.941 55.6487Z" fill="white"/>
<path d="M215.526 71.9035C219.939 71.5024 225.51 70.0747 228.566 67.1192C228.798 66.8941 229.289 66.729 229.346 67.0477C229.364 67.1509 229.263 67.2369 229.255 67.3414C228.964 71.1012 224.321 76.1847 222.346 78.1209C222.346 78.1209 221.944 71.9035 220.34 71.9035H215.526Z" fill="#1A1A1A"/>
<path d="M215.526 73.0541C218.115 72.8141 220.701 72.3324 223.161 71.4764C224.397 71.046 225.617 70.5282 226.754 69.8753C227.26 69.5849 227.748 69.2647 228.213 68.9126C228.5 68.6949 228.784 68.4721 229.054 68.233C229.164 68.136 229.266 68.0247 229.379 67.9327C229.266 68.014 229.266 68.0199 229.38 67.9504C229.111 68.1122 228.819 68.0573 228.507 67.786C228.408 67.6168 228.309 67.4475 228.211 67.2783L228.237 67.3536V66.7418C228.344 66.5761 228.324 66.6408 228.177 66.9358C228.13 67.066 228.106 67.2011 228.105 67.3414C228.1 67.4015 228.094 67.4615 228.088 67.5214C228.11 67.3669 228.111 67.3561 228.091 67.4891C228.044 67.7408 227.993 67.9897 227.924 68.2366C227.852 68.4965 227.766 68.7527 227.67 69.005C227.655 69.0436 227.493 69.434 227.587 69.2179C227.53 69.3499 227.47 69.4809 227.408 69.611C226.893 70.697 226.242 71.7173 225.541 72.6922C224.442 74.2211 223.004 75.8613 221.532 77.3072C222.187 77.5784 222.841 77.8497 223.496 78.1208C223.402 76.6784 223.213 75.2097 222.854 73.8089C222.633 72.9443 222.328 71.9749 221.675 71.3316C220.849 70.5169 219.564 70.7528 218.506 70.7528H215.526C214.905 70.7528 214.376 71.2817 214.376 71.9034C214.376 72.5274 214.902 73.0541 215.526 73.0541L219.511 73.054C219.759 73.054 220.009 73.0611 220.257 73.054C220.579 73.0447 220.053 72.9945 220.193 73.0339C220.342 73.0757 220.019 72.9534 220.032 72.96C220.07 72.9782 220.108 72.9988 220.142 73.0233C220.015 72.9318 219.936 72.863 220.082 72.9929C220.263 73.1546 219.995 72.8392 220.063 72.9594C220.145 73.106 220.232 73.2475 220.31 73.3972C220.434 73.6354 220.246 73.2067 220.312 73.3961C220.343 73.4845 220.379 73.5712 220.41 73.6598C220.484 73.8728 220.548 74.0893 220.606 74.3071C220.719 74.7315 220.809 75.162 220.886 75.5942C220.923 75.8008 220.957 76.0078 220.989 76.2153C221.004 76.315 221.018 76.4148 221.032 76.5147C221.07 76.7759 221.006 76.291 221.043 76.6017C221.105 77.1067 221.162 77.613 221.195 78.1207C221.259 79.0959 222.417 79.6635 223.159 78.9343C224.326 77.7888 225.423 76.569 226.439 75.2881C227.746 73.6404 228.944 71.9083 229.753 69.9576C229.916 69.5649 230.06 69.1646 230.169 68.7535C230.222 68.5533 230.268 68.351 230.302 68.1468C230.324 68.02 230.34 67.8925 230.357 67.765C230.367 67.694 230.387 67.5983 230.389 67.5213C230.395 67.2488 230.36 67.7351 230.326 67.7271C230.462 67.7596 230.474 66.8783 230.476 66.8946C230.446 66.6624 230.362 66.4657 230.224 66.2752C229.977 65.9335 229.57 65.7236 229.145 65.7208C228.467 65.7164 227.985 66.1023 227.51 66.5317C227.344 66.6819 227.172 66.826 226.997 66.966C227.126 66.8634 226.86 67.0681 226.822 67.096C226.713 67.1751 226.603 67.2525 226.491 67.328C226.067 67.6159 225.625 67.8788 225.173 68.1207C224.202 68.64 223.459 68.9461 222.429 69.2986C221.268 69.6962 220.077 70.0093 218.875 70.2554C218.287 70.3756 217.696 70.4797 217.103 70.568C217.043 70.5769 216.983 70.5856 216.922 70.5943C216.902 70.5971 216.683 70.6275 216.776 70.6151C216.886 70.6003 216.691 70.6257 216.691 70.6258C216.593 70.6378 216.494 70.6503 216.396 70.6619C216.107 70.696 215.817 70.7259 215.526 70.7528C214.908 70.8102 214.376 71.2406 214.376 71.9034C214.376 72.4813 214.904 73.1118 215.526 73.0541Z" fill="#1A1A1A"/>
<path d="M216.371 59.2301C216.96 58.778 217.558 58.3201 218.046 57.7557C218.277 57.489 218.499 57.2023 218.66 56.887C218.752 56.706 218.817 56.5115 218.914 56.3328C218.918 56.3245 218.973 56.2313 218.974 56.2318C218.999 56.2514 218.824 56.3684 218.952 56.269C219.034 56.2059 218.818 56.3074 218.927 56.2902C218.939 56.2882 218.976 56.2664 218.986 56.2584C219.039 56.2168 218.863 56.2867 218.941 56.2805C219.004 56.2755 219.079 56.2447 219.142 56.2306C219.272 56.2012 219.076 56.2307 219.23 56.2208C219.307 56.2159 219.384 56.2108 219.461 56.2094C219.58 56.2072 219.49 56.1976 219.417 56.163C219.324 56.1191 219.458 56.1768 219.437 56.1875C219.339 56.2371 219.484 56.0028 219.422 56.1966C219.42 56.2028 219.38 56.0716 219.402 56.1717C219.409 56.2048 219.416 56.2394 219.425 56.272C219.391 56.1484 219.424 56.2801 219.426 56.3407C219.429 56.4382 219.426 56.536 219.42 56.6333C219.418 56.6747 219.415 56.7161 219.411 56.7575C219.411 56.7551 219.394 56.8889 219.404 56.8197C219.415 56.7502 219.392 56.8836 219.392 56.8809C219.381 56.9349 219.371 56.9889 219.358 57.0426C219.318 57.2178 219.266 57.3901 219.206 57.5593C219.192 57.5986 219.177 57.6375 219.163 57.6767C219.157 57.693 219.115 57.7965 219.144 57.7261C219.101 57.8297 219.052 57.9314 219.002 58.032C218.913 58.21 218.818 58.3844 218.718 58.5561C218.503 58.9245 218.266 59.2796 218.028 59.6332C217.722 60.0863 218.062 60.5872 218.486 60.76C219.322 61.1001 220.303 61.1094 221.149 60.798C221.524 60.6597 221.82 60.2717 221.684 59.8544C221.565 59.4862 221.144 59.1702 220.741 59.3187C220.579 59.3784 220.416 59.4224 220.248 59.4603C220.101 59.4934 220.253 59.4711 220.113 59.4795C220.013 59.4855 219.914 59.4904 219.814 59.4887C219.728 59.4873 219.643 59.4832 219.558 59.4737C219.504 59.4684 219.501 59.468 219.55 59.4725C219.507 59.4655 219.465 59.4572 219.424 59.4478C219.241 59.4084 219.067 59.3508 218.894 59.2806C219.047 59.6562 219.2 60.0318 219.353 60.4074C219.851 59.6684 220.321 58.9197 220.642 58.0844C220.951 57.2801 221.131 56.264 220.76 55.4529C220.334 54.5232 219.06 54.5293 218.255 54.914C217.706 55.1758 217.571 55.6726 217.309 56.1628C217.263 56.25 217.211 56.3343 217.156 56.4165C217.134 56.449 217.112 56.4809 217.089 56.5129C216.948 56.7155 217.13 56.4673 217.039 56.5781C216.891 56.7578 216.73 56.9265 216.563 57.0877C216.403 57.2412 216.236 57.3878 216.066 57.5299C215.972 57.6082 215.877 57.6851 215.781 57.761C215.75 57.7859 215.718 57.8105 215.687 57.8352C215.485 57.9946 215.796 57.7526 215.597 57.9053C215.269 58.1571 215.094 58.5655 215.322 58.9548C215.51 59.2778 216.04 59.4838 216.371 59.2301Z" fill="#1A1A1A"/>
<path d="M234.726 47.7112C235.046 46.8801 235.151 45.9433 235.105 45.0484C234.993 42.8945 234.061 40.7349 232.366 39.4015C230.069 37.5946 226.076 37.6282 224.826 40.7053C224.646 41.1495 224.628 41.6412 224.63 42.1206C224.638 43.9969 224.912 45.8719 225.44 47.6723C225.605 48.2344 225.766 48.9254 225.349 49.3378C225 49.6839 224.392 49.6203 223.994 49.3312C223.596 49.0421 223.359 48.5877 223.135 48.1499C221.759 45.458 220.642 42.6808 218.491 40.5252C218.026 40.0598 217.493 39.6292 216.856 39.4635C216.333 39.3272 215.781 39.3804 215.245 39.4505C208.905 40.2792 202.956 43.3303 196.571 43.6679C195.806 40.6657 194.998 38.1075 193.874 35.2178C192.653 32.0792 191.835 28.7833 191.454 25.4369C191.155 22.8037 191.252 19.8043 193.16 17.9648C194.919 16.2695 197.814 16.1519 199.992 17.2569C202.17 18.3619 203.695 20.4715 204.64 22.7235C203.424 23.052 202.144 22.114 201.686 20.9401C201.228 19.7662 201.398 18.4468 201.668 17.2159C202.025 15.5862 202.559 13.9641 203.53 12.608C205.544 9.79781 209.465 8.5254 212.746 9.61777C216.026 10.7101 218.401 14.0794 218.328 17.536C216.472 15.9391 217.404 12.828 219.009 10.9783C221.099 8.56916 225.074 7.06741 227.374 9.27678C228.482 10.3408 228.899 11.9945 229.492 13.3582C230.239 15.0763 230.732 16.8081 230.729 18.6985C230.166 17.9065 230.11 16.7859 230.59 15.9415C231.071 15.0972 232.063 14.573 233.031 14.6519C234.201 14.7473 235.161 15.6233 235.854 16.5716C237.051 18.2111 237.732 20.1648 238.324 22.1071C239.945 27.4249 241.022 32.8888 241.933 38.3674C242.772 43.4215 243.857 48.2952 243.632 53.4385C243.62 53.7124 243.602 53.9984 243.463 54.2346C243.09 54.8673 242.153 54.7685 241.455 54.5417C238.439 53.5629 235.709 51.7218 233.67 49.293C234.151 48.8581 234.495 48.3123 234.726 47.7112Z" fill="#1A1A1A"/>
<path d="M235.836 48.0171C236.623 45.8857 236.282 43.4199 235.35 41.394C234.533 39.62 233.088 38.2037 231.269 37.4929C229.691 36.8762 227.88 36.8785 226.329 37.5674C225.545 37.9155 224.895 38.4756 224.384 39.1585C223.73 40.0325 223.477 41.0367 223.479 42.1206C223.482 43.4201 223.62 44.7252 223.858 46.002C223.963 46.5657 224.092 47.1249 224.245 47.6775C224.305 47.8941 224.374 48.1087 224.424 48.3277C224.427 48.3388 224.469 48.7133 224.459 48.5021C224.464 48.5798 224.464 48.6576 224.458 48.7353C224.449 48.6782 224.461 48.6258 224.493 48.5782C224.534 48.5033 224.615 48.4941 224.661 48.4367L224.746 48.4227C224.62 48.4193 224.595 48.418 224.673 48.4189C224.677 48.3726 224.947 48.5798 224.67 48.4003C224.825 48.5008 224.546 48.2826 224.537 48.2726C224.657 48.4042 224.423 48.108 224.426 48.1119C224.36 48.0068 224.3 47.8979 224.242 47.7886C224.116 47.552 223.997 47.3113 223.877 47.0714C223.402 46.1217 222.948 45.1617 222.455 44.2211C221.444 42.2914 220.191 40.1991 218.372 38.9263C217.277 38.1595 216.059 38.1856 214.793 38.3605C213.672 38.5151 212.563 38.7345 211.462 38.9961C206.508 40.174 201.657 42.2317 196.571 42.5173C196.94 42.7989 197.31 43.0804 197.68 43.362C196.953 40.5175 196.071 37.7237 195.012 34.9852C193.933 32.1978 193.153 29.3042 192.721 26.3455C192.549 25.1619 192.435 23.943 192.49 22.7382C192.52 22.0663 192.549 21.78 192.711 21.1217C192.777 20.8523 192.865 20.5925 192.953 20.3297C192.953 20.3305 193.021 20.1506 192.981 20.2493C192.936 20.3605 193.03 20.1403 193.04 20.119C193.107 19.9783 193.178 19.8403 193.255 19.7054C193.54 19.2072 193.75 18.9489 194.237 18.5434C194.129 18.6335 194.38 18.4425 194.426 18.4121C194.539 18.3377 194.655 18.2679 194.774 18.2031C194.842 18.166 194.912 18.1336 194.98 18.0968C194.98 18.0966 195.152 18.0151 195.054 18.0591C194.943 18.1086 195.162 18.0167 195.185 18.0082C195.276 17.9746 195.368 17.9432 195.46 17.9144C195.721 17.8332 195.988 17.7737 196.257 17.7278C196.085 17.7571 196.367 17.7157 196.419 17.7114C196.596 17.6964 196.773 17.6891 196.951 17.6887C197.089 17.6884 197.228 17.6922 197.366 17.7006C197.426 17.7043 197.485 17.7089 197.544 17.7141C197.57 17.7163 197.814 17.7428 197.688 17.7268C197.807 17.7419 198.242 17.8326 198.469 17.8957C199.639 18.2208 200.665 18.9361 201.552 19.8971C202.005 20.3887 202.291 20.7771 202.664 21.3824C203.043 21.9961 203.365 22.641 203.647 23.3042C203.876 22.7408 204.105 22.1774 204.334 21.614C204.021 21.6883 204.499 21.6522 204.183 21.6387C204.159 21.6377 203.808 21.5928 204.036 21.639C203.924 21.6164 203.812 21.5861 203.705 21.5456C203.903 21.6207 203.566 21.4671 203.56 21.4632C203.224 21.2671 202.977 20.997 202.775 20.5764C202.87 20.774 202.698 20.352 202.701 20.3608C202.659 20.2233 202.625 20.0835 202.597 19.9424C202.559 19.7457 202.55 19.4976 202.552 19.2447C202.555 18.6759 202.632 18.211 202.747 17.6641C202.982 16.5454 203.295 15.4041 203.792 14.4101C204.022 13.9506 204.287 13.5075 204.592 13.0945C204.47 13.2599 204.702 12.9611 204.701 12.9626C204.776 12.8738 204.853 12.7868 204.931 12.7016C205.115 12.5029 205.309 12.3141 205.513 12.1356C206.75 11.0494 208.56 10.3918 210.234 10.3792C210.466 10.3774 210.698 10.3854 210.929 10.4036C211.045 10.4126 211.16 10.4232 211.275 10.4383C211.042 10.4075 211.418 10.4656 211.428 10.4674C211.889 10.5523 212.333 10.6846 212.772 10.8467C213.12 10.9751 212.597 10.7525 212.93 10.9139C213.035 10.9651 213.142 11.0145 213.246 11.0685C213.454 11.1763 213.657 11.2936 213.855 11.4196C214.303 11.7051 214.493 11.8536 214.91 12.2555C215.669 12.9861 216.144 13.6767 216.617 14.6986C216.732 14.9464 216.952 15.6291 217.05 16.0926C217.075 16.2074 217.094 16.3228 217.116 16.4381C217.137 16.5784 217.14 16.5925 217.125 16.4804C217.134 16.558 217.142 16.6358 217.149 16.7137C217.174 16.9873 217.181 17.2612 217.178 17.5358C217.832 17.2646 218.487 16.9934 219.142 16.7222C219.01 16.6046 218.879 16.4816 218.772 16.3405C218.92 16.5352 218.733 16.2589 218.719 16.2363C218.685 16.1778 218.656 16.1176 218.623 16.0584C218.478 15.795 218.661 16.2522 218.586 15.9608C218.57 15.8959 218.546 15.8323 218.529 15.7673C218.502 15.6686 218.483 15.5692 218.464 15.4689C218.502 15.6744 218.465 15.4475 218.46 15.3644C218.45 15.1886 218.452 15.0119 218.464 14.8362C218.463 14.849 218.499 14.5001 218.477 14.6667C218.455 14.8351 218.512 14.4805 218.51 14.4951C218.589 14.091 218.71 13.6882 218.873 13.3095C218.804 13.4694 218.884 13.2921 218.895 13.2689C218.948 13.1663 218.996 13.0617 219.049 12.9597C219.138 12.7903 219.234 12.6243 219.336 12.4621C219.436 12.3017 219.543 12.1454 219.655 11.9928C219.626 12.0324 219.536 12.1353 219.681 11.9606C219.763 11.861 219.847 11.7625 219.934 11.6666C220.511 11.0293 220.913 10.7055 221.603 10.2871C221.931 10.0881 222.273 9.90551 222.627 9.75758C222.423 9.84273 222.77 9.7073 222.776 9.70533C222.846 9.67962 222.918 9.65498 222.989 9.6314C223.201 9.56154 223.416 9.50158 223.634 9.45287C223.723 9.43286 223.813 9.41591 223.903 9.39888C223.959 9.38839 224.196 9.36067 223.974 9.38481C224.151 9.36559 224.329 9.35313 224.507 9.35093C224.682 9.34876 224.856 9.35985 225.031 9.37248C225.259 9.38891 225.081 9.3812 225.034 9.37228C225.169 9.39806 225.304 9.4245 225.437 9.46094C225.503 9.47905 225.569 9.49886 225.634 9.52037C225.662 9.52989 225.971 9.65922 225.743 9.55452C225.901 9.62707 226.054 9.70953 226.201 9.80298C226.26 9.84093 226.319 9.88085 226.376 9.92194C226.213 9.80521 226.401 9.94415 226.439 9.97843C226.602 10.1267 226.759 10.2822 226.897 10.4549C226.784 10.3134 227.023 10.6383 227.011 10.6214C227.057 10.6906 227.102 10.7609 227.145 10.832C227.253 11.0111 227.352 11.1959 227.445 11.3836C227.647 11.7911 227.745 12.0498 227.923 12.5121C228.302 13.4946 228.736 14.4324 229.05 15.4379C229.394 16.5402 229.572 17.5648 229.578 18.6984C230.293 18.5049 231.007 18.3113 231.722 18.1177C231.349 17.5614 231.298 16.9959 231.615 16.4703C231.753 16.2407 231.907 16.1193 232.208 15.9439C232.226 15.9338 232.406 15.8582 232.266 15.912C232.34 15.8834 232.419 15.8597 232.497 15.8392C232.471 15.846 232.846 15.7789 232.7 15.7943C232.649 15.7997 232.967 15.796 233.031 15.8024C232.89 15.7883 233.261 15.8639 233.331 15.8831C233.435 15.9113 233.531 15.9569 233.729 16.0762C234.048 16.2689 234.26 16.4638 234.558 16.7924C234.806 17.0649 234.954 17.2683 235.189 17.629C235.451 18.0324 235.687 18.4534 235.901 18.8844C236.72 20.5322 237.225 22.3781 237.728 24.1652C238.28 26.1259 238.765 28.1052 239.201 30.0949C240.071 34.0685 240.716 38.0836 241.414 42.0895C241.744 43.9858 242.066 45.8854 242.27 47.8003C242.375 48.783 242.451 49.769 242.487 50.7566C242.506 51.2542 242.514 51.7521 242.511 52.25C242.509 52.4874 242.505 52.7247 242.498 52.9619C242.494 53.1092 242.442 53.5697 242.471 53.6114C242.532 53.6984 242.361 53.6745 242.528 53.5823L242.613 53.5271C242.499 53.5904 242.503 53.5935 242.626 53.5362C242.618 53.5231 242.452 53.5818 242.633 53.5553C242.526 53.5709 242.419 53.5602 242.312 53.5611C241.981 53.5641 242.426 53.5915 242.235 53.5539C242.127 53.5328 242.02 53.5078 241.914 53.4783C241.691 53.4163 241.472 53.3371 241.254 53.2586C240.409 52.9541 239.628 52.5841 238.799 52.1059C237.135 51.1456 235.744 49.9685 234.484 48.4793V50.1065C235.11 49.519 235.52 48.8065 235.836 48.0171C236.067 47.4399 235.584 46.7532 235.032 46.6016C234.377 46.4215 233.849 46.826 233.617 47.4053C233.667 47.2787 233.537 47.5722 233.523 47.5984C233.455 47.7307 233.38 47.859 233.298 47.9834C233.224 48.0957 233.208 48.1138 233.171 48.1572C233.073 48.2715 232.966 48.3764 232.857 48.4793C232.376 48.9297 232.465 49.6441 232.857 50.1065C234.13 51.6113 235.662 52.9042 237.349 53.9229C238.238 54.4596 239.176 54.9049 240.141 55.2879C240.959 55.6125 241.841 55.9438 242.736 55.843C243.271 55.7827 243.768 55.6018 244.155 55.2095C244.653 54.705 244.757 54.0356 244.786 53.3589C244.834 52.2316 244.816 51.1015 244.752 49.9752C244.621 47.6944 244.296 45.4272 243.923 43.1749C243.182 38.7049 242.446 34.2227 241.487 29.7934C241.012 27.5958 240.478 25.4103 239.86 23.2481C239.267 21.1688 238.645 19.0456 237.585 17.1479C236.462 15.1381 234.596 13.0944 232.062 13.5804C229.521 14.0678 228.313 17.1586 229.735 19.2793C230.349 20.1945 231.885 19.8932 231.879 18.6985C231.873 17.4852 231.69 16.2674 231.352 15.1022C231.021 13.9624 230.573 13.0184 230.187 12.0184C229.821 11.0672 229.459 10.0876 228.856 9.25646C228.209 8.36398 227.382 7.70962 226.343 7.33504C224.539 6.68491 222.477 7.19771 220.844 8.07078C219.139 8.98252 217.662 10.4418 216.86 12.2122C215.96 14.2002 215.73 16.7578 217.515 18.3495C218.249 19.0046 219.465 18.5684 219.479 17.5359C219.543 12.6263 215.509 8.25551 210.582 8.08282C208.214 7.9998 205.878 8.8566 204.062 10.3582C201.996 12.0663 200.988 14.7044 200.484 17.2674C200.175 18.8369 200.053 20.6415 200.964 22.0499C201.826 23.3832 203.354 24.211 204.946 23.833C205.744 23.6437 205.909 22.7911 205.634 22.1428C204.576 19.6538 202.782 17.2389 200.252 16.1116C197.723 14.9853 194.602 15.1318 192.477 17.0313C190.402 18.8849 190.034 21.905 190.219 24.5273C190.442 27.6688 191.136 30.8154 192.138 33.7967C192.711 35.5011 193.406 37.1612 193.974 38.8678C194.535 40.5504 195.022 42.2557 195.461 43.9738C195.58 44.4394 196.077 44.8462 196.571 44.8185C201.128 44.5625 205.428 43.0313 209.785 41.8123C210.829 41.5204 211.878 41.2477 212.938 41.0189C213.99 40.7916 215.075 40.5261 216.129 40.5295C216.988 40.5322 217.534 41.1491 218.156 41.8469C218.812 42.5832 219.36 43.4107 219.874 44.2995C220.391 45.1943 220.85 46.1212 221.306 47.0487C221.761 47.9761 222.158 49.0116 222.831 49.8073C223.639 50.7635 225.205 51.1042 226.163 50.1513C227.079 49.2394 226.713 47.9988 226.423 46.9148C226.125 45.8046 225.922 44.6728 225.836 43.5265C225.794 42.9639 225.767 42.3961 225.783 41.832C225.789 41.6201 225.795 41.4429 225.846 41.2829C225.849 41.2706 226.017 40.8479 225.904 41.0917C225.947 40.9982 225.994 40.906 226.044 40.8159C226.093 40.7283 226.145 40.6424 226.2 40.5587C226.221 40.5271 226.419 40.275 226.251 40.4772C226.352 40.3554 226.458 40.2385 226.573 40.1292C226.641 40.0647 226.711 40.0047 226.782 39.9439C226.599 40.1006 226.753 39.9649 226.808 39.93C226.977 39.8224 227.148 39.7273 227.324 39.6307C227.585 39.4866 227.103 39.699 227.386 39.6015C227.444 39.5815 227.501 39.5592 227.559 39.5398C227.734 39.4813 227.914 39.4341 228.095 39.3972C228.156 39.3848 228.217 39.3752 228.278 39.3637C228.581 39.3063 228.034 39.371 228.343 39.3582C228.532 39.3504 228.719 39.3353 228.909 39.3386C229.004 39.3403 229.099 39.3444 229.193 39.3509C229.25 39.3547 229.659 39.4107 229.362 39.3621C229.552 39.3932 229.74 39.429 229.926 39.4762C230.113 39.5233 230.297 39.5794 230.478 39.6442C230.515 39.6575 230.812 39.7775 230.56 39.6693C230.677 39.7197 230.793 39.7747 230.906 39.8331C231.687 40.2341 232.274 40.7726 232.741 41.4554C233.91 43.1645 234.358 45.3972 233.617 47.4053C233.402 47.9883 233.857 48.666 234.42 48.8207C235.063 48.9973 235.62 48.6022 235.836 48.0171Z" fill="#1A1A1A"/>
<path d="M201.399 48.3303C201.607 48.1842 201.822 48.0495 202.046 47.929C202.165 47.8648 202.287 47.8045 202.41 47.7481C202.441 47.734 202.471 47.7202 202.502 47.7066C202.579 47.6736 202.565 47.6796 202.46 47.7244C202.48 47.6949 202.59 47.6726 202.625 47.6594C202.863 47.5698 203.106 47.4945 203.352 47.4341C203.476 47.404 203.6 47.3775 203.725 47.3549C203.792 47.3429 203.858 47.3327 203.925 47.3221C204.01 47.3101 203.992 47.3124 203.872 47.3292C203.906 47.3251 203.94 47.3213 203.973 47.3178C204.183 47.2949 204.361 47.2474 204.516 47.0931C204.649 46.96 204.749 46.7418 204.74 46.5507C204.724 46.1724 204.401 45.7369 203.973 45.7836C202.774 45.9146 201.617 46.3081 200.625 47.0056C200.458 47.1226 200.328 47.262 200.272 47.464C200.222 47.6476 200.244 47.8921 200.349 48.0551C200.559 48.3804 201.048 48.5771 201.399 48.3303Z" fill="#1A1A1A"/>
<path d="M210.537 44.1207C210.788 43.9331 211.052 43.7662 211.331 43.6243C211.401 43.5888 211.471 43.555 211.543 43.5226C211.585 43.5034 211.734 43.4142 211.575 43.5075C211.703 43.4325 211.875 43.3943 212.017 43.3509C212.166 43.305 212.318 43.2655 212.471 43.2328C212.528 43.2205 212.585 43.2091 212.643 43.1987C212.684 43.1911 212.943 43.1369 212.729 43.1817C213.027 43.1191 213.362 43.1331 213.665 43.1475C214.066 43.1665 214.45 42.781 214.432 42.3804C214.413 41.9485 214.095 41.6338 213.665 41.6134C212.289 41.548 210.867 41.9691 209.763 42.796C209.597 42.9203 209.468 43.0466 209.41 43.2544C209.36 43.4381 209.383 43.6825 209.488 43.8455C209.692 44.1623 210.194 44.3779 210.537 44.1207Z" fill="#1A1A1A"/>
<path d="M218.02 56.9934C218.471 56.9083 218.909 57.2731 219.068 57.7034C219.227 58.1337 219.177 58.6094 219.125 59.0652C219.479 58.6693 219.75 58.1998 219.916 57.6956C220.019 57.3807 220.08 57.0306 219.958 56.7228C219.835 56.415 219.471 56.1861 219.164 56.3115C218.96 56.5178 218.537 56.2357 218.649 55.9683" fill="#1A1A1A"/>
<path d="M218.224 57.7331C218.093 57.7474 218.068 57.7524 218.151 57.7481L218.194 57.7492C218.061 57.7274 218.035 57.7243 218.117 57.7398L218.158 57.7505C218.299 57.7731 218.02 57.6673 218.135 57.7369C218.156 57.7493 218.223 57.8048 218.248 57.8047C218.153 57.728 218.136 57.7155 218.198 57.7674L218.231 57.7978C218.252 57.8183 218.294 57.8873 218.323 57.897C218.251 57.8004 218.238 57.785 218.284 57.8508L218.308 57.889C218.321 57.9103 218.416 58.0834 218.35 57.9577C218.286 57.8368 218.361 58.005 218.37 58.0377C218.384 58.0905 218.393 58.1441 218.405 58.1972C218.415 58.2559 218.412 58.2329 218.396 58.1283C218.399 58.1555 218.401 58.1827 218.403 58.21C218.407 58.2649 218.408 58.3197 218.409 58.3747C218.41 58.6058 218.384 58.8359 218.358 59.0652C218.325 59.362 218.579 59.6603 218.83 59.7662C219.097 59.8791 219.465 59.8372 219.668 59.6075C219.993 59.2384 220.271 58.8333 220.466 58.3808C220.702 57.8317 220.879 57.25 220.738 56.6493C220.612 56.1149 220.153 55.6355 219.604 55.5398C219.41 55.506 219.232 55.5 219.038 55.5476C218.949 55.5694 218.857 55.6069 218.777 55.6491C218.587 55.7956 218.57 55.8091 218.724 55.6895L218.849 55.6354C218.942 55.6085 219.036 55.6089 219.13 55.6363L219.098 55.6282C219.227 55.689 219.258 55.701 219.19 55.6643L219.29 55.7445C219.235 55.6907 219.253 55.7178 219.344 55.8259C219.316 55.7782 219.319 55.7897 219.353 55.8603C219.387 55.9232 219.401 55.9912 219.397 56.0643C219.368 56.2135 219.365 56.2494 219.389 56.1722C219.518 55.7919 219.24 55.3169 218.853 55.2286C218.428 55.1317 218.048 55.3571 217.909 55.7643C217.754 56.2218 218 56.7394 218.401 56.9796C218.833 57.238 219.332 57.1838 219.706 56.8538L219.368 57.0511C219.393 57.0408 219.419 57.0328 219.446 57.027C219.307 57.0404 219.279 57.0461 219.36 57.0438C219.223 57.0202 219.194 57.0168 219.275 57.0336C219.351 57.0576 219.328 57.0457 219.206 56.9981C219.231 57.01 219.255 57.0233 219.278 57.038C219.343 57.0828 219.325 57.068 219.223 56.9938C219.244 57.0125 219.264 57.0324 219.282 57.0533C219.208 56.9514 219.194 56.9332 219.238 56.9986C219.331 57.182 219.207 56.8739 219.252 57.0306C219.294 57.1781 219.262 56.876 219.257 57.0417C219.255 57.1039 219.275 57.2036 219.249 57.2615C219.265 57.1497 219.265 57.1367 219.249 57.2226C219.242 57.2592 219.233 57.2955 219.224 57.3315C219.192 57.4521 219.159 57.6388 219.084 57.7406C219.124 57.6472 219.133 57.6268 219.11 57.6793C219.099 57.7036 219.088 57.7277 219.076 57.7517C219.046 57.8157 219.014 57.8788 218.98 57.9411C218.913 58.0655 218.839 58.1864 218.758 58.3028C218.738 58.3319 218.718 58.3607 218.697 58.3892C218.647 58.4558 218.655 58.4462 218.72 58.3604C218.696 58.4171 218.624 58.4765 218.583 58.5226C219.019 58.7034 219.456 58.8842 219.892 59.0651C219.966 58.4125 219.986 57.7228 219.644 57.1342C219.48 56.8517 219.233 56.5953 218.948 56.4329C218.588 56.2278 218.219 56.1904 217.816 56.2536C217.639 56.2815 217.445 56.4579 217.358 56.6061C217.262 56.7705 217.221 57.0129 217.281 57.1972C217.341 57.3828 217.456 57.5619 217.633 57.6556C217.827 57.758 218.009 57.7668 218.224 57.7331Z" fill="#1A1A1A"/>
<path d="M26.2394 259.673C19.6741 249.925 16.6981 237.926 17.631 226.232C18.3753 216.902 22.0067 208.048 27.3289 200.402C32.2406 193.346 39.376 186.442 48.2503 185.197C52.6517 184.579 57.7752 185.408 61.2069 188.394C63.0445 189.992 64.4739 192.16 64.8082 194.61C64.8742 195.094 65.0065 195.872 64.7159 196.31C64.4432 196.72 63.956 196.615 63.5482 196.473C62.3816 196.066 61.5539 195.093 60.7596 194.198C53.6741 186.212 50.1353 175.863 49.8508 165.269C49.5667 154.687 52.1875 144.084 56.5085 134.468C59.1186 128.659 62.6115 123.275 66.3591 118.142C70.9304 111.88 76.0751 105.841 82.1461 100.979C84.7396 98.9027 87.6471 96.9734 90.741 95.8112C93.4483 94.7942 96.2544 94.3549 98.9526 95.0611C100.357 95.4288 101.58 96.0346 102.796 96.9258C104.457 98.1427 105.739 99.8413 107.12 101.368C108.61 103.016 110.154 104.637 111.857 106.067C112.657 106.739 113.502 107.429 114.448 107.888C114.816 108.067 115.226 108.25 115.646 108.256C117.127 108.274 117.128 105.973 115.646 105.954C115.944 105.958 115.921 106.08 115.736 105.949C115.71 105.931 115.643 105.912 115.611 105.905C115.402 105.86 115.836 106.014 115.712 105.949C115.574 105.876 115.431 105.813 115.295 105.737C114.124 105.082 113.349 104.363 112.324 103.411C110.289 101.521 108.506 99.4112 106.647 97.3532C105.489 96.0696 104.132 94.9239 102.618 94.0803C96.4618 90.6499 89.4338 93.1732 83.9959 96.7906C77.2254 101.294 71.6327 107.521 66.6845 113.91C62.6294 119.145 58.7458 124.695 55.7797 130.634C50.9136 140.377 47.8305 151.278 47.5488 162.195C47.2625 173.293 50.2119 184.411 57.0381 193.283C58.6472 195.374 60.5915 198.213 63.3455 198.803C64.6421 199.081 66.0139 198.67 66.703 197.471C67.4149 196.232 67.1966 194.62 66.8901 193.292C65.6401 187.877 60.6708 184.326 55.475 183.217C45.8973 181.174 36.9625 186.088 30.512 192.859C24.0514 199.64 19.1294 208.412 16.7664 217.483C13.7189 229.181 15.0603 241.98 19.9249 252.993C21.1337 255.73 22.5813 258.353 24.2525 260.835C25.0754 262.056 27.0698 260.906 26.2394 259.673Z" fill="#1A1A1A"/>
<path d="M65.9902 215.721C67.016 221.814 68.2928 227.864 69.8224 233.851C70.2575 235.554 70.7136 237.252 71.1886 238.944C71.5882 240.368 73.8092 239.763 73.4076 238.332C71.7377 232.383 70.3133 226.366 69.1446 220.299C68.8122 218.573 68.501 216.843 68.2092 215.109C68.106 214.496 67.3491 214.153 66.7938 214.306C66.144 214.484 65.8867 215.106 65.9902 215.721Z" fill="#1A1A1A"/>
<path d="M56.4084 230.233C57.2108 232.51 58.6412 234.431 60.5618 235.885C60.7835 236.053 61.194 236.071 61.4484 236.001C61.7153 235.928 62.0046 235.722 62.1361 235.473C62.2772 235.206 62.3479 234.882 62.2521 234.586C62.1538 234.282 61.9757 234.09 61.7233 233.898C61.5527 233.769 61.8444 233.998 61.7348 233.907C61.6836 233.865 61.6308 233.824 61.5795 233.781C61.487 233.705 61.396 233.627 61.3063 233.547C61.1268 233.388 60.9529 233.223 60.7847 233.052C60.6072 232.871 60.4361 232.684 60.272 232.492C60.1942 232.4 60.1201 232.306 60.0434 232.214C59.9525 232.104 60.1785 232.398 60.0519 232.225C60.0125 232.172 59.9723 232.118 59.9332 232.064C59.644 231.665 59.3821 231.246 59.151 230.81C59.0386 230.598 58.9333 230.383 58.8355 230.164C58.8296 230.15 58.7244 229.91 58.7986 230.081C58.8727 230.252 58.7717 230.01 58.7662 229.996C58.7175 229.872 58.6718 229.747 58.6275 229.621C58.4279 229.055 57.8322 228.617 57.2121 228.818C56.6529 228.999 56.1942 229.625 56.4084 230.233Z" fill="#1A1A1A"/>
<path d="M99.5017 246.573C105.335 243.981 111.377 241.867 117.544 240.224C118.974 239.843 118.367 237.622 116.933 238.005C110.57 239.701 104.358 241.912 98.3402 244.586C97.7723 244.838 97.6385 245.666 97.9274 246.16C98.2697 246.745 98.9316 246.826 99.5017 246.573Z" fill="#1A1A1A"/>
<path d="M160.916 10.4278C161.591 12.4178 162.266 14.4079 162.941 16.398C163.134 16.9668 163.741 17.4007 164.357 17.2016C164.922 17.0188 165.367 16.3965 165.16 15.7862C164.485 13.7962 163.81 11.8061 163.135 9.81601C162.942 9.24722 162.335 8.81325 161.72 9.01237C161.155 9.1952 160.709 9.81748 160.916 10.4278Z" fill="#1A1A1A"/>
<path d="M146.484 19.295C148.023 21.3421 150.042 22.8742 152.436 23.7883C153 24.0034 153.723 23.5506 153.852 22.9846C154.001 22.3279 153.652 21.7996 153.048 21.5693C152.982 21.5441 152.917 21.5188 152.851 21.4927C152.825 21.4824 152.799 21.4718 152.773 21.4611C152.694 21.4287 152.72 21.4402 152.853 21.4956C152.815 21.4302 152.577 21.3735 152.506 21.3399C152.263 21.2264 152.024 21.1046 151.79 20.9748C151.321 20.7146 150.875 20.42 150.443 20.1028C150.301 19.9987 150.442 20.1328 150.474 20.1287C150.451 20.1316 150.334 20.0179 150.309 19.997C150.21 19.9172 150.113 19.8358 150.017 19.7528C149.814 19.5777 149.618 19.3957 149.428 19.2072C149.237 19.0187 149.054 18.8238 148.877 18.6229C148.784 18.5171 148.693 18.4096 148.603 18.3004C148.568 18.2568 148.533 18.2126 148.497 18.1687C148.316 17.9431 148.645 18.3649 148.471 18.1335C148.284 17.8845 148.096 17.6908 147.783 17.6048C147.508 17.5289 147.141 17.5632 146.897 17.7207C146.423 18.0265 146.097 18.7804 146.484 19.295Z" fill="#1A1A1A"/>
<path d="M178.624 11.995C178.265 12.8929 177.905 13.7908 177.546 14.6887C177.443 14.948 177.527 15.3451 177.662 15.5754C177.802 15.814 178.076 16.0416 178.35 16.1041C178.644 16.1712 178.975 16.1567 179.237 15.9881L179.469 15.8082C179.612 15.6647 179.711 15.4954 179.765 15.3005C180.124 14.4026 180.484 13.5047 180.843 12.6068C180.946 12.3475 180.862 11.9505 180.727 11.7202C180.587 11.4815 180.313 11.2539 180.039 11.1914C179.745 11.1243 179.414 11.1388 179.153 11.3074L178.92 11.4873C178.777 11.6309 178.678 11.8001 178.624 11.995Z" fill="#1A1A1A"/>
</svg>
