<svg width="301" height="300" viewBox="0 0 301 300" fill="none" xmlns="http://www.w3.org/2000/svg">
<path d="M117.432 114.171C138.55 114.171 155.67 97.0511 155.67 75.9328C155.67 54.8145 138.55 37.6948 117.432 37.6948C96.3133 37.6948 79.1935 54.8145 79.1935 75.9328C79.1935 97.0511 96.3133 114.171 117.432 114.171Z" fill="#F953B2"/>
<path d="M123.977 111.799C145.095 111.799 162.215 94.6789 162.215 73.5606C162.215 52.4423 145.095 35.3225 123.977 35.3225C102.859 35.3225 85.7388 52.4423 85.7388 73.5606C85.7388 94.6789 102.859 111.799 123.977 111.799Z" fill="#F4D13B"/>
<path d="M123.977 106.014C141.9 106.014 156.43 91.484 156.43 73.5605C156.43 55.637 141.9 41.1072 123.977 41.1072C106.053 41.1072 91.5236 55.637 91.5236 73.5605C91.5236 91.484 106.053 106.014 123.977 106.014Z" fill="white"/>
<path d="M132.36 59.2775C129.854 52.3573 121.4 50.0089 115.074 53.0827C111.766 54.69 109.228 57.3931 108.098 60.9182C107.081 64.0879 107.64 67.7358 109.622 70.4254C111.617 73.1323 114.809 74.8405 118.147 75.1345C120.079 75.3046 121.977 75.1135 123.83 74.5207C124.371 74.3477 124.904 74.1623 125.451 74.0082C126.21 73.7944 125.163 74.0438 125.622 73.9663C125.823 73.9323 126.025 73.9016 126.228 73.8778C126.627 73.831 127.028 73.8056 127.43 73.8022C127.399 73.8025 128.176 73.8181 127.806 73.7999C127.441 73.782 128.198 73.8413 128.172 73.8382C128.516 73.8809 128.858 73.9401 129.197 74.0164C129.345 74.0497 130.258 74.3288 129.77 74.1535C130.191 74.3046 130.602 74.4841 130.998 74.6919C131.155 74.7745 131.811 75.1933 131.388 74.8987C131.687 75.1072 131.975 75.3299 132.248 75.5723C132.356 75.6687 132.457 75.7745 132.566 75.87C133.082 76.3224 132.288 75.4677 132.704 76.0135C132.926 76.3036 133.147 76.5897 133.34 76.9007C133.342 76.9034 133.698 77.5285 133.506 77.1683C133.314 76.8087 133.629 77.4595 133.631 77.4638C133.76 77.778 133.853 78.0995 133.955 78.4229C134.001 78.5686 134.066 79.0553 133.984 78.5016C134.006 78.6469 134.029 78.7912 134.046 78.9372C134.095 79.3706 134.109 79.8092 134.088 80.2449C134.114 79.7104 134.043 80.4726 134.01 80.6564C133.946 81.0155 133.857 81.3688 133.751 81.7177C133.906 81.2077 133.552 82.1708 133.48 82.3233C133.32 82.6603 133.14 82.9878 132.942 83.3041C133.205 82.8826 132.935 83.3065 132.857 83.4055C132.69 83.6152 132.531 83.8288 132.355 84.0313C132.101 84.3235 131.832 84.6053 131.545 84.8658C131.905 84.5385 131.509 84.8793 131.414 84.9543C131.226 85.1031 131.034 85.2454 130.837 85.3816C130.469 85.6358 130.086 85.8691 129.691 86.0771C130.099 85.8624 129.719 86.059 129.639 86.0912C129.364 86.2012 129.096 86.3211 128.817 86.4211C128.38 86.5779 127.934 86.7081 127.482 86.8129C127.928 86.7097 127.521 86.8055 127.433 86.8172C127.191 86.8494 126.95 86.8873 126.707 86.9105C126.228 86.9561 125.751 86.9651 125.271 86.954C125.723 86.9644 125.33 86.9617 125.236 86.9504C125.005 86.9221 124.774 86.8963 124.545 86.8577C124.092 86.7818 123.647 86.6743 123.208 86.5414C123.311 86.5726 123.639 86.7197 123.195 86.5305C122.989 86.4428 122.78 86.3628 122.577 86.268C122.409 86.1897 122.244 86.1061 122.081 86.0181C121.977 85.9616 121.321 85.538 121.788 85.8639C121.489 85.6555 121.201 85.4327 120.929 85.1903C120.793 85.0694 120.665 84.9414 120.534 84.8152C120.404 84.6805 120.43 84.7139 120.613 84.9153C120.541 84.8334 120.471 84.7496 120.404 84.664C120.162 84.3402 119.939 84.0148 119.723 83.6735C119.462 83.2591 119.681 83.6094 119.726 83.7069C119.599 83.4354 119.489 83.1592 119.386 82.8773C118.926 81.6055 117.407 80.7585 116.095 81.2802C114.806 81.7925 114.004 83.2084 114.498 84.5717C117.004 91.4919 125.458 93.8403 131.784 90.7665C135.092 89.1592 137.63 86.4562 138.76 82.9311C139.777 79.7613 139.218 76.1134 137.236 73.4239C135.24 70.7169 132.049 69.0087 128.711 68.7148C126.779 68.5447 124.881 68.7357 123.028 69.3286C122.487 69.5016 121.954 69.6869 121.407 69.8411C120.648 70.0548 121.695 69.8054 121.236 69.8829C121.035 69.9169 120.833 69.9476 120.63 69.9714C120.231 70.0182 119.829 70.0437 119.428 70.047C119.459 70.0467 118.682 70.0312 119.052 70.0493C119.417 70.0673 118.66 70.0079 118.686 70.0111C118.342 69.9684 118 69.9091 117.661 69.8329C117.513 69.7996 116.6 69.5205 117.088 69.6957C116.667 69.5446 116.256 69.3651 115.86 69.1573C115.703 69.0747 115.047 68.6559 115.47 68.9505C115.171 68.7421 114.882 68.5193 114.61 68.2769C114.502 68.1806 114.401 68.0747 114.292 67.9793C113.776 67.5269 114.57 68.3816 114.154 67.8357C113.932 67.5456 113.711 67.2595 113.518 66.9485C113.516 66.9458 113.16 66.3208 113.352 66.6809C113.544 67.0405 113.229 66.3897 113.227 66.3855C113.098 66.0712 113.005 65.7498 112.903 65.4263C112.857 65.2806 112.792 64.7939 112.874 65.3477C112.852 65.2024 112.829 65.058 112.812 64.9121C112.763 64.4786 112.748 64.04 112.77 63.6043C112.744 64.1388 112.815 63.3766 112.848 63.1928C112.912 62.8337 113.001 62.4804 113.107 62.1316C112.952 62.6416 113.306 61.6784 113.378 61.526C113.538 61.189 113.718 60.8615 113.916 60.5451C113.653 60.9667 113.923 60.5428 114.001 60.4437C114.168 60.2341 114.327 60.0204 114.503 59.8179C114.757 59.5257 115.026 59.2439 115.313 58.9834C114.953 59.3107 115.349 58.97 115.444 58.8949C115.631 58.7461 115.824 58.6038 116.021 58.4676C116.389 58.2134 116.771 57.9802 117.167 57.7722C116.759 57.9868 117.139 57.7903 117.219 57.758C117.494 57.648 117.762 57.5282 118.041 57.4282C118.478 57.2713 118.923 57.1411 119.376 57.0364C118.93 57.1395 119.336 57.0437 119.425 57.032C119.667 56.9999 119.908 56.962 120.151 56.9388C120.63 56.8932 121.107 56.8842 121.587 56.8952C121.135 56.8848 121.528 56.8875 121.621 56.8989C121.853 56.9271 122.083 56.953 122.313 56.9915C122.766 57.0675 123.211 57.175 123.65 57.3078C123.547 57.2766 123.219 57.1296 123.663 57.3187C123.869 57.4064 124.078 57.4865 124.281 57.5812C124.449 57.6596 124.614 57.7432 124.777 57.8312C124.881 57.8876 125.537 58.3113 125.069 57.9854C125.368 58.1938 125.657 58.4166 125.929 58.659C126.065 58.7799 126.193 58.9078 126.324 59.034C126.454 59.1687 126.428 59.1354 126.245 58.9339C126.317 59.0158 126.387 59.0996 126.454 59.1852C126.696 59.509 126.919 59.8345 127.134 60.1757C127.396 60.5902 127.177 60.2398 127.131 60.1423C127.259 60.4138 127.369 60.6901 127.471 60.9719C127.932 62.2437 129.451 63.0907 130.763 62.5691C132.052 62.0567 132.854 60.6408 132.36 59.2775Z" fill="#F953B2"/>
<path d="M119.953 54.0262C119.429 52.5161 118.906 51.0061 118.382 49.496C117.939 48.2174 116.39 47.3822 115.091 47.8988C113.787 48.4172 113.019 49.82 113.494 51.1904C114.017 52.7005 114.54 54.2105 115.064 55.7206C115.507 56.9992 117.056 57.8344 118.355 57.3177C119.659 56.7994 120.428 55.3965 119.953 54.0262Z" fill="#F953B2"/>
<path d="M133.575 93.3318C133.052 91.8217 132.529 90.3117 132.005 88.8016C131.562 87.523 130.013 86.6878 128.714 87.2044C127.41 87.7228 126.642 89.1257 127.117 90.496C127.64 92.0061 128.163 93.5161 128.687 95.0262C129.13 96.3048 130.679 97.14 131.978 96.6233C133.282 96.105 134.05 94.7021 133.575 93.3318Z" fill="#F953B2"/>
<path d="M241.079 40.1248C241.08 40.1258 241.115 40.2141 241.097 40.1636C241.079 40.1121 241.108 40.2053 241.108 40.2052C241.109 40.2089 241.128 40.3024 241.12 40.2426C241.112 40.1829 241.118 40.2778 241.118 40.2818C241.118 40.2646 241.145 40.1959 241.12 40.2521C241.113 40.2681 241.071 40.3634 241.106 40.3014C241.139 40.2412 241 40.4184 241.087 40.3289C241.05 40.3671 241.014 40.405 240.975 40.4412C240.898 40.513 241.017 40.4203 240.923 40.4788C240.819 40.5431 240.715 40.602 240.604 40.653C240.542 40.6814 240.605 40.6532 240.615 40.6488C240.581 40.6628 240.546 40.6762 240.51 40.6892C240.457 40.7087 240.404 40.7271 240.35 40.745C240.233 40.784 240.115 40.8195 239.998 40.8557C239.731 40.9375 239.47 41.028 239.214 41.1409C238.683 41.3755 238.185 41.8482 238.222 42.4757C238.263 43.1812 238.898 43.4959 239.49 43.6912C240.124 43.9002 240.791 43.9221 241.445 43.8169C241.75 43.768 241.947 43.3726 241.856 43.0933C241.749 42.7628 241.459 42.6299 241.133 42.6824C241.061 42.6935 241.053 42.695 241.109 42.6869C241.069 42.6915 241.029 42.6953 240.989 42.6985C240.908 42.7047 240.828 42.7081 240.747 42.7087C240.667 42.7092 240.586 42.7069 240.505 42.7017C240.484 42.7004 240.26 42.6756 240.361 42.6903C240.222 42.6699 240.083 42.6391 239.947 42.601C239.87 42.5791 239.793 42.5546 239.717 42.5273C239.679 42.5136 239.641 42.4993 239.604 42.4843C239.652 42.5047 239.643 42.5005 239.578 42.4716C239.521 42.4435 239.463 42.4167 239.408 42.3841C239.385 42.3712 239.363 42.3572 239.342 42.3422C239.392 42.3816 239.393 42.3786 239.344 42.3332C239.373 42.3733 239.41 42.5356 239.397 42.4253C239.382 42.4972 239.382 42.499 239.397 42.4306C239.418 42.366 239.418 42.3653 239.396 42.4285C239.431 42.3746 239.431 42.3704 239.397 42.416C239.421 42.3883 239.447 42.3622 239.474 42.3376C239.402 42.407 239.519 42.3069 239.534 42.2976C239.598 42.258 239.665 42.2264 239.731 42.1918C239.795 42.1634 239.8 42.1604 239.746 42.1829C239.781 42.1686 239.816 42.1549 239.851 42.1417C240.407 41.9332 241.015 41.8278 241.517 41.4946C241.825 41.2907 242.076 41.0317 242.212 40.685C242.367 40.2895 242.27 39.9002 242.095 39.5309C241.964 39.2518 241.541 39.1581 241.29 39.3198C241.003 39.5049 240.938 39.8263 241.079 40.1248Z" fill="black"/>
<path d="M142.783 99.877C145.193 98.7481 147.603 97.6191 150.013 96.4902C150.358 96.3285 150.703 96.1668 151.048 96.0051C151.48 95.803 151.59 95.1825 151.365 94.7978C151.106 94.3556 150.59 94.2783 150.157 94.4813C147.747 95.6102 145.337 96.7391 142.928 97.8681C142.582 98.0297 142.237 98.1914 141.892 98.3531C141.461 98.5553 141.351 99.1758 141.576 99.5604C141.834 100.003 142.35 100.08 142.783 99.877Z" fill="black"/>
<path d="M144.465 103.967C146.875 102.838 149.285 101.709 151.695 100.58C152.04 100.418 152.385 100.256 152.73 100.095C153.162 99.8925 153.272 99.272 153.047 98.8874C152.788 98.4451 152.273 98.3679 151.84 98.5708C149.43 99.6997 147.02 100.829 144.61 101.958C144.265 102.119 143.92 102.281 143.575 102.443C143.143 102.645 143.033 103.265 143.258 103.65C143.517 104.092 144.032 104.169 144.465 103.967Z" fill="black"/>
<path d="M146.211 107.872C148.621 106.743 151.031 105.614 153.441 104.485C153.786 104.323 154.131 104.162 154.476 104C154.908 103.798 155.018 103.177 154.793 102.793C154.534 102.35 154.019 102.273 153.586 102.476C151.176 103.605 148.766 104.734 146.356 105.863C146.011 106.024 145.666 106.186 145.321 106.348C144.889 106.55 144.779 107.171 145.004 107.555C145.263 107.997 145.778 108.075 146.211 107.872Z" fill="black"/>
<path d="M242.373 53.0629C242.373 53.0629 245.62 53.7457 248.645 52.6556C247.054 54.5932 243.877 55.9214 242.872 55.784C244.518 53.343 242.406 53.1271 242.373 53.0629Z" fill="black"/>
<path d="M242.139 53.9138C244.323 54.3685 246.78 54.2477 248.88 53.5065C248.594 53.0148 248.307 52.5232 248.021 52.0316C247.818 52.2756 247.599 52.5051 247.366 52.7205C247.257 52.8208 247.145 52.9181 247.031 53.0125C246.962 53.0696 246.893 53.1264 246.822 53.1809C246.913 53.1108 246.781 53.2093 246.75 53.2324C246.239 53.6056 245.696 53.9332 245.131 54.2171C245.007 54.2793 244.883 54.3393 244.757 54.3969C244.684 54.4304 244.61 54.463 244.536 54.4951C244.651 54.4453 244.559 54.4855 244.495 54.5109C244.262 54.6029 244.027 54.6889 243.787 54.7608C243.651 54.8015 243.291 54.9604 243.153 54.9109C243.187 54.923 243.377 54.8928 243.216 54.9015C243.179 54.9035 243.141 54.9082 243.104 54.9097C243.026 54.9127 242.949 54.9107 242.872 54.9016L243.634 56.2294C244.242 55.3111 244.751 54.0416 243.994 53.0563C243.787 52.7878 243.521 52.5776 243.212 52.438C243.068 52.373 242.921 52.3136 242.77 52.2664C242.737 52.256 242.704 52.2446 242.67 52.2366C242.66 52.2342 242.649 52.228 242.638 52.2268C242.707 52.2349 242.929 52.3639 242.997 52.439C242.678 52.0847 242.074 52.1144 241.749 52.439C241.397 52.7912 241.429 53.3317 241.749 53.6869C241.913 53.8691 242.151 53.9162 242.371 53.9904C242.41 54.0036 242.45 54.023 242.489 54.0336C242.401 54.0101 242.298 53.935 242.438 54.0164C242.485 54.0439 242.536 54.0814 242.586 54.1034C242.681 54.1461 242.5 54.0496 242.494 54.029C242.5 54.049 242.549 54.0738 242.563 54.0892C242.579 54.1067 242.597 54.1269 242.615 54.1423C242.731 54.2405 242.499 54.086 242.562 54.0676C242.577 54.0631 242.701 54.3308 242.613 54.1385C242.525 53.9457 242.65 54.2445 242.631 54.2425C242.606 54.24 242.626 54.0143 242.615 54.1519C242.612 54.1946 242.614 54.2402 242.614 54.2831C242.614 54.3146 242.591 54.4385 242.615 54.3077C242.642 54.1586 242.603 54.3427 242.595 54.3733C242.584 54.4175 242.572 54.4614 242.558 54.5048C242.558 54.5034 242.486 54.7099 242.524 54.6115C242.559 54.5218 242.493 54.6795 242.485 54.6947C242.453 54.7628 242.418 54.8299 242.382 54.8962C242.298 55.0481 242.206 55.1943 242.11 55.3387C241.938 55.5976 241.957 55.9688 242.11 56.2295C242.281 56.522 242.552 56.629 242.872 56.6665C243.306 56.7175 243.778 56.6011 244.193 56.4811C244.797 56.3067 245.384 56.0562 245.946 55.7786C247.181 55.1694 248.383 54.343 249.269 53.2796C249.523 52.9748 249.618 52.5705 249.407 52.2103C249.22 51.89 248.775 51.676 248.411 51.8047C247.079 52.2749 245.784 52.4265 244.375 52.3857C243.907 52.3722 243.445 52.3274 242.98 52.2771C242.863 52.2644 243.191 52.309 243.04 52.2848C243.004 52.279 242.968 52.2742 242.933 52.2687C242.875 52.2598 242.818 52.2506 242.76 52.2405C242.709 52.2316 242.658 52.2226 242.608 52.2121C242.141 52.115 241.654 52.3483 241.522 52.8284C241.402 53.2659 241.67 53.8162 242.139 53.9138Z" fill="black"/>
<path d="M258.43 50.4908C257.735 53.0939 256.554 55.5749 255.219 57.8973C252.355 62.8816 248.202 67.6693 246 72.9804C243.95 77.9236 248.655 82.4889 253.587 81.025C255.919 80.333 257.831 78.6411 259.367 76.7554C263.265 71.9704 265.06 65.9302 266.219 59.9687C267.392 53.9319 269.232 47.8648 269.408 41.6806C269.563 36.2675 268.436 30.6968 265.418 26.2006C262.4 21.7044 257.323 18.4331 251.908 18.3605C249.157 18.3237 246.448 19.0848 243.916 20.1587C241.724 21.0882 239.581 22.2988 238.071 24.1393C234.618 28.3487 236.316 34.539 242.15 34.7486C244.951 34.8493 248.719 34.0996 251.37 35.3497C253.749 36.4715 253.596 39.2609 253.118 41.4683C252.65 38.2925 256.519 34.557 259.117 37.8271C261.232 40.4898 259.313 44.677 258.972 47.6693C258.862 48.6242 258.677 49.5652 258.43 50.4908Z" fill="black"/>
<path d="M257.579 50.2562C255.97 56.2077 252.064 61.0712 248.754 66.1444C247.928 67.4103 247.135 68.699 246.426 70.0344C245.774 71.2615 245.056 72.5813 244.777 73.9531C244.294 76.3342 245.106 78.8296 246.965 80.4165C248.869 82.0413 251.481 82.5882 253.88 81.8581C256.696 81.0012 258.864 78.8831 260.606 76.5961C264.165 71.9217 265.898 66.1408 267.021 60.4517C268.281 54.0687 270.212 47.7213 270.302 41.1687C270.382 35.3024 268.953 29.2388 265.299 24.5476C262 20.3124 256.814 17.3496 251.358 17.4812C248.223 17.5569 245.15 18.5548 242.344 19.9043C239.943 21.0588 237.586 22.7309 236.348 25.1594C235.429 26.9618 235.112 29.1171 235.74 31.0674C236.38 33.0559 237.898 34.5672 239.871 35.2385C240.991 35.6196 242.183 35.662 243.355 35.6317C244.712 35.5966 246.066 35.4811 247.424 35.5009C248.644 35.5187 249.986 35.6179 251.066 36.182C251.293 36.3003 251.487 36.4291 251.612 36.5456C251.713 36.6397 251.81 36.7369 251.899 36.8426C251.91 36.8558 251.997 36.9753 251.927 36.8772C251.97 36.9376 252.01 37.0002 252.049 37.0636C252.214 37.3321 252.23 37.3741 252.311 37.6209C252.391 37.8653 252.45 38.1181 252.487 38.3725C252.512 38.5436 252.47 38.1645 252.495 38.46C252.5 38.5222 252.506 38.5842 252.51 38.6464C252.518 38.772 252.522 38.8978 252.523 39.0235C252.526 39.2781 252.515 39.5327 252.495 39.7865C252.455 40.2803 252.387 40.6733 252.267 41.2336H253.969C253.987 41.3641 253.962 41.0017 253.962 40.935C253.962 40.7862 253.969 40.6363 253.987 40.4884C253.969 40.6387 253.994 40.4479 254.002 40.4117C254.017 40.338 254.031 40.2643 254.049 40.191C254.087 40.0294 254.135 39.8701 254.191 39.7135C254.34 39.2943 254.688 38.7234 255.01 38.3782C255.11 38.2713 255.215 38.169 255.324 38.0722C255.367 38.034 255.411 37.9963 255.456 37.9601C255.345 38.0497 255.488 37.9372 255.517 37.9176C255.622 37.847 255.727 37.7778 255.838 37.7161C255.91 37.6758 255.984 37.638 256.059 37.6028C256.227 37.5238 255.958 37.6299 256.15 37.5686C256.279 37.5276 256.407 37.4964 256.538 37.4628C256.7 37.4211 256.581 37.4539 256.54 37.4582C256.619 37.45 256.698 37.4449 256.778 37.4439C256.831 37.4432 256.885 37.4441 256.938 37.4468C256.933 37.4466 257.19 37.4776 257.061 37.4564C256.929 37.4348 257.192 37.4896 257.184 37.4877C257.265 37.5082 257.345 37.5328 257.424 37.5613C257.673 37.6517 257.29 37.4829 257.531 37.6116C257.584 37.6399 257.636 37.6684 257.688 37.6994C257.831 37.7852 257.902 37.8383 257.973 37.9014C258.238 38.1342 258.458 38.3868 258.631 38.6651C258.961 39.1949 259.146 39.8557 259.192 40.4344C259.308 41.9031 258.973 43.3051 258.648 44.735C258.466 45.5338 258.275 46.3329 258.158 47.1446C258.007 48.1951 257.85 49.2276 257.579 50.2562C257.289 51.3555 258.991 51.8245 259.281 50.7254C259.415 50.2158 259.534 49.7026 259.63 49.1844C259.683 48.9015 259.728 48.6175 259.768 48.3326C259.793 48.1594 259.816 47.986 259.837 47.8124C259.831 47.8618 259.879 47.4753 259.86 47.6138C259.972 46.802 260.168 46.0024 260.349 45.2042C260.745 43.4669 261.145 41.672 260.893 39.8849C260.652 38.1848 259.623 36.5245 257.973 35.8899C256.548 35.342 255.003 35.9344 253.948 36.9424C252.663 38.1702 252.031 39.9493 252.267 41.7028C252.385 42.5763 253.796 42.5119 253.969 41.7028C254.415 39.6127 254.617 37.0363 252.961 35.3934C252.051 34.4898 250.737 34.0818 249.497 33.8999C248.143 33.7013 246.782 33.7183 245.418 33.7789C244.185 33.8336 242.931 33.9512 241.698 33.8372C241.451 33.8143 241.379 33.8036 241.081 33.74C240.831 33.6865 240.583 33.6193 240.341 33.5368C240.231 33.4994 240.121 33.4594 240.014 33.4153C240.158 33.4744 239.863 33.3433 239.837 33.3304C239.627 33.227 239.423 33.1108 239.227 32.982C239.137 32.9228 239.049 32.861 238.963 32.7965C238.852 32.7135 239.059 32.8753 238.953 32.7868C238.912 32.7529 238.871 32.7192 238.832 32.6845C238.664 32.5384 238.505 32.3821 238.356 32.2163C238.287 32.139 238.22 32.0597 238.156 31.9785C238.259 32.1091 238.094 31.89 238.064 31.8454C237.94 31.6646 237.827 31.4762 237.726 31.2819C237.678 31.1902 237.635 31.0967 237.591 31.0036C237.532 30.8806 237.639 31.1273 237.588 31.0005C237.569 30.9524 237.55 30.9043 237.532 30.8557C237.454 30.6484 237.388 30.4367 237.334 30.2221C237.283 30.0179 237.242 29.8109 237.212 29.6026C237.239 29.7842 237.204 29.4974 237.199 29.4408C237.188 29.3071 237.181 29.173 237.179 29.0389C237.175 28.8352 237.18 28.6313 237.194 28.428C237.202 28.3182 237.213 28.209 237.225 28.0996C237.241 27.9566 237.204 28.2298 237.228 28.0871C237.239 28.0184 237.25 27.9496 237.262 27.881C237.351 27.4034 237.488 26.9357 237.668 26.4846C237.675 26.4655 237.734 26.3305 237.681 26.452C237.705 26.398 237.729 26.3442 237.754 26.2907C237.805 26.1828 237.857 26.076 237.913 25.9705C238.026 25.7555 238.148 25.5457 238.28 25.3418C238.593 24.8572 238.904 24.4882 239.355 24.0367C241.268 22.121 243.93 20.9571 246.473 20.1406C249.116 19.2925 251.918 18.9517 254.623 19.5655C257.014 20.1076 259.264 21.2522 261.153 22.8097C265.346 26.2664 267.621 31.4317 268.296 36.7485C269.075 42.8748 267.753 48.9019 266.415 54.85C265.156 60.4443 264.319 66.1929 261.745 71.3836C260.54 73.8143 259.004 76.1651 256.991 78.0056C256.067 78.8503 254.998 79.5957 253.814 80.0226C253.249 80.2259 252.649 80.3717 252.121 80.4065C251.596 80.4411 251.07 80.4075 250.65 80.321C249.658 80.1167 248.771 79.6786 248.071 79.0436C247.327 78.3682 246.812 77.5578 246.557 76.6206C246.288 75.6329 246.352 74.613 246.71 73.5849C247.157 72.3022 247.845 71.074 248.516 69.8979C251.426 64.8006 255.311 60.3097 257.742 54.9329C258.358 53.5699 258.89 52.1702 259.281 50.7254C259.577 49.6276 257.875 49.1593 257.579 50.2562Z" fill="black"/>
<path d="M273.067 86.6428C280.854 99.5538 289.398 113.244 291.637 128.437C293.734 142.662 288.583 156.368 281.079 168.232C274 179.422 265.431 189.765 260.985 202.421C258.766 208.741 258.005 215.27 259.563 221.841C261.263 229.008 264.615 235.576 268.714 241.646C270.888 244.866 273.191 248 275.279 251.278C277.066 254.084 279.665 257.515 279.277 261.032C278.996 263.578 277.179 265.813 274.791 266.704C271.922 267.773 269.097 266.674 267.103 264.497L267.33 265.356C267.47 264.392 267.869 263.634 268.697 263.085C268.254 262.831 267.812 262.578 267.369 262.324C267.361 268.386 264.329 274.258 259.142 277.487C254.503 280.376 248.772 281.162 243.408 280.584C240.857 280.31 237.682 279.83 235.709 278.04C233.328 275.88 234.453 272.793 235.507 270.266C236.551 267.759 237.448 265.367 237.44 262.611C237.433 259.869 236.76 257.151 235.835 254.585C233.981 249.45 231.114 244.79 228.617 239.96C225.761 234.435 223.712 228.482 222.578 222.365C221.408 216.048 221.26 209.499 222.306 203.153C223.221 197.599 225.075 192.157 227.429 187.051C229.499 182.561 232.087 177.878 236.45 175.263C236.739 175.09 237.187 174.975 237.442 174.777C237.092 175.049 237.341 174.141 237.132 174.999C236.845 176.174 236.62 177.324 236.042 178.405C234.774 180.777 232.805 182.736 230.996 184.695C226.682 189.363 222.957 194.641 219.184 199.748C215.047 205.349 211.027 211.035 207.09 216.778C200.674 226.139 194.064 235.514 188.619 245.484C184.544 252.946 180.582 260.766 174.726 267.025C172.083 269.849 168.936 272.426 165.183 273.577C163.43 274.115 161.61 274.309 159.782 274.153C157.451 273.954 154.145 272.839 153.702 270.145C153.494 268.88 154.27 267.235 155.531 266.792C157.215 266.2 156.026 268.571 155.064 268.899C154.014 269.258 152.666 268.874 151.655 268.561C148.418 267.556 145.431 265.555 142.806 263.458C139.844 261.09 137.078 258.337 134.978 255.166C133.416 252.808 131.76 249.665 132.536 246.744C133.689 242.404 138.976 242.243 142.62 242.001C144.964 241.845 147.417 241.631 149.508 240.462C152.102 239.011 153.436 236.141 154.949 233.716C169.382 210.586 186.166 189.025 203.425 167.958C207.72 162.715 212.049 157.501 216.388 152.295C220.248 147.663 224.224 143.109 227.978 138.39C230.855 134.774 233.504 130.877 234.656 126.34C235.977 121.14 235.2 115.774 233.793 110.679C232.105 104.564 229.499 98.6404 228.686 92.3081C228.501 90.8605 228.416 89.3971 228.453 87.9378C228.491 86.4307 228.412 84.3226 229.171 82.974C229.751 81.943 231.227 81.912 232.04 82.7201C233.149 83.8234 232.455 85.7834 231.35 86.5949C229.8 87.7335 227.391 87.5652 225.59 87.4204C223.264 87.2336 220.966 86.7467 218.701 86.2034C213.777 85.0225 208.84 83.7502 204.119 81.9073C197.812 79.4452 191.967 76.0424 186.544 72.0056C181.076 67.9361 175.935 63.4476 170.477 59.3623C165.365 55.5355 159.959 52.1821 154.737 48.5215C150.734 45.7158 146.254 42.1345 141.172 41.8138C138.701 41.6578 136.47 42.7214 134.454 44.0509C133.274 44.8293 132.17 45.7395 130.959 46.4677C130.383 46.8138 129.751 47.1166 129.108 46.7096C128.284 46.1873 128.372 45.0635 129.111 44.5228C130.014 43.8612 129.248 42.4668 128.22 42.9989C126.73 43.7698 125.4 41.8196 126.783 40.7934C127.68 40.1276 126.923 38.7361 125.892 39.2695C124.402 40.0404 123.073 38.0902 124.455 37.0639C125.351 36.3993 124.593 34.9995 123.565 35.5401C122.647 36.0222 121.487 35.4762 121.574 34.3594C121.662 33.2343 123.354 32.5627 124.202 32.0121C126.017 30.8328 127.809 29.6187 129.615 28.4271C132.892 26.2666 136.176 23.8647 140.107 23.1336C147.22 21.8106 154.972 24.188 161.256 27.4263C168.86 31.3453 175.431 36.9421 182.255 42.0292C189.169 47.1824 196.401 52.1702 204.556 55.1472C208.526 56.5965 212.628 57.2793 216.808 57.7954C221.34 58.3551 225.901 58.6624 230.464 58.8258C234.267 58.9621 238.354 58.5751 241.665 60.7894C242.159 61.1199 242.988 61.639 243.142 62.2672C243.304 62.9273 242.532 64.1958 242.309 62.7271C242.223 62.1561 242.524 61.2426 242.679 60.5029C243.124 58.3736 243.714 56.1847 243.838 54.0055C243.873 53.3961 243.854 52.7481 243.281 52.393C242.845 52.1233 242.19 52.1161 241.704 51.924C241.171 51.7137 240.659 51.4254 240.202 51.0803C236.283 48.1241 236.192 41.8754 237.459 37.6019C238.192 35.1304 239.517 32.8997 241.643 31.3885C244.657 29.246 248.587 28.4056 252.208 29.1891C256.171 30.0467 259.226 32.6356 259.685 36.7982C260.079 40.3613 259.458 44.1529 259.196 47.7166C258.951 51.0485 258.992 54.532 261.333 57.1652C263.676 59.8021 266.905 61.4291 269.873 63.238C273.322 65.3401 275.976 67.9291 278.17 71.3315C280.198 74.4751 281.911 77.9013 283.133 81.439C287.412 93.8175 285.847 108.088 279.084 119.292C271.531 131.806 257.89 138.386 243.575 139.198C227.742 140.096 212.377 134.859 198.397 127.864C190.422 123.874 182.777 119.264 175.238 114.512C171.766 112.324 168.373 109.83 164.7 107.988C161.484 106.376 157.857 105.542 154.369 106.795C152.552 107.447 150.902 108.463 149.215 109.385C148.463 109.796 147.495 110.516 146.624 110.031C145.617 109.471 145.881 108.206 146.756 107.697C147.591 107.212 147.033 105.711 146.076 106.085C144.426 106.729 143.229 104.691 144.833 103.744C145.663 103.254 145.113 101.757 144.153 102.131C142.504 102.775 141.306 100.738 142.91 99.7906C143.739 99.3015 143.188 97.7969 142.23 98.1778C140.379 98.9145 139.511 96.6553 141.192 95.7379C141.647 95.4892 142.131 95.2812 142.598 95.0542C144.631 94.065 146.665 93.0758 148.699 92.0866C152.01 90.4763 155.321 88.866 158.631 87.2556C159.257 86.9514 159.151 86.0627 158.631 85.7317C157.839 85.2268 157.046 84.7219 156.253 84.2169C155.942 84.0187 155.604 83.8366 155.309 83.6155C154.951 83.3479 154.685 83.0415 154.541 82.6109C154.258 81.7662 154.505 81.6457 155.248 81.359C158.945 79.9323 163.388 81.7394 166.746 83.3156C170.848 85.2412 174.49 87.951 178.117 90.6342C181.989 93.498 185.985 96.1664 190.094 98.6786C198.333 103.716 207.13 108.049 216.589 110.218C225.608 112.285 235.64 112.468 244.37 109.055C248.486 107.445 252.352 104.896 254.725 101.081C257.146 97.1893 257.612 92.2045 255.416 88.1152C254.879 87.1143 253.354 88.0045 253.892 89.006C256.093 93.104 255.046 98.1123 252.188 101.612C249.323 105.119 245.119 107.172 240.833 108.374C231.327 111.04 221.145 110.04 211.836 107.087C202.387 104.09 193.748 99.085 185.502 93.6691C178.208 88.8783 171.614 82.637 163.122 79.9918C161.058 79.3488 158.839 78.9341 156.676 79.2127C155.708 79.3374 154.77 79.5973 153.896 80.0377C152.924 80.5279 152.617 81.1564 152.674 82.2549C152.808 84.8237 155.863 86.06 157.741 87.2556V85.7317C154.849 87.138 151.958 88.5444 149.066 89.9508C146.119 91.3841 143.017 92.6647 140.164 94.2804C136.827 96.1705 139.073 101.322 142.7 99.8795C142.473 99.3419 142.246 98.8043 142.02 98.2667C138.738 100.203 141.015 105.241 144.622 103.833C144.396 103.295 144.169 102.758 143.943 102.22C140.661 104.157 142.938 109.195 146.545 107.786C146.319 107.249 146.092 106.711 145.865 106.173C142.938 107.876 144.346 112.475 147.809 111.917C149.71 111.61 151.54 110.046 153.242 109.197C155.447 108.098 157.725 107.639 160.16 108.171C164.372 109.091 168.026 112.025 171.596 114.294C175.891 117.023 180.204 119.725 184.588 122.309C199.805 131.278 216.345 139.265 234.181 140.804C249.73 142.146 266.287 137.99 276.674 125.669C285.83 114.809 289.229 99.5591 286.182 85.7513C285.39 82.1661 284.118 78.7373 282.497 75.4474C280.631 71.6596 278.37 67.8073 275.222 64.9333C272.306 62.2709 268.647 60.6906 265.448 58.4273C263.814 57.2707 262.074 55.8418 261.376 53.9021C260.712 52.0577 260.802 50.026 260.933 48.1019C261.2 44.1756 261.935 39.9934 261.36 36.0788C260.774 32.0939 258.074 29.3015 254.35 27.9639C247.986 25.6782 239.898 28.2375 236.814 34.4405C234.527 39.0406 234.121 45.3726 236.844 49.8898C237.461 50.9138 238.257 51.8259 239.219 52.5381C239.708 52.8997 240.226 53.1973 240.783 53.4406C241.048 53.5562 241.316 53.6631 241.591 53.7523C241.693 53.7855 241.959 53.8974 242.085 53.8941C242.727 53.8774 241.709 54.0823 242.091 53.5478C242.014 53.6546 242.046 54.3278 242.021 54.5366C241.947 55.1489 241.832 55.7577 241.72 56.3637C241.478 57.6651 241.2 58.9594 240.93 60.2551C240.762 61.0615 240.53 61.8969 240.545 62.727C240.568 64.0448 241.517 65.5964 243.036 65.1981C244.211 64.8901 245.041 63.4245 244.93 62.2623C244.792 60.8181 243.409 59.7888 242.275 59.0869C238.781 56.9248 234.665 57.2062 230.713 57.0695C225.566 56.8915 220.417 56.539 215.314 55.8362C210.526 55.1769 205.982 54.0316 201.567 52.0309C197.185 50.0448 193.08 47.5113 189.117 44.7948C181.257 39.4067 174.086 33.0014 165.938 28.0379C159.092 23.8678 151.052 20.7255 142.907 21.0653C138.851 21.2345 135.56 22.5842 132.151 24.7002C130.11 25.9663 128.116 27.3047 126.118 28.6354C125.118 29.3009 124.118 29.9654 123.11 30.6183C122.25 31.1756 121.187 31.6573 120.524 32.4582C118.279 35.1722 121.511 38.6117 124.455 37.0639C124.158 36.556 123.862 36.048 123.565 35.5401C120.389 37.8969 123.235 42.629 126.783 40.7934C126.486 40.2854 126.189 39.7774 125.892 39.2695C122.717 41.6263 125.563 46.3584 129.111 44.5228C128.814 44.0148 128.517 43.5069 128.22 42.9989C126.286 44.4152 126.223 47.5353 128.705 48.4621C129.831 48.8827 130.867 48.6043 131.849 47.9916C133.291 47.0924 134.608 46.0057 136.058 45.1182C138.877 43.3937 141.479 43.22 144.533 44.4083C147.251 45.4656 149.709 47.1547 152.09 48.8124C157.709 52.7259 163.503 56.3631 169.003 60.4511C175.054 64.9477 180.704 69.9602 186.811 74.3802C197.018 81.7678 208.812 86.132 221.118 88.5391C224.801 89.2596 231.26 90.5898 233.655 86.6267C234.928 84.5204 234.412 81.5166 231.923 80.6299C229.479 79.7593 227.617 81.3202 227.145 83.6584C225.784 90.4055 227.638 97.1665 229.712 103.555C231.727 109.767 234.113 116.188 233.486 122.831C232.982 128.169 230.199 132.742 226.949 136.865C222.899 142.004 218.565 146.935 214.377 151.962C195.2 174.981 176.175 198.237 159.6 223.233C157.586 226.271 155.609 229.333 153.677 232.423C151.901 235.261 150.456 238.579 146.998 239.601C142.26 241 136.26 239.317 132.501 243.322C127.178 248.992 133.867 257.407 137.984 261.514C140.866 264.389 144.178 266.983 147.809 268.845C150.201 270.072 154.233 271.929 156.717 269.967C158.054 268.911 159.217 265.459 156.736 264.972C154.332 264.499 152.322 266.784 151.974 268.963C151.093 274.484 158.282 276.294 162.411 275.909C171.333 275.077 177.634 267.133 182.185 260.177C184.788 256.198 187.069 252.022 189.34 247.849C191.613 243.671 194.025 239.653 196.62 235.666C204.932 222.897 213.481 210.274 222.614 198.076C225.023 194.859 227.45 191.646 229.973 188.518C231.749 186.316 233.824 184.376 235.591 182.166C237.214 180.136 238.48 177.953 238.852 175.339C239.075 173.766 238.27 172.603 236.615 173.203C234.515 173.963 232.588 175.796 231.176 177.466C229.307 179.677 227.832 182.2 226.557 184.79C223.925 190.136 221.83 195.927 220.758 201.793C218.334 215.067 220.933 228.926 227.093 240.851C229.927 246.336 233.357 251.65 234.959 257.673C235.734 260.585 236.013 263.665 235.075 266.574C234.17 269.382 232.298 272.142 232.505 275.205C232.912 281.248 240.743 282.317 245.468 282.501C251.173 282.722 257.178 281.378 261.74 277.812C266.457 274.125 269.125 268.275 269.134 262.323C269.135 261.683 268.373 261.186 267.806 261.562C266.745 262.264 265.448 263.709 265.597 265.121C265.716 266.252 267.574 267.371 268.478 267.862C270.638 269.035 273.221 269.215 275.511 268.309C280.429 266.363 282.274 260.824 280.084 256.151C276.852 249.257 271.722 243.415 267.776 236.944C263.671 230.215 260.234 221.978 260.443 213.97C260.629 206.819 263.494 199.924 266.799 193.691C270.145 187.382 274.184 181.477 278.239 175.61C286.566 163.56 293.829 150.358 293.881 135.306C293.938 119.277 285.659 104.336 277.701 90.9364C276.672 89.2037 275.632 87.4777 274.591 85.7521C274.005 84.7807 272.479 85.6668 273.067 86.6428Z" fill="black"/>
<path d="M124.338 37.1633C126.616 35.7873 128.893 34.4114 131.171 33.0354C131.498 32.8384 131.824 32.6413 132.15 32.4443C133.121 31.8578 132.235 30.3311 131.259 30.9204C128.981 32.2963 126.703 33.6723 124.426 35.0482C124.099 35.2453 123.773 35.4423 123.447 35.6394C122.476 36.2259 123.362 37.7526 124.338 37.1633Z" fill="black"/>
<path d="M126.44 41.0533C128.718 39.6774 130.996 38.3014 133.274 36.9255C133.6 36.7285 133.927 36.5314 134.253 36.3344C135.224 35.7479 134.338 34.2212 133.362 34.8105C131.084 36.1864 128.806 37.5624 126.528 38.9383C126.202 39.1353 125.876 39.3324 125.55 39.5294C124.579 40.1159 125.465 41.6426 126.44 41.0533Z" fill="black"/>
<path d="M128.587 44.7535C130.865 43.3775 133.143 42.0016 135.421 40.6256C135.747 40.4286 136.073 40.2315 136.4 40.0345C137.371 39.448 136.485 37.9213 135.509 38.5106C133.231 39.8866 130.953 41.2625 128.675 42.6384C128.349 42.8355 128.023 43.0325 127.696 43.2296C126.725 43.8161 127.612 45.3428 128.587 44.7535Z" fill="black"/>
<path d="M243.95 47.2118C245.328 47.0775 246.547 46.3804 247.363 45.2634C247.545 45.014 247.413 44.5966 247.152 44.4585C246.846 44.2968 246.542 44.4034 246.347 44.6696C246.337 44.6832 246.26 44.7839 246.313 44.7173C246.361 44.657 246.298 44.7344 246.289 44.7453C246.246 44.7971 246.202 44.8478 246.157 44.8974C246.066 44.9965 245.971 45.0909 245.871 45.1804C245.821 45.2251 245.77 45.2686 245.718 45.3108C245.7 45.325 245.683 45.3389 245.665 45.3527L245.713 45.3151C245.705 45.3331 245.657 45.3561 245.641 45.3679C245.525 45.4504 245.406 45.5269 245.283 45.5971C245.166 45.6637 245.046 45.7246 244.924 45.7795C244.91 45.7856 244.818 45.8222 244.891 45.794C244.973 45.7629 244.853 45.808 244.837 45.8142C244.774 45.8379 244.711 45.8601 244.647 45.8807C244.519 45.9219 244.389 45.9568 244.258 45.9851C244.192 45.9992 244.126 46.0103 244.06 46.0224C243.968 46.0394 244.068 46.008 244.084 46.0206C244.075 46.0138 243.963 46.034 243.95 46.0352C243.645 46.065 243.347 46.2845 243.362 46.6235C243.375 46.9166 243.622 47.2438 243.95 47.2118Z" fill="black"/>
<path d="M139.43 25.4851C138.976 26.0514 138.521 26.6177 138.067 27.184C137.581 27.7898 137.026 28.3831 136.603 29.0372C135.725 30.3952 136.024 32.3238 137.275 33.3482C138.615 34.4457 140.68 34.3948 141.866 33.0711C142.491 32.3736 143.015 31.596 143.667 30.9173C143.935 30.638 144.267 30.3127 144.54 30.1039C144.624 30.0391 144.812 29.913 144.946 29.8387C145.006 29.8057 145.066 29.7729 145.128 29.7457C144.948 29.8245 145.222 29.7271 145.262 29.718C146.367 29.4596 145.899 27.7575 144.793 28.0162C144.133 28.1704 143.564 28.6102 143.064 29.0475C142.51 29.5328 142.016 30.0871 141.547 30.6534C141.133 31.153 140.743 31.8432 140.238 32.1458C139.79 32.4147 139.246 32.4568 138.776 32.2371C138.307 32.0173 138.032 31.6499 137.915 31.229C137.895 31.1535 137.876 31.0766 137.864 30.9991C137.838 30.8339 137.864 31.1945 137.859 30.9057C137.857 30.7799 137.854 30.6522 137.873 30.5273C137.849 30.6858 137.916 30.381 137.914 30.3868C137.931 30.3252 137.95 30.2621 137.973 30.2026C137.937 30.2964 137.999 30.1497 138.002 30.144C138.054 30.0382 138.124 29.9451 138.184 29.8439C138.271 29.6952 138.088 29.9622 138.155 29.8775C138.178 29.8493 138.2 29.8212 138.223 29.7933C138.31 29.6853 138.397 29.5765 138.484 29.4681C138.745 29.142 139.007 28.8158 139.269 28.4897C139.738 27.9041 140.208 27.3186 140.678 26.7331C140.976 26.3617 141.041 25.848 140.678 25.4851C140.369 25.1765 139.73 25.1115 139.43 25.4851Z" fill="black"/>
<path d="M8 257.75C8 267.389 26.6123 275.202 49.5716 275.202C72.531 275.202 91.1433 267.389 91.1433 257.75V248.73H8V257.75Z" fill="#F953B2"/>
<path d="M49.5716 266.182C72.531 266.182 91.1433 258.369 91.1433 248.73C91.1433 239.091 72.531 231.278 49.5716 231.278C26.6123 231.278 8 239.091 8 248.73C8 258.369 26.6123 266.182 49.5716 266.182Z" fill="#F4D13B"/>
<path d="M8 240.298C8 249.937 26.6123 257.75 49.5716 257.75C72.531 257.75 91.1433 249.937 91.1433 240.298V231.278H8V240.298Z" fill="#F953B2"/>
<path d="M49.5716 248.73C72.531 248.73 91.1433 240.916 91.1433 231.278C91.1433 221.639 72.531 213.825 49.5716 213.825C26.6123 213.825 8 221.639 8 231.278C8 240.916 26.6123 248.73 49.5716 248.73Z" fill="#F4D13B"/>
<path d="M8 223.434C8 233.073 26.6123 240.886 49.5716 240.886C72.531 240.886 91.1433 233.073 91.1433 223.434V214.414H8V223.434Z" fill="#F953B2"/>
<path d="M49.5716 231.866C72.531 231.866 91.1433 224.052 91.1433 214.414C91.1433 204.775 72.531 196.961 49.5716 196.961C26.6123 196.961 8 204.775 8 214.414C8 224.052 26.6123 231.866 49.5716 231.866Z" fill="#F4D13B"/>
<path d="M8 205.982C8 215.62 26.6123 223.434 49.5716 223.434C72.531 223.434 91.1433 215.62 91.1433 205.982V196.961H8V205.982Z" fill="#F953B2"/>
<path d="M49.5716 214.414C72.531 214.414 91.1433 206.6 91.1433 196.961C91.1433 187.323 72.531 179.509 49.5716 179.509C26.6123 179.509 8 187.323 8 196.961C8 206.6 26.6123 214.414 49.5716 214.414Z" fill="#F4D13B"/>
<path d="M8 189.706C8 199.345 26.6123 207.158 49.5716 207.158C72.531 207.158 91.1433 199.345 91.1433 189.706V180.686H8V189.706Z" fill="#F953B2"/>
<path d="M49.5716 198.138C72.531 198.138 91.1433 190.324 91.1433 180.686C91.1433 171.047 72.531 163.234 49.5716 163.234C26.6123 163.234 8 171.047 8 180.686C8 190.324 26.6123 198.138 49.5716 198.138Z" fill="#F4D13B"/>
<path d="M8 172.254C8 181.892 26.6123 189.706 49.5716 189.706C72.531 189.706 91.1433 181.892 91.1433 172.254V163.234H8V172.254Z" fill="#F953B2"/>
<path d="M49.5716 180.686C72.531 180.686 91.1433 172.872 91.1433 163.234C91.1433 153.595 72.531 145.781 49.5716 145.781C26.6123 145.781 8 153.595 8 163.234C8 172.872 26.6123 180.686 49.5716 180.686Z" fill="#F4D13B"/>
<path d="M146.789 245.865C147.566 247.851 149.695 248.904 151.766 248.533C153.868 248.158 155.134 246.027 154.892 243.986C154.746 242.751 154.18 241.7 153.173 240.96C153.025 241.508 152.876 242.056 152.728 242.604C154.882 242.792 156.93 241.333 157.6 239.311C157.75 238.859 157.427 238.347 156.984 238.225C156.504 238.093 156.049 238.388 155.898 238.842C155.462 240.157 154.083 240.957 152.728 240.839C152.347 240.806 151.973 241.137 151.877 241.487C151.766 241.891 151.964 242.249 152.283 242.484C152.195 242.419 152.428 242.614 152.453 242.639C152.476 242.662 152.686 242.897 152.611 242.801C152.757 242.988 152.881 243.206 152.972 243.424C152.917 243.293 153.008 243.542 153.012 243.553C153.049 243.669 153.08 243.786 153.106 243.905C153.118 243.965 153.13 244.025 153.139 244.085C153.13 244.001 153.131 244.014 153.143 244.123C153.153 244.244 153.159 244.367 153.158 244.489C153.158 244.596 153.152 244.702 153.143 244.809C153.136 244.872 153.138 244.87 153.148 244.802C153.139 244.862 153.128 244.922 153.116 244.982C153.092 245.101 153.062 245.218 153.027 245.334C153.017 245.366 152.902 245.664 152.954 245.547C152.869 245.737 152.763 245.924 152.636 246.09C152.709 245.994 152.504 246.231 152.48 246.255C152.455 246.28 152.222 246.479 152.311 246.412C151.946 246.683 151.702 246.78 151.209 246.846C151.369 246.825 151.031 246.852 150.999 246.852C150.879 246.855 150.76 246.849 150.64 246.842C150.437 246.829 150.701 246.86 150.517 246.828C150.399 246.807 150.281 246.781 150.165 246.749C150.049 246.717 149.934 246.68 149.821 246.637C149.722 246.599 149.709 246.593 149.783 246.621C149.728 246.596 149.674 246.57 149.621 246.542C149.515 246.487 149.411 246.426 149.311 246.36C149.311 246.361 149.092 246.201 149.201 246.288C149.108 246.214 149.021 246.133 148.937 246.049C148.915 246.026 148.706 245.787 148.786 245.891C148.714 245.797 148.65 245.695 148.592 245.593C148.575 245.563 148.444 245.277 148.491 245.396C148.317 244.952 147.899 244.644 147.405 244.78C146.982 244.896 146.615 245.419 146.789 245.865Z" fill="black"/>
<path d="M239.375 254.078C240.44 253.383 242.023 253.734 242.64 254.894C243.204 255.955 242.496 257.586 241.338 257.967C240.403 258.274 240.553 259.679 241.572 259.7C242.872 259.728 244.185 260.889 244.26 262.196C244.341 263.595 243.285 264.867 241.87 265.11C241.4 265.19 241.136 265.769 241.254 266.195C241.39 266.693 241.868 266.892 242.339 266.812C244.474 266.446 246.216 264.27 246.017 262.091C245.81 259.823 243.856 257.983 241.572 257.936C241.65 258.513 241.729 259.091 241.807 259.669C244.044 258.934 245.252 256.226 244.207 254.088C243.216 252.063 240.352 251.335 238.485 252.554C238.086 252.814 237.919 253.335 238.168 253.761C238.4 254.157 238.975 254.339 239.375 254.078Z" fill="black"/>
<path d="M248.598 77.2945C246.867 77.2314 245.095 77.8959 243.93 79.1766C242.765 80.4574 242.272 82.3551 242.792 84.0066C243.313 85.6581 244.884 86.9597 246.613 87.0413C248.114 87.1122 249.525 86.3356 250.725 85.4315C251.722 84.6804 252.654 83.8056 253.264 82.7164C253.874 81.6272 254.131 80.2963 253.745 79.1093" fill="black"/>
<path d="M248.598 76.4121C246.562 76.3573 244.424 77.1684 243.118 78.7719C241.834 80.3498 241.282 82.6086 242.051 84.5466C242.787 86.4003 244.496 87.7626 246.505 87.9171C248.66 88.0828 250.688 86.7115 252.222 85.3436C254.016 83.7429 255.344 81.3213 254.596 78.8747C254.264 77.7917 252.56 78.2535 252.894 79.3438C253.388 80.9588 252.55 82.5357 251.428 83.666C250.332 84.7705 248.825 85.9419 247.233 86.1413C245.868 86.3124 244.573 85.5565 243.898 84.3538C243.192 83.096 243.4 81.481 244.198 80.2612C245.145 78.8144 246.919 78.1318 248.598 78.177C249.734 78.2075 249.733 76.4427 248.598 76.4121Z" fill="black"/>
<path d="M8 154.802C8 164.44 26.6123 172.254 49.5716 172.254C72.531 172.254 91.1433 164.44 91.1433 154.802V145.781H8V154.802Z" fill="#F953B2"/>
<path d="M49.5716 163.234C72.531 163.234 91.1433 155.42 91.1433 145.781C91.1433 136.143 72.531 128.329 49.5716 128.329C26.6123 128.329 8 136.143 8 145.781C8 155.42 26.6123 163.234 49.5716 163.234Z" fill="#F4D13B"/>
<path d="M49.5716 158.92C66.8557 158.92 80.8672 153.037 80.8672 145.781C80.8672 138.525 66.8557 132.643 49.5716 132.643C32.2876 132.643 18.2761 138.525 18.2761 145.781C18.2761 153.037 32.2876 158.92 49.5716 158.92Z" fill="white"/>
<path d="M41.3934 139.378C34.0339 139.351 29.0189 142.268 29.8245 145.145C30.2457 146.649 31.956 148.013 34.9078 148.954C37.5619 149.8 41.1888 150.108 44.383 149.731C47.5979 149.351 50.2665 148.367 51.649 147.124C52.4493 146.405 52.8974 145.647 52.9517 144.848C52.9675 144.615 52.9691 144.383 53.0049 144.15C53.0545 143.828 52.9431 144.266 53.0219 144.079C53.0565 143.996 53.0944 143.914 53.1391 143.832C53.2271 143.672 53.336 143.514 53.4658 143.359C53.4557 143.371 53.7277 143.074 53.5881 143.214C53.4502 143.352 53.7568 143.069 53.7454 143.078C53.8997 142.952 54.0688 142.829 54.2528 142.709C54.3332 142.657 54.8992 142.345 54.5722 142.508C54.854 142.368 55.1595 142.236 55.4866 142.113C55.6167 142.064 56.2289 141.872 55.8109 141.992C56.1067 141.907 56.4123 141.828 56.7312 141.758C56.858 141.73 56.9912 141.706 57.1174 141.678C57.7152 141.544 56.6456 141.728 57.2987 141.645C57.6457 141.602 57.9891 141.557 58.3462 141.528C58.3493 141.528 59.057 141.48 58.6536 141.503C58.2508 141.525 58.9692 141.497 58.9738 141.497C59.3129 141.492 59.6473 141.502 59.9861 141.509C60.1388 141.513 60.6197 141.557 60.07 141.509C60.2142 141.522 60.3582 141.534 60.5014 141.548C60.9267 141.591 61.3454 141.649 61.7494 141.72C61.2538 141.633 61.9492 141.77 62.1118 141.809C62.4295 141.885 62.7334 141.97 63.0275 142.06C62.5976 141.928 63.3892 142.202 63.509 142.252C63.774 142.362 64.0234 142.478 64.2564 142.6C63.9459 142.438 64.2565 142.602 64.3238 142.647C64.4665 142.741 64.6153 142.833 64.7482 142.93C64.9398 143.069 65.1165 143.214 65.2674 143.361C65.0779 143.176 65.2682 143.377 65.3077 143.424C65.3858 143.518 65.4564 143.612 65.5197 143.708C65.6377 143.886 65.7311 144.067 65.7963 144.249C65.729 144.061 65.7887 144.235 65.7925 144.271C65.8054 144.392 65.8295 144.513 65.8315 144.635C65.8348 144.825 65.8103 145.015 65.7593 145.205C65.8095 145.018 65.7654 145.188 65.7472 145.224C65.6973 145.322 65.6533 145.42 65.5947 145.517C65.4793 145.708 65.3298 145.893 65.1604 146.076C65.3197 145.904 65.187 146.055 65.1455 146.089C65.0423 146.174 64.9414 146.259 64.829 146.342C64.6075 146.505 64.3587 146.661 64.0879 146.811C64.1515 146.776 64.3989 146.671 64.0734 146.815C63.9224 146.881 63.7778 146.95 63.6211 147.015C63.4915 147.068 63.358 147.12 63.221 147.17C63.1332 147.202 62.5162 147.394 62.9786 147.261C62.683 147.346 62.3772 147.425 62.0583 147.495C61.8993 147.53 61.7362 147.561 61.5739 147.593C61.4036 147.624 61.4438 147.619 61.6943 147.577C61.5932 147.593 61.4911 147.608 61.3881 147.622C61.0025 147.668 60.6215 147.707 60.2281 147.742C59.7504 147.783 60.1535 147.749 60.2606 147.745C59.9623 147.755 59.665 147.758 59.3653 147.757C58.0128 147.752 56.7106 148.215 56.7684 148.795C56.8251 149.365 57.8954 149.877 59.3453 149.882C66.7048 149.91 71.7198 146.992 70.9142 144.115C70.493 142.611 68.7827 141.247 65.831 140.306C63.1768 139.46 59.5499 139.152 56.3557 139.529C53.1409 139.909 50.4722 140.893 49.0897 142.136C48.2894 142.856 47.8414 143.614 47.7871 144.412C47.7712 144.645 47.7696 144.877 47.7339 145.11C47.6843 145.433 47.7957 144.994 47.7168 145.182C47.6822 145.264 47.6444 145.346 47.5996 145.428C47.5117 145.588 47.4027 145.746 47.2729 145.901C47.283 145.889 47.011 146.186 47.1507 146.046C47.2886 145.908 46.9819 146.191 46.9933 146.182C46.839 146.308 46.6699 146.431 46.4859 146.551C46.4056 146.603 45.8396 146.915 46.1665 146.752C45.8847 146.892 45.5792 147.025 45.2521 147.147C45.122 147.196 44.5098 147.388 44.9278 147.268C44.6321 147.353 44.3264 147.432 44.0075 147.502C43.8807 147.53 43.7475 147.554 43.6214 147.582C43.0235 147.716 44.0931 147.533 43.4401 147.615C43.093 147.658 42.7497 147.703 42.3925 147.732C42.3894 147.733 41.6817 147.78 42.0851 147.758C42.4879 147.735 41.7696 147.763 41.765 147.763C41.4258 147.768 41.0915 147.758 40.7526 147.751C40.6 147.747 40.1191 147.703 40.6687 147.751C40.5245 147.738 40.3805 147.726 40.2373 147.712C39.812 147.669 39.3934 147.611 38.9893 147.541C39.4849 147.627 38.7895 147.491 38.6269 147.452C38.3093 147.375 38.0053 147.291 37.7112 147.2C38.1411 147.333 37.3495 147.058 37.2297 147.008C36.9648 146.899 36.7154 146.782 36.4824 146.661C36.7929 146.823 36.4823 146.658 36.4149 146.613C36.2722 146.519 36.1234 146.427 35.9906 146.33C35.7989 146.191 35.6222 146.047 35.4713 145.899C35.6609 146.085 35.4705 145.883 35.431 145.836C35.3529 145.742 35.2823 145.648 35.2191 145.552C35.101 145.374 35.0076 145.194 34.9424 145.011C35.0097 145.199 34.95 145.025 34.9462 144.989C34.9333 144.868 34.9093 144.747 34.9072 144.626C34.9039 144.435 34.9285 144.245 34.9794 144.056C34.9292 144.242 34.9733 144.072 34.9915 144.036C35.0414 143.938 35.0854 143.84 35.1441 143.743C35.2594 143.552 35.4089 143.367 35.5783 143.184C35.4191 143.356 35.5517 143.205 35.5933 143.171C35.6964 143.086 35.7973 143.001 35.9098 142.918C36.1312 142.755 36.3801 142.599 36.6508 142.449C36.5872 142.484 36.3398 142.589 36.6653 142.446C36.8164 142.379 36.961 142.31 37.1177 142.245C37.2472 142.192 37.3807 142.14 37.5177 142.09C37.6056 142.058 38.2225 141.866 37.7601 142C38.0558 141.914 38.3615 141.835 38.6804 141.765C38.8395 141.73 39.0025 141.699 39.1649 141.667C39.3351 141.636 39.295 141.642 39.0445 141.683C39.1455 141.667 39.2476 141.652 39.3506 141.639C39.7363 141.592 40.1172 141.553 40.5106 141.519C40.9884 141.477 40.5853 141.511 40.4781 141.515C40.7765 141.505 41.0737 141.502 41.3734 141.503C42.726 141.508 44.0281 141.045 43.9704 140.465C43.9137 139.895 42.8433 139.383 41.3934 139.378Z" fill="#F953B2"/>
<path d="M32.3302 143.402C30.7321 143.387 29.134 143.372 27.5359 143.357C26.1827 143.344 24.8818 143.82 24.939 144.395C24.9963 144.971 26.0656 145.468 27.5159 145.482C29.114 145.497 30.7121 145.512 32.3102 145.527C33.6633 145.54 34.9643 145.063 34.9071 144.489C34.8497 143.912 33.7804 143.416 32.3302 143.402Z" fill="#F953B2"/>
<path d="M73.9278 143.794C72.3297 143.779 70.7316 143.764 69.1335 143.748C67.7803 143.736 66.4794 144.212 66.5366 144.787C66.5939 145.363 67.6632 145.86 69.1135 145.874C70.7116 145.889 72.3097 145.904 73.9078 145.919C75.2609 145.932 76.5619 145.455 76.5047 144.881C76.4473 144.304 75.3781 143.807 73.9278 143.794Z" fill="#F953B2"/>
<path d="M74.2793 26.4589C74.2793 33.6978 69.4048 39.7942 62.7604 41.6561C69.4048 43.5179 74.2793 49.6143 74.2793 56.8532C74.2793 49.6143 79.1538 43.5179 85.7982 41.6561C79.1538 39.7942 74.2793 33.6978 74.2793 26.4589Z" fill="#6966ED"/>
<path d="M59.7744 56.6572C59.7744 62.0513 56.1421 66.5942 51.191 67.9815C56.1421 69.3689 59.7744 73.9117 59.7744 79.3059C59.7744 73.9117 63.4067 69.3689 68.3578 67.9815C63.4067 66.5942 59.7744 62.0513 59.7744 56.6572Z" fill="#6966ED"/>
<path d="M115.354 135.708C115.784 133.703 116.214 131.698 116.643 129.693C116.743 129.228 116.505 128.739 116.027 128.608C115.587 128.487 115.042 128.756 114.942 129.224C114.512 131.229 114.082 133.234 113.653 135.239C113.553 135.705 113.791 136.193 114.269 136.325C114.709 136.445 115.254 136.176 115.354 135.708Z" fill="#6966ED"/>
<path d="M129.55 130.552C129.836 131.268 130.123 131.985 130.409 132.701C130.498 132.922 130.601 133.103 130.815 133.228C131.004 133.339 131.282 133.386 131.495 133.317C131.708 133.248 131.914 133.116 132.022 132.911C132.126 132.715 132.197 132.447 132.111 132.231C131.824 131.515 131.538 130.799 131.252 130.083C131.163 129.862 131.06 129.681 130.846 129.556C130.657 129.445 130.378 129.398 130.166 129.467C129.953 129.536 129.747 129.668 129.639 129.872C129.535 130.069 129.463 130.336 129.55 130.552Z" fill="#6966ED"/>
<path d="M137.835 124.293C139.264 126.157 140.693 128.022 142.122 129.886C142.402 130.251 142.895 130.483 143.33 130.202C143.69 129.97 143.947 129.387 143.646 128.995C142.217 127.131 140.788 125.267 139.359 123.403C139.079 123.038 138.586 122.806 138.151 123.086C137.791 123.319 137.534 123.902 137.835 124.293Z" fill="#6966ED"/>
</svg>
